<svg xmlns="http://www.w3.org/2000/svg" xmlns:xlink="http://www.w3.org/1999/xlink" xmlns:inkscape="http://www.inkscape.org/namespaces/inkscape" version="1.1" width="842" height="595" viewBox="0 0 842 595">
<path transform="matrix(.8788343,0,0,-.87836286,0,595.01998)" stroke-width=".8064516" stroke-linecap="round" stroke-linejoin="round" fill="none" stroke="#000000" d="M31.851294 338.5608C36.190126 317.75605 40.528959 296.95133 51.386327 279.4052 56.69836 270.82069 63.570745 263.01615 71.20469 256.2485 77.46623 250.69753 84.24013 245.84412 91.08601 241.09157 97.61801 236.55693 104.21555 232.11414 110.983089 227.93457 117.45888 223.93518 124.090328 220.17684 130.89589 216.7775 137.43498 213.51128 144.13483 210.5765 150.82444 207.62038 164.0814 201.76215 177.29814 195.82006 190.6894 190.30609 210.37953 182.19852 230.44696 175.01654 250.5144 167.83455"/>
<path transform="matrix(.8788343,0,0,-.87836286,0,595.01998)" stroke-width=".8064516" stroke-linecap="round" stroke-linejoin="round" fill="none" stroke="#000000" d="M31.851294 338.5608C36.180597 359.3675 40.5099 380.17424 51.359235 397.7253 56.667337 406.31227 63.536146 414.11994 71.16699 420.89109 77.42599 426.44493 84.19766 431.30143 91.041378 436.05714 97.5713 440.59474 104.166797 445.04057 110.93241 449.22325 117.40638 453.2256 124.0361 456.98698 130.8401 460.3894 137.37772 463.65864 144.07622 466.59648 150.76447 469.55567 164.01874 475.41996 177.23276 481.3681 190.62149 486.8882 210.3079 495.0048 230.37206 502.19596 250.43619 509.38716"/>
<path transform="matrix(.8788343,0,0,-.87836286,0,595.01998)" stroke-width=".8064516" stroke-linecap="round" stroke-linejoin="round" fill="none" stroke="#000000" d="M250.43619 509.38716C257.04716 511.88356 263.6581 514.37997 270.3772 516.55349 276.9983 518.69528 283.7244 520.52346 290.32655 522.7198 297.02638 524.94869 303.59858 527.5567 310.26756 529.8861 316.8393 532.1816 323.50505 534.2065 330.2169 536.0525 336.84355 537.87509 343.51515 539.5232 350.17457 541.2189 356.83396 542.91458 363.48115 544.6578 370.1322 546.38528 376.7833 548.11276 383.43827 549.8245 390.08988 551.55166 396.7415 553.2788 403.38978 555.02139 410.04756 556.7181 416.70533 558.41476 423.37263 560.06558 430.00523 561.88449 436.63783 563.7033 443.23573 565.69027 449.96287 567.05087 456.5622 568.38558 463.28596 569.11746 469.9372 570.2173 476.64515 571.32656 483.27937 572.81 489.9032 574.3837 496.52705 575.95748 503.1405 577.6215 509.86918 578.5502 516.5001 579.4653 523.2429 579.66616 529.8518 580.7167 536.55819 581.78268 543.1267 583.7235 549.8178 584.88308 556.41177 586.02578 563.1247 586.4097 569.8005 587.04959 576.47628 587.6894 583.11477 588.58517 589.78317 589.21609 596.4267 589.8446 603.0999 590.2103 609.7741 590.38259 616.44 590.5546 623.1069 590.5336 629.77346 590.54916"/>
<path transform="matrix(.8788343,0,0,-.87836286,0,595.01998)" stroke-width=".8064516" stroke-linecap="round" stroke-linejoin="round" fill="none" stroke="#000000" d="M646.12088 590.7435C646.12088 590.7435 649.4541 590.7513 652.7873 590.7682 656.1205 590.78506 659.45358 590.81106 663.0089 590.8576 670.1196 590.9507 678.1195 591.1261 685.45187 591.062 692.79336 590.9979 699.4655 590.6938 706.12716 590.2433 712.81356 589.7911 719.4893 589.19137 726.14309 588.4099 732.8379 587.6236 739.5105 586.6533 746.16738 585.5766 752.881 584.49069 759.5786 583.29647 766.2 581.7433 772.97866 580.1532 779.67739 578.1869 786.24929 575.91006 793.0289 573.5612 799.67349 570.8819 806.3152 568.0769 820.39089 562.13229 834.45358 555.6232 846.497 546.41079 853.7748 540.8438 860.3151 534.28976 866.6546 527.578 873.83389 519.9771 880.75546 512.174 886.85379 503.7454 895.0639 492.39805 901.78207 479.91688 907.1612 466.91328 912.6249 453.7054 916.7073 439.9586 919.50228 426.01463 924.751 399.82899 925.45968 372.94819 926.1683 346.06736"/>
<path transform="matrix(.8788343,0,0,-.87836286,0,595.01998)" stroke-width=".8064516" stroke-linecap="round" stroke-linejoin="round" fill="none" stroke="#000000" d="M646.23629 86.65936C646.23629 86.65936 649.5696 86.65313 652.9027 86.63779 656.2359 86.62244 659.569 86.59797 663.1244 86.55304 670.23519 86.46318 678.2351 86.29148 685.56747 86.35888 692.9089 86.42636 699.58096 86.733539 706.2423 87.18711 712.9285 87.64238 719.604 88.24513 726.25747 89.02964 732.9519 89.81899 739.624 90.79234 746.2804 91.87215 752.9935 92.96114 759.6906 94.15841 766.3113 95.714618 773.08926 97.30779 779.78707 99.27716 786.3579 101.55702 793.1364 103.90896 799.7798 106.591327 806.4202 109.39937 820.49319 115.350429 834.55288 121.865947 846.59219 131.08388 853.8673 136.65416 860.4047 143.21126 866.741 149.92589 873.9169 157.53009 880.83486 165.33634 886.9293 173.76773 895.1343 185.11885 901.8467 197.6031 907.2199 210.60918 912.67758 223.81952 916.7536 237.56822 919.54226 251.51348 924.779 277.70149 925.4753 304.58265 926.17166 331.46379"/>
<path transform="matrix(.8788343,0,0,-.87836286,0,595.01998)" stroke-width=".8064516" stroke-linecap="round" stroke-linejoin="round" fill="none" stroke="#000000" d="M250.5144 167.83455C257.1265 165.34116 263.73863 162.84777 270.45869 160.67737 277.08079 158.5386 283.8077 156.71349 290.41087 154.52014 297.1117 152.29434 303.6851 149.68932 310.35514 147.36296 316.92793 145.07051 323.59458 143.04866 330.30729 141.20574 336.93479 139.38622 343.60716 137.74112 350.26734 136.0485 356.9275 134.35585 363.57548 132.61568 370.22737 130.89124 376.8792 129.1668 383.53498 127.45809 390.18739 125.733989 396.83979 124.00988 403.48887 122.27037 410.1474 120.57673 416.80598 118.883098 423.474 117.23533 430.10746 115.41948 436.74089 113.60364 443.3397 111.61971 450.06748 110.26223 456.66743 108.93054 463.39149 108.20171 470.04325 107.10492 476.75169 105.99877 483.38658 104.51836 490.01115 102.94763 496.6357 101.37691 503.24995 99.71587 509.97904 98.79035 516.61038 97.87827 523.3533 97.68049 529.9627 96.63301 536.66958 95.57008 543.23898 93.632228 549.9306 92.47573 556.525 91.33604 563.23818 90.95517 569.91427 90.31838 576.5903 89.6816 583.2292 88.7889 589.8979 88.16104 596.5417 87.535518 603.2151 87.17285 609.88937 87.00366 616.55538 86.834697 623.2222 86.85871 629.88876 86.84626"/>
<path transform="matrix(.8788343,0,0,-.87836286,0,595.01998)" stroke-width=".8064516" stroke-linecap="round" stroke-linejoin="round" fill="none" stroke="#000000" d="M61.850255 338.81065C63.813135 351.17317 65.77602 363.53569 71.55842 373.8927 76.40024 382.565 83.920047 389.83119 91.36617 397.05848 97.62331 403.13169 103.82841 409.17744 111.23223 413.2245 117.35753 416.57267 124.30328 418.55287 131.17324 420.3908 137.85707 422.17893 144.46913 423.8324 151.1309 425.5572 157.72176 427.2636 164.36125 429.03987 171.0969 429.7236 177.70174 430.3941 184.39905 430.01417 191.0962 429.89018 197.80173 429.76606 204.50711 429.89854 211.10384 429.0568 217.82282 428.19944 224.42906 426.33143 231.13646 425.22349 237.74642 424.13166 244.45459 423.778 251.15242 423.3901 257.82533 423.00367 264.48796 422.58326 271.16007 422.5567 277.83216 422.53019 284.51374 422.8975 291.15104 423.72325 297.91133 424.5643 304.62568 425.8809 311.11705 427.88969 317.97267 430.01118 324.57957 432.90467 331.0497 436.05598 337.90577 439.3952 344.60829 443.02388 350.9574 447.22215 358.0818 451.93305 364.76124 457.36119 370.82347 463.38816 377.6875 470.21229 383.76029 477.80415 390.64787 484.554 396.88206 490.66349 403.78379 496.0831 410.50559 501.71998 417.06446 507.22019 423.45204 512.9272 430.37165 517.886 436.67295 522.4016 443.41545 526.29678 450.27104 530.0521 456.7174 533.5833 463.2638 536.9909 470.19538 539.2184 476.6416 541.28988 483.421 542.34066 490.16139 543.3848 496.8448 544.4201 503.48988 545.4489 510.13569 546.5513 516.7815 547.6536 523.4281 548.82949 530.11 549.7177 536.751 550.6005 543.42678 551.19918 550.09268 551.8842 556.75857 552.5693 563.4145 553.3407 570.0753 554.0507 576.73617 554.76077 583.4019 555.40939 590.058 556.2172 596.714 557.0251 603.36038 557.9922 610.0406 558.3837 616.6877 558.77328 623.36837 558.59286 630.0399 558.5503"/>
<path transform="matrix(.8788343,0,0,-.87836286,0,595.01998)" stroke-width=".8064516" stroke-linecap="round" stroke-linejoin="round" fill="none" stroke="#000000" d="M646.48818 118.65837C653.1597 118.70402 659.8223 118.61187 666.48757 118.50096 673.1528 118.39006 679.82058 118.2604 686.4869 118.34356 693.16159 118.42682 699.83468 118.72344 706.49417 119.18612 713.17849 119.65053 719.84909 120.28224 726.5093 121.02865 733.2106 121.77967 739.90139 122.646808 746.5323 123.871158 753.2916 125.11922 759.98867 126.73846 766.571 128.7136 773.3366 130.74373 779.9811 133.14986 786.6255 135.55597"/>
<path transform="matrix(.8788343,0,0,-.87836286,0,595.01998)" stroke-width=".8064516" stroke-linecap="round" stroke-linejoin="round" fill="none" stroke="#000000" d="M61.850366 338.32469C63.81891 325.96305 65.78745 313.60145 71.57459 303.24708 76.42038 294.57698 83.94351 287.31425 91.39296 280.09037 97.65287 274.02003 103.86074 267.9771 111.26641 263.93345 117.39324 260.58808 124.339908 258.61106 131.21071 256.77629 137.89534 254.9912 144.50818 253.34075 151.17073 251.61902 157.76236 249.9156 164.40268 248.14241 171.13863 247.46173 177.74379 246.79427 184.4409 247.17728 191.13802 247.30432 197.84348 247.43154 204.54892 247.30211 211.14527 248.14688 217.86385 249.00731 224.46924 250.87836 231.17613 251.98937 237.78557 253.08422 244.4936 253.44094 251.19124 253.8319 257.86399 254.22139 264.5264 254.64485 271.1985 254.67446 277.87059 254.70406 284.55235 254.33979 291.19 253.51708 297.95069 252.67913 304.66566 251.36559 311.1579 249.3598 318.0145 247.24144 324.62275 244.35095 331.09434 241.20264 337.9519 237.86655 344.65608 234.24095 351.00715 230.04558 358.13368 225.33794 364.81559 219.91287 370.88059 213.88866 377.74775 207.06769 383.824 199.47859 390.7147 192.7319 396.95167 186.62528 403.8559 181.2088 410.5803 175.57503 417.14167 170.07782 423.53187 164.37372 430.45375 159.41812 436.75709 154.90535 443.50138 151.01329 450.35868 147.26108 456.80668 143.73284 463.3546 140.32822 470.28724 138.10396 476.7344 136.03543 483.51429 134.98773 490.25514 133.94667 496.93904 132.91442 503.58457 131.88866 510.2309 130.78937 516.8772 129.69007 523.52438 128.51723 530.20669 127.63205 536.848 126.7523 543.5241 126.1567 550.1903 125.47471 556.8565 124.79271 563.51278 124.02433 570.17398 123.31736 576.8351 122.61039 583.50119 121.964839 590.1576 121.16002 596.814 120.355197 603.4608 119.391109 610.14126 119.00267 616.78848 118.616168 623.46908 118.79962 630.1406 118.84527"/>
<path transform="matrix(.8788343,0,0,-.87836286,0,595.01998)" stroke-width=".8064516" stroke-linecap="round" stroke-linejoin="round" fill="none" stroke="#000000" d="M646.3874 558.7446C653.05899 558.7021 659.7215 558.79727 666.38668 558.9112 673.0518 559.02517 679.7196 559.1579 686.386 559.07778 693.06069 558.99758 699.73397 558.70407 706.3936 558.2444 713.0782 557.783 719.749 557.15438 726.4096 556.411 733.1112 555.6631 739.8024 554.799 746.4339 553.5777 753.1938 552.3327 759.8916 550.71658 766.4748 548.74447 773.2414 546.7174 779.8869 544.31436 786.5324 541.91128"/>
<path transform="matrix(.8788343,0,0,-.87836286,0,595.01998)" stroke-width=".8064516" stroke-linecap="round" stroke-linejoin="round" fill="none" stroke="#000000" d="M786.5324 541.91128C793.2898 538.76419 800.0471 535.6171 806.615 532.0781 813.6214 528.30288 820.41226 524.0816 826.7226 519.2452 834.0204 513.652 840.67568 507.23603 846.8801 500.41239 854.43728 492.10105 861.32559 483.18486 867.1043 473.5799 876.8468 457.38667 883.43569 439.23573 887.545 420.7483 893.0093 396.16523 894.0893 370.9872 895.1694 345.80918"/>
<path transform="matrix(.8788343,0,0,-.87836286,0,595.01998)" stroke-width=".8064516" stroke-linecap="round" stroke-linejoin="round" fill="none" stroke="#000000" d="M786.6255 135.55597C793.3814 138.70612 800.1373 141.85628 806.70358 145.39826 813.70828 149.17675 820.4971 153.40113 826.80526 158.24045 834.10049 163.83699 840.75289 170.25597 846.95419 177.08246 854.5075 185.39725 861.3917 194.3166 867.166 203.92421 876.9011 220.1219 883.4817 238.27587 887.5826 256.76518 893.0355 281.35075 894.10409 306.52925 895.1726 331.70774"/>
<path transform="matrix(.8788343,0,0,-.87836286,0,595.01998)" stroke-width=".8064516" stroke-linecap="round" stroke-linejoin="round" fill="none" stroke="#000000" d="M31.851294 338.5608 61.850255 338.81065"/>
<path transform="matrix(.8788343,0,0,-.87836286,0,595.01998)" stroke-width=".8064516" stroke-linecap="round" stroke-linejoin="round" fill="none" stroke="#000000" d="M31.851294 338.5608 61.850366 338.32469"/>
<text xml:space="preserve" transform="matrix(.073845889 -.00061469708 .00061502706 .07380626 167.5192 171.8725)" font-size="133" font-family="Arial"><tspan y="119" x="0 89 178 289 378 467 563 593 682 746 827 916 1012 1108 1187 1268 1305 1394 1483 1520 1616 1719 1815 1904 1993 2030">VEMBER ALTERNATIVE COCKPIT</tspan></text>
<text xml:space="preserve" transform="matrix(.073846157 .000580897 -.00058120876 .07380654 167.65976 412.81068)" font-size="133" font-family="Arial"><tspan y="119" x="0 89 178 289 378 467 563 593 682 746 827 916 1012 1108 1187 1268 1305 1394 1483 1520 1616 1719 1815 1904 1993 2030">VEMBER ALTERNATIVE COCKPIT</tspan></text>
<path transform="matrix(.8788343,0,0,-.87836286,0,595.01998)" stroke-width=".8064516" stroke-linecap="round" stroke-linejoin="round" fill="none" stroke="#000000" d="M926.2132 338.76557 895.01327 338.75129"/>
<path transform="matrix(.8788343,0,0,-.87836286,0,595.01998)" stroke-width=".8064516" stroke-linecap="round" stroke-linejoin="round" fill="none" stroke="#000000" d="M926.2132 338.76557H895.01327"/>
<path transform="matrix(.8788343,0,0,-.87836286,0,595.01998)" stroke-width=".8064516" stroke-linecap="round" stroke-linejoin="round" fill="none" stroke="#000000" d="M926.17166 331.46379 926.2132 338.76557"/>
<path transform="matrix(.8788343,0,0,-.87836286,0,595.01998)" stroke-width=".8064516" stroke-linecap="round" stroke-linejoin="round" fill="none" stroke="#000000" d="M926.1683 346.06736 926.2132 338.76557"/>
<path transform="matrix(.8788343,0,0,-.87836286,0,595.01998)" stroke-width=".8064516" stroke-linecap="round" stroke-linejoin="round" fill="none" stroke="#000000" d="M895.1694 345.80918 895.01327 338.76557"/>
<path transform="matrix(.8788343,0,0,-.87836286,0,595.01998)" stroke-width=".8064516" stroke-linecap="round" stroke-linejoin="round" fill="none" stroke="#000000" d="M895.1726 331.70774 895.01327 338.75129"/>
<path transform="matrix(.8788343,0,0,-.87836286,0,595.01998)" stroke-width=".8064516" stroke-linecap="round" stroke-linejoin="round" fill="none" stroke="#000000" d="M646.12088 590.7435 629.77346 590.54916"/>
<path transform="matrix(.8788343,0,0,-.87836286,0,595.01998)" stroke-width=".8064516" stroke-linecap="round" stroke-linejoin="round" fill="none" stroke="#000000" d="M646.23629 86.65936 629.88876 86.84626"/>
<path transform="matrix(.8788343,0,0,-.87836286,0,595.01998)" stroke-width=".8064516" stroke-linecap="round" stroke-linejoin="round" fill="none" stroke="#000000" d="M646.48818 118.65837 630.1406 118.84527"/>
<path transform="matrix(.8788343,0,0,-.87836286,0,595.01998)" stroke-width=".8064516" stroke-linecap="round" stroke-linejoin="round" fill="none" stroke="#000000" d="M646.3874 558.7446 630.0399 558.5503"/>
<text xml:space="preserve" transform="matrix(.07384844 0 0 .07380883 474.30274 315.98036)" font-size="133" font-family="Arial"><tspan y="119" x="0 74 148 222 259 289 363 400 474 518 592 666 696 726">833 internally</tspan></text>
</svg>
