<svg viewBox="0 0 800 800" xmlns="http://www.w3.org/2000/svg"><path d="M556.6920046923681,364.4276855811736 L555.7204953075606,363.1111555887719 M555.7204953075606,363.1111555887719 L554.7271509340837,361.8160830347706 M554.7271509340837,361.8160830347706 L553.7092638052429,360.54789486079403 M553.7092638052429,360.54789486079403 L552.6647169677883,359.31209503274306 M552.6647169677883,359.31209503274306 L551.5925390212386,358.11374905888806 M551.5925390212386,358.11374905888806 L550.4935004935627,356.9570008649215 M550.4935004935627,356.9570008649215 L549.3702083688295,355.84449091110537 M549.3702083688295,355.84449091110537 L548.2260692762585,354.77644727623647 M548.2260692762585,354.77644727623647 L546.436608984166,353.21798605962624 M546.436608984166,353.21798605962624 L544.6194630355538,351.7479147507404 M544.6194630355538,351.7479147507404 L542.783866520899,350.3510384274924 M542.783866520899,350.3510384274924 L540.9361534583668,349.01293090737556 M540.9361534583668,349.01293090737556 L538.1567293901877,347.0939899400428 M538.1567293901877,347.0939899400428 L535.3671721372319,345.248150792988 M535.3671721372319,345.248150792988 L532.5717889486108,343.4533547304561 M532.5717889486108,343.4533547304561 L529.7727454074495,341.6940941157036 M529.7727454074495,341.6940941157036 L525.098873175473,338.81024388449555 M525.098873175473,338.81024388449555 L520.4220476790736,335.9623199853537 M520.4220476790736,335.9623199853537 L515.7440394716302,333.1290686490446 M515.7440394716302,333.1290686490446 L511.0659968280371,330.29613582332786 M556.6920046923681,364.4276855811736 L553.5418748547685,386.511377943522 M553.5418748547685,386.511377943522 L511.26368980874804,371.0434359633532 M468.977380923682,337.0431755733065 L511.26368980874804,371.0434359633532 M465.6078016427746,311.1955500684405 L468.977380923682,337.0431755733065 M511.0659968280371,330.29613582332786 L505.8261621750304,327.34625827339437 M505.8261621750304,327.34625827339437 L500.58906393746383,324.40041430288693 M500.58906393746383,324.40041430288693 L495.35665632620487,321.48244344843874 M495.35665632620487,321.48244344843874 L492.74318734217456,320.04495921480634 M492.74318734217456,320.04495921480634 L490.1323689083323,318.63056730404776 M490.1323689083323,318.63056730404776 L487.00447282993355,316.97758997693404 M487.00447282993355,316.97758997693404 L483.88551933593624,315.396538037416 M483.88551933593624,315.396538037416 L480.7815210125923,313.92555227370735 M480.7815210125923,313.92555227370735 L479.2388341201016,313.24925931210873 M479.2388341201016,313.24925931210873 L477.7053825719847,312.62571029308845 M477.7053825719847,312.62571029308845 L475.3795239188723,311.80195047500547 M475.3795239188723,311.80195047500547 L474.23489849182636,311.46569657195664 M474.23489849182636,311.46569657195664 L473.1069261250968,311.1895578445185 M473.1069261250968,311.1895578445185 L471.10346706928453,310.8598936018285 M471.10346706928453,310.8598936018285 L470.13287667824966,310.7841842171167 M470.13287667824966,310.7841842171167 L469.1851421939349,310.76714793170436 M469.1851421939349,310.76714793170436 L468.26016422693266,310.8053143629543 M468.26016422693266,310.8053143629543 L467.3568360581127,310.8935410009485 M467.3568360581127,310.8935410009485 L465.6078016427746,311.1955500684405 M511.0659968280371,330.29613582332786 L508.60385668776905,331.6792164831761 M554.4413417031991,365.9573387262519 L556.6920046923681,364.4276855811736 M554.4413417031991,365.9573387262519 L553.4526825048328,364.6017280194968 M553.4526825048328,364.6017280194968 L552.4415958735927,363.26766993526905 M552.4415958735927,363.26766993526905 L551.4048802432822,361.9611717700892 M551.4048802432822,361.9611717700892 L550.3398700520858,360.68849508588517 M550.3398700520858,360.68849508588517 L549.2450780533278,359.4554902606851 M549.2450780533278,359.4554902606851 L548.121000076187,358.2670152092094 M548.121000076187,358.2670152092094 L546.9704808597786,357.1263443773646 M546.9704808597786,357.1263443773646 L545.7973900673924,356.03386529028023 M545.7973900673924,356.03386529028023 L544.016884823649,354.4906607602635 M544.016884823649,354.4906607602635 L542.2087812026052,353.0368112759488 M542.2087812026052,353.0368112759488 L540.3824541841838,351.65642627741295 M540.3824541841838,351.65642627741295 L538.5442836614045,350.33463866200634 M538.5442836614045,350.33463866200634 L535.7503642721165,348.41974466121474 M535.7503642721165,348.41974466121474 L532.9465245628242,346.5779815944775 M532.9465245628242,346.5779815944775 L530.1370379493837,344.786726693902 M530.1370379493837,344.786726693902 L527.3239985072025,343.03023891929024 M527.3239985072025,343.03023891929024 L522.6466220717438,340.16119070763125 M522.6466220717438,340.16119070763125 L517.9664368539014,337.3257534292982 M517.9664368539014,337.3257534292982 L513.2851447529195,334.5031056498126 M513.2851447529195,334.5031056498126 L508.60385668776905,331.6792164831761 M553.5418748547685,386.511377943522 L551.2905569458743,388.09919104010635 M554.4413417031991,365.9573387262519 L551.2905569458743,388.09919104010635 M551.2905569458743,388.09919104010635 L508.80389305743313,372.4978707279098 M508.80389305743313,372.4978707279098 L511.26368980874804,371.0434359633532 M466.3090935918801,338.3814140775107 L508.80389305743313,372.4978707279098 M468.977380923682,337.0431755733065 L466.3090935918801,338.3814140775107 M462.93600309075396,312.4731139118122 L466.3090935918801,338.3814140775107 M462.93600309075396,312.4731139118122 L465.6078016427746,311.1955500684405 M508.60385668776905,331.6792164831761 L503.3337473864352,328.6990993288747 M503.3337473864352,328.6990993288747 L498.06634680314176,325.721073679745 M498.06634680314176,325.721073679745 L492.80357729641423,322.76886218441894 M492.80357729641423,322.76886218441894 L490.1748933425075,321.31348936325116 M490.1748933425075,321.31348936325116 L487.5488197561647,319.8807473477066 M487.5488197561647,319.8807473477066 L484.40255641116136,318.2053549669106 M484.40255641116136,318.2053549669106 L481.26517686030536,316.6020392840203 M481.26517686030536,316.6020392840203 L478.1428237781871,315.1103978260063 M478.1428237781871,315.1103978260063 L476.5911260521625,314.42531266013725 M476.5911260521625,314.42531266013725 L475.0489180119608,313.79485052850555 M475.0489180119608,313.79485052850555 L472.75969346963495,312.98188746467076 M472.75969346963495,312.98188746467076 L471.63349703923535,312.6512668334949 M471.63349703923535,312.6512668334949 L470.52406603630914,312.38099885813426 M470.52406603630914,312.38099885813426 L469.496934613709,312.1871579610777 M469.496934613709,312.1871579610777 L468.49053524092017,312.0560129791796 M468.49053524092017,312.0560129791796 L467.50741405797413,311.9886447780733 M467.50741405797413,311.9886447780733 L466.5487190108159,311.98323465577084 M466.5487190108159,311.98323465577084 L465.61400349076007,312.0354170515826 M465.61400349076007,312.0354170515826 L464.70177163376104,312.139096371556 M464.70177163376104,312.139096371556 L462.93600309075396,312.4731139118122" stroke="black"  stroke-width="4"  fill="red"/>
<path d="M224.23657365722244,450.3034699576431 L227.38159091903242,450.81576049900093 M227.38159091903242,450.81576049900093 L228.9616122853617,451.09816573109197 M228.9616122853617,451.09816573109197 L230.54720678027354,451.400913569881 M230.54720678027354,451.400913569881 L232.13876928735817,451.72610793000854 M232.13876928735817,451.72610793000854 L233.73662172682378,452.07571630751875 M233.73662172682378,452.07571630751875 L235.34100754954335,452.4514848149129 M235.34100754954335,452.4514848149129 L236.95205153112923,452.8548393821661 M236.95205153112923,452.8548393821661 L238.5697335302463,453.286800541145 M238.5697335302463,453.286800541145 L240.19389029983205,453.74793618925366 M240.19389029983205,453.74793618925366 L243.46051073916297,454.7577183160648 M243.46051073916297,454.7577183160648 L246.74899615861787,455.880030385958 M246.74899615861787,455.880030385958 L250.0557990319788,457.10547430420195 M250.0557990319788,457.10547430420195 L253.3771875952857,458.42162003413796 M253.3771875952857,458.42162003413796 L256.70996469496896,459.815128619255 M256.70996469496896,459.815128619255 L260.0514193357854,461.2730082777573 M260.0514193357854,461.2730082777573 L263.39927375461843,462.7832373869776 M263.39927375461843,462.7832373869776 L267.87514698788164,466.0602472701146 M267.87514698788164,466.0602472701146 L270.1100056837846,467.7301852185095 M270.1100056837846,467.7301852185095 L272.34199229933415,469.4248253844477 M272.34199229933415,469.4248253844477 L274.5703821066845,471.1471069782955 M274.5703821066845,471.1471069782955 L276.79438411996097,472.90001619335976 M276.79438411996097,472.90001619335976 L279.0130880595723,474.68641877229743 M279.0130880595723,474.68641877229743 L281.2254277026691,476.50885261486246 M281.2254277026691,476.50885261486246 L283.98029335701955,478.8406986597953 M283.98029335701955,478.8406986597953 L286.7216268731218,481.2346245681507 M286.7216268731218,481.2346245681507 L289.4477761183556,483.6908340503852 M289.4477761183556,483.6908340503852 L292.15765214261995,486.20688034142927 M292.15765214261995,486.20688034142927 L294.8510576424883,488.77793166204367 M294.8510576424883,488.77793166204367 L297.5287615612265,491.39746007760107 M297.5287615612265,491.39746007760107 L300.19219462792944,494.0579827982166 M300.19219462792944,494.0579827982166 L302.8431195321449,496.7518690574658 M302.8431195321449,496.7518690574658 L298.8256770425412,524.0743910109602 M298.8256770425412,524.0743910109602 L263.8916160460415,513.0961873310931 M228.82336853462823,482.6622923822307 L263.8916160460415,513.0961873310931 M224.23657365722244,450.3034699576431 L228.82336853462823,482.6622923822307 M260.9084951848054,464.1631490316819 L263.39927375461843,462.7832373869776 M222.0644172554303,451.7870217639021 L225.18579575296855,452.30396557716483 M225.18579575296855,452.30396557716483 L228.32761035080406,452.89348566864714 M228.32761035080406,452.89348566864714 L229.90712690077112,453.2204325563538 M229.90712690077112,453.2204325563538 L231.49279770989773,453.57131089864356 M231.49279770989773,453.57131089864356 L233.08482555001615,453.94771415202945 M233.08482555001615,453.94771415202945 L234.68330381251133,454.3509237208433 M234.68330381251133,454.3509237208433 L237.89933532935498,455.24096054784195 M237.89933532935498,455.24096054784195 L241.13927838536475,456.2436064469139 M241.13927838536475,456.2436064469139 L244.4003472759406,457.35475368099105 M244.4003472759406,457.35475368099105 L247.67918059756417,458.56549832171015 M247.67918059756417,458.56549832171015 L250.97223822561045,459.8641203285457 M250.97223822561045,459.8641203285457 L254.2764790899374,461.23802099339093 M254.2764790899374,461.23802099339093 L257.5892976849323,462.67485826318784 M257.5892976849323,462.67485826318784 L260.9084951848054,464.1631490316819 M222.0644172554303,451.7870217639021 L224.23657365722244,450.3034699576431 M300.0320169895514,497.86285134894763 L302.8431195321449,496.7518690574658 M260.9084951848054,464.1631490316819 L265.3463448538771,467.42479274327104 M265.3463448538771,467.42479274327104 L267.5621898846375,469.08642327504447 M267.5621898846375,469.08642327504447 L269.77518925044376,470.7721607238698 M269.77518925044376,470.7721607238698 L271.9846459419002,472.4847922853851 M271.9846459419002,472.4847922853851 L274.1898017713643,474.22713433361093 M274.1898017713643,474.22713433361093 L276.3897885446303,476.0018822164002 M276.3897885446303,476.0018822164002 L278.58360026144715,477.81142284084706 M278.58360026144715,477.81142284084706 L281.3156544264725,480.12522487395836 M281.3156544264725,480.12522487395836 L284.034653974874,482.49885813215894 M284.034653974874,482.49885813215894 L286.73902464330763,484.9326121866518 M286.73902464330763,484.9326121866518 L289.42770170873223,487.4243412463127 M289.42770170873223,487.4243412463127 L292.1004160759871,489.969659035994 M292.1004160759871,489.969659035994 L294.7577958015439,492.5625456846867 M294.7577958015439,492.5625456846867 L297.4011211122172,495.19601820570665 M297.4011211122172,495.19601820570665 L300.0320169895514,497.86285134894763 M298.8256770425412,524.0743910109602 L295.99506628732877,525.2488846118275 M300.0320169895514,497.86285134894763 L295.99506628732877,525.2488846118275 M261.4033448946724,514.4764823771611 L263.8916160460415,513.0961873310931 M295.99506628732877,525.2488846118275 L261.4033448946724,514.4764823771611 M226.67525786761726,484.23598778138637 L261.4033448946724,514.4764823771611 M228.82336853462823,482.6622923822307 L226.67525786761726,484.23598778138637 M222.0644172554303,451.7870217639021 L226.67525786761726,484.23598778138637" stroke="black"  stroke-width="4"  fill="red"/>
<path d="M737.9823655825778,201.32591087605374 L737.9264639219667,201.44916984855888 M663.6082548445245,227.1290880537207 L700.3509519646129,214.11745152548372 M700.3509519646129,214.11745152548372 L737.9264639219667,201.44916984855888 M737.9823655825778,201.32591087605374 L700.4035504984388,214.04330257825427 M700.4035504984388,214.04330257825427 L663.6082548445245,227.1290880537207 M737.9264639219667,201.44916984855888 L741.8548017748878,199.24251584792432 M737.9823655825778,201.32591087605374 L741.8548017748878,199.24251584792432 M663.6082548445245,227.1290880537207 L666.173072517784,225.3139646406591 M741.8548017748878,199.24251584792432 L703.6096824965657,212.08744334776372 M703.6096824965657,212.08744334776372 L666.173072517784,225.3139646406591" stroke="black"  stroke-width="4"  fill="red"/>
<path d="M736.3278023073397,203.52177108087557 L737.0612540994885,203.3579926244791 M737.0612540994885,203.3579926244791 L725.0863874977412,229.97223472570812 M725.0863874977412,229.97223472570812 L675.2930402402925,247.78663516282325 M675.2930402402925,247.78663516282325 L626.5479821485198,266.55781705683154 M626.5479821485198,266.55781705683154 L579.714122130338,285.86940128107767 M579.714122130338,285.86940128107767 L534.3212378008202,305.85888352729387 M534.3212378008202,305.85888352729387 L485.43262587700644,328.9062920143739 M485.43262587700644,328.9062920143739 L438.02343461392365,352.9006632694734 M438.02343461392365,352.9006632694734 L391.935544468188,377.93109028386993 M391.935544468188,377.93109028386993 L347.01899096615716,404.101247896196 M347.01899096615716,404.101247896196 L303.1314311408489,431.5294308110815 M303.1314311408489,431.5294308110815 L260.1412989612588,460.3475077058041 M260.1412989612588,460.3475077058041 L217.9378419661776,490.6958114152318 M217.9378419661776,490.6958114152318 L176.45634086095794,522.7077516309517 M176.45634086095794,522.7077516309517 L135.7298430841268,556.4749405288746 M135.7298430841268,556.4749405288746 L112.41021647981512,576.9744324456688 M112.41021647981512,576.9744324456688 L89.82968509400496,597.7365076077449 M63.8933805987258,573.3113451715559 L89.82968509400496,597.7365076077449 M63.8933805987258,573.3113451715559 L100.92124530640785,542.2892573678103 M100.92124530640785,542.2892573678103 L139.74655057865687,511.5511292541746 M139.74655057865687,511.5511292541746 L179.03047314352114,482.152360325814 M179.03047314352114,482.152360325814 L219.78708505040925,453.34739530918444 M219.78708505040925,453.34739530918444 L262.3739562416133,425.00189724442237 M262.65847777446106,423.5185237608737 L262.3739562416133,425.00189724442237 M262.6595802978334,423.5178165102344 L262.65847777446106,423.5185237608737 M262.37783908625505,424.99939098708444 L262.6595802978334,423.5178165102344 M262.37783908625505,424.99939098708444 L297.3634791391041,402.9410238352914 M297.3634791391041,402.9410238352914 L333.52205587844065,381.248642019723 M333.52205587844065,381.248642019723 L370.83980193862254,359.95299654392534 M371.12948435184387,358.8639020527569 L370.83980193862254,359.95299654392534 M371.13269522751773,358.86213169584676 L371.12948435184387,358.8639020527569 M370.8442573988374,359.95051118386857 L371.13269522751773,358.86213169584676 M370.8442573988374,359.95051118386857 L370.979759033288,359.8746909916447 M371.2685025113048,358.7873445483684 L370.979759033288,359.8746909916447 M663.6082548445245,227.1290880537207 L614.9439102285893,245.47292578043954 M614.9439102285893,245.47292578043954 L567.4820578609663,264.5921005159345 M567.4820578609663,264.5921005159345 L521.8141922082136,284.22836576348095 M521.8141922082136,284.22836576348095 L472.56225415916253,306.87798104802516 M472.56225415916253,306.87798104802516 L424.7101150619423,330.4620019296083 M424.7101150619423,330.4620019296083 L397.708479883097,344.50154883860773 M397.708479883097,344.50154883860773 L371.2685025113048,358.7873445483684 M663.6082548445245,227.1290880537207 L700.3509519646129,214.11745152548372 M700.3509519646129,214.11745152548372 L737.9264639219667,201.44916984855888 M736.3278023073397,203.52177108087557 L737.9264639219667,201.44916984855888 M736.3278023073397,203.52177108087557 L740.256646783068,201.31190353482674 M740.9913277679875,201.15063330864336 L740.256646783068,201.31190353482674 M740.9913277679875,201.15063330864336 L737.0612540994885,203.3579926244791 M725.6170435202747,229.3928254208791 L725.0863874977412,229.97223472570812 M725.6170435202747,229.3928254208791 L728.8620466941818,228.16528693723234 M740.9913277679875,201.15063330864336 L728.8620466941818,228.16528693723234 M88.92863956209158,597.9284490481826 L89.82968509400496,597.7365076077449 M725.6170435202747,229.3928254208791 L675.4325718325085,246.97578356534808 M675.4325718325085,246.97578356534808 L626.509136345527,265.66449000392544 M626.509136345527,265.66449000392544 L575.5187681642675,286.67115211281305 M575.5187681642675,286.67115211281305 L525.7732582929732,308.72368616858455 M525.7732582929732,308.72368616858455 L477.4036946097515,331.75894073871973 M477.4036946097515,331.75894073871973 L430.37653158546016,355.79995331225723 M430.37653158546016,355.79995331225723 L384.5991484656334,380.91087825783313 M384.5991484656334,380.91087825783313 L339.95774842235556,407.18098507450577 M339.95774842235556,407.18098507450577 L296.33845211866407,434.7153633785322 M296.33845211866407,434.7153633785322 L253.64010337308306,463.62882927198996 M253.64010337308306,463.62882927198996 L211.79801950533553,494.0318892690178 M211.79801950533553,494.0318892690178 L170.836389275277,525.9960333364969 M170.836389275277,525.9960333364969 L130.97476654429772,559.4811512229521 M130.97476654429772,559.4811512229521 L109.60836670878302,578.5597861902838 M109.60836670878302,578.5597861902838 L88.92863956209158,597.9284490481826 M58.26649910142362,574.9580691364772 L85.41677581986596,600.7574841520756 M88.92863956209158,597.9284490481826 L85.41677581986596,600.7574841520756 M59.35256907022654,575.826908098244 L63.8933805987258,573.3113451715559 M59.35256907022654,575.826908098244 L58.26649910142362,574.9580691364772 M259.52504413214615,426.16377957969496 L215.7329241601262,455.3334130262996 M215.7329241601262,455.3334130262996 L173.866292397526,484.96713740583914 M173.866292397526,484.96713740583914 L131.57972249475006,516.7508800425747 M131.57972249475006,516.7508800425747 L94.64571526893451,546.1538720659865 M94.64571526893451,546.1538720659865 L59.35256907022654,575.826908098244 M262.3739562416133,425.00189724442237 L259.52504413214615,426.16377957969496 M259.52504413214615,426.16377957969496 L259.0537615712726,424.58444347197485 M262.65847777446106,423.5185237608737 L259.0537615712726,424.58444347197485 M259.0537615712726,424.58444347197485 L262.6595802978334,423.5178165102344 M262.37783908625505,424.99939098708444 L259.52504413214615,426.16377957969496 M369.4963205573914,360.5779464071509 L331.57596441520127,382.0287300261692 M331.57596441520127,382.0287300261692 L294.9286076761688,403.9017168478408 M294.9286076761688,403.9017168478408 L259.52504413214615,426.16377957969496 M370.83980193862254,359.95299654392534 L369.4963205573914,360.5779464071509 M371.12948435184387,358.8639020527569 L368.7528742432901,359.01968477344485 M369.4963205573914,360.5779464071509 L368.7528742432901,359.01968477344485 M368.7528742432901,359.01968477344485 L371.13269522751773,358.86213169584676 M370.8442573988374,359.95051118386857 L369.4963205573914,360.5779464071509 M369.6321142127698,360.5032383316343 L369.4963205573914,360.5779464071509 M370.979759033288,359.8746909916447 L369.6321142127698,360.5032383316343 M371.2685025113048,358.7873445483684 L368.88771044633194,358.9452996451042 M369.6321142127698,360.5032383316343 L368.88771044633194,358.9452996451042 M663.6082548445245,227.1290880537207 L666.173072517784,225.3139646406591 M666.173072517784,225.3139646406591 L617.36938967624,243.60204475885786 M617.36938967624,243.60204475885786 L569.7664835763113,262.67167381615803 M569.7664835763113,262.67167381615803 L523.9771595371611,282.25693040411096 M523.9771595371611,282.25693040411096 L474.5997582065614,304.85159886030453 M474.5997582065614,304.85159886030453 L426.6329573707652,328.38122680220545 M426.6329573707652,328.38122680220545 L397.4330481055341,343.5189495644174 M397.4330481055341,343.5189495644174 L368.88771044633194,358.9452996451042 M741.8548017748878,199.24251584792432 L703.6096824965657,212.08744334776372 M703.6096824965657,212.08744334776372 L666.173072517784,225.3139646406591 M737.9264639219667,201.44916984855888 L741.8548017748878,199.24251584792432 M740.256646783068,201.31190353482674 L741.8548017748878,199.24251584792432 M728.8620466941818,228.16528693723234 L678.4889664906743,246.40230020424025 M678.4889664906743,246.40230020424025 L629.2978369543233,265.40949028820796 M629.2978369543233,265.40949028820796 L582.3394615531536,284.7647204299624 M582.3394615531536,284.7647204299624 L536.8423682460285,304.7530610575212 M536.8423682460285,304.7530610575212 L487.84341935574514,327.772045678651 M487.84341935574514,327.772045678651 L440.3276709691091,351.7192496590137 M440.3276709691091,351.7192496590137 L394.1394176219163,376.6865587733588 M394.1394176219163,376.6865587733588 L349.1313956821004,402.77701387160266 M349.1313956821004,402.77701387160266 L305.163069706342,430.10626820993934 M305.163069706342,430.10626820993934 L262.1027249789804,458.8020947794514 M262.1027249789804,458.8020947794514 L219.83593105262557,488.99937811350935 M219.83593105262557,488.99937811350935 L178.286068788483,520.8253340623762 M178.286068788483,520.8253340623762 L137.45639845207012,554.3642628798685 M137.45639845207012,554.3642628798685 L110.97135394761443,577.4312656089809 M110.97135394761443,577.4312656089809 L85.41677581986596,600.7574841520756 M259.0537615712726,424.58444347197485 L215.58120998465245,453.56115179793903 M215.58120998465245,453.56115179793903 L174.02086626605774,482.99637475152997 M174.02086626605774,482.99637475152997 L131.7158371683264,514.8092138880874 M131.7158371683264,514.8092138880874 L94.14488282797561,544.744288880424 M94.14488282797561,544.744288880424 L58.26649910142362,574.9580691364772 M368.7528742432901,359.01968477344485 L330.96522774872557,380.4456735539459 M330.96522774872557,380.4456735539459 L294.4011608453859,402.31818186234784 M294.4011608453859,402.31818186234784 L259.0537615712726,424.58444347197485 M368.88771044633194,358.9452996451042 L368.7528742432901,359.01968477344485 M59.27825109721323,575.8457034166531 L58.26649910142362,574.9580691364772 M59.930862328060016,575.0918676991981 L59.27825109721323,575.8457034166531 M58.26649910142362,574.9580691364772 L59.930862328060016,575.0918676991981 M666.3807349551035,226.84620819290132 L666.1794061302601,225.3568012142852 M740.9913277679875,201.15063330864336 L707.5684225855639,212.34339012328917 M707.5684225855639,212.34339012328917 L686.889629196582,219.52344463001373 M686.889629196582,219.52344463001373 L666.3807349551035,226.84620819290132 M59.35256907022654,575.826908098244 L59.27825109721323,575.8457034166531 M58.26649910142362,574.9580691364772 L60.03241109844714,575.0356927319697 M59.35256907022654,575.826908098244 L60.03241109844714,575.0356927319697 M60.03241109844714,575.0356927319697 L59.930862328060016,575.0918676991981" stroke="black"  stroke-width="4"  fill="red"/>
<path d="M88.92863956209158,597.9284490481826 L102.81716224487695,594.0537807925635 M102.81716224487695,594.0537807925635 L121.6949484418368,586.754290227435 M121.6949484418368,586.754290227435 L134.88736241854355,580.8813556601971 M134.88736241854355,580.8813556601971 L148.10500251161983,574.6079070917889 M148.10500251161983,574.6079070917889 L167.40771569105823,564.9809419697633 M167.40771569105823,564.9809419697633 L186.71072025841968,554.9837029896325 M186.71072025841968,554.9837029896325 L216.00588604903808,539.3574518064885 M216.00588604903808,539.3574518064885 L245.26929712199936,523.3892953881275 M245.26929712199936,523.3892953881275 L290.2869916316927,498.372409208989 M290.2869916316927,498.372409208989 L335.2142295785483,473.02514180159847 M335.2142295785483,473.02514180159847 L397.95941835299953,437.1421357097207 M397.95941835299953,437.1421357097207 L460.5241104258812,400.8591322074677 M460.5241104258812,400.8591322074677 L512.8244717568859,370.12005277741787 M512.8244717568859,370.12005277741787 L564.9952677258285,338.9954763951166 M564.9952677258285,338.9954763951166 L596.9400470758915,319.6199786191844 M596.9400470758915,319.6199786191844 L628.8284471186172,299.9018802715259 M628.8284471186172,299.9018802715259 L648.9898270111828,287.12626317262664 M648.9898270111828,287.12626317262664 L669.1114031746658,273.9731905627085 M669.1114031746658,273.9731905627085 L681.2708063117351,265.7101920107723 M681.2708063117351,265.7101920107723 L693.3861348459578,257.0925170307888 M693.3861348459578,257.0925170307888 L708.8620548618524,245.11013068060134 M708.8620548618524,245.11013068060134 L717.3889045952658,237.6610940460988 M717.3889045952658,237.6610940460988 L725.6170435202747,229.3928254208791 M725.6170435202747,229.3928254208791 L675.4325718325085,246.97578356534808 M675.4325718325085,246.97578356534808 L626.509136345527,265.66449000392544 M626.509136345527,265.66449000392544 L575.5187681642675,286.67115211281305 M575.5187681642675,286.67115211281305 L525.7732582929732,308.72368616858455 M525.7732582929732,308.72368616858455 L477.4036946097515,331.75894073871973 M477.4036946097515,331.75894073871973 L430.37653158546016,355.79995331225723 M430.37653158546016,355.79995331225723 L384.5991484656334,380.91087825783313 M384.5991484656334,380.91087825783313 L339.95774842235556,407.18098507450577 M339.95774842235556,407.18098507450577 L296.33845211866407,434.7153633785322 M296.33845211866407,434.7153633785322 L253.64010337308306,463.62882927198996 M253.64010337308306,463.62882927198996 L211.79801950533553,494.0318892690178 M211.79801950533553,494.0318892690178 L170.836389275277,525.9960333364969 M170.836389275277,525.9960333364969 L130.97476654429772,559.4811512229521 M130.97476654429772,559.4811512229521 L109.60836670878302,578.5597861902838 M109.60836670878302,578.5597861902838 L88.92863956209158,597.9284490481826 M725.6170435202747,229.3928254208791 L728.8620466941818,228.16528693723234 M728.8620466941818,228.16528693723234 L719.7760303603615,237.52061774532456 M719.7760303603615,237.52061774532456 L707.0845308988153,248.4143135485134 M707.0845308988153,248.4143135485134 L689.3311360999298,261.6942791499319 M689.3311360999298,261.6942791499319 L662.7587232381563,279.7279961706145 M662.7587232381563,279.7279961706145 L642.0061986839132,293.0890193096425 M642.0061986839132,293.0890193096425 L621.218512589086,306.12869216292813 M621.218512589086,306.12869216292813 L587.9557849324435,326.55458159329737 M587.9557849324435,326.55458159329737 L554.634330312874,346.6643054079983 M554.634330312874,346.6643054079983 L503.68015765219207,376.9598491208733 M503.68015765219207,376.9598491208733 L452.6029210144649,406.9145583470495 M452.6029210144649,406.9145583470495 L386.9451769194069,444.9142165815821 M386.9451769194069,444.9142165815821 L321.08881801970483,482.4730647879561 M321.08881801970483,482.4730647879561 L280.13928940238856,505.5035719022028 M280.13928940238856,505.5035719022028 L239.1151398096977,528.240904335134 M239.1151398096977,528.240904335134 L209.7281751283885,544.2320656593864 M209.7281751283885,544.2320656593864 L180.31021655171693,559.8544754854645 M180.31021655171693,559.8544754854645 L161.5364379445927,569.5132957037827 M161.5364379445927,569.5132957037827 L142.7650758394608,578.7902532080973 M142.7650758394608,578.7902532080973 L118.16368008725647,589.9710591396604 M118.16368008725647,589.9710591396604 L101.16847624233174,596.496831726244 M101.16847624233174,596.496831726244 L93.2251644075393,598.9458223915678 M93.2251644075393,598.9458223915678 L85.41677581986596,600.7574841520756 M88.92863956209158,597.9284490481826 L85.41677581986596,600.7574841520756 M728.8620466941818,228.16528693723234 L678.4889664906743,246.40230020424025 M678.4889664906743,246.40230020424025 L629.2978369543233,265.40949028820796 M629.2978369543233,265.40949028820796 L582.3394615531536,284.7647204299624 M582.3394615531536,284.7647204299624 L536.8423682460285,304.7530610575212 M536.8423682460285,304.7530610575212 L487.84341935574514,327.772045678651 M487.84341935574514,327.772045678651 L440.3276709691091,351.7192496590137 M440.3276709691091,351.7192496590137 L394.1394176219163,376.6865587733588 M394.1394176219163,376.6865587733588 L349.1313956821004,402.77701387160266 M349.1313956821004,402.77701387160266 L305.163069706342,430.10626820993934 M305.163069706342,430.10626820993934 L262.1027249789804,458.8020947794514 M262.1027249789804,458.8020947794514 L219.83593105262557,488.99937811350935 M219.83593105262557,488.99937811350935 L178.286068788483,520.8253340623762 M178.286068788483,520.8253340623762 L137.45639845207012,554.3642628798685 M137.45639845207012,554.3642628798685 L110.97135394761443,577.4312656089809 M110.97135394761443,577.4312656089809 L85.41677581986596,600.7574841520756" stroke="black"  stroke-width="4"  fill="red"/>
<path d="M737.9823655825778,201.32591087605374 L737.9264639219667,201.44916984855888 M697.0105262294901,246.49775514823716 L717.9262107220338,224.2948789000434 M717.9262107220338,224.2948789000434 L737.9264639219667,201.44916984855888 M737.9823655825778,201.32591087605374 L717.9690455157736,224.2150340270881 M717.9690455157736,224.2150340270881 L697.0105262294901,246.49775514823716 M737.9264639219667,201.44916984855888 L741.8548017748878,199.24251584792432 M737.9823655825778,201.32591087605374 L741.8548017748878,199.24251584792432 M741.8548017748878,199.24251584792432 L721.6512297960699,222.53333421807918 M721.6512297960699,222.53333421807918 L700.4749697109979,245.2018215086556 M697.0105262294901,246.49775514823716 L700.4749697109979,245.2018215086556" stroke="black"  stroke-width="4"  fill="red"/>
<path d="M737.9264639219667,201.44916984855888 L725.0863874977412,229.97223472570812 M725.0863874977412,229.97223472570812 L697.831729805237,260.86308769041125 M697.831729805237,260.86308769041125 L668.553795355646,290.97388636074425 M668.553795355646,290.97388636074425 L637.8042844781369,319.69648343512074 M637.8042844781369,319.69648343512074 L605.3396450013126,347.289933797902 M605.3396450013126,347.289933797902 L567.1823375419092,376.69458394480364 M567.1823375419092,376.69458394480364 L526.727640045375,404.8597265185281 M526.727640045375,404.8597265185281 L483.8389485907815,431.87408951907196 M483.8389485907815,431.87408951907196 L438.3552551893239,457.82184854530294 M438.3552551893239,457.82184854530294 L390.0900425366567,482.78197284582643 M390.0900425366567,482.78197284582643 L338.83357705742856,506.82628170754197 M338.83357705742856,506.82628170754197 L284.3641177348736,530.0145972384342 M284.3641177348736,530.0145972384342 L226.48109551772345,552.3836258115389 M226.48109551772345,552.3836258115389 L165.08296366447905,573.9272536333945 M165.08296366447905,573.9272536333945 L127.70624847741237,586.0810739296861 M127.70624847741237,586.0810739296861 L89.82968509400496,597.7365076077449 M63.8933805987258,573.3113451715559 L89.82968509400496,597.7365076077449 M63.8933805987258,573.3113451715559 L125.20776971364864,556.7328155034234 M125.20776971364864,556.7328155034234 L185.2934001023795,538.5817955158943 M185.2934001023795,538.5817955158943 L242.09317872685773,519.5013120245432 M242.09317872685773,519.5013120245432 L297.0733540886007,499.0257719440715 M297.0733540886007,499.0257719440715 L350.49795028370573,476.97687280638377 M351.1818484195406,475.7256768679314 L350.49795028370573,476.97687280638377 M351.1818484195406,475.7256768679314 L351.18317375285045,475.72509824829444 M350.50264080701845,476.9748331611851 L351.18317375285045,475.72509824829444 M350.50264080701845,476.9748331611851 L391.5091777853256,458.37489633637836 M391.5091777853256,458.37489633637836 L431.3162295486461,438.7339505877535 M431.3162295486461,438.7339505877535 L469.81736814898676,418.0354515446527 M470.31815596256655,417.06736477587594 L469.81736814898676,418.0354515446527 M470.31815596256655,417.06736477587594 L470.3213575165471,417.0655806070421 M469.82181432564505,418.03294911999296 L470.3213575165471,417.0655806070421 M469.82181432564505,418.03294911999296 L469.9571306546259,417.9566663589768 M470.45660614158834,416.9901130208159 L469.9571306546259,417.9566663589768 M470.45660614158834,416.9901130208159 L511.10157695992984,393.226909576971 M511.10157695992984,393.226909576971 L549.9896824822433,368.25870718773547 M549.9896824822433,368.25870718773547 L586.1810105395141,342.7457029509668 M586.1810105395141,342.7457029509668 L620.3689787714686,316.2961690590363 M620.3689787714686,316.2961690590363 L656.14377255635,285.74380144227814 M656.14377255635,285.74380144227814 L677.0109016468256,266.3440297072451 M677.0109016468256,266.3440297072451 L697.0105262294901,246.49775514823716 M697.0105262294901,246.49775514823716 L717.9262107220338,224.2948789000434 M717.9262107220338,224.2948789000434 L737.9264639219667,201.44916984855888 M737.9264639219667,201.44916984855888 L741.8548017748878,199.24251584792432 M741.8548017748878,199.24251584792432 L740.9913277679875,201.15063330864336 M740.9913277679875,201.15063330864336 L728.8620466941818,228.16528693723234 M725.6170435202747,229.3928254208791 L728.8620466941818,228.16528693723234 M725.6170435202747,229.3928254208791 L725.0863874977412,229.97223472570812 M88.92863956209158,597.9284490481826 L89.82968509400496,597.7365076077449 M725.6170435202747,229.3928254208791 L698.6452595190841,260.4428019030841 M698.6452595190841,260.4428019030841 L669.5737830868234,290.69515317163007 M669.5737830868234,290.69515317163007 L636.1774894309228,321.9984667430475 M636.1774894309228,321.9984667430475 L600.3301902520287,352.2324815873138 M600.3301902520287,352.2324815873138 L562.1148700565519,381.2930858125328 M562.1148700565519,381.2930858125328 L521.4976502939854,409.19019094163866 M521.4976502939854,409.19019094163866 L478.3829414618223,435.97329803109824 M478.3829414618223,435.97329803109824 L432.6338047760938,461.7050391031262 M432.6338047760938,461.7050391031262 L384.08599031575613,486.4474346573214 M384.08599031575613,486.4474346573214 L332.5589696661296,510.2544037643945 M332.5589696661296,510.2544037643945 L277.8834788395062,533.1595802259843 M277.8834788395062,533.1595802259843 L219.9728245133555,555.152458334637 M219.9728245133555,555.152458334637 L158.98567331025623,576.1392133917607 M158.98567331025623,576.1392133917607 L124.18353590258027,587.2383528904006 M124.18353590258027,587.2383528904006 L88.92863956209158,597.9284490481826 M58.26649910142362,574.9580691364772 L85.41677581986596,600.7574841520758 M88.92863956209158,597.9284490481826 L85.41677581986596,600.7574841520758 M59.35256907022654,575.826908098244 L63.8933805987258,573.3113451715559 M59.35256907022654,575.826908098244 L58.26649910142362,574.9580691364772 M350.49795028370573,476.97687280638377 L349.0340852112123,478.9615168055793 M349.0340852112123,478.9615168055793 L293.9753103175558,501.58480091847844 M293.9753103175558,501.58480091847844 L237.29802874271394,522.5432607507046 M237.29802874271394,522.5432607507046 L175.72973903736568,542.9628328182025 M175.72973903736568,542.9628328182025 L118.10653583796943,560.1104996893947 M118.10653583796943,560.1104996893947 L59.35256907022654,575.826908098244 M349.0340852112123,478.9615168055793 L349.48945911282,477.9260621839354 M351.1818484195406,475.7256768679314 L349.48945911282,477.9260621839354 M349.48945911282,477.9260621839354 L351.18317375285045,475.72509824829444 M350.50264080701845,476.9748331611851 L349.0340852112123,478.9615168055793 M469.81736814898676,418.0354515446527 L469.57734679542654,419.31119405870413 M469.57734679542654,419.31119405870413 L430.72357102338003,440.3140068119685 M430.72357102338003,440.3140068119685 L390.4994450876476,460.1799999148791 M390.4994450876476,460.1799999148791 L349.0340852112123,478.9615168055793 M469.57734679542654,419.31119405870413 L470.35122034156717,418.6407587154291 M470.31815596256655,417.06736477587594 L470.35122034156717,418.6407587154291 M470.35122034156717,418.6407587154291 L470.3213575165471,417.0655806070421 M469.82181432564505,418.03294911999296 L469.57734679542654,419.31119405870413 M469.9571306546259,417.9566663589768 L469.71086580911,419.2347954750485 M469.71086580911,419.2347954750485 L469.57734679542654,419.31119405870413 M469.71086580911,419.2347954750485 L470.4857949534681,418.5658611305828 M470.45660614158834,416.9901130208159 L470.4857949534681,418.5658611305828 M697.0105262294901,246.49775514823716 L700.4749697109979,245.2018215086556 M470.4857949534681,418.5658611305828 L511.22340755727663,394.80972977759006 M511.22340755727663,394.80972977759006 L550.2056250277535,369.84897204530716 M550.2056250277535,369.84897204530716 L586.4790760529881,344.35113369564556 M586.4790760529881,344.35113369564556 L620.7441795673947,317.9217913577447 M620.7441795673947,317.9217913577447 L656.5990164086918,287.39854907876907 M656.5990164086918,287.39854907876907 L679.0381231714881,266.55658295329147 M679.0381231714881,266.55658295329147 L700.4749697109979,245.2018215086556 M741.8548017748878,199.24251584792432 L721.6512297960699,222.53333421807918 M721.6512297960699,222.53333421807918 L700.4749697109979,245.2018215086556 M728.8620466941818,228.16528693723234 L701.437770700827,259.7149938770702 M701.437770700827,259.7149938770702 L672.0709842214185,290.2688882322427 M672.0709842214185,290.2688882322427 L641.4313421128282,319.17155950319216 M641.4313421128282,319.17155950319216 L609.0975835682955,346.9013780086144 M609.0975835682955,346.9013780086144 L571.0945204936663,376.4331422718983 M571.0945204936663,376.4331422718983 L530.799990564419,404.7087355900909 M530.799990564419,404.7087355900909 L488.0790539727556,431.8192469195859 M488.0790539727556,431.8192469195859 L442.7743407399629,457.84878447117353 M442.7743407399629,457.84878447117353 L394.7036453403283,482.87518602783086 M394.7036453403283,482.87518602783086 L343.66102684817287,506.96856801901333 M343.66102684817287,506.96856801901333 L289.4258730638204,530.1862571656809 M289.4258730638204,530.1862571656809 L231.78970422009724,552.5612924333585 M231.78970422009724,552.5612924333585 L170.6198385707967,574.0796480778597 M170.6198385707967,574.0796480778597 L128.33371195758934,587.7686423735169 M128.33371195758934,587.7686423735169 L85.41677581986596,600.7574841520758 M58.26649910142362,574.9580691364772 L119.71401820511659,558.5521414815094 M119.71401820511659,558.5521414815094 L179.9317936810789,540.5889514306378 M179.9317936810789,540.5889514306378 L237.11331854142662,521.6206299767208 M237.11331854142662,521.6206299767208 L291.2966224137592,501.7114819457073 M291.2966224137592,501.7114819457073 L320.6322307771203,490.0547552072388 M320.6322307771203,490.0547552072388 L349.48945911282,477.9260621839354 M349.48945911282,477.9260621839354 L391.01713131202246,459.2090714410988 M391.01713131202246,459.2090714410988 L431.3376330820587,439.4481350096188 M431.3376330820587,439.4481350096188 L470.35122034156717,418.6407587154291 M470.4857949534681,418.5658611305828 L470.35122034156717,418.6407587154291 M59.3093761363981,575.8642560193192 L58.26649910142362,574.9580691364772 M60.5080763527277,575.4359105281692 L59.3093761363981,575.8642560193192 M58.26649910142362,574.9580691364772 L60.5080763527277,575.4359105281692 M700.2113383696187,246.46178627385507 L700.4679366428363,245.23681760216277 M740.9913277679875,201.15063330864336 L723.4037916160506,221.51113449163114 M723.4037916160506,221.51113449163114 L711.9761840088648,234.05805688072098 M711.9761840088648,234.05805688072098 L700.2113383696187,246.46178627385507 M59.35256907022654,575.826908098244 L59.3093761363981,575.8642560193192 M60.60953139277956,575.3796781327217 L59.35256907022654,575.826908098244 M58.26649910142362,574.9580691364772 L60.60953139277956,575.3796781327217 M60.60953139277956,575.3796781327217 L60.5080763527277,575.4359105281692" stroke="black"  stroke-width="4"  fill="red"/>
<path d="M725.6170435202747,229.3928254208791 L715.9347152572009,238.99501649153626 M715.9347152572009,238.99501649153626 L702.4971652913815,250.2178375391536 M702.4971652913815,250.2178375391536 L683.453398309863,264.1911857909691 M683.453398309863,264.1911857909691 L669.1521232863307,273.9459951797325 M669.1521232863307,273.9459951797325 L654.814930935189,283.3693011210937 M654.814930935189,283.3693011210937 L632.3512526166217,297.69098305788293 M632.3512526166217,297.69098305788293 L609.8501776227365,311.692916373991 M609.8501776227365,311.692916373991 L573.9033793871439,333.6217354009591 M573.9033793871439,333.6217354009591 L537.8899344435893,355.2330744025804 M537.8899344435893,355.2330744025804 L483.92329773303686,387.15613570338735 M483.92329773303686,387.15613570338735 L429.81988615621833,418.7281252322289 M429.81988615621833,418.7281252322289 L369.8986582135804,453.2535517228283 M369.8986582135804,453.2535517228283 L309.8124599057972,487.39636402352176 M309.8124599057972,487.39636402352176 L270.3519961706513,509.50590722502625 M270.3519961706513,509.50590722502625 L230.82281770567266,531.3082185866929 M230.82281770567266,531.3082185866929 L203.29245069072442,546.1927875112548 M203.29245069072442,546.1927875112548 L175.7368897654485,560.704069962932 M175.7368897654485,560.704069962932 L158.15389607094912,569.652548293299 M158.15389607094912,569.652548293299 L140.57782281229618,578.2200164375722 M140.57782281229618,578.2200164375722 L117.3218035928029,588.584696580718 M117.3218035928029,588.584696580718 L102.99799936595537,593.9927924160961 M102.99799936595537,593.9927924160961 L88.92863956209158,597.9284490481826 M725.6170435202747,229.3928254208791 L698.6452595190841,260.4428019030841 M698.6452595190841,260.4428019030841 L669.5737830868234,290.69515317163007 M669.5737830868234,290.69515317163007 L636.1774894309228,321.9984667430475 M636.1774894309228,321.9984667430475 L600.3301902520287,352.2324815873138 M600.3301902520287,352.2324815873138 L562.1148700565519,381.2930858125328 M562.1148700565519,381.2930858125328 L521.4976502939854,409.19019094163866 M521.4976502939854,409.19019094163866 L478.3829414618223,435.97329803109824 M478.3829414618223,435.97329803109824 L432.6338047760938,461.7050391031262 M432.6338047760938,461.7050391031262 L384.08599031575613,486.4474346573214 M384.08599031575613,486.4474346573214 L332.5589696661296,510.2544037643945 M332.5589696661296,510.2544037643945 L277.8834788395062,533.1595802259843 M277.8834788395062,533.1595802259843 L219.9728245133555,555.152458334637 M219.9728245133555,555.152458334637 L158.98567331025623,576.1392133917607 M158.98567331025623,576.1392133917607 L124.18353590258027,587.2383528904006 M124.18353590258027,587.2383528904006 L88.92863956209158,597.9284490481826 M725.6170435202747,229.3928254208791 L728.8620466941818,228.16528693723234 M88.92863956209158,597.9284490481826 L85.41677581986596,600.7574841520758 M728.8620466941818,228.16528693723234 L719.7760303603615,237.52061774532456 M719.7760303603615,237.52061774532456 L707.0845308988153,248.4143135485134 M707.0845308988153,248.4143135485134 L689.3311360999298,261.6942791499319 M689.3311360999298,261.6942791499319 L662.7587232381563,279.7279961706145 M662.7587232381563,279.7279961706145 L642.0061986839132,293.0890193096425 M642.0061986839132,293.0890193096425 L621.218512589086,306.12869216292813 M621.218512589086,306.12869216292813 L587.9557849324435,326.55458159329737 M587.9557849324435,326.55458159329737 L554.634330312874,346.6643054079983 M554.634330312874,346.6643054079983 L503.68015765219207,376.9598491208733 M503.68015765219207,376.9598491208733 L452.6029210144649,406.9145583470495 M452.6029210144649,406.9145583470495 L386.9451769194069,444.9142165815821 M386.9451769194069,444.9142165815821 L321.08881801970483,482.4730647879561 M321.08881801970483,482.4730647879561 L280.13928940238856,505.5035719022028 M280.13928940238856,505.5035719022028 L239.1151398096977,528.240904335134 M239.1151398096977,528.240904335134 L209.7281751283885,544.2320656593864 M209.7281751283885,544.2320656593864 L180.31021655171693,559.8544754854645 M180.31021655171693,559.8544754854645 L161.5364379445927,569.5132957037827 M161.5364379445927,569.5132957037827 L142.7650758394608,578.7902532080973 M142.7650758394608,578.7902532080973 L118.16368008725647,589.9710591396604 M118.16368008725647,589.9710591396604 L101.16847624233174,596.496831726244 M101.16847624233174,596.496831726244 L93.2251644075393,598.9458223915678 M93.2251644075393,598.9458223915678 L85.41677581986596,600.7574841520758 M728.8620466941818,228.16528693723234 L701.437770700827,259.7149938770702 M701.437770700827,259.7149938770702 L672.0709842214185,290.2688882322427 M672.0709842214185,290.2688882322427 L641.4313421128282,319.17155950319216 M641.4313421128282,319.17155950319216 L609.0975835682955,346.9013780086144 M609.0975835682955,346.9013780086144 L571.0945204936663,376.4331422718983 M571.0945204936663,376.4331422718983 L530.799990564419,404.7087355900909 M530.799990564419,404.7087355900909 L488.0790539727556,431.8192469195859 M488.0790539727556,431.8192469195859 L442.7743407399629,457.84878447117353 M442.7743407399629,457.84878447117353 L394.7036453403283,482.87518602783086 M394.7036453403283,482.87518602783086 L343.66102684817287,506.96856801901333 M343.66102684817287,506.96856801901333 L289.4258730638204,530.1862571656809 M289.4258730638204,530.1862571656809 L231.78970422009724,552.5612924333585 M231.78970422009724,552.5612924333585 L170.6198385707967,574.0796480778597 M170.6198385707967,574.0796480778597 L128.33371195758934,587.7686423735169 M128.33371195758934,587.7686423735169 L85.41677581986596,600.7574841520758" stroke="black"  stroke-width="4"  fill="red"/>
<path d="M487.70862894597553,343.41710631575745 L477.9165191168541,338.7819670931269 M477.9165191168541,338.7819670931269 L467.8187286327072,335.66708645112396 M467.8187286327072,335.66708645112396 L456.92290725568097,333.6830726268428 M456.92290725568097,333.6830726268428 L445.6622535565217,332.906809852881 M445.6622535565217,332.906809852881 L434.5148012173197,333.36879231690216 M434.5148012173197,333.36879231690216 L424.02995211777454,335.03456839078206 M424.02995211777454,335.03456839078206 L416.4820911503905,337.14651200327467 M416.4820911503905,337.14651200327467 L409.8032651768405,339.8007965897141 M409.8032651768405,339.8007965897141 L403.52115754799877,343.17554980570924 M403.52115754799877,343.17554980570924 L398.0361548583215,347.2320620563031 M398.0361548583215,347.2320620563031 L388.5026933192205,351.7015015085816 M388.5026933192205,351.7015015085816 L369.6321142127698,360.5032383316343 M741.2485346794605,201.00617004992574 L689.9991485768835,218.40997496826787 M689.9991485768835,218.40997496826787 L639.9548650162427,236.61636562424724 M639.9548650162427,236.61636562424724 L592.477162967546,255.10217426979466 M592.477162967546,255.10217426979466 L546.6848970267675,274.14781711597544 M546.6848970267675,274.14781711597544 L497.49724578759503,296.03112696775736 M497.49724578759503,296.03112696775736 L449.1727099724405,319.0441188397233 M449.1727099724405,319.0441188397233 L408.8430296827317,339.47866899869837 M408.8430296827317,339.47866899869837 L369.6321142127698,360.5032383316343 M741.2485346794605,201.00617004992574 L487.70862894597553,343.41710631575745 M487.70862894597553,343.41710631575745 L487.71832300249133,341.99791169650587 M487.71832300249133,341.99791169650587 L478.71661214390224,337.6614908968461 M478.71661214390224,337.6614908968461 L468.4044731063925,334.37616690720847 M468.4044731063925,334.37616690720847 L457.205649568907,332.27646505191547 M457.205649568907,332.27646505191547 L445.5799959568885,331.44830907614266 M445.5799959568885,331.44830907614266 L434.00464755168855,331.9256459689136 M434.00464755168855,331.9256459689136 L422.95474840308816,333.689041646541 M422.95474840308816,333.689041646541 L412.88416484430127,336.66644626107177 M412.88416484430127,336.66644626107177 L404.2069352201422,340.7361101749565 M404.2069352201422,340.7361101749565 L397.2804947979795,345.7313598926752 M398.0361548583215,347.2320620563031 L397.2804947979795,345.7313598926752 M398.0361548583215,347.2320620563031 L369.6321142127698,360.5032383316343 M740.4991196233575,201.17551873545068 L741.2485346794605,201.00617004992574 M741.8548017748878,199.24251584792432 L740.4991196233575,201.17551873545068 M741.8548017748878,199.24251584792432 L690.3676670906639,216.6897123655176 M690.3676670906639,216.6897123655176 L640.0794658880238,234.93923230030418 M640.0794658880238,234.93923230030418 L592.1352322471768,253.5529385992192 M592.1352322471768,253.5529385992192 L545.6855621968721,272.8138379856821 M545.6855621968721,272.8138379856821 L495.647108701226,295.0259152328341 M495.647108701226,295.0259152328341 L447.09502895862056,318.14557171673266 M447.09502895862056,318.14557171673266 L407.40235611012304,338.27905504279784 M407.40235611012304,338.27905504279784 L368.88771044633194,358.9452996451042 M369.6321142127698,360.5032383316343 L368.88771044633194,358.9452996451042 M487.70862894597553,343.41710631575745 L740.4991196233575,201.17551873545068 M487.71832300249133,341.99791169650587 L741.8548017748878,199.24251584792432 M397.2804947979795,345.7313598926752 L368.88771044633194,358.9452996451042" stroke="black"  stroke-width="4"  fill="red"/>
<path d="M741.2485346794605,201.00617004992574 L740.8794580310567,201.3954498389229 M742.0292030701739,200.75015770313473 L741.2485346794605,201.00617004992574 M740.8794580310567,201.3954498389229 L742.0292030701739,200.75015770313473 M741.8548017748878,199.24251584792432 L740.8794580310567,201.3954498389229 M741.2485346794605,201.00617004992574 L741.8548017748878,199.24251584792432 M742.0292030701739,200.75015770313473 L741.8548017748878,199.24251584792432" stroke="black"  stroke-width="4"  fill="red"/>
<path d="M474.89740972188054,392.28542523018825 L484.9442388369496,388.17034745556964 M484.9442388369496,388.17034745556964 L493.6148995993749,383.5939278272738 M493.6148995993749,383.5939278272738 L498.2731019574429,379.74870688928945 M498.2731019574429,379.74870688928945 L501.69167899651205,375.28702360358625 M501.69167899651205,375.28702360358625 L503.6922301519613,370.5124560628234 M503.6922301519613,370.5124560628234 L504.26620661242384,365.70537864219705 M504.26620661242384,365.70537864219705 L503.52403566997396,360.9922196527557 M503.52403566997396,360.9922196527557 L501.52222235596406,356.35760082049296 M501.52222235596406,356.35760082049296 L498.30947119109226,351.9048451101278 M498.30947119109226,351.9048451101278 L493.95925524599147,347.7323322337928 M493.95925524599147,347.7323322337928 L490.9937572746504,345.5057040655655 M490.9937572746504,345.5057040655655 L487.7086289459754,343.41710631575745 M487.7086289459754,343.41710631575745 L741.6476239395604,200.5295205577782 M741.6476239395604,200.5295205577782 L714.1887816221531,231.7243935461653 M714.1887816221531,231.7243935461653 L684.7765493578817,261.9401740252288 M684.7765493578817,261.9401740252288 L654.2635838482568,290.34316384637987 M654.2635838482568,290.34316384637987 L622.1906027291012,317.4494194586823 M622.1906027291012,317.4494194586823 L584.5867964516071,346.1809679996154 M584.5867964516071,346.1809679996154 L544.2800712110953,373.9650299322544 M544.2800712110953,373.9650299322544 L507.70299977977794,397.0446310560486 M507.70299977977794,397.0446310560486 L469.71086580911,419.2347954750485 M469.71086580911,419.2347954750485 L473.11291623053734,401.32397925947555 M473.11291623053734,401.32397925947555 L474.89740972188054,392.28542523018825 M474.89740972188054,392.28542523018825 L475.40900319953903,391.52564178341765 M475.40900319953903,391.52564178341765 L484.91024674597867,388.0227834848274 M484.91024674597867,388.0227834848274 L492.8368190543922,383.49645828790165 M492.8368190543922,383.49645828790165 L498.86227797027357,378.13424910567824 M498.86227797027357,378.13424910567824 L502.7393340500903,372.15802153020513 M502.7393340500903,372.15802153020513 L504.30973772303474,365.81471884931136 M504.30973772303474,365.81471884931136 L503.51062780796116,359.3660217499224 M503.51062780796116,359.3660217499224 L500.3768296209644,353.0775173082202 M500.3768296209644,353.0775173082202 L495.0390420551299,347.20781812541384 M495.0390420551299,347.20781812541384 L487.71832300249133,341.99791169650587 M487.7086289459754,343.41710631575745 L487.71832300249133,341.99791169650587 M487.71832300249133,341.99791169650587 L741.8548017748878,199.24251584792432 M741.6476239395604,200.5295205577782 L741.8548017748878,199.24251584792432 M741.8548017748878,199.24251584792432 L714.3240372117988,230.56686606922983 M714.3240372117988,230.56686606922983 L684.8448843184374,260.91890835003375 M684.8448843184374,260.91890835003375 L654.135201145455,289.6006355281145 M654.135201145455,289.6006355281145 L621.7415848377613,317.11459042231525 M621.7415848377613,317.11459042231525 L583.6784843433445,346.4057643472968 M583.6784843433445,346.4057643472968 L543.327965766136,374.42605446851644 M543.327965766136,374.42605446851644 L507.63020453850834,396.9958065716065 M507.63020453850834,396.9958065716065 L470.4857949534681,418.5658611305828 M469.71086580911,419.2347954750485 L470.4857949534681,418.5658611305828 M474.89740972188054,392.28542523018825 L469.71086580911,419.2347954750485 M475.40900319953903,391.52564178341765 L470.4857949534681,418.5658611305828" stroke="black"  stroke-width="4"  fill="red"/>
<path d="M474.73593733772833,392.32209707343964 L474.89740972188054,392.28542523018825 M474.73593733772833,392.32209707343964 L469.57734679542654,419.31119405870413 M469.71086580911,419.2347954750485 L469.57734679542654,419.31119405870413 M474.89740972188054,392.28542523018825 L469.71086580911,419.2347954750485 M474.73593733772833,392.32209707343964 L475.2680466885844,391.5674159336188 M475.2680466885844,391.5674159336188 L475.31485320023387,391.55331753456494 M475.31485320023387,391.55331753456494 L475.36186382927076,391.5393773781625 M475.36186382927076,391.5393773781625 L475.40900319953903,391.52564178341765 M474.89740972188054,392.28542523018825 L475.40900319953903,391.52564178341765 M475.2680466885844,391.5674159336188 L470.35122034156717,418.6407587154291 M470.4857949534681,418.5658611305828 L470.35122034156717,418.6407587154291 M475.40900319953903,391.52564178341765 L470.4857949534681,418.5658611305828 M469.57734679542654,419.31119405870413 L470.35122034156717,418.6407587154291 M469.71086580911,419.2347954750485 L470.4857949534681,418.5658611305828" stroke="black"  stroke-width="4"  fill="red"/>
<path d="M394.8913244245664,416.9858974119014 L474.73593733772833,392.32209707343964 M394.8913244245664,416.9858974119014 L349.0340852112123,478.9615168055793 M469.57734679542654,419.31119405870413 L430.72357102338003,440.3140068119685 M430.72357102338003,440.3140068119685 L390.4994450876476,460.1799999148791 M390.4994450876476,460.1799999148791 L349.0340852112123,478.9615168055793 M474.73593733772833,392.32209707343964 L469.57734679542654,419.31119405870413 M394.8913244245664,416.9858974119014 L395.22416809735194,415.8800499474472 M395.22416809735194,415.8800499474472 L475.2680466885844,391.5674159336188 M474.73593733772833,392.32209707343964 L475.2680466885844,391.5674159336188 M395.22416809735194,415.8800499474472 L349.48945911282,477.9260621839354 M470.35122034156717,418.6407587154291 L431.3376330820587,439.4481350096188 M431.3376330820587,439.4481350096188 L391.01713131202246,459.2090714410988 M391.01713131202246,459.2090714410988 L349.48945911282,477.9260621839354 M475.2680466885844,391.5674159336188 L470.35122034156717,418.6407587154291 M349.0340852112123,478.9615168055793 L349.48945911282,477.9260621839354 M469.57734679542654,419.31119405870413 L470.35122034156717,418.6407587154291" stroke="black"  stroke-width="4"  fill="red"/>
<path d="M352.97502948340093,413.1625165383882 L359.13533990131657,416.0567864034738 M359.13533990131657,416.0567864034738 L366.2605004420576,418.12272545547614 M366.2605004420576,418.12272545547614 L373.9698301077336,419.246011598889 M373.9698301077336,419.246011598889 L381.84367092081703,419.35646264883803 M381.84367092081703,419.35646264883803 L388.6414958077067,418.5776343839474 M388.6414958077067,418.5776343839474 L394.89437240989633,416.98751298407205 M394.89437240989633,416.98751298407205 L349.0340852112123,478.9615168055793 M349.0340852112123,478.9615168055793 L293.9753103175558,501.58480091847844 M293.9753103175558,501.58480091847844 L237.29802874271394,522.5432607507046 M237.29802874271394,522.5432607507046 L175.72973903736568,542.9628328182025 M175.72973903736568,542.9628328182025 L118.10653583796943,560.1104996893947 M118.10653583796943,560.1104996893947 L59.35256907022654,575.826908098244 M59.35256907022654,575.826908098244 L352.97502948340093,413.1625165383882 M352.97502948340093,413.1625165383882 L352.9894334997739,411.73600258954 M352.9894334997739,411.73600258954 L358.90801525331915,414.55288782334617 M358.90801525331915,414.55288782334617 L365.74124108280057,416.6104555613921 M365.74124108280057,416.6104555613921 L373.1552763239462,417.80803532173013 M373.1552763239462,417.80803532173013 L380.78787926525524,418.08696318949967 M380.78787926525524,418.08696318949967 L388.26600749635514,417.4336113028289 M388.26600749635514,417.4336113028289 L395.22416809735194,415.8800499474472 M394.89437240989633,416.98751298407205 L395.22416809735194,415.8800499474472 M395.22416809735194,415.8800499474472 L349.48945911282,477.9260621839354 M349.0340852112123,478.9615168055793 L349.48945911282,477.9260621839354 M60.60953139277956,575.3796781327217 L59.35256907022654,575.826908098244 M58.26649910142362,574.9580691364772 L60.60953139277956,575.3796781327217 M349.48945911282,477.9260621839354 L294.76606151643324,500.3665816317572 M294.76606151643324,500.3665816317572 L238.4424292591834,521.1557868703184 M238.4424292591834,521.1557868703184 L176.7982990107416,541.5726513429901 M176.7982990107416,541.5726513429901 L118.11463483919226,559.0030580190867 M118.11463483919226,559.0030580190867 L58.26649910142362,574.9580691364772 M352.97502948340093,413.1625165383882 L60.60953139277956,575.3796781327217 M352.9894334997739,411.73600258954 L58.26649910142362,574.9580691364772" stroke="black"  stroke-width="4"  fill="red"/>
<path d="M59.35256907022654,575.826908098244 L60.03241109844714,575.0356927319697 M59.35256907022654,575.826908098244 L57.970796929826065,576.176133429061 M60.03241109844714,575.0356927319697 L57.970796929826065,576.176133429061 M58.26649910142362,574.9580691364772 L60.03241109844714,575.0356927319697 M59.35256907022654,575.826908098244 L58.26649910142362,574.9580691364772 M57.970796929826065,576.176133429061 L58.26649910142362,574.9580691364772" stroke="black"  stroke-width="4"  fill="red"/>
<path d="M348.60771411255985,389.7848728585451 L345.10820797184203,393.6166382987832 M345.10820797184203,393.6166382987832 L343.3783014184397,397.83481711249215 M343.3783014184397,397.83481711249215 L343.5047914549791,402.20896680514545 M343.5047914549791,402.20896680514545 L345.46305485694273,406.4995199171859 M345.46305485694273,406.4995199171859 L348.61854974012573,410.02697990193485 M348.61854974012573,410.02697990193485 L352.9750294834011,413.16251653838845 M352.9750294834011,413.16251653838845 L58.54981409962181,576.5212812386791 M259.52504413214615,426.16377957969496 L215.7329241601262,455.3334130262996 M215.7329241601262,455.3334130262996 L173.866292397526,484.96713740583914 M173.866292397526,484.96713740583914 L131.57972249475006,516.7508800425747 M131.57972249475006,516.7508800425747 L94.22538157848726,546.4978744249642 M94.22538157848726,546.4978744249642 L58.54981409962181,576.5212812386791 M348.1357625060116,389.97775166828376 L259.52504413214615,426.16377957969496 M348.60771411255985,389.7848728585451 L348.1357625060116,389.97775166828376 M352.9750294834011,413.16251653838845 L352.9894334997739,411.73600258954 M348.1978451148375,388.2388389095214 L344.9465638076064,391.9656120978391 M344.9465638076064,391.9656120978391 L343.2876396598907,396.03578391150586 M343.2876396598907,396.03578391150586 L343.30282087438684,400.2510732386786 M343.30282087438684,400.2510732386786 L344.99224375142353,404.40595029269434 M344.99224375142353,404.40595029269434 L348.274251541647,408.29765596972663 M348.274251541647,408.29765596972663 L352.9894334997739,411.73600258954 M348.60771411255985,389.7848728585451 L348.1978451148375,388.2388389095214 M352.9894334997739,411.73600258954 L58.26649910142362,574.9580691364772 M58.54981409962181,576.5212812386791 L58.26649910142362,574.9580691364772 M259.0537615712726,424.58444347197485 L215.58120998465245,453.56115179793903 M215.58120998465245,453.56115179793903 L174.02086626605774,482.99637475152997 M174.02086626605774,482.99637475152997 L131.7158371683264,514.8092138880874 M131.7158371683264,514.8092138880874 L94.14488282797561,544.744288880424 M94.14488282797561,544.744288880424 L58.26649910142362,574.9580691364772 M259.52504413214615,426.16377957969496 L259.0537615712726,424.58444347197485 M347.72045666874465,388.43347363202986 L348.1357625060116,389.97775166828376 M347.72045666874465,388.43347363202986 L259.0537615712726,424.58444347197485 M348.1978451148375,388.2388389095214 L347.72045666874465,388.43347363202986" stroke="black"  stroke-width="4"  fill="red"/>
<path d="M397.9506643851509,347.3130403171374 L348.6127503505056,389.78281411707815 M397.9506643851509,347.3130403171374 L369.4963205573914,360.5779464071509 M369.4963205573914,360.5779464071509 L331.57596441520127,382.0287300261692 M331.57596441520127,382.0287300261692 L294.9286076761688,403.9017168478408 M294.9286076761688,403.9017168478408 L259.52504413214615,426.16377957969496 M348.6127503505056,389.78281411707815 L259.52504413214615,426.16377957969496 M397.9506643851509,347.3130403171374 L397.1961472064035,345.80609185665367 M397.1961472064035,345.80609185665367 L348.1978451148375,388.2388389095214 M348.6127503505056,389.78281411707815 L348.1978451148375,388.2388389095214 M397.1961472064035,345.80609185665367 L368.7528742432901,359.01968477344485 M368.7528742432901,359.01968477344485 L330.96522774872557,380.4456735539459 M330.96522774872557,380.4456735539459 L294.4011608453859,402.31818186234784 M294.4011608453859,402.31818186234784 L259.0537615712726,424.58444347197485 M348.1978451148375,388.2388389095214 L259.0537615712726,424.58444347197485 M369.4963205573914,360.5779464071509 L368.7528742432901,359.01968477344485 M259.52504413214615,426.16377957969496 L259.0537615712726,424.58444347197485" stroke="black"  stroke-width="4"  fill="red"/>
<path d="M398.0361548583215,347.2320620563031 L397.9506643851509,347.3130403171374 M398.0361548583215,347.2320620563031 L369.6321142127698,360.5032383316343 M369.6321142127698,360.5032383316343 L369.4963205573914,360.5779464071509 M397.9506643851509,347.3130403171374 L369.4963205573914,360.5779464071509 M398.0361548583215,347.2320620563031 L397.2804947979795,345.7313598926752 M397.2804947979795,345.7313598926752 L397.25270801734445,345.7563646439087 M397.25270801734445,345.7563646439087 L397.2245670301456,345.7812906857687 M397.2245670301456,345.7812906857687 L397.1961472064035,345.80609185665367 M397.9506643851509,347.3130403171374 L397.1961472064035,345.80609185665367 M397.2804947979795,345.7313598926752 L368.88771044633194,358.9452996451042 M368.88771044633194,358.9452996451042 L368.7528742432901,359.01968477344485 M397.1961472064035,345.80609185665367 L368.7528742432901,359.01968477344485 M369.6321142127698,360.5032383316343 L368.88771044633194,358.9452996451042 M369.4963205573914,360.5779464071509 L368.7528742432901,359.01968477344485" stroke="black"  stroke-width="4"  fill="red"/></svg>