<svg viewBox="0 0 800 800" xmlns="http://www.w3.org/2000/svg"><path d="M740.787599890795,183.08370411768198 L722.5931386511115,210.46719797228855 M722.5931386511115,210.46719797228855 L705.8206680450119,237.57393758071993 M705.8206680450119,237.57393758071993 L615.8493593800875,274.7662176845045 M615.8493593800875,274.7662176845045 L535.811488627972,310.05117203883435 M535.811488627972,310.05117203883435 L479.7592097188362,335.5997446127235 M479.7592097188362,335.5997446127235 L432.6845747243794,357.828729697463 M432.6845747243794,357.828729697463 L395.4200355655387,376.4787876764975 M395.4200355655387,376.4787876764975 L363.91011104742546,393.4971596588782 M363.91011104742546,393.4971596588782 L332.56964449997974,412.0305152549205 M332.56964449997974,412.0305152549205 L302.3031058199026,431.7055283599883 M302.3031058199026,431.7055283599883 L269.86330997604784,454.6270815717163 M269.86330997604784,454.6270815717163 L230.43745112922767,484.3546739622109 M230.43745112922767,484.3546739622109 L180.86765274261717,523.4534628092051 M180.86765274261717,523.4534628092051 L124.83016253273144,569.658824522791 M124.83016253273144,569.658824522791 L70.01486060491692,616.9162958823181 M59.212400109204964,600.3477108435883 L70.01486060491692,616.9162958823181 M740.787599890795,183.08370411768198 L607.4021476805019,249.42406603636863 M607.4021476805019,249.42406603636863 L540.7015210077241,281.9114886336257 M540.7015210077241,281.9114886336257 L484.75753494898703,308.76324738732194 M484.75753494898703,308.76324738732194 L435.2617774806297,332.7571535202468 M435.2617774806297,332.7571535202468 L396.0419051768497,352.75009678179174 M396.0419051768497,352.75009678179174 L363.4548029237733,370.73890269049366 M363.4548029237733,370.73890269049366 L334.5489773923846,388.2394930149658 M334.5489773923846,388.2394930149658 L303.81538395751613,408.6825352259074 M303.81538395751613,408.6825352259074 L271.2763708404772,432.115427311708 M271.2763708404772,432.115427311708 L232.8786034880371,461.1013226187587 M232.8786034880371,461.1013226187587 L182.9128244289477,499.4339183902367 M182.9128244289477,499.4339183902367 L120.32739167311655,549.0179270710038 M120.32739167311655,549.0179270710038 L59.212400109204964,600.3477108435883 M705.8206680450119,237.57393758071993 L690.6726341153817,252.89173574096418 M690.6726341153817,252.89173574096418 L675.0677502436306,266.9240095702217 M675.0677502436306,266.9240095702217 L652.7988767191155,284.99991481257723 M652.7988767191155,284.99991481257723 L624.2835993489663,306.11228104856673 M624.2835993489663,306.11228104856673 L605.3535841783746,319.34895018457144 M605.3535841783746,319.34895018457144 L586.3726749785624,332.2065917395015 M586.3726749785624,332.2065917395015 L560.4412229169634,349.2869739596807 M560.4412229169634,349.2869739596807 L534.4559980626432,365.9747979693743 M534.4559980626432,365.9747979693743 L467.7225613411459,407.33995294460544 M467.7225613411459,407.33995294460544 L428.483163040895,430.86127523180085 M428.483163040895,430.86127523180085 L389.1671371881621,454.0259427417369 M389.1671371881621,454.0259427417369 L265.8382021697952,525.3154385941037 M265.8382021697952,525.3154385941037 L230.1121600502521,545.6533707739974 M230.1121600502521,545.6533707739974 L194.32884681371524,565.6297546575319 M194.32884681371524,565.6297546575319 L155.47730954775827,586.2784824857225 M155.47730954775827,586.2784824857225 L129.341556440987,598.9622917047358 M129.341556440987,598.9622917047358 L105.61688624645774,608.868750050278 M105.61688624645774,608.868750050278 L88.4383876228743,614.300236721367 M88.4383876228743,614.300236721367 L79.06218935620228,616.2058642321686 M79.06218935620228,616.2058642321686 L70.01486060491692,616.9162958823181 M705.8206680450119,237.57393758071993 L651.2238095169489,295.327962645791 M651.2238095169489,295.327962645791 L600.1346103390737,347.55963086015913 M600.1346103390737,347.55963086015913 L561.9790329344445,383.6535697484492 M561.9790329344445,383.6535697484492 L527.2777006655532,413.2217668371544 M527.2777006655532,413.2217668371544 L496.9444972658938,436.0247780119138 M496.9444972658938,436.0247780119138 L468.36068469512963,454.8442707133306 M468.36068469512963,454.8442707133306 L436.41446197157916,473.1097453166419 M436.41446197157916,473.1097453166419 L401.7939623896774,490.3093504114386 M401.7939623896774,490.3093504114386 L360.8736440942601,508.3233339202476 M360.8736440942601,508.3233339202476 L307.3598063027527,529.8326104231446 M307.3598063027527,529.8326104231446 L236.89980061593474,556.6688495813963 M236.89980061593474,556.6688495813963 L154.08471629120348,587.0541730284796 M154.08471629120348,587.0541730284796 L70.01486060491692,616.9162958823181 M740.787599890795,183.08370411768198 L652.5297251101357,275.6339162446229 M652.5297251101357,275.6339162446229 L607.6994636664087,320.9323532504077 M607.6994636664087,320.9323532504077 L568.6667210393842,357.74741450503643 M568.6667210393842,357.74741450503643 L531.8210718333345,389.2428918982895 M531.8210718333345,389.2428918982895 L499.7869686235715,413.5413203507493 M499.7869686235715,413.5413203507493 L470.17567887829307,433.36447444968223 M470.17567887829307,433.36447444968223 L440.8504855687042,450.7029123638048 M440.8504855687042,450.7029123638048 L406.0566880087446,468.8504131591354 M406.0566880087446,468.8504131591354 L365.4227634668217,487.61152728340073 M365.4227634668217,487.61152728340073 L313.8811792344485,508.9456184920499 M313.8811792344485,508.9456184920499 L243.72822242506192,535.4494940083963 M243.72822242506192,535.4494940083963 L152.241952846837,567.9817692296281 M152.241952846837,567.9817692296281 L59.212400109204964,600.3477108435883" stroke="black"  stroke-width="4"  fill="red"/></svg>