<svg viewBox="0 0 800 800" xmlns="http://www.w3.org/2000/svg"><path d="M740.8897472733562,199.66262362735495 L740.7692149657655,199.92840144714603 M740.7692149657655,199.92840144714603 L712.835487723486,231.41614944709465 M712.835487723486,231.41614944709465 L682.8321955297474,262.00644760057946 M682.8321955297474,262.00644760057946 L653.8754282634544,288.85698012788464 M653.8754282634544,288.85698012788464 L623.2339318747339,314.83056274199964 M740.8897472733562,199.66262362735495 L712.9948939274118,231.1346308927926 M712.9948939274118,231.1346308927926 L683.1385995490579,261.62049739561303 M683.1385995490579,261.62049739561303 L654.0229572363035,288.6708339066248 M654.0229572363035,288.6708339066248 L623.2339318747339,314.83056274199964 M744.7946032631774,197.56178654425213 L740.7692149657655,199.92840144714603 M740.8897472733562,199.66262362735495 L744.7946032631774,197.56178654425213 M628.5569335713635,312.4377169177585 L623.2339318747339,314.83056274199964 M744.7946032631774,197.56178654425213 L717.0333528332767,229.14838229806082 M717.0333528332767,229.14838229806082 L687.3074022858972,259.7545300091209 M687.3074022858972,259.7545300091209 L658.7471235851445,286.52576680812274 M658.7471235851445,286.52576680812274 L628.5569335713635,312.4377169177585" stroke="black"  stroke-width="4"  fill="red"/>
<path d="M740.7692149657655,199.92840144714603 L727.6929453470511,228.98020540859477 M740.7692149657655,199.92840144714603 L712.835487723486,231.41614944709465 M712.835487723486,231.41614944709465 L682.8321955297474,262.00644760057946 M682.8321955297474,262.00644760057946 L653.8754282634544,288.85698012788464 M653.8754282634544,288.85698012788464 L623.2339318747339,314.83056274199964 M514.1285113291622,391.9305053535421 L552.2875143118497,367.3431670316602 M552.2875143118497,367.3431670316602 L588.6768272669085,341.6310545377173 M588.6768272669085,341.6310545377173 L623.2339318747339,314.83056274199964 M513.9845437094273,392.80662313962455 L514.1285113291622,391.9305053535421 M513.9845437094273,392.80662313962455 L469.20372164968654,418.95454537189744 M469.20372164968654,418.95454537189744 L422.44830526339393,443.75150682919684 M422.44830526339393,443.75150682919684 L372.00953616152026,467.9120281941322 M372.00953616152026,467.9120281941322 L318.44893782885913,491.00373946681157 M318.44893782885913,491.00373946681157 L261.49768438445255,513.0643052206345 M261.49768438445255,513.0643052206345 L200.9277431657775,534.1107587936369 M200.9277431657775,534.1107587936369 L136.72361443491002,554.0630503369174 M136.72361443491002,554.0630503369174 L99.17763104750372,564.7165846470671 M99.17763104750372,564.7165846470671 L61.18149531861786,574.7851380639624 M61.18149531861786,574.7851380639624 L87.58276037167042,599.6466612259284 M727.6929453470511,228.98020540859477 L699.8995108781323,260.6712498266912 M699.8995108781323,260.6712498266912 L670.1508190004606,291.35252206559767 M670.1508190004606,291.35252206559767 L639.1106199771942,320.380541026708 M639.1106199771942,320.380541026708 L606.35744878325,348.2292100927516 M606.35744878325,348.2292100927516 L567.8644211544536,377.8857455652493 M567.8644211544536,377.8857455652493 L527.05099478604,406.2797825943545 M527.05099478604,406.2797825943545 L483.77851377453385,433.5032264201586 M483.77851377453385,433.5032264201586 L437.8854590148618,459.64087582823606 M437.8854590148618,459.64087582823606 L389.18514810690715,484.77112872961766 M389.18514810690715,484.77112872961766 L337.46737445976186,508.96426143791325 M337.46737445976186,508.96426143791325 L282.50858936851296,532.2769479813096 M282.50858936851296,532.2769479813096 L224.10158819946318,554.7397957990161 M224.10158819946318,554.7397957990161 L162.12455304881928,576.3330418030909 M162.12455304881928,576.3330418030909 L125.0933307860281,588.2556663033978 M125.0933307860281,588.2556663033978 L87.58276037167042,599.6466612259284 M744.7946032631774,197.56178654425213 L740.7692149657655,199.92840144714603 M744.7946032631774,197.56178654425213 L743.9173874453172,199.50027949077042 M743.9173874453172,199.50027949077042 L731.6930736364471,226.72669729335183 M727.6929453470511,228.98020540859477 L731.6930736364471,226.72669729335183 M628.5569335713635,312.4377169177585 L623.2339318747339,314.83056274199964 M515.3639716461727,392.8460198617448 L514.1285113291622,391.9305053535421 M628.5569335713635,312.4377169177585 L592.7889199698161,340.4247915506253 M592.7889199698161,340.4247915506253 L555.034775672646,367.2414588502131 M555.034775672646,367.2414588502131 L515.3639716461727,392.8460198617448 M744.7946032631774,197.56178654425213 L717.0333528332767,229.14838229806082 M717.0333528332767,229.14838229806082 L687.3074022858972,259.7545300091209 M687.3074022858972,259.7545300091209 L658.7471235851445,286.52576680812274 M658.7471235851445,286.52576680812274 L628.5569335713635,312.4377169177585 M731.6930736364471,226.72669729335183 L704.0392032920338,258.54053643827285 M704.0392032920338,258.54053643827285 L674.4265598833103,289.35022611684735 M674.4265598833103,289.35022611684735 L643.530404576403,318.49486877314587 M643.530404576403,318.49486877314587 L610.9259497949993,346.45683961273596 M610.9259497949993,346.45683961273596 L572.604727414835,376.23584198918945 M572.604727414835,376.23584198918945 L531.9728541605513,404.7481568346981 M531.9728541605513,404.7481568346981 L488.8942605165835,432.08563569679325 M488.8942605165835,432.08563569679325 L443.2102590124398,458.33309093503044 M443.2102590124398,458.33309093503044 L394.7371187089585,483.5690119855158 M394.7371187089585,483.5690119855158 L343.26717455570383,507.8641022881377 M343.26717455570383,507.8641022881377 L288.5779674012391,531.2761684996364 M288.5779674012391,531.2761684996364 L230.45927209860872,553.8385261857229 M230.45927209860872,553.8385261857229 L168.77729609819124,575.537032179544 M168.77729609819124,575.537032179544 L126.13715263506276,589.3406298930895 M126.13715263506276,589.3406298930895 L82.86091854889611,602.4382134557478 M515.3639716461727,392.8460198617448 L470.46538480172353,419.10416016496265 M470.46538480172353,419.10416016496265 L423.5777784508358,443.88365007436823 M423.5777784508358,443.88365007436823 L373.05870201053733,467.99333585090346 M373.05870201053733,467.99333585090346 L319.3832565106091,491.0791548011596 M319.3832565106091,491.0791548011596 L262.32367124800487,513.1555786843974 M262.32367124800487,513.1555786843974 L201.6956750071663,534.2002184842 M201.6956750071663,534.2002184842 L137.4606581187245,554.1253213672105 M137.4606581187245,554.1253213672105 L97.64184473495527,565.3719968325595 M97.64184473495527,565.3719968325595 L57.30682776161797,575.9625037529632 M56.46585253137778,577.360898210662 L82.86091854889611,602.4382134557478 M57.30682776161797,575.9625037529632 L55.483341384464154,576.4228073252103 M55.483341384464154,576.4228073252103 L56.46585253137778,577.360898210662 M628.5520060673346,312.46533968542656 L628.3370775877474,313.7305172769253 M628.3370775877474,313.7305172769253 L653.843397078175,291.97436018150177 M653.843397078175,291.97436018150177 L678.1731965063082,269.6243069980412 M678.1731965063082,269.6243069980412 L701.4928952648552,246.53160576980775 M701.4928952648552,246.53160576980775 L723.2868943794429,223.25843090225789 M723.2868943794429,223.25843090225789 L743.9173874453172,199.50027949077042 M57.04808069179467,577.2139158345013 L57.29887242045447,576.0005345635545 M56.46585253137778,577.360898210662 L57.04808069179467,577.2139158345013 M87.58276037167042,599.6466612259284 L82.86091854889611,602.4382134557478 M56.46585253137778,577.360898210662 L61.18149531861786,574.7851380639624 M514.6865775584785,393.7047918828317 L466.436784513289,421.72339155905 M466.436784513289,421.72339155905 L421.200404458771,445.6760132809527 M421.200404458771,445.6760132809527 L370.87586723884056,469.7771514103995 M370.87586723884056,469.7771514103995 L317.8417677916324,492.62044805247626 M317.8417677916324,492.62044805247626 L261.3439145765167,514.4876893773802 M261.3439145765167,514.4876893773802 L200.78260621797463,535.5216011622826 M200.78260621797463,535.5216011622826 L136.21873500759403,555.5781796738033 M136.21873500759403,555.5781796738033 L96.88546822202858,566.7155886357363 M96.88546822202858,566.7155886357363 L57.04808069179467,577.2139158345013 M514.6865775584785,393.7047918828317 L515.3639716461727,392.8460198617448 M57.04808069179467,577.2139158345013 L55.205396736822706,577.6809942001283 M55.205396736822706,577.6809942001283 L55.483341384464154,576.4228073252103 M60.19478638965063,573.8510075409607 L61.18149531861786,574.7851380639624 M55.483341384464154,576.4228073252103 L60.19478638965063,573.8510075409607 M514.6865775584785,393.7047918828317 L513.9845437094273,392.80662313962455 M513.9845437094273,392.80662313962455 L507.32689997048664,384.4422666063524 M507.32689997048664,384.4422666063524 L495.74574049748173,390.6718365081423 M495.74574049748173,390.6718365081423 L482.0800890161969,396.29752888920586 M482.0800890161969,396.29752888920586 L463.715008621175,401.97938115445163 M463.715008621175,401.97938115445163 L425.2532204064332,412.7888251943416 M425.2532204064332,412.7888251943416 L404.86030631409136,418.8229381233566 M404.86030631409136,418.8229381233566 L392.56779493443975,421.19779617933864 M392.56779493443975,421.19779617933864 L381.9773224096797,421.8331434871608 M381.9773224096797,421.8331434871608 L373.0891575483015,421.1683996238013 M373.0891575483015,421.1683996238013 L364.781498285308,419.49187801519804 M364.781498285308,419.49187801519804 L359.02663675551844,417.72415057477724 M359.02663675551844,417.72415057477724 L353.09591897481704,415.38838125394125 M55.205396736822706,577.6809942001283 L353.09591897481704,415.38838125394125 M353.09591897481704,415.38838125394125 L353.12735784754483,413.95009287465507 M60.19478638965063,573.8510075409607 L353.12735784754483,413.95009287465507 M61.06845241873407,573.6276189761604 L60.19478638965063,573.8510075409607 M514.1285113291622,391.9305053535421 L469.2583366554261,418.1714888338847 M469.2583366554261,418.1714888338847 L422.3980297878188,442.93156476276215 M422.3980297878188,442.93156476276215 L371.90695742419797,467.0185535441469 M371.90695742419797,467.0185535441469 L318.25828789859906,490.0795577239551 M318.25828789859906,490.0795577239551 L261.2234667817562,512.129524989183 M261.2234667817562,512.129524989183 L200.61782510452994,533.1463879004302 M200.61782510452994,533.1463879004302 L136.4030131750847,553.0425867971094 M136.4030131750847,553.0425867971094 L98.9644169885172,563.6257862919197 M98.9644169885172,563.6257862919197 L61.06845241873407,573.6276189761604 M507.32689997048664,384.4422666063524 L508.13022565261997,383.51438804399334 M515.3639716461727,392.8460198617448 L508.13022565261997,383.51438804399334 M508.13022565261997,383.51438804399334 L498.50627938321963,389.0093043788081 M498.50627938321963,389.0093043788081 L487.1482086405413,393.7114186837557 M487.1482086405413,393.7114186837557 L469.7845659676338,399.2383741718378 M469.7845659676338,399.2383741718378 L432.94765531298486,409.409787588811 M432.94765531298486,409.409787588811 L416.91402652991627,414.33470083355803 M416.91402652991627,414.33470083355803 L400.3098333219609,418.63167255728274 M400.3098333219609,418.63167255728274 L389.3040818357121,420.20278496140384 M389.3040818357121,420.20278496140384 L379.0290911010299,420.33994753639536 M379.0290911010299,420.33994753639536 L370.41086575923197,419.3159740464158 M370.41086575923197,419.3159740464158 L362.36206416709956,417.3690727239391 M362.36206416709956,417.3690727239391 L357.79942135888916,415.83690827722035 M357.79942135888916,415.83690827722035 L353.12735784754483,413.95009287465507 M61.06845241873407,573.6276189761604 L57.30682776161797,575.9625037529632 M60.193996173724884,573.8502287202197 L55.483341384464154,576.4228073252103 M61.06845241873407,573.6276189761604 L60.193996173724884,573.8502287202197 M60.193996173724884,573.8502287202197 L60.19478638965063,573.8510075409607" stroke="black"  stroke-width="4"  fill="red"/>
<path d="M61.06845241873407,573.6276189761604 L60.19478638965063,573.8510075409607 M60.193996173724884,573.8502287202197 L60.19478638965063,573.8510075409607 M61.06845241873407,573.6276189761604 L60.193996173724884,573.8502287202197 M61.06845241873407,573.6276189761604 L57.30682776161797,575.9625037529632 M55.483341384464154,576.4228073252103 L60.19478638965063,573.8510075409607 M57.30682776161797,575.9625037529632 L55.483341384464154,576.4228073252103 M60.193996173724884,573.8502287202197 L55.483341384464154,576.4228073252103" stroke="black"  stroke-width="4"  fill="red"/>
<path d="M728.42090349565,227.96451265364675 L718.6575153761615,237.6470926770749 M718.6575153761615,237.6470926770749 L705.1074670689104,248.96387049190446 M705.1074670689104,248.96387049190446 L685.9042668420844,263.05420275543156 M685.9042668420844,263.05420275543156 L671.4832624240867,272.89067880813377 M671.4832624240867,272.89067880813377 L657.026039980823,282.3928760869711 M657.026039980823,282.3928760869711 L634.3742971296792,296.8344582636478 M634.3742971296792,296.8344582636478 L611.6848445205533,310.95361490386665 M611.6848445205533,310.95361490386665 L575.4371019021252,333.0660206543347 M575.4371019021252,333.0660206543347 L539.1221546135971,354.85828845621984 M539.1221546135971,354.85828845621984 L484.70371254135097,387.0486076618455 M484.70371254135097,387.0486076618455 L430.1473505320748,418.8849159442342 M430.1473505320748,418.8849159442342 L369.7244657563651,453.6993871808845 M369.7244657563651,453.6993871808845 L309.1352294937644,488.12804100517496 M309.1352294937644,488.12804100517496 L269.3444051844349,510.4226839418477 M269.3444051844349,510.4226839418477 L229.4842908697829,532.4075229126249 M229.4842908697829,532.4075229126249 L201.72344131627165,547.4167045322985 M201.72344131627165,547.4167045322985 L173.93718693056596,562.0494745477066 M173.93718693056596,562.0494745477066 L156.20698949482897,571.0728689880093 M156.20698949482897,571.0728689880093 L138.4837704324015,579.7120634483856 M138.4837704324015,579.7120634483856 L115.03305325106612,590.1635160558972 M115.03305325106612,590.1635160558972 L100.58933101664934,595.6168881368208 M100.58933101664934,595.6168881368208 L86.40218339826839,599.5854938440499 M728.42090349565,227.96451265364675 L701.2233133785152,259.2744376282947 M701.2233133785152,259.2744376282947 L671.9084523344823,289.780059720077 M671.9084523344823,289.780059720077 L638.2325669631416,321.34544270645904 M638.2325669631416,321.34544270645904 L602.085156401392,351.8325748625457 M602.085156401392,351.8325748625457 L563.5498998968255,381.1364726780887 M563.5498998968255,381.1364726780887 L522.5926352697951,409.26713065468175 M522.5926352697951,409.26713065468175 L479.11697274836064,436.2744642685909 M479.11697274836064,436.2744642685909 L432.98482710548086,462.22162989346646 M432.98482710548086,462.22162989346646 L384.0305733298801,487.17116726071345 M384.0305733298801,487.17116726071345 L332.0721716340996,511.1774468481847 M332.0721716340996,511.1774468481847 L276.9389409627423,534.2743840376365 M276.9389409627423,534.2743840376365 L218.54346220211596,556.4513851684791 M218.54346220211596,556.4513851684791 L157.04573032200003,577.6138400475171 M157.04573032200003,577.6138400475171 L121.95223156150297,588.805900859052 M121.95223156150297,588.805900859052 L86.40218339826839,599.5854938440499 M728.42090349565,227.96451265364675 L731.6930736364471,226.72669729335183 M86.40218339826839,599.5854938440499 L82.86091854889611,602.4382134557478 M731.6930736364471,226.72669729335183 L722.5309897329896,236.16035035528733 M722.5309897329896,236.16035035528733 L709.7332378189253,247.1452475093949 M709.7332378189253,247.1452475093949 L691.8312126912421,260.53639216564324 M691.8312126912421,260.53639216564324 L665.0363372241281,278.72108635551496 M665.0363372241281,278.72108635551496 L644.1100738113273,292.19396715808966 M644.1100738113273,292.19396715808966 L623.1483544876883,305.3428073501044 M623.1483544876883,305.3428073501044 L589.6071533219326,325.9397010698739 M589.6071533219326,325.9397010698739 L556.00673353473,346.21778225489584 M556.00673353473,346.21778225489584 L504.6259756760072,376.76695839549313 M504.6259756760072,376.76695839549313 L453.1211235561963,406.97244660404226 M453.1211235561963,406.97244660404226 L386.91369686783594,445.2902356389983 M386.91369686783594,445.2902356389983 L320.5059925839089,483.16352421136526 M320.5059925839089,483.16352421136526 L279.2136370328453,506.386841313986 M279.2136370328453,506.386841313986 L237.84603578419316,529.3145292948997 M237.84603578419316,529.3145292948997 L208.21304524290437,545.4395676377395 M208.21304524290437,545.4395676377395 L178.54880132726842,561.1927673175537 M178.54880132726842,561.1927673175537 L159.61784980089337,570.9324505843824 M159.61784980089337,570.9324505843824 L140.68933500731657,580.2870742060637 M140.68933500731657,580.2870742060637 L115.88197788372622,591.561485156873 M115.88197788372622,591.561485156873 L98.74449123801492,598.1418911099869 M98.74449123801492,598.1418911099869 L90.7346784853346,600.6113845744619 M90.7346784853346,600.6113845744619 L82.86091854889611,602.4382134557478 M731.6930736364471,226.72669729335183 L704.0392032920338,258.54053643827285 M704.0392032920338,258.54053643827285 L674.4265598833103,289.35022611684735 M674.4265598833103,289.35022611684735 L643.530404576403,318.49486877314587 M643.530404576403,318.49486877314587 L610.9259497949993,346.45683961273596 M610.9259497949993,346.45683961273596 L572.604727414835,376.23584198918945 M572.604727414835,376.23584198918945 L531.9728541605513,404.7481568346981 M531.9728541605513,404.7481568346981 L488.8942605165835,432.08563569679325 M488.8942605165835,432.08563569679325 L443.2102590124398,458.33309093503044 M443.2102590124398,458.33309093503044 L394.7371187089585,483.5690119855158 M394.7371187089585,483.5690119855158 L343.26717455570383,507.8641022881377 M343.26717455570383,507.8641022881377 L288.5779674012391,531.2761684996364 M288.5779674012391,531.2761684996364 L230.45927209860872,553.8385261857229 M230.45927209860872,553.8385261857229 L168.77729609819124,575.537032179544 M168.77729609819124,575.537032179544 L126.13715263506276,589.3406298930895 M126.13715263506276,589.3406298930895 L82.86091854889611,602.4382134557478" stroke="black"  stroke-width="4"  fill="red"/>
<path d="M514.6865775584785,393.7047918828317 L466.436784513289,421.72339155905 M466.436784513289,421.72339155905 L421.200404458771,445.6760132809527 M421.200404458771,445.6760132809527 L370.87586723884056,469.7771514103995 M370.87586723884056,469.7771514103995 L317.8417677916324,492.62044805247626 M317.8417677916324,492.62044805247626 L261.3439145765167,514.4876893773802 M261.3439145765167,514.4876893773802 L200.78260621797463,535.5216011622826 M200.78260621797463,535.5216011622826 L136.21873500759403,555.5781796738033 M136.21873500759403,555.5781796738033 L95.97586431501429,566.963933668269 M95.97586431501429,566.963933668269 L55.205396736822706,577.6809942001283 M55.205396736822706,577.6809942001283 L353.09591897481704,415.38838125394125 M507.32689997048664,384.4422666063524 L495.74574049748173,390.6718365081423 M495.74574049748173,390.6718365081423 L482.0800890161969,396.29752888920586 M482.0800890161969,396.29752888920586 L463.715008621175,401.97938115445163 M463.715008621175,401.97938115445163 L425.2532204064332,412.7888251943416 M425.2532204064332,412.7888251943416 L404.86030631409136,418.8229381233566 M404.86030631409136,418.8229381233566 L392.56779493443975,421.19779617933864 M392.56779493443975,421.19779617933864 L381.9773224096797,421.8331434871608 M381.9773224096797,421.8331434871608 L373.0891575483015,421.1683996238013 M373.0891575483015,421.1683996238013 L364.781498285308,419.49187801519804 M364.781498285308,419.49187801519804 L359.02663675551844,417.72415057477724 M359.02663675551844,417.72415057477724 L353.09591897481704,415.38838125394125 M514.6865775584785,393.7047918828317 L507.32689997048664,384.4422666063524 M55.205396736822706,577.6809942001283 L55.483341384464154,576.4228073252103 M515.3639716461727,392.8460198617448 L470.46538480172353,419.10416016496265 M470.46538480172353,419.10416016496265 L423.5777784508358,443.88365007436823 M423.5777784508358,443.88365007436823 L373.05870201053733,467.99333585090346 M373.05870201053733,467.99333585090346 L319.3832565106091,491.0791548011596 M319.3832565106091,491.0791548011596 L262.32367124800487,513.1555786843974 M262.32367124800487,513.1555786843974 L201.6956750071663,534.2002184842 M201.6956750071663,534.2002184842 L137.4606581187245,554.1253213672105 M137.4606581187245,554.1253213672105 L96.74177296789634,565.6169792635185 M96.74177296789634,565.6169792635185 L55.483341384464154,576.4228073252103 M514.6865775584785,393.7047918828317 L515.3639716461727,392.8460198617448 M55.483341384464154,576.4228073252103 L353.12735784754483,413.95009287465507 M508.13022565261997,383.51438804399334 L498.50627938321963,389.0093043788081 M498.50627938321963,389.0093043788081 L487.1482086405413,393.7114186837557 M487.1482086405413,393.7114186837557 L469.7845659676338,399.2383741718378 M469.7845659676338,399.2383741718378 L432.94765531298486,409.409787588811 M432.94765531298486,409.409787588811 L416.91402652991627,414.33470083355803 M416.91402652991627,414.33470083355803 L400.3098333219609,418.63167255728274 M400.3098333219609,418.63167255728274 L389.3040818357121,420.20278496140384 M389.3040818357121,420.20278496140384 L379.0290911010299,420.33994753639536 M379.0290911010299,420.33994753639536 L370.41086575923197,419.3159740464158 M370.41086575923197,419.3159740464158 L362.36206416709956,417.3690727239391 M362.36206416709956,417.3690727239391 L357.79942135888916,415.83690827722035 M357.79942135888916,415.83690827722035 L353.12735784754483,413.95009287465507 M515.3639716461727,392.8460198617448 L508.13022565261997,383.51438804399334 M353.09591897481704,415.38838125394125 L353.12735784754483,413.95009287465507 M507.32689997048664,384.4422666063524 L508.13022565261997,383.51438804399334" stroke="black"  stroke-width="4"  fill="red"/>
<path d="M744.697184906282,198.90414279686792 L716.9824088556427,230.43145249463055 M716.9824088556427,230.43145249463055 L687.2991224944903,260.976619138237 M687.2991224944903,260.976619138237 L656.4554375094276,289.75063196380984 M656.4554375094276,289.75063196380984 L624.0263132791378,317.23539875530184 M624.0263132791378,317.23539875530184 L590.0377938355966,343.41919114218706 M590.0377938355966,343.41919114218706 L553.2481278754796,369.1468615800276 M553.2481278754796,369.1468615800276 L514.6865775584785,393.7047918828317 M514.6865775584785,393.7047918828317 L507.32689997048664,384.4422666063524 M506.92810326818085,338.83334616113336 L513.8311450374631,343.8819054520642 M513.8311450374631,343.8819054520642 L518.6117928822382,349.5476406123763 M518.6117928822382,349.5476406123763 L521.6038376329684,356.41798582725744 M521.6038376329684,356.41798582725744 L522.1497642476041,363.95104750306757 M522.1497642476041,363.95104750306757 L519.9911407444791,371.62816176902413 M519.9911407444791,371.62816176902413 L515.7925860543089,377.94828859746644 M515.7925860543089,377.94828859746644 L511.9632145798895,381.47455032418725 M511.9632145798895,381.47455032418725 L507.32689997048664,384.4422666063524 M744.697184906282,198.90414279686792 L506.92810326818085,338.83334616113336 M514.6865775584785,393.7047918828317 L515.3639716461727,392.8460198617448 M744.7946032631774,197.56178654425213 L717.0333528332767,229.14838229806082 M717.0333528332767,229.14838229806082 L687.3074022858972,259.7545300091209 M687.3074022858972,259.7545300091209 L656.3406195351166,288.6763788422013 M656.3406195351166,288.6763788422013 L623.6758058650421,316.4206788736998 M623.6758058650421,316.4206788736998 L585.2940434355061,345.95707670434354 M585.2940434355061,345.95707670434354 L551.0996872675439,369.89255829020567 M551.0996872675439,369.89255829020567 L515.3639716461727,392.8460198617448 M744.697184906282,198.90414279686792 L744.7946032631774,197.56178654425213 M515.3639716461727,392.8460198617448 L508.13022565261997,383.51438804399334 M506.91038177386804,337.4192448113771 L513.8007930301158,342.45443173617286 M513.8007930301158,342.45443173617286 L518.5728504965465,348.1088652561317 M518.5728504965465,348.1088652561317 L521.5634223709806,354.9748188641953 M521.5634223709806,354.9748188641953 L522.1154034553408,362.51525439113755 M522.1154034553408,362.51525439113755 L519.9751570719691,370.234509768002 M519.9751570719691,370.234509768002 L515.7904946866923,376.7253645184413 M515.7904946866923,376.7253645184413 L512.2886478139968,380.2736299278223 M512.2886478139968,380.2736299278223 L508.13022565261997,383.51438804399334 M744.7946032631774,197.56178654425213 L506.91038177386804,337.4192448113771 M507.32689997048664,384.4422666063524 L508.13022565261997,383.51438804399334 M506.92810326818085,338.83334616113336 L506.91038177386804,337.4192448113771" stroke="black"  stroke-width="4"  fill="red"/></svg>