<svg viewBox="0 0 800 800" xmlns="http://www.w3.org/2000/svg"><path d="M693.7742625622407,189.1959273007256 L703.4504613886339,227.26915114997928 M703.4504613886339,227.26915114997928 L653.3823684547823,243.94705973514039 M653.3823684547823,243.94705973514039 L605.048047972485,261.24652164044556 M605.048047972485,261.24652164044556 L559.1919469679125,278.873038321175 M559.1919469679125,278.873038321175 L515.3176340309003,296.9752499605742 M515.3176340309003,296.9752499605742 L473.35481157892787,315.55870796758165 M473.35481157892787,315.55870796758165 L433.23798792278234,334.6315165198107 M433.23798792278234,334.6315165198107 L394.9068175238212,354.2042610907869 M394.9068175238212,354.2042610907869 L358.3062203322749,374.29005601166443 M358.3062203322749,374.29005601166443 L323.38659233649537,394.90454103792456 M323.38659233649537,394.90454103792456 L290.10394390363604,416.06586531280357 M290.10394390363604,416.06586531280357 L258.42022899020856,437.79459834240197 M258.42022899020856,437.79459834240197 L225.0533146059268,462.6305926708353 M225.0533146059268,462.6305926708353 L193.58746212555195,488.2290230529685 M193.58746212555195,488.2290230529685 L169.1098874019111,509.8851335737211 M169.1098874019111,509.8851335737211 L141.04961016679988,536.9741274067161 M141.04961016679988,536.9741274067161 L114.84282965007071,564.9424080792139 M114.84282965007071,564.9424080792139 L95.50234993938636,587.6273916516194 M95.50234993938636,587.6273916516194 L77.3996005033573,610.8040726992745 M50.27992586885949,580.6536663807316 L77.3996005033573,610.8040726992745 M693.7742625622407,189.1959273007256 L643.2004081557284,205.59029641163636 M643.2004081557284,205.59029641163636 L594.3352111691363,222.64715875101814 M594.3352111691363,222.64715875101814 L547.8697240159373,240.09962003080255 M547.8697240159373,240.09962003080255 L503.34303411751307,258.08210688518517 M503.34303411751307,258.08210688518517 L460.6897753202493,276.59989698994656 M460.6897753202493,276.59989698994656 L419.84916326554975,295.66076526031657 M419.84916326554975,295.66076526031657 L380.765267198763,315.2749857527199 M380.765267198763,315.2749857527199 L343.38720641290377,335.4552822731172 M343.38720641290377,335.4552822731172 L307.66920189602513,356.2169317697899 M307.66920189602513,356.2169317697899 L273.57089758726863,377.57763409578195 M273.57089758726863,377.57763409578195 L241.05740966204814,399.55753556411025 M241.05740966204814,399.55753556411025 L206.75587973865572,424.7325139053411 M206.75587973865572,424.7325139053411 L180.6792213339618,445.463138413146 M180.6792213339618,445.463138413146 L155.8365408354937,466.7083968504028 M155.8365408354937,466.7083968504028 L126.403903893814,494.10778404759003 M126.403903893814,494.10778404759003 L98.82117831102619,522.4376012010515 M98.82117831102619,522.4376012010515 L73.59513117337201,551.1371636316101 M73.59513117337201,551.1371636316101 L50.27992586885949,580.6536663807316" stroke="black"  stroke-width="4"  fill="red"/>
<path d="M703.4504613886339,227.26915114997928 L719.2315104011736,246.07940050067134 M478.34666180168455,412.6608960239713 L505.78312115244955,395.6034976475943 M505.78312115244955,395.6034976475943 L533.165538875621,378.1375006853875 M533.165538875621,378.1375006853875 L560.4884563837909,360.25195376092506 M560.4884563837909,360.25195376092506 L587.7455269469616,341.9336441559848 M587.7455269469616,341.9336441559848 L613.4690776772959,324.18898515420506 M613.4690776772959,324.18898515420506 L639.1207500562881,306.03010172696077 M639.1207500562881,306.03010172696077 L659.2322991968779,291.4543004317417 M659.2322991968779,291.4543004317417 L679.2908025598897,276.60783913023937 M679.2908025598897,276.60783913023937 L699.2920305718271,261.4847063796175 M699.2920305718271,261.4847063796175 L719.2315104011736,246.07940050067134 M478.34666180168455,412.6608960239713 L438.54021433777916,433.87295129971426 M438.54021433777916,433.87295129971426 L400.643034487441,455.92953723818766 M400.643034487441,455.92953723818766 L364.65562897430607,478.83569945592865 M77.3996005033573,610.8040726992745 L102.66825302213022,601.6059069869372 M102.66825302213022,601.6059069869372 L127.9765419777658,591.8653015053536 M127.9765419777658,591.8653015053536 L153.31492234251135,581.6044539819507 M153.31492234251135,581.6044539819507 L178.67445848321358,570.8464368896243 M178.67445848321358,570.8464368896243 L205.8928897486892,558.7797043105442 M205.8928897486892,558.7797043105442 L233.11704977451552,546.196155152387 M233.11704977451552,546.196155152387 L261.57855693647264,532.5163248656361 M261.57855693647264,532.5163248656361 L290.0291921069084,518.3302370890434 M290.0291921069084,518.3302370890434 L327.36471552698544,498.973539854132 M327.36471552698544,498.973539854132 L364.65562897430607,478.83569945592865 M703.4504613886339,227.26915114997928 L653.3823684547823,243.94705973514039 M653.3823684547823,243.94705973514039 L605.048047972485,261.24652164044556 M605.048047972485,261.24652164044556 L559.1919469679125,278.873038321175 M559.1919469679125,278.873038321175 L515.3176340309003,296.9752499605742 M515.3176340309003,296.9752499605742 L473.35481157892787,315.55870796758165 M473.35481157892787,315.55870796758165 L433.23798792278234,334.6315165198107 M433.23798792278234,334.6315165198107 L394.9068175238212,354.2042610907869 M394.9068175238212,354.2042610907869 L358.3062203322749,374.29005601166443 M358.3062203322749,374.29005601166443 L323.38659233649537,394.90454103792456 M323.38659233649537,394.90454103792456 L290.10394390363604,416.06586531280357 M290.10394390363604,416.06586531280357 L258.42022899020856,437.79459834240197 M258.42022899020856,437.79459834240197 L225.0533146059268,462.6305926708353 M225.0533146059268,462.6305926708353 L193.58746212555195,488.2290230529685 M193.58746212555195,488.2290230529685 L169.1098874019111,509.8851335737211 M169.1098874019111,509.8851335737211 L141.04961016679988,536.9741274067161 M141.04961016679988,536.9741274067161 L114.84282965007071,564.9424080792139 M114.84282965007071,564.9424080792139 L95.50234993938636,587.6273916516194 M95.50234993938636,587.6273916516194 L77.3996005033573,610.8040726992745" stroke="black"  stroke-width="4"  fill="red"/>
<path d="M749.7200741311406,221.5130768545157 L738.1236543485437,247.32544050425446 M738.1236543485437,247.32544050425446 L712.7815485797944,278.3715556279162 M712.7815485797944,278.3715556279162 L685.927139846088,308.20859107017657 M685.927139846088,308.20859107017657 L658.0337904601091,336.37143808294866 M658.0337904601091,336.37143808294866 L628.887896915965,363.1620672026945 M628.887896915965,363.1620672026945 L598.4943035911765,388.61909062052894 M598.4943035911765,388.61909062052894 L566.8525316870357,412.7783669031653 M566.8525316870357,412.7783669031653 L533.9568475984747,435.6726786752846 M533.9568475984747,435.6726786752846 L499.7961962547704,457.33158142957484 M499.7961962547704,457.33158142957484 L464.35423303030495,477.781206859025 M464.35423303030495,477.781206859025 L427.60933465361893,497.04408528739043 M427.60933465361893,497.04408528739043 L389.5348606872128,515.1389313991031 M389.5348606872128,515.1389313991031 L345.63280923611484,533.8918425287808 M345.63280923611484,533.8918425287808 L300.0023346010275,551.2344903040441 M300.0023346010275,551.2344903040441 L261.1302592144257,564.4496396045666 M261.1302592144257,564.4496396045666 L212.1979152817301,579.2387243804362 M212.1979152817301,579.2387243804362 L161.3590060047866,592.6244268454078 M161.3590060047866,592.6244268454078 L119.91426151856592,602.1755735049222 M119.91426151856592,602.1755735049222 L77.3996005033573,610.8040726992745 M50.27992587795757,580.6536663861581 L77.3996005033573,610.8040726992745 M749.7200741311406,221.5130768545157 L722.8863070787816,251.70910819093865 M722.8863070787816,251.70910819093865 L694.5410613455613,280.75240548364013 M694.5410613455613,280.75240548364013 L665.1404869005246,308.2267195120469 M665.1404869005246,308.2267195120469 L634.4745499403851,334.40143856536986 M634.4745499403851,334.40143856536986 L602.5454423692051,359.3105879089087 M602.5454423692051,359.3105879089087 L569.3503734977903,382.9856463571838 M569.3503734977903,382.9856463571838 L534.8815750431864,405.4553077402479 M534.8815750431864,405.4553077402479 L499.1263959370522,426.7452881728809 M499.1263959370522,426.7452881728809 L462.0671463314232,446.87822614744096 M462.0671463314232,446.87822614744096 L423.68135897651007,465.8734351056927 M423.68135897651007,465.8734351056927 L383.9418038839668,483.74682739378636 M383.9418038839668,483.74682739378636 L338.161678452616,502.30472250297464 M338.161678452616,502.30472250297464 L300.27751801048095,516.1710904662514 M300.27751801048095,516.1710904662514 L261.2996163112122,529.1524810165047 M261.2996163112122,529.1524810165047 L210.83065887505995,544.1893720127306 M210.83065887505995,544.1893720127306 L158.4442377518932,557.8712607394672 M158.4442377518932,557.8712607394672 L105.19686922422,569.951873860795 M105.19686922422,569.951873860795 L50.27992587795757,580.6536663861581" stroke="black"  stroke-width="4"  fill="red"/>
<path d="M738.1236543485437,247.32544050425446 L719.2315104011736,246.07940050067134 M478.34666180168455,412.6608960239713 L505.78312115244955,395.6034976475943 M505.78312115244955,395.6034976475943 L533.165538875621,378.1375006853875 M533.165538875621,378.1375006853875 L560.4884563837909,360.25195376092506 M560.4884563837909,360.25195376092506 L587.7455269469616,341.9336441559848 M587.7455269469616,341.9336441559848 L613.4690776772959,324.18898515420506 M613.4690776772959,324.18898515420506 L639.1207500562881,306.03010172696077 M639.1207500562881,306.03010172696077 L659.2322991968779,291.4543004317417 M659.2322991968779,291.4543004317417 L679.2908025598897,276.60783913023937 M679.2908025598897,276.60783913023937 L699.2920305718271,261.4847063796175 M699.2920305718271,261.4847063796175 L719.2315104011736,246.07940050067134 M478.34666180168455,412.6608960239713 L442.1073677020555,435.967626941361 M442.1073677020555,435.967626941361 L404.21013261413464,458.02803807965984 M404.21013261413464,458.02803807965984 L364.65562897430607,478.83569945592865 M77.3996005033573,610.8040726992745 L102.66825302213022,601.6059069869372 M102.66825302213022,601.6059069869372 L127.9765419777658,591.8653015053536 M127.9765419777658,591.8653015053536 L153.31492234251135,581.6044539819507 M153.31492234251135,581.6044539819507 L178.67445848321358,570.8464368896243 M178.67445848321358,570.8464368896243 L205.8928897486892,558.7797043105442 M205.8928897486892,558.7797043105442 L233.11704977451552,546.196155152387 M233.11704977451552,546.196155152387 L261.57855693647264,532.5163248656361 M261.57855693647264,532.5163248656361 L290.0291921069084,518.3302370890434 M290.0291921069084,518.3302370890434 L327.36471552698544,498.973539854132 M327.36471552698544,498.973539854132 L364.65562897430607,478.83569945592865 M738.1236543485437,247.32544050425446 L712.7815485797944,278.3715556279162 M712.7815485797944,278.3715556279162 L685.927139846088,308.20859107017657 M685.927139846088,308.20859107017657 L658.0337904601091,336.37143808294866 M658.0337904601091,336.37143808294866 L628.887896915965,363.1620672026945 M628.887896915965,363.1620672026945 L598.4943035911765,388.61909062052894 M598.4943035911765,388.61909062052894 L566.8525316870357,412.7783669031653 M566.8525316870357,412.7783669031653 L533.9568475984747,435.6726786752846 M533.9568475984747,435.6726786752846 L499.7961962547704,457.33158142957484 M499.7961962547704,457.33158142957484 L464.35423303030495,477.781206859025 M464.35423303030495,477.781206859025 L427.60933465361893,497.04408528739043 M427.60933465361893,497.04408528739043 L389.5348606872128,515.1389313991031 M389.5348606872128,515.1389313991031 L345.63280923611484,533.8918425287808 M345.63280923611484,533.8918425287808 L300.0023346010275,551.2344903040441 M300.0023346010275,551.2344903040441 L261.1302592144257,564.4496396045666 M261.1302592144257,564.4496396045666 L212.1979152817301,579.2387243804362 M212.1979152817301,579.2387243804362 L161.3590060047866,592.6244268454078 M161.3590060047866,592.6244268454078 L119.91426151856592,602.1755735049222 M119.91426151856592,602.1755735049222 L77.3996005033573,610.8040726992745" stroke="black"  stroke-width="4"  fill="red"/></svg>