<svg viewBox="0 0 800 800" xmlns="http://www.w3.org/2000/svg"><path d="M514.7071539362555,223.835675022387 L514.7139937965228,222.89250708355792 M508.4914847392382,229.85490559944768 L508.49815632910736,228.9115666054873 M514.7071539362555,223.835675022387 L508.4914847392382,229.85490559944768 M514.7139937965228,222.89250708355792 L508.49815632910736,228.9115666054873 M502.3167798651757,235.88953861711548 L502.3232841943211,234.946028248635 M508.4914847392382,229.85490559944768 L502.3167798651757,235.88953861711548 M508.49815632910736,228.9115666054873 L502.3232841943211,234.946028248635 M496.187795402436,241.94107100805596 L496.19413361255215,240.99738890410725 M502.3167798651757,235.88953861711548 L496.187795402436,241.94107100805596 M502.3232841943211,234.946028248635 L496.19413361255215,240.99738890410725 M490.1058741136276,248.01033217815626 L490.11204738447486,247.06647795527593 M496.187795402436,241.94107100805596 L490.1058741136276,248.01033217815626 M496.19413361255215,240.99738890410725 L490.11204738447486,247.06647795527593 M484.06829747635595,254.09742662806482 L484.0743069138298,253.15339990087932 M490.1058741136276,248.01033217815626 L484.06829747635595,254.09742662806482 M490.11204738447486,247.06647795527593 L484.0743069138298,253.15339990087932 M478.06846826101844,260.2016692124494 L478.07431479005425,259.2574696160409 M484.06829747635595,254.09742662806482 L478.06846826101844,260.2016692124494 M484.0743069138298,253.15339990087932 L478.07431479005425,259.2574696160409 M472.0964219205234,266.32170663970834 L472.1021061919631,265.3773338484647 M478.06846826101844,260.2016692124494 L472.0964219205234,266.32170663970834 M478.07431479005425,259.2574696160409 L472.1021061919631,265.3773338484647 M466.1399237501497,272.4557177114878 L466.1454460777428,271.51117145222497 M472.0964219205234,266.32170663970834 L466.1399237501497,272.4557177114878 M472.1021061919631,265.3773338484647 L466.1454460777428,271.51117145222497 M460.18615314654187,278.6016927085632 L460.1915134903346,277.6569727657078 M466.1399237501497,272.4557177114878 L460.18615314654187,278.6016927085632 M466.1454460777428,271.51117145222497 L460.1915134903346,277.6569727657078 M454.2235370746421,284.757853756548 L454.22873507498844,283.81295996543327 M460.18615314654187,278.6016927085632 L454.2235370746421,284.757853756548 M460.1915134903346,277.6569727657078 L454.22873507498844,283.81295996543327 M448.2396893493151,290.9224587817787 L448.2447243040797,289.97739102749296 M454.2235370746421,284.757853756548 L448.2396893493151,290.9224587817787 M454.22873507498844,283.81295996543327 L448.2447243040797,289.97739102749296 M442.22265279841304,297.0934325558982 L442.2275236742739,296.14819078253754 M448.2396893493151,290.9224587817787 L442.22265279841304,297.0934325558982 M448.2447243040797,289.97739102749296 L442.2275236742739,296.14819078253754 M436.1642659188975,303.26845291063006 L436.16897145557664,302.32303712808874 M442.22265279841304,297.0934325558982 L436.1642659188975,303.26845291063006 M442.2275236742739,296.14819078253754 L436.16897145557664,302.32303712808874 M430.0603763839571,309.4448543121723 L430.06491520451834,308.4992646056213 M436.1642659188975,303.26845291063006 L430.0603763839571,309.4448543121723 M436.16897145557664,302.32303712808874 L430.06491520451834,308.4992646056213 M423.91065568492684,315.61960160503514 L423.91502640117176,314.67383814510555 M430.0603763839571,309.4448543121723 L423.91065568492684,315.61960160503514 M430.06491520451834,308.4992646056213 L423.91502640117176,314.67383814510555 M417.7182031805098,321.78935708736896 L417.72240448766775,320.84342013841257 M423.91065568492684,315.61960160503514 L417.7182031805098,321.78935708736896 M423.91502640117176,314.67383814510555 L417.72240448766775,320.84342013841257 M411.4887682080291,327.95074339841307 L411.49279895821235,327.0046333193482 M417.7182031805098,321.78935708736896 L411.4887682080291,327.95074339841307 M417.72240448766775,320.84342013841257 L411.49279895821235,327.0046333193482 M405.22994999131174,334.1006532341065 L405.23380924506523,333.1543704705679 M411.4887682080291,327.95074339841307 L405.22994999131174,334.1006532341065 M411.49279895821235,327.0046333193482 L405.23380924506523,333.1543704705679 M398.9501282069773,340.2367360437598 L398.9538152554529,339.29028110662426 M405.22994999131174,334.1006532341065 L398.9501282069773,340.2367360437598 M405.23380924506523,333.1543704705679 L398.9538152554529,339.29028110662426 M392.65739098934273,346.3579016271118 L392.66090534693035,345.41127505698597 M398.9501282069773,340.2367360437598 L392.65739098934273,346.3579016271118 M398.9538152554529,339.29028110662426 L392.66090534693035,345.41127505698597 M386.3584058067481,352.46483804961224 L386.361747172493,351.51804036693903 M392.65739098934273,346.3579016271118 L386.3584058067481,352.46483804961224 M392.66090534693035,345.41127505698597 L386.361747172493,351.51804036693903 M380.05754489937465,358.5602932141138 L380.0607130940814,357.6133248615753 M386.3584058067481,352.46483804961224 L380.05754489937465,358.5602932141138 M386.361747172493,351.51804036693903 L380.0607130940814,357.6133248615753 M373.7561568305145,364.6490989488458 L373.75915171346855,363.70196023329595 M380.05754489937465,358.5602932141138 L373.7561568305145,364.6490989488458 M380.0607130940814,357.6133248615753 L373.75915171346855,363.70196023329595 M367.45230619716153,370.7376472791053 L367.4551275752981,369.79033832834574 M373.7561568305145,364.6490989488458 L367.45230619716153,370.7376472791053 M373.75915171346855,363.70196023329595 L367.4551275752981,369.79033832834574 M361.14137793209494,376.8328341186471 L361.1440254855024,375.88535486785975 M367.45230619716153,370.7376472791053 L361.14137793209494,376.8328341186471 M367.4551275752981,369.79033832834574 L361.1440254855024,375.88535486785975 M354.8188179749841,382.9406932821221 L354.82129125800344,381.9930434984785 M361.14137793209494,376.8328341186471 L354.8188179749841,382.9406932821221 M361.1440254855024,375.88535486785975 L354.82129125800344,381.9930434984785 M348.4813610695343,389.06492671207195 L348.48365954574376,388.1171060602503 M354.8188179749841,382.9406932821221 L348.4813610695343,389.06492671207195 M354.82129125800344,381.9930434984785 L348.48365954574376,388.1171060602503 M342.12748359867464,395.20644024778284 L342.12960668855897,394.2584483681941 M348.4813610695343,389.06492671207195 L342.12748359867464,395.20644024778284 M348.48365954574376,388.1171060602503 L342.12960668855897,394.2584483681941 M335.75737657080595,401.36358694388815 L335.75932369893275,400.41542352384664 M342.12748359867464,395.20644024778284 L335.75737657080595,401.36358694388815 M342.12960668855897,394.2584483681941 L335.75932369893275,400.41542352384664 M329.3724778583726,407.53287900695267 L329.37424848787987,406.58454383177883 M335.75737657080595,401.36358694388815 L329.3724778583726,407.53287900695267 M335.75932369893275,400.41542352384664 L329.37424848787987,406.58454383177883 M322.9749076533786,413.709872263917 L322.97650130502973,412.7613652432558 M329.3724778583726,407.53287900695267 L322.9749076533786,413.709872263917 M329.37424848787987,406.58454383177883 L322.97650130502973,412.7613652432558 M316.5670432357837,419.89003548761417 L316.56845949536915,418.9413566574978 M322.9749076533786,413.709872263917 L316.5670432357837,419.89003548761417 M322.97650130502973,412.7613652432558 L316.56845949536915,418.9413566574978 M310.1512237743939,426.0695067649743 L310.1524622920051,425.12065626887176 M316.5670432357837,419.89003548761417 L310.1512237743939,426.0695067649743 M316.56845949536915,418.9413566574978 L310.1524622920051,425.12065626887176 M303.7295061091918,432.24551577244625 L303.73056659169714,431.2964938306607 M310.1512237743939,426.0695067649743 L303.7295061091918,432.24551577244625 M310.1524622920051,425.12065626887176 L303.73056659169714,431.2964938306607 M297.30444860843437,438.41691643223163 L297.30533083370597,437.46772329663827 M303.7295061091918,432.24551577244625 L297.30444860843437,438.41691643223163 M303.73056659169714,431.2964938306607 L297.30533083370597,437.46772329663827 M290.878526156918,444.5839853137398 L290.87922997171864,443.63462122827275 M297.30444860843437,438.41691643223163 L290.878526156918,444.5839853137398 M297.30533083370597,437.46772329663827 L290.87922997171864,443.63462122827275 M284.45451579074563,450.7484090760443 L284.45504111926766,449.79887423767343 M290.878526156918,444.5839853137398 L284.45451579074563,450.7484090760443 M290.87922997171864,443.63462122827275 L284.45504111926766,449.79887423767343 M278.0355258233143,456.91306244803434 L278.0358726764646,455.96335697402793 M284.45451579074563,450.7484090760443 L278.0355258233143,456.91306244803434 M284.45504111926766,449.79887423767343 L278.0358726764646,455.96335697402793 M271.6248695183473,463.08141184389757 L271.6250379994647,462.13153575569277 M278.0355258233143,456.91306244803434 L271.6248695183473,463.08141184389757 M278.0358726764646,455.96335697402793 L271.6250379994647,462.13153575569277 M265.2258235765341,469.2567035279976 L265.2258138803594,468.3066567575613 M271.6248695183473,463.08141184389757 L265.2258235765341,469.2567035279976 M271.6250379994647,462.13153575569277 L265.2258138803594,468.3066567575613 M258.84083793493056,475.4416924386167 L258.8406503245724,474.49147484227205 M265.2258235765341,469.2567035279976 L258.84083793493056,475.4416924386167 M265.2258138803594,468.3066567575613 L258.8406503245724,474.49147484227205 M252.4714487890102,481.6385848450755 L252.47108357047222,480.6881962188618 M258.84083793493056,475.4416924386167 L252.4714487890102,481.6385848450755 M258.8406503245724,474.49147484227205 L252.47108357047222,480.6881962188618 M246.1182324314566,487.8489935237419 L246.11768992686262,486.89843361995577 M252.4714487890102,481.6385848450755 L246.1182324314566,487.8489935237419 M252.47108357047222,480.6881962188618 L246.11768992686262,486.89843361995577 M239.78092117160236,494.07388635182144 L239.78020169563956,493.12315489691474 M246.1182324314566,487.8489935237419 L239.78092117160236,494.07388635182144 M246.11768992686262,486.89843361995577 L239.78020169563956,493.12315489691474 M233.4584313213045,500.3136004079448 L233.45753515843802,499.36269711997033 M239.78092117160236,494.07388635182144 L233.4584313213045,500.3136004079448 M239.78020169563956,493.12315489691474 L233.45753515843802,499.36269711997033 M227.14905184030158,506.5678469898487 L227.14797922724568,505.6167715957033 M233.4584313213045,500.3136004079448 L227.14905184030158,506.5678469898487 M233.45753515843802,499.36269711997033 L227.14797922724568,505.6167715957033 M220.85058272279872,512.8358044216934 L220.8493338348456,511.88455667174685 M227.14905184030158,506.5678469898487 L220.85058272279872,512.8358044216934 M227.14797922724568,505.6167715957033 L220.8493338348456,511.88455667174685 M214.56051754036258,519.1162295613162 L214.55909248280278,518.164809240923 M220.85058272279872,512.8358044216934 L214.56051754036258,519.1162295613162 M220.8493338348456,511.88455667174685 L214.55909248280278,518.164809240923 M208.2762700177597,525.4076467097432 L208.2746688236224,524.4560536455252 M214.56051754036258,519.1162295613162 L208.2762700177597,525.4076467097432 M214.55909248280278,518.164809240923 L208.2746688236224,524.4560536455252 M185.56807393912476,526.2037657435621 L185.5658380564945,525.2521508294335 M208.2762700177597,525.4076467097432 L185.56807393912476,526.2037657435621 M208.2746688236224,524.4560536455252 L185.5658380564945,525.2521508294335 M192.36413312731707,519.5342228133736 L192.36208796493207,518.5827910121209 M185.56807393912476,526.2037657435621 L192.36413312731707,519.5342228133736 M185.5658380564945,525.2521508294335 L192.36208796493207,518.5827910121209 M199.17084601811803,512.8777432464856 L199.16899172460546,511.926494343739 M192.36413312731707,519.5342228133736 L199.17084601811803,512.8777432464856 M192.36208796493207,518.5827910121209 L199.16899172460546,511.926494343739 M205.99373408359975,506.2369796302397 L205.99207096154402,505.28591333781037 M199.17084601811803,512.8777432464856 L205.99373408359975,506.2369796302397 M199.16899172460546,511.926494343739 L205.99207096154402,505.28591333781037 M212.8384060368462,499.6145197562609 L212.83693454511,498.6636357136973 M205.99373408359975,506.2369796302397 L212.8384060368462,499.6145197562609 M205.99207096154402,505.28591333781037 L212.83693454511,498.6636357136973 M219.70972490264387,493.0124107176391 L219.70844563548644,492.06170850690484 M212.8384060368462,499.6145197562609 L219.70972490264387,493.0124107176391 M212.83693454511,498.6636357136973 L219.70844563548644,492.06170850690484 M226.61108261054449,486.4317836483404 L226.60999625655035,485.4812628188983 M219.70972490264387,493.0124107176391 L226.61108261054449,486.4317836483404 M219.70844563548644,492.06170850690484 L226.60999625655035,485.4812628188983 M233.5438071921538,479.87259312001464 L233.54291447668226,478.92225322120163 M226.61108261054449,486.4317836483404 L233.5438071921538,479.87259312001464 M226.60999625655035,485.4812628188983 L233.54291447668226,478.92225322120163 M240.5066868298586,473.33344690406676 L240.50598844428538,472.3832875222956 M233.5438071921538,479.87259312001464 L240.5066868298586,473.33344690406676 M233.54291447668226,478.92225322120163 L240.50598844428538,472.3832875222956 M247.49562953102117,466.8115256095255 L247.49512605256206,465.8615464078502 M240.5066868298586,473.33344690406676 L247.49562953102117,466.8115256095255 M240.50598844428538,472.3832875222956 L247.49512605256206,465.8615464078502 M254.50343949136243,460.3025626416113 L254.50313129674186,459.35276339999785 M247.49562953102117,466.8115256095255 L254.50343949136243,460.3025626416113 M247.49512605256206,465.8615464078502 L254.50313129674186,459.35276339999785 M261.5197477038394,453.8009132329178 L261.51963488110687,452.8512938867549 M254.50343949136243,460.3025626416113 L261.5197477038394,453.8009132329178 M254.50313129674186,459.35276339999785 L261.51963488110687,452.8512938867549 M268.5311484813044,447.2996404163951 L268.5312307455352,446.3502010927675 M261.5197477038394,453.8009132329178 L268.5311484813044,447.2996404163951 M261.51963488110687,452.8512938867549 L268.5312307455352,446.3502010927675 M275.522431923282,440.7909356713827 L275.52270856664376,439.8416767138201 M268.5311484813044,447.2996404163951 L275.522431923282,440.7909356713827 M268.5312307455352,446.3502010927675 L275.52270856664376,439.8416767138201 M282.4795284087409,434.26778617523837 L282.47999833250117,433.3187081223012 M275.522431923282,440.7909356713827 L282.4795284087409,434.26778617523837 M275.52270856664376,439.8416767138201 L282.47999833250117,433.3187081223012 M289.3912643588305,427.7254068147061 L289.39192615419677,426.7765103387311 M282.4795284087409,434.26778617523837 L289.3912643588305,427.7254068147061 M282.47999833250117,433.3187081223012 L289.39192615419677,426.7765103387311 M296.2499311562443,421.16173026278955 L296.25078320100897,420.2130160947841 M289.3912643588305,427.7254068147061 L296.2499311562443,421.16173026278955 M289.39192615419677,426.7765103387311 L296.25078320100897,420.2130160947841 M303.05125239224355,414.57755619457106 L303.05229294650087,413.62902504466985 M296.2499311562443,421.16173026278955 L303.05125239224355,414.57755619457106 M296.25078320100897,420.2130160947841 L303.05229294650087,413.62902504466985 M309.7950325635795,407.9767312925083 L309.79625988343645,407.02838376511454 M303.05125239224355,414.57755619457106 L309.7950325635795,407.9767312925083 M303.05229294650087,413.62902504466985 L309.79625988343645,407.02838376511454 M316.4841929557946,401.36547181423487 L316.485605380225,400.4173083416991 M309.7950325635795,407.9767312925083 L316.4841929557946,401.36547181423487 M309.79625988343645,407.02838376511454 L316.485605380225,400.4173083416991 M323.12462057297734,394.75162564569206 L323.12621660637365,393.8036464423028 M316.4841929557946,401.36547181423487 L323.12462057297734,394.75162564569206 M316.485605380225,400.4173083416991 L323.12621660637365,393.8036464423028 M329.72483973721074,388.1434877904377 L329.7266181226302,387.19569283927484 M323.12462057297734,394.75162564569206 L329.72483973721074,388.1434877904377 M323.12621660637365,393.8036464423028 L329.7266181226302,387.19569283927484 M336.29560451483553,381.5483956118769 L336.2975642956678,380.6007846908306 M329.72483973721074,388.1434877904377 L336.29560451483553,381.5483956118769 M329.7266181226302,387.19569283927484 L336.2975642956678,380.6007846908306 M342.84930541965775,374.9712898945067 L342.8514459845029,374.0238626426006 M336.29560451483553,381.5483956118769 L342.84930541965775,374.9712898945067 M336.2975642956678,380.6007846908306 L342.8514459845029,374.0238626426006 M349.3988803265288,368.4135226625112 L349.40120142354147,367.46627867981516 M342.84930541965775,374.9712898945067 L349.3988803265288,368.4135226625112 M342.8514459845029,374.0238626426006 L349.40120142354147,367.46627867981516 M355.95580937001563,361.8722915503196 L355.95831106544927,360.9252305140727 M349.3988803265288,368.4135226625112 L355.95580937001563,361.8722915503196 M349.40120142354147,367.46627867981516 L355.95831106544927,360.9252305140727 M362.52834758160213,355.34149231433844 L362.53103016944675,354.39461407164345 M355.95580937001563,361.8722915503196 L362.52834758160213,355.34149231433844 M355.95831106544927,360.9252305140727 L362.53103016944675,354.39461407164345 M369.1192558550289,348.8137210361639 L369.12211970422516,347.867025640926 M362.52834758160213,355.34149231433844 L369.1192558550289,348.8137210361639 M362.53103016944675,354.39461407164345 L369.12211970422516,347.867025640926 M375.72472875037755,342.2819323739344 L375.72777412290554,341.33542007743534 M369.1192558550289,348.8137210361639 L375.72472875037755,342.2819323739344 M369.12211970422516,347.867025640926 L375.72777412290554,341.33542007743534 M382.33528638849407,335.74064749405215 L382.33851328270737,334.7943187015869 M375.72472875037755,342.2819323739344 L382.33528638849407,335.74064749405215 M375.72777412290554,341.33542007743534 L382.33851328270737,334.7943187015869 M388.93723541992017,329.1863691906059 L388.9406434547095,328.2402244062953 M382.33528638849407,335.74064749405215 L388.93723541992017,329.1863691906059 M382.33851328270737,334.7943187015869 L388.9406434547095,328.2402244062953 M395.5143855105323,322.6174800091799 L395.5179738572017,321.6715197834368 M388.93723541992017,329.1863691906059 L395.5143855105323,322.6174800091799 M388.9406434547095,328.2402244062953 L395.5179738572017,321.6715197834368 M402.04989874246405,316.033849058945 L402.0536661078104,315.0880739468008 M395.5143855105323,322.6174800091799 L402.04989874246405,316.033849058945 M395.5179738572017,321.6715197834368 L402.0536661078104,315.0880739468008 M408.5280706601918,309.4363334528961 L408.5320153187323,308.49074398620223 M402.04989874246405,316.033849058945 L408.5280706601918,309.4363334528961 M402.0536661078104,315.0880739468008 L408.5320153187323,308.49074398620223 M414.93590417472626,302.82633733233797 L414.9400240442262,301.88093400428374 M408.5280706601918,309.4363334528961 L414.93590417472626,302.82633733233797 M408.5320153187323,308.49074398620223 L414.9400240442262,301.88093400428374 M421.2643950452318,296.2054807820352 L421.26868779747724,295.26026404094097 M414.93590417472626,302.82633733233797 L421.2643950452318,296.2054807820352 M414.9400240442262,301.88093400428374 L421.26868779747724,295.26026404094097 M427.50947256661686,289.57538785620653 L427.513935763855,288.63035810527316 M421.2643950452318,296.2054807820352 L427.50947256661686,289.57538785620653 M421.26868779747724,295.26026404094097 L427.513935763855,288.63035810527316 M433.6724649888396,282.9376313487686 L433.67709623275914,281.99278894738586 M427.50947256661686,289.57538785620653 L433.6724649888396,282.9376313487686 M427.513935763855,288.63035810527316 L433.67709623275914,281.99278894738586 M439.76015385052756,276.2937133987996 L439.764950932435,275.3490586644074 M433.6724649888396,282.9376313487686 L439.76015385052756,276.2937133987996 M433.67709623275914,281.99278894738586 L439.764950932435,275.3490586644074 M445.7837417395491,269.6451208349978 L445.7887027618423,268.70065404338976 M439.76015385052756,276.2937133987996 L445.7837417395491,269.6451208349978 M439.764950932435,275.3490586644074 L445.7887027618423,268.70065404338976 M451.7544428604207,262.99323819689425 L451.75956623645584,262.0489595849841 M445.7837417395491,269.6451208349978 L451.7544428604207,262.99323819689425 M445.7887027618423,268.70065404338976 L451.75956623645584,262.0489595849841 M457.6834818630532,256.33954507870766 L457.68876631703176,255.39545484171754 M451.7544428604207,262.99323819689425 L457.6834818630532,256.33954507870766 M451.75956623645584,262.0489595849841 L457.68876631703176,255.39545484171754 M463.5826317000667,249.6854419807265 L463.5880762816586,248.74154027430026 M457.6834818630532,256.33954507870766 L463.5826317000667,249.6854419807265 M457.68876631703176,255.39545484171754 L463.5880762816586,248.74154027430026 M469.46293125106536,243.03222757365572 L469.468535314743,242.08851451662682 M463.5826317000667,249.6854419807265 L469.46293125106536,243.03222757365572 M463.5880762816586,248.74154027430026 L469.468535314743,242.08851451662682 M475.3337337136753,236.38100880422337 L475.3394968719058,235.43748448394444 M469.46293125106536,243.03222757365572 L475.3337337136753,236.38100880422337 M469.468535314743,242.08851451662682 L475.3394968719058,235.43748448394444 M481.2020060629817,229.73269633337742 L481.2079281202597,228.7893608112008 M475.3337337136753,236.38100880422337 L481.2020060629817,229.73269633337742 M475.3394968719058,235.43748448394444 L481.2079281202597,228.7893608112008 M487.072131284591,223.0879469753657 L487.07821216614104,222.14480029378166 M481.2020060629817,229.73269633337742 L487.072131284591,223.0879469753657 M481.2079281202597,228.7893608112008 L487.07821216614104,222.14480029378166 M492.9459566961382,216.44718941644496 L492.95219637808043,215.50423160551586 M487.072131284591,223.0879469753657 L492.9459566961382,216.44718941644496 M487.07821216614104,222.14480029378166 L492.95219637808043,215.50423160551586 M498.82313466996754,209.8107592248462 L498.8295331190079,208.86799030482075 M492.9459566961382,216.44718941644496 L498.82313466996754,209.8107592248462 M492.95219637808043,215.50423160551586 L498.8295331190079,208.86799030482075 M504.7022703945463,203.1788181034657 L504.70882753922217,202.23623808970473 M498.82313466996754,209.8107592248462 L504.7022703945463,203.1788181034657 M498.8295331190079,208.86799030482075 L504.70882753922217,202.23623808970473 M504.7022703945463,203.1788181034657 L514.7071539362555,223.835675022387 M504.70882753922217,202.23623808970473 L514.7139937965228,222.89250708355792" stroke="black"  stroke-width="4"  fill="red"/>
<path d="M-7.996061190955288,601.0802627351354 L-8.003739831959706,600.1266020121158 M-3.5804224827956546,594.2008684702732 L-3.5879741723887264,593.2473949482315 M-7.996061190955288,601.0802627351354 L-3.5804224827956546,594.2008684702732 M-8.003739831959706,600.1266020121158 L-3.5879741723887264,593.2473949482315 M0.8716951427513777,587.3396434530428 L0.8642713210031161,586.3863567909116 M-3.5804224827956546,594.2008684702732 L0.8716951427513777,587.3396434530428 M-3.5879741723887264,593.2473949482315 L0.8642713210031161,586.3863567909116 M5.357158857066736,580.4959488637096 L5.349863731212281,579.5428487366238 M0.8716951427513777,587.3396434530428 L5.357158857066736,580.4959488637096 M0.8642713210031161,586.3863567909116 L5.349863731212281,579.5428487366238 M9.873492720740842,573.6687584183752 L9.866327049141205,572.715844528306 M5.357158857066736,580.4959488637096 L9.873492720740842,573.6687584183752 M5.349863731212281,579.5428487366238 L9.866327049141205,572.715844528306 M14.417730086998517,566.856402841718 L14.41069454492822,565.903674935128 M9.873492720740842,573.6687584183752 L14.417730086998517,566.856402841718 M9.866327049141205,572.715844528306 L14.41069454492822,565.903674935128 M18.986291626490697,560.0565600992306 L18.97938678933042,559.1040179850669 M14.417730086998517,566.856402841718 L18.986291626490697,560.0565600992306 M14.41069454492822,565.903674935128 L18.97938678933042,559.1040179850669 M23.5752251777551,553.266487391898 L23.56845151081393,552.3141309533098 M18.986291626490697,560.0565600992306 L23.5752251777551,553.266487391898 M18.97938678933042,559.1040179850669 L23.56845151081393,552.3141309533098 M28.180953999201165,546.4833133281925 L28.17431186836535,545.5311425262953 M23.5752251777551,553.266487391898 L28.180953999201165,546.4833133281925 M23.56845151081393,552.3141309533098 L28.17431186836535,545.5311425262953 M32.80128065125251,539.7044792586389 L32.79477036151735,538.7524941241994 M28.180953999201165,546.4833133281925 L32.80128065125251,539.7044792586389 M28.17431186836535,545.5311425262953 L32.79477036151735,538.7524941241994 M37.43642189828171,532.9282124430674 L37.43004376097531,531.9764130551778 M32.80128065125251,539.7044792586389 L37.43642189828171,532.9282124430674 M32.79477036151735,538.7524941241994 L37.43004376097531,531.9764130551778 M42.08719233555894,526.152609731515 L42.08094668503469,525.2009962213283 M37.43642189828171,532.9282124430674 L42.08719233555894,526.152609731515 M37.43004376097531,531.9764130551778 L42.08094668503469,525.2009962213283 M46.756010019787254,519.3765073718721 L46.74989725786037,518.4250799024619 M42.08719233555894,526.152609731515 L46.756010019787254,519.3765073718721 M42.08094668503469,525.2009962213283 L46.74989725786037,518.4250799024619 M51.45006925049739,512.6012605578037 L51.44408997879907,511.6500192550242 M46.756010019787254,519.3765073718721 L51.45006925049739,512.6012605578037 M46.74989725786037,518.4250799024619 L51.44408997879907,511.6500192550242 M56.192478273682696,505.83350533076634 L56.1866337357971,504.8824501378543 M51.45006925049739,512.6012605578037 L56.192478273682696,505.83350533076634 M51.44408997879907,511.6500192550242 L56.1866337357971,504.8824501378543 M60.99031646802928,499.07777912452633 L60.98460810213868,498.1269098592967 M56.192478273682696,505.83350533076634 L60.99031646802928,499.07777912452633 M56.1866337357971,504.8824501378543 L60.98460810213868,498.1269098592967 M65.86879396075449,492.3443708088464 L65.86322390329826,491.3936870048173 M60.99031646802928,499.07777912452633 L65.86879396075449,492.3443708088464 M60.98460810213868,498.1269098592967 L65.86322390329826,491.3936870048173 M70.85870590730337,485.64626768966866 L70.85327714707307,484.69576852075136 M65.86879396075449,492.3443708088464 L70.85870590730337,485.64626768966866 M65.86322390329826,491.3936870048173 L70.85327714707307,484.69576852075136 M75.99550804586227,478.9986097612376 L75.99022455233757,478.0482939812043 M70.85870590730337,485.64626768966866 L75.99550804586227,478.9986097612376 M70.85327714707307,484.69576852075136 L75.99022455233757,478.0482939812043 M81.31927122197891,472.4184526229261 L81.31413807235924,471.46831851121334 M75.99550804586227,478.9986097612376 L81.31927122197891,472.4184526229261 M75.99022455233757,478.0482939812043 L81.31413807235924,471.46831851121334 M86.86723171029632,465.9223276998026 L86.86225500969601,464.97237307457755 M81.31927122197891,472.4184526229261 L86.86723171029632,465.9223276998026 M81.31413807235924,471.46831851121334 L86.86225500969601,464.97237307457755 M92.6776916527383,459.52681439627594 L92.67287856303187,458.57703661177226 M86.86723171029632,465.9223276998026 L92.6776916527383,459.52681439627594 M86.86225500969601,464.97237307457755 L92.67287856303187,458.57703661177226 M98.78436753075317,453.2465239995791 L98.77972614276553,452.29691999928673 M92.6776916527383,459.52681439627594 L98.78436753075317,453.2465239995791 M92.67287856303187,458.57703661177226 L98.77972614276553,452.29691999928673 M105.21282369700202,447.0925626246493 L105.20836280416017,446.1431290373383 M98.78436753075317,453.2465239995791 L105.21282369700202,447.0925626246493 M98.77972614276553,452.29691999928673 L105.20836280416017,446.1431290373383 M111.97607432119764,441.07069766708116 L111.97180307168469,440.12143095405554 M105.21282369700202,447.0925626246493 L111.97607432119764,441.07069766708116 M105.20836280416017,446.1431290373383 L111.97180307168469,440.12143095405554 M119.0698879994585,435.1794297375492 L119.06581541871003,434.2303263939427 M111.97607432119764,441.07069766708116 L119.0698879994585,435.1794297375492 M111.97180307168469,440.12143095405554 L119.06581541871003,434.2303263939427 M126.47132386042921,429.40994558950445 L126.46745833338747,428.4610023475898 M119.0698879994585,435.1794297375492 L126.47132386042921,429.40994558950445 M119.06581541871003,434.2303263939427 L126.46745833338747,428.4610023475898 M134.14237440538864,423.7478613656403 L134.13872325996607,422.7990753503814 M126.47132386042921,429.40994558950445 L134.14237440538864,423.7478613656403 M126.46745833338747,428.4610023475898 L134.13872325996607,422.7990753503814 M142.0375153401145,418.1763828925441 L142.03408463992378,417.2277516897743 M134.14237440538864,423.7478613656403 L142.0375153401145,418.1763828925441 M134.13872325996607,422.7990753503814 L142.03408463992378,417.2277516897743 M150.10410986830266,412.67612389546366 L150.10090421670134,411.72764562529056 M142.0375153401145,418.1763828925441 L150.10410986830266,412.67612389546366 M142.03408463992378,417.2277516897743 L150.10090421670134,411.72764562529056 M158.2906929678578,407.2284723787014 L158.28771554134522,406.28014567540487 M150.10410986830266,412.67612389546366 L158.2906929678578,407.2284723787014 M150.10090421670134,411.72764562529056 L158.28771554134522,406.28014567540487 M166.5545051552876,401.81894076711785 L166.5517579452819,400.87076466564315 M158.2906929678578,407.2284723787014 L166.5545051552876,401.81894076711785 M158.28771554134522,406.28014567540487 L166.5517579452819,400.87076466564315 M174.85037334781748,396.43107903131107 L174.84785709476898,395.4830530229937 M166.5545051552876,401.81894076711785 L174.85037334781748,396.43107903131107 M166.5517579452819,400.87076466564315 L174.84785709476898,395.4830530229937 M183.14568896031398,391.05362050016026 L183.1434035020909,390.1057443893549 M174.85037334781748,396.43107903131107 L183.14568896031398,391.05362050016026 M174.84785709476898,395.4830530229937 L183.1434035020909,390.1057443893549 M191.4176101499578,385.6788336854127 L191.41555469266854,384.7311074916474 M183.14568896031398,391.05362050016026 L191.4176101499578,385.6788336854127 M183.1434035020909,390.1057443893549 L191.41555469266854,384.7311074916474 M199.6534626918425,380.30257143749577 L199.65163609156957,379.354995295942 M191.4176101499578,385.6788336854127 L199.6534626918425,380.30257143749577 M191.41555469266854,384.7311074916474 L199.65163609156957,379.354995295942 M207.85033685084937,374.9240489168947 L207.84873788403507,373.9766229847269 M199.6534626918425,380.30257143749577 L207.85033685084937,374.9240489168947 M199.65163609156957,379.354995295942 L207.84873788403507,373.9766229847269 M216.01383498191336,369.54530611241273 L216.01246258090674,368.5980304898984 M207.85033685084937,374.9240489168947 L216.01383498191336,369.54530611241273 M207.84873788403507,373.9766229847269 L216.01246258090674,368.5980304898984 M224.15612038318892,364.17043536507396 L224.15497381764607,363.22331003802384 M216.01383498191336,369.54530611241273 L224.15612038318892,364.17043536507396 M216.01246258090674,368.5980304898984 L224.15497381764607,363.22331003802384 M232.29207212725373,358.8042718845309 L232.2911510790451,357.8572967032208 M224.15612038318892,364.17043536507396 L232.29207212725373,358.8042718845309 M224.15497381764607,363.22331003802384 L232.2911510790451,357.8572967032208 M240.43410302205262,353.45066138354997 L240.43340751680915,352.50383609009566 M232.29207212725373,358.8042718845309 L240.43410302205262,353.45066138354997 M232.2911510790451,357.8572967032208 L240.43340751680915,352.50383609009566 M248.5910960849763,348.11192060860003 L248.59062639428055,347.16524487953774 M240.43410302205262,353.45066138354997 L248.5910960849763,348.11192060860003 M240.43340751680915,352.50383609009566 L248.59062639428055,347.16524487953774 M256.768234962227,342.78880452093756 L256.76799150117097,341.8422780108592 M248.5910960849763,348.11192060860003 L256.768234962227,342.78880452093756 M248.59062639428055,347.16524487953774 L256.76799150117097,341.8422780108592 M264.9671557294378,337.4805828608818 L264.96713895843476,336.5342052440569 M256.768234962227,342.78880452093756 L264.9671557294378,337.4805828608818 M256.76799150117097,341.8422780108592 L264.96713895843476,336.5342052440569 M273.18633868933887,332.18529364700146 L273.18654902681874,331.2390646520118 M264.9671557294378,337.4805828608818 L273.18633868933887,332.18529364700146 M264.96713895843476,336.5342052440569 L273.18654902681874,331.2390646520118 M281.42183060273754,326.90014242763027 L281.42226835785584,325.9540618608924 M273.18633868933887,332.18529364700146 L281.42183060273754,326.90014242763027 M273.18654902681874,331.2390646520118 L281.42226835785584,325.9540618608924 M289.6683314728562,321.62207706270215 L289.6689968082832,320.6761448159049 M281.42183060273754,326.90014242763027 L289.6683314728562,321.62207706270215 M281.42226835785584,325.9540618608924 L289.6689968082832,320.6761448159049 M297.9208420760766,316.34860340629393 L297.9217350163487,315.4028194409135 M289.6683314728562,321.62207706270215 L297.9208420760766,316.34860340629393 M289.6689968082832,320.6761448159049 L297.9217350163487,315.4028194409135 M306.17670990243397,311.07881941629665 L306.17783039885825,310.13318371896037 M297.9208420760766,316.34860340629393 L306.17670990243397,311.07881941629665 M297.9217350163487,315.4028194409135 L306.17783039885825,310.13318371896037 M314.43866526629006,305.8148202325198 L314.4400133457262,304.8693327306633 M306.17670990243397,311.07881941629665 L314.43866526629006,305.8148202325198 M306.17783039885825,310.13318371896037 L314.4400133457262,304.8693327306633 M313.11897302805147,309.15957624103123 L313.12028495852564,308.2139945650175 M314.43866526629006,305.8148202325198 L313.11897302805147,309.15957624103123 M314.4400133457262,304.8693327306633 L313.12028495852564,308.2139945650175 M309.36815479669514,315.6755486104465 L309.3693636934438,314.7297835767715 M313.11897302805147,309.15957624103123 L309.36815479669514,315.6755486104465 M313.12028495852564,308.2139945650175 L309.3693636934438,314.7297835767715 M304.605260275595,321.98017445316 L304.60633809758104,321.0342321405325 M309.36815479669514,315.6755486104465 L304.605260275595,321.98017445316 M309.3693636934438,314.7297835767715 L304.60633809758104,321.0342321405325 M299.2187795315869,328.12513807529 L299.2197089460999,327.1790230976692 M304.605260275595,321.98017445316 L299.2187795315869,328.12513807529 M304.60633809758104,321.0342321405325 L299.2197089460999,327.1790230976692 M293.44335413655085,334.15907662109976 L293.4441242826701,333.2127922176698 M299.2187795315869,328.12513807529 L293.44335413655085,334.15907662109976 M299.2197089460999,327.1790230976692 L293.4441242826701,333.2127922176698 M287.41918647064983,340.1190341233807 L287.41979035616345,339.17258248771515 M293.44335413655085,334.15907662109976 L287.41918647064983,340.1190341233807 M293.4441242826701,333.2127922176698 L287.41979035616345,339.17258248771515 M281.23300568769287,346.03101461395505 L281.2334387143441,345.0843972064203 M287.41918647064983,340.1190341233807 L281.23300568769287,346.03101461395505 M287.41979035616345,339.17258248771515 L281.2334387143441,345.0843972064203 M274.9417027218899,351.91206942353847 L274.94196186222644,350.9652872241033 M281.23300568769287,346.03101461395505 L274.9417027218899,351.91206942353847 M281.2334387143441,345.0843972064203 L274.94196186222644,350.9652872241033 M268.58278964406594,357.7746574657718 L268.5828729066816,356.82771110387773 M274.9417027218899,351.91206942353847 L268.58278964406594,357.7746574657718 M274.94196186222644,350.9652872241033 L268.5828729066816,356.82771110387773 M262.1816911388436,363.6279173016939 L262.1815972347264,362.68080715009165 M268.58278964406594,357.7746574657718 L262.1816911388436,363.6279173016939 M268.5828729066816,356.82771110387773 L262.1815972347264,362.68080715009165 M255.7564375943184,369.47811759411934 L255.7561657327321,368.53084384979195 M262.1816911388436,363.6279173016939 L255.7564375943184,369.47811759411934 M262.1815972347264,362.68080715009165 L255.7561657327321,368.53084384979195 M249.31969120490055,375.3297717998455 L249.31924094515188,374.38233453351734 M255.7564375943184,369.47811759411934 L249.31969120490055,375.3297717998455 M255.7561657327321,368.53084384979195 L249.31924094515188,374.38233453351734 M242.8802370184839,381.1860912717785 L242.879608162826,380.23849046460913 M249.31969120490055,375.3297717998455 L242.8802370184839,381.1860912717785 M249.31924094515188,374.38233453351734 L242.879608162826,380.23849046460913 M236.4440385648378,387.049242048229 L236.44323108050696,386.1014776212187 M242.8802370184839,381.1860912717785 L236.4440385648378,387.049242048229 M242.879608162826,380.23849046460913 L236.44323108050696,386.1014776212187 M230.01427480014593,392.92038317520377 L230.01328874234144,391.9724550174318 M236.4440385648378,387.049242048229 L230.01427480014593,392.92038317520377 M236.44323108050696,386.1014776212187 L230.01328874234144,391.9724550174318 M223.5918878124005,398.7998579978255 L223.59072326236463,397.8517659892641 M230.01427480014593,392.92038317520377 L223.5918878124005,398.7998579978255 M230.01328874234144,391.9724550174318 L223.59072326236463,397.8517659892641 M217.17623314228211,404.68743571571576 L217.1748901633428,403.73917974324075 M223.5918878124005,398.7998579978255 L217.17623314228211,404.68743571571576 M223.59072326236463,397.8517659892641 L217.1748901633428,403.73917974324075 M210.76560966968975,410.5825047051424 L210.76408827794882,409.6340846731105 M217.17623314228211,404.68743571571576 L210.76560966968975,410.5825047051424 M217.1748901633428,403.73917974324075 L210.76408827794882,409.6340846731105 M204.35770465184692,416.48423287963254 L204.356004799179,415.5356487159648 M210.76560966968975,410.5825047051424 L204.35770465184692,416.48423287963254 M210.76408827794882,409.6340846731105 L204.356004799179,415.5356487159648 M197.95420257503525,422.39323373587206 L197.95232425990872,421.44448535182875 M204.35770465184692,416.48423287963254 L197.95420257503525,422.39323373587206 M204.356004799179,415.5356487159648 L197.95232425990872,421.44448535182875 M191.54720497842646,428.30666356167296 L191.54514798007534,427.3577509478829 M197.95420257503525,422.39323373587206 L191.54720497842646,428.30666356167296 M197.95232425990872,421.44448535182875 L191.54514798007534,427.3577509478829 M185.13547421326837,434.2240851911165 L185.1332382763419,433.2750083505929 M191.54720497842646,428.30666356167296 L185.13547421326837,434.2240851911165 M191.54514798007534,427.3577509478829 L185.1332382763419,433.2750083505929 M178.71526311568238,440.14415181827724 L178.71284788056278,439.1949107916025 M185.13547421326837,434.2240851911165 L178.71526311568238,440.14415181827724 M185.1332382763419,433.2750083505929 L178.71284788056278,439.1949107916025 M172.28516120757047,446.066360256287 L172.28256627515452,445.1169550981375 M178.71526311568238,440.14415181827724 L172.28516120757047,446.066360256287 M178.71284788056278,439.1949107916025 L172.28256627515452,445.1169550981375 M165.84425820399224,451.990369336037 L165.84148314954962,451.0408001106584 M172.28516120757047,446.066360256287 L165.84425820399224,451.990369336037 M172.28256627515452,445.1169550981375 L165.84148314954962,451.0408001106584 M159.39204718089377,457.9160059209564 L159.38909156524483,456.9662726974883 M165.84425820399224,451.990369336037 L159.39204718089377,457.9160059209564 M165.84148314954962,451.0408001106584 L159.38909156524483,456.9662726974883 M152.928375120231,463.84320003400023 L152.92523849956973,462.8933028836111 M159.39204718089377,457.9160059209564 L152.928375120231,463.84320003400023 M159.38909156524483,456.9662726974883 L152.92523849956973,462.8933028836111 M146.45248053228102,469.77168863624445 L146.4491624412608,468.82162763746 M152.928375120231,463.84320003400023 L146.45248053228102,469.77168863624445 M152.92523849956973,462.8933028836111 L146.4491624412608,468.82162763746 M139.96352938295496,475.7011515161774 L139.9600293326602,474.750926756439 M146.45248053228102,469.77168863624445 L139.96352938295496,475.7011515161774 M146.4491624412608,468.82162763746 L139.9600293326602,474.750926756439 M133.46087355421514,481.6313395462767 L133.45719103730943,480.68095111995524 M139.96352938295496,475.7011515161774 L133.46087355421514,481.6313395462767 M139.9600293326602,474.750926756439 L133.45719103730943,480.68095111995524 M126.94396143465264,487.562066726261 L126.9400959280411,486.61151473289726 M133.46087355421514,481.6313395462767 L126.94396143465264,487.562066726261 M133.45719103730943,480.68095111995524 L126.9400959280411,486.61151473289726 M120.41235743840309,493.4931410701939 L120.40830840645663,492.54242561464935 M126.94396143465264,487.562066726261 L120.41235743840309,493.4931410701939 M126.9400959280411,486.61151473289726 L120.40830840645663,492.54242561464935 M113.86572408785207,499.4244567906254 L113.86149098511436,498.47357798069413 M120.41235743840309,493.4931410701939 L113.86572408785207,499.4244567906254 M120.40830840645663,492.54242561464935 L113.86149098511436,498.47357798069413 M107.30391564330739,505.3559169472411 L107.29949791983677,504.40487489339796 M113.86572408785207,499.4244567906254 L107.30391564330739,505.3559169472411 M113.86149098511436,498.47357798069413 L107.29949791983677,504.40487489339796 M100.7290221079557,511.2882731435212 L100.72441927152238,510.33706793558594 M107.30391564330739,505.3559169472411 L100.7290221079557,511.2882731435212 M107.29949791983677,504.40487489339796 L100.72441927152238,510.33706793558594 M94.1397012184425,517.2210541464241 L94.13491273904862,516.2696858872148 M100.7290221079557,511.2882731435212 L94.1397012184425,517.2210541464241 M100.72441927152238,510.33706793558594 L94.13491273904862,516.2696858872148 M87.53591208479287,523.1542389604429 L87.53093743087288,522.2027077533783 M94.1397012184425,517.2210541464241 L87.53591208479287,523.1542389604429 M94.13491273904862,516.2696858872148 L87.53093743087288,522.2027077533783 M80.91727816369973,529.087684069437 L80.91211679277433,528.135990021897 M87.53591208479287,523.1542389604429 L80.91727816369973,529.087684069437 M87.53093743087288,522.2027077533783 L80.91211679277433,528.135990021897 M74.29302409222942,535.024824419183 L74.28767571824073,534.0729675443915 M80.91727816369973,529.087684069437 L74.29302409222942,535.024824419183 M80.91211679277433,528.135990021897 L74.28767571824073,534.0729675443915 M67.65222350333522,540.9615769286376 L67.64668753564172,540.0095573518936 M74.29302409222942,535.024824419183 L67.65222350333522,540.9615769286376 M74.28767571824073,534.0729675443915 L67.64668753564172,540.0095573518936 M60.990876667125065,546.896399979588 L60.985152403218535,545.9442178683728 M67.65222350333522,540.9615769286376 L60.990876667125065,546.896399979588 M67.64668753564172,540.0095573518936 L60.985152403218535,545.9442178683728 M54.30191061769801,552.8265705778687 L54.295997157502654,551.8742261740465 M60.990876667125065,546.896399979588 L54.30191061769801,552.8265705778687 M60.985152403218535,545.9442178683728 L54.295997157502654,551.8742261740465 M47.57425943670421,558.7471983314783 L47.5681555713918,557.7946920103393 M54.30191061769801,552.8265705778687 L47.57425943670421,558.7471983314783 M54.295997157502654,551.8742261740465 L47.5681555713918,557.7946920103393 M40.78993298946148,564.6518432674372 L40.783637007867355,563.6991755796548 M47.57425943670421,558.7471983314783 L40.78993298946148,564.6518432674372 M47.5681555713918,557.7946920103393 L40.783637007867355,563.6991755796548 M33.922690469348595,570.5299558151269 L33.916199927949094,569.5771275984569 M40.78993298946148,564.6518432674372 L33.922690469348595,570.5299558151269 M40.783637007867355,563.6991755796548 L33.916199927949094,569.5771275984569 M26.934364719186874,576.3651829331293 L26.92767610956355,575.4121954699332 M33.922690469348595,570.5299558151269 L26.934364719186874,576.3651829331293 M33.916199927949094,569.5771275984569 L26.92767610956355,575.4121954699332 M19.77136500343198,582.1322571451711 L19.76447332273358,581.1791124042164 M26.934364719186874,576.3651829331293 L19.77136500343198,582.1322571451711 M26.92767610956355,575.4121954699332 L19.76447332273358,581.1791124042164 M12.358185375050425,587.7947910467975 L12.351083515184655,586.8414919843473 M19.77136500343198,582.1322571451711 L12.358185375050425,587.7947910467975 M19.76447332273358,581.1791124042164 L12.351083515184655,586.8414919843473 M4.59176553461981,593.3006184389802 L4.584443515078988,592.3471694257908 M12.358185375050425,587.7947910467975 L4.59176553461981,593.3006184389802 M12.351083515184655,586.8414919843473 L4.584443515078988,592.3471694257908 M-3.650758303723819,598.568565048368 L-3.658313879539719,597.6149726554205 M4.59176553461981,593.3006184389802 L-3.650758303723819,598.568565048368 M4.584443515078988,592.3471694257908 L-3.658313879539719,597.6149726554205 M-3.650758303723819,598.568565048368 L-7.996061190955288,601.0802627351354 M-3.658313879539719,597.6149726554205 L-8.003739831959706,600.1266020121158" stroke="black"  stroke-width="4"  fill="red"/>
<path d="M798.8494707269587,395.5421191825423 L798.8642605593892,394.59411794763184 M788.1166908490851,399.0254718274053 L788.1311859801184,398.07737353361733 M798.8494707269587,395.5421191825423 L788.1166908490851,399.0254718274053 M798.8642605593892,394.59411794763184 L788.1311859801184,398.07737353361733 M777.4099168739632,402.53323967669957 L777.4241179238373,401.58504368362685 M788.1166908490851,399.0254718274053 L777.4099168739632,402.53323967669957 M788.1311859801184,398.07737353361733 L777.4241179238373,401.58504368362685 M766.732155466843,406.0681104114178 L766.7460631405952,405.1198160046775 M777.4099168739632,402.53323967669957 L766.732155466843,406.0681104114178 M777.4241179238373,401.58504368362685 L766.7460631405952,405.1198160046775 M756.0836577717566,409.63118643416743 L756.097272781363,408.68279286963866 M766.732155466843,406.0681104114178 L756.0836577717566,409.63118643416743 M766.7460631405952,405.1198160046775 L756.097272781363,408.68279286963866 M745.462041565728,413.2217936308995 L745.4753645555439,412.2733001841907 M756.0836577717566,409.63118643416743 L745.462041565728,413.2217936308995 M756.097272781363,408.68279286963866 L745.4753645555439,412.2733001841907 M734.8619653792164,416.8373763733622 L734.8749968423659,415.88878239209305 M745.462041565728,413.2217936308995 L734.8619653792164,416.8373763733622 M745.4753645555439,412.2733001841907 L734.8749968423659,415.88878239209305 M724.2757922889548,420.4738408233031 L724.2885325024835,419.5251457697349 M734.8619653792164,416.8373763733622 L724.2757922889548,420.4738408233031 M734.8749968423659,415.88878239209305 L724.2885325024835,419.5251457697349 M713.6943820055276,424.1260293673891 L713.706830987968,423.1772328477839 M724.2757922889548,420.4738408233031 L713.6943820055276,424.1260293673891 M724.2885325024835,419.5251457697349 L713.706830987968,423.1772328477839 M703.1080887839416,427.78842800895285 L703.1202462811543,426.83952978322566 M713.6943820055276,424.1260293673891 L703.1080887839416,427.78842800895285 M713.706830987968,423.1772328477839 L703.1202462811543,426.83952978322566 M692.5083033574506,431.45611469714396 L692.5201688719906,430.50711466217393 M703.1080887839416,427.78842800895285 L692.5083033574506,431.45611469714396 M703.1202462811543,426.83952978322566 L692.5201688719906,430.50711466217393 M681.885675251574,435.1239197262213 L681.8972480220531,434.1748179224872 M692.5083033574506,431.45611469714396 L681.885675251574,435.1239197262213 M692.5201688719906,430.50711466217393 L681.8972480220531,434.1748179224872 M671.2314714834605,438.7865702362389 L671.242750501782,437.8373668504329 M681.885675251574,435.1239197262213 L671.2314714834605,438.7865702362389 M681.8972480220531,434.1748179224872 L671.242750501782,437.8373668504329 M660.5405357655118,442.4396041283497 L660.5515198770174,441.49029947065424 M671.2314714834605,438.7865702362389 L660.5405357655118,442.4396041283497 M671.242750501782,437.8373668504329 L660.5515198770174,441.49029947065424 M649.8116192362451,446.0795024950818 L649.8223072491862,445.1300969728277 M660.5405357655118,442.4396041283497 L649.8116192362451,446.0795024950818 M660.5515198770174,441.49029947065424 L649.8223072491862,445.1300969728277 M639.0471010591306,449.70348838497137 L639.0574918462772,448.75398248192516 M649.8116192362451,446.0795024950818 L639.0471010591306,449.70348838497137 M649.8223072491862,445.1300969728277 L639.0574918462772,448.75398248192516 M628.2526010961229,453.30955022913 L628.2626936856541,452.35994448417836 M639.0471010591306,449.70348838497137 L628.2526010961229,453.30955022913 M639.0574918462772,448.75398248192516 L628.2626936856541,452.35994448417836 M617.4361757329999,456.8963853721194 L617.4459693770049,455.9466803595623 M628.2526010961229,453.30955022913 L617.4361757329999,456.8963853721194 M628.2626936856541,452.35994448417836 L617.4459693770049,455.9466803595623 M606.6071893394217,460.4635033804777 L606.6166835510485,459.5136996875066 M617.4361757329999,456.8963853721194 L606.6071893394217,460.4635033804777 M617.4459693770049,455.9466803595623 L606.6166835510485,459.5136996875066 M595.7750949197706,464.0112786709657 L595.7842894764137,463.06137687373416 M606.6071893394217,460.4635033804777 L595.7750949197706,464.0112786709657 M606.6166835510485,459.5136996875066 L595.7842894764137,463.06137687373416 M584.9478886568986,467.541134208706 L584.9567835603626,466.5911348433742 M595.7750949197706,464.0112786709657 L584.9478886568986,467.541134208706 M595.7842894764137,463.06137687373416 L584.9567835603626,466.5911348433742 M574.1308866526199,471.0556091606393 L574.1394820551042,470.10551269260907 M584.9478886568986,467.541134208706 L574.1308866526199,471.0556091606393 M584.9567835603626,466.5911348433742 L574.1394820551042,470.10551269260907 M563.3255059347305,474.5584084783437 L563.3338020306979,473.6082152701871 M574.1308866526199,471.0556091606393 L563.3255059347305,474.5584084783437 M574.1394820551042,470.10551269260907 L563.3338020306979,473.6082152701871 M552.528724143713,478.05414296492796 L552.5367210463652,477.10385325155573 M563.3255059347305,474.5584084783437 L552.528724143713,478.05414296492796 M563.3338020306979,473.6082152701871 L552.5367210463652,477.10385325155573 M541.7333414378412,481.5478646350533 L541.7410390624811,480.5974785117525 M552.528724143713,478.05414296492796 L541.7333414378412,481.5478646350533 M552.5367210463652,477.10385325155573 L541.7410390624811,480.5974785117525 M530.9293276415382,485.04426192062294 L530.9367256259858,484.0937793533137 M541.7333414378412,481.5478646350533 L530.9293276415382,485.04426192062294 M541.7410390624811,480.5974785117525 L530.9367256259858,484.0937793533137 M520.1074897826873,488.5472796298783 L520.1145875097595,487.59670047582676 M530.9293276415382,485.04426192062294 L520.1074897826873,488.5472796298783 M530.9367256259858,484.0937793533137 L520.1145875097595,487.59670047582676 M509.26179105397773,492.0592053151985 L509.26858773837205,491.1085293688625 M520.1074897826873,488.5472796298783 L509.26179105397773,492.0592053151985 M520.1145875097595,487.59670047582676 L509.26858773837205,491.1085293688625 M498.3901358870535,495.5803738962017 L498.39663068425375,494.6296009431197 M509.26179105397773,492.0592053151985 L498.3901358870535,495.5803738962017 M509.26858773837205,491.1085293688625 L498.39663068425375,494.6296009431197 M487.49413757892466,499.10939370223315 L487.50032968799155,498.1585235665773 M498.3901358870535,495.5803738962017 L487.49413757892466,499.10939370223315 M498.39663068425375,494.6296009431197 L487.50032968799155,498.1585235665773 M476.5780913135968,502.64363058970014 L476.58398005172035,501.6926631684066 M487.49413757892466,499.10939370223315 L476.5780913135968,502.64363058970014 M487.50032968799155,498.1585235665773 L476.58398005172035,501.6926631684066 M465.6477249454863,506.17980653752494 L465.653309788053,505.22874181788654 M476.5780913135968,502.64363058970014 L465.6477249454863,506.17980653752494 M476.58398005172035,501.6926631684066 L465.653309788053,505.22874181788654 M454.7090173397967,509.71464634303493 L454.7142979277627,508.76348440247233 M465.6477249454863,506.17980653752494 L454.7090173397967,509.71464634303493 M465.653309788053,505.22874181788654 L454.7142979277627,508.76348440247233 M443.76738070364684,513.2454582654414 L443.7723568282536,512.2941992553153 M454.7090173397967,509.71464634303493 L443.76738070364684,513.2454582654414 M454.7142979277627,508.76348440247233 L443.7723568282536,512.2941992553153 M432.8269941578669,516.7704198460694 L432.8316657267526,515.8190639676739 M443.76738070364684,513.2454582654414 L432.8269941578669,516.7704198460694 M443.7723568282536,512.2941992553153 L432.8316657267526,515.8190639676739 M421.8910879630304,520.2892799006004 L421.8954549743461,519.3378273619264 M432.8269941578669,516.7704198460694 L421.8910879630304,520.2892799006004 M432.8316657267526,515.8190639676739 L421.8954549743461,519.3378273619264 M410.9615853517058,523.803007908218 L410.9656478579748,522.8514588904327 M421.8910879630304,520.2892799006004 L410.9615853517058,523.803007908218 M421.8954549743461,519.3378273619264 L410.9656478579748,522.8514588904327 M400.0394349659099,527.3138791652528 L400.0431930470495,526.3622337869123 M410.9615853517058,523.803007908218 L400.0394349659099,527.3138791652528 M410.9656478579748,522.8514588904327 L400.0431930470495,526.3622337869123 M389.12487563732316,530.8253199637115 L389.12832938089366,529.873578249293 M400.0394349659099,527.3138791652528 L389.12487563732316,530.8253199637115 M400.0431930470495,526.3622337869123 L389.12832938089366,529.873578249293 M378.2178121498662,534.341334865881 L378.2209616415996,533.3894967300853 M389.12487563732316,530.8253199637115 L378.2178121498662,534.341334865881 M389.12832938089366,529.873578249293 L378.2209616415996,533.3894967300853 M367.31825592441623,537.8656901528262 L367.321101250872,536.9137554072912 M378.2178121498662,534.341334865881 L367.31825592441623,537.8656901528262 M378.2209616415996,533.3894967300853 L367.321101250872,536.9137554072912 M356.42599088280434,541.4015197984799 L356.4285321246469,540.4494881692758 M367.31825592441623,537.8656901528262 L356.42599088280434,541.4015197984799 M367.321101250872,536.9137554072912 L356.4285321246469,540.4494881692758 M345.54044522159484,544.9511938771487 L345.54268244331524,543.9990650258412 M356.42599088280434,541.4015197984799 L345.54044522159484,544.9511938771487 M356.4285321246469,540.4494881692758 L345.54268244331524,543.9990650258412 M334.66069646064045,548.5162711117069 L334.6626297004727,547.5640446576766 M345.54044522159484,544.9511938771487 L334.66069646064045,548.5162711117069 M345.54268244331524,543.9990650258412 L334.6626297004727,547.5640446576766 M323.78570113326566,552.097526611504 L323.78733039959457,551.1452021534604 M334.66069646064045,548.5162711117069 L323.78570113326566,552.097526611504 M334.6626297004727,547.5640446576766 L323.78733039959457,551.1452021534604 M312.91419598377087,555.6949208532278 L312.91552124883873,554.7424979915268 M323.78570113326566,552.097526611504 L312.91419598377087,555.6949208532278 M323.78733039959457,551.1452021534604 L312.91552124883873,554.7424979915268 M302.044934304983,559.3076972661015 L302.0459555052841,558.3551756223476 M312.91419598377087,555.6949208532278 L302.044934304983,559.3076972661015 M312.91552124883873,554.7424979915268 L302.0459555052841,558.3551756223476 M291.1767263145299,562.9345057959222 L291.17744335240457,561.9818850291521 M302.044934304983,559.3076972661015 L291.1767263145299,562.9345057959222 M302.0459555052841,558.3551756223476 L291.17744335240457,561.9818850291521 M280.3084411624407,566.5735046864103 L280.308853907782,565.6207845064611 M291.1767263145299,562.9345057959222 L280.3084411624407,566.5735046864103 M291.17744335240457,561.9818850291521 L280.308853907782,565.6207845064611 M269.4391287264854,570.2226576478984 L269.439237021905,569.2698378206331 M280.3084411624407,566.5735046864103 L269.4391287264854,570.2226576478984 M280.308853907782,565.6207845064611 L269.439237021905,569.2698378206331 M249.0437860757171,564.2897491317001 L249.04332309210014,563.3370913362381 M269.4391287264854,570.2226576478984 L249.0437860757171,564.2897491317001 M269.439237021905,569.2698378206331 L249.04332309210014,563.3370913362381 M260.6750248470452,560.46090137554 L260.67488766679503,559.5083482093339 M249.0437860757171,564.2897491317001 L260.6750248470452,560.46090137554 M249.04332309210014,563.3370913362381 L260.67488766679503,559.5083482093339 M272.308172196475,556.6452693793655 L272.3083607282827,555.6928205287195 M260.6750248470452,560.46090137554 L272.308172196475,556.6452693793655 M260.67488766679503,559.5083482093339 L272.3083607282827,555.6928205287195 M283.94572406421435,552.8467940385226 L283.94623828746427,551.8944490814351 M272.308172196475,556.6452693793655 L283.94572406421435,552.8467940385226 M272.3083607282827,555.6928205287195 L283.94623828746427,551.8944490814351 M295.5903111291166,549.0693652823243 L295.591151097892,548.1171236896911 M283.94572406421435,552.8467940385226 L295.5903111291166,549.0693652823243 M283.94623828746427,551.8944490814351 L295.591151097892,548.1171236896911 M307.24443187341114,545.316198158776 L307.245597712981,544.3640593126823 M295.5903111291166,549.0693652823243 L307.24443187341114,545.316198158776 M295.591151097892,548.1171236896911 L307.245597712981,544.3640593126823 M318.9100574094142,541.5892692704778 L318.91154930155903,540.6372324979725 M307.24443187341114,545.316198158776 L318.9100574094142,541.5892692704778 M307.245597712981,544.3640593126823 L318.91154930155903,540.6372324979725 M330.58842458503995,537.8889527230773 L330.5902427474534,536.9370173400023 M318.9100574094142,541.5892692704778 L330.58842458503995,537.8889527230773 M318.91154930155903,540.6372324979725 L330.5902427474534,536.9370173400023 M342.2796891295989,534.2136789583118 L342.2818337854196,533.2618443225822 M330.58842458503995,537.8889527230773 L342.2796891295989,534.2136789583118 M330.5902427474534,536.9370173400023 L342.2818337854196,533.2618443225822 M353.9827302499031,530.5597996260902 L353.9852015916121,529.6080651947977 M342.2796891295989,534.2136789583118 L353.9827302499031,530.5597996260902 M342.2818337854196,533.2618443225822 L353.9852015916121,529.6080651947977 M365.69498357521894,526.9215095154107 L365.6977817236957,525.9698749041894 M353.9827302499031,530.5597996260902 L365.69498357521894,526.9215095154107 M353.9852015916121,529.6080651947977 L365.6977817236957,525.9698749041894 M377.4122807989046,523.2908528644218 L377.4154057578388,522.339317906768 M365.69498357521894,526.9215095154107 L377.4122807989046,523.2908528644218 M365.6977817236957,525.9698749041894 L377.4154057578388,522.339317906768 M389.12892850970627,519.657869667805 L389.1323801220826,518.7064344705008 M377.4122807989046,523.2908528644218 L389.12892850970627,519.657869667805 M377.4154057578388,522.339317906768 L389.1323801220826,518.7064344705008 M400.8383883536635,516.0113028421144 L400.84216627725243,515.0599678213396 M389.12892850970627,519.657869667805 L400.8383883536635,516.0113028421144 M389.1323801220826,518.7064344705008 L400.84216627725243,515.0599678213396 M412.5344308030096,512.3409252149916 L412.53853451853536,511.3896910685477 M400.8383883536635,516.0113028421144 L412.5344308030096,512.3409252149916 M400.84216627725243,515.0599678213396 L412.53853451853536,511.3896910685477 M424.2114097583258,508.63929042222276 L424.21583858584495,507.6881580535489 M412.5344308030096,512.3409252149916 L424.2114097583258,508.63929042222276 M412.53853451853536,511.3896910685477 L424.21583858584495,507.6881580535489 M435.8643397217787,504.90233423123357 L435.8690928396311,503.9513046567198 M424.2114097583258,508.63929042222276 L435.8643397217787,504.90233423123357 M424.21583858584495,507.6881580535489 L435.8690928396311,503.9513046567198 M447.4887593002684,501.12949753252934 L447.4938357605597,500.1785717852438 M435.8643397217787,504.90233423123357 L447.4887593002684,501.12949753252934 M435.8690928396311,503.9513046567198 L447.4938357605597,500.1785717852438 M459.08113230031586,497.32407925041815 L459.0865310560216,496.37325827390373 M447.4887593002684,501.12949753252934 L459.08113230031586,497.32407925041815 M447.4938357605597,500.1785717852438 L459.0865310560216,496.37325827390373 M470.6385992772489,493.4923656357552 L470.64431920243453,492.54165020157444 M459.08113230031586,497.32407925041815 L470.6385992772489,493.4923656357552 M459.0865310560216,496.37325827390373 L470.64431920243453,492.54165020157444 M482.1594759557722,489.6429263022569 L482.1655158797223,488.69231694674977 M470.6385992772489,493.4923656357552 L482.1594759557722,489.6429263022569 M470.64431920243453,492.54165020157444 L482.1655158797223,488.69231694674977 M493.6439966203153,485.7855023896769 L493.6503553821515,484.83499938123015 M482.1594759557722,489.6429263022569 L493.6439966203153,485.7855023896769 M482.1655158797223,488.69231694674977 L493.6503553821515,484.83499938123015 M505.0952059095531,481.9296608864311 L505.10188243722894,480.9792642297954 M493.6439966203153,485.7855023896769 L505.0952059095531,481.9296608864311 M493.6503553821515,484.83499938123015 L505.10188243722894,480.9792642297954 M516.519631702366,478.0833415787565 L516.5266251097117,477.13305105947836 M505.0952059095531,481.9296608864311 L516.519631702366,478.0833415787565 M505.10188243722894,480.9792642297954 L516.5266251097117,477.13305105947836 M527.9274058542408,474.25150630558596 L527.9347155405308,473.3013215718419 M516.519631702366,478.0833415787565 L527.9274058542408,474.25150630558596 M516.5266251097117,477.13305105947836 L527.9347155405308,473.3013215718419 M539.3310069907417,470.4350502536891 L539.3386327043688,469.4849709283841 M527.9274058542408,474.25150630558596 L539.3310069907417,470.4350502536891 M527.9347155405308,473.3013215718419 L539.3386327043688,469.4849709283841 M550.742948292026,466.63105114184384 L550.750890129448,465.68107692807587 M539.3310069907417,470.4350502536891 L550.742948292026,466.63105114184384 M539.3386327043688,469.4849709283841 L550.750890129448,465.68107692807587 M562.1720630698939,462.8338103287958 L562.1803213713072,461.88394108677016 M550.742948292026,466.63105114184384 L562.1720630698939,462.8338103287958 M550.750890129448,465.68107692807587 L562.1803213713072,461.88394108677016 M573.6211406986724,459.0360764783302 L573.6297158783475,458.0863122685934 M562.1720630698939,462.8338103287958 L573.6211406986724,459.0360764783302 M562.1803213713072,461.88394108677016 L573.6297158783475,458.0863122685934 M585.0866115504118,455.2302623684034 L585.0955039189313,454.2806034614976 M573.6211406986724,459.0360764783302 L585.0866115504118,455.2302623684034 M573.6297158783475,458.0863122685934 L585.0955039189313,454.2806034614976 M596.5595051876255,451.4093135577194 L596.5687148014164,450.459760419807 M585.0866115504118,455.2302623684034 L596.5595051876255,451.4093135577194 M585.0955039189313,454.2806034614976 L596.5687148014164,450.459760419807 M608.0270290299683,447.56709568202746 L608.0365555851835,446.6176489497574 M596.5595051876255,451.4093135577194 L608.0270290299683,447.56709568202746 M596.5687148014164,450.459760419807 L608.0365555851835,446.6176489497574 M619.4744876687762,443.6985812003018 L619.4843304488716,442.74924165044695 M608.0270290299683,447.56709568202746 L619.4744876687762,443.6985812003018 M608.0365555851835,446.6176489497574 L619.4843304488716,442.74924165044695 M630.8872739150854,439.7999485995581 L630.8974317939892,438.85071711583686 M619.4744876687762,443.6985812003018 L630.8872739150854,439.7999485995581 M619.4843304488716,442.74924165044695 L630.8974317939892,438.85071711583686 M642.2527057759725,435.86862330097006 L642.263177272464,434.9195008396608 M630.8872739150854,439.7999485995581 L642.2527057759725,435.86862330097006 M630.8974317939892,438.85071711583686 L642.263177272464,434.9195008396608 M653.5614117946677,431.9034198389656 L653.5721951654116,430.95440739049883 M642.2527057759725,435.86862330097006 L653.5614117946677,431.9034198389656 M642.263177272464,434.9195008396608 L653.5721951654116,430.95440739049883 M664.8083236356134,427.90457493258776 L664.8194169958242,426.95567348213274 M653.5614117946677,431.9034198389656 L664.8083236356134,427.90457493258776 M653.5721951654116,430.95440739049883 L664.8194169958242,426.95567348213274 M675.9931551080925,423.8738600058616 L676.0045565655762,422.92507049069553 M664.8083236356134,427.90457493258776 L675.9931551080925,423.8738600058616 M664.8194169958242,426.95567348213274 L676.0045565655762,422.92507049069553 M687.120513847723,419.81455582221696 L687.1322216399875,418.865879089697 M675.9931551080925,423.8738600058616 L687.120513847723,419.81455582221696 M676.0045565655762,422.92507049069553 L687.1322216399875,418.865879089697 M698.1989547383023,415.73122460688967 L698.2109673431933,414.7826613786594 M687.120513847723,419.81455582221696 L698.1989547383023,415.73122460688967 M687.1322216399875,418.865879089697 L698.2109673431933,414.7826613786594 M709.2369727565284,411.62836954524437 L709.2492888906381,410.6799204186397 M698.1989547383023,415.73122460688967 L709.2369727565284,411.62836954524437 M698.2109673431933,414.7826613786594 L709.2492888906381,410.6799204186397 M720.2432685731502,407.5105431721931 L720.2558871976697,406.5622086186329 M709.2369727565284,411.62836954524437 L720.2432685731502,407.5105431721931 M709.2492888906381,410.6799204186397 L720.2558871976697,406.5622086186329 M731.2269375205226,403.38239769857125 L731.239857852365,402.43417806054117 M720.2432685731502,407.5105431721931 L731.2269375205226,403.38239769857125 M720.2558871976697,406.5622086186329 L731.239857852365,402.43417806054117 M742.1964826928906,399.24832377607584 L742.2097041881522,398.3002192741653 M731.2269375205226,403.38239769857125 L742.1964826928906,399.24832377607584 M731.239857852365,402.43417806054117 L742.2097041881522,398.3002192741653 M753.1592126437133,395.11196768654446 L753.1727349640388,394.1639784399578 M742.1964826928906,399.24832377607584 L753.1592126437133,395.11196768654446 M742.2097041881522,398.3002192741653 L753.1727349640388,394.1639784399578 M764.1205634138165,390.9761898449034 L764.1343863739087,390.02831589317697 M753.1592126437133,395.11196768654446 L764.1205634138165,390.9761898449034 M753.1727349640388,394.1639784399578 L764.1343863739087,390.02831589317697 M775.0837410863223,386.84283604234184 L775.0978645913448,385.89507737349527 M764.1205634138165,390.9761898449034 L775.0837410863223,386.84283604234184 M764.1343863739087,390.02831589317697 L775.0978645913448,385.89507737349527 M786.0499986094578,382.71281194263963 L786.0644226001561,381.76516851931683 M775.0837410863223,386.84283604234184 L786.0499986094578,382.71281194263963 M775.0978645913448,385.89507737349527 L786.0644226001561,381.76516851931683 M797.0187923956598,378.586315781966 L797.033516798007,377.63878756114104 M786.0499986094578,382.71281194263963 L797.0187923956598,378.586315781966 M786.0644226001561,381.76516851931683 L797.033516798007,377.63878756114104 M807.9887151310672,374.463084787636 L808.0037398319597,373.5156717334821 M797.0187923956598,378.586315781966 L807.9887151310672,374.463084787636 M797.033516798007,377.63878756114104 L808.0037398319597,373.5156717334821 M807.9887151310672,374.463084787636 L798.8494707269587,395.5421191825423 M808.0037398319597,373.5156717334821 L798.8642605593892,394.59411794763184" stroke="black"  stroke-width="4"  fill="red"/>
<path d="M181.72194744713647,491.41833678870313 L181.71960882353898,490.46767850237 M186.0343721772345,484.62609129806367 L186.0321547055567,483.67562026340573 M181.72194744713647,491.41833678870313 L186.0343721772345,484.62609129806367 M181.71960882353898,490.46767850237 L186.0321547055567,483.67562026340573 M190.38328338955205,477.8517396788859 L190.38118798910904,476.90145555208863 M186.0343721772345,484.62609129806367 L190.38328338955205,477.8517396788859 M186.0321547055567,483.67562026340573 L190.38118798910904,476.90145555208863 M194.7655298177961,471.0946696912564 L194.76355731936252,470.14457214423436 M190.38328338955205,477.8517396788859 L194.7655298177961,471.0946696912564 M190.38118798910904,476.90145555208863 L194.76355731936252,470.14457214423436 M199.17864021517016,464.3538682781659 L199.17679138008657,463.4039570097008 M194.7655298177961,471.0946696912564 L199.17864021517016,464.3538682781659 M194.76355731936252,470.14457214423436 L199.17679138008657,463.4039570097008 M203.61967387879184,457.62767296559326 L203.61794938604697,456.67794771939236 M199.17864021517016,464.3538682781659 L203.61967387879184,457.62767296559326 M199.17679138008657,463.4039570097008 L203.61794938604697,456.67794771939236 M208.0850300711021,450.9138022004744 L208.08343049911116,449.9642627824607 M203.61967387879184,457.62767296559326 L208.0850300711021,450.9138022004744 M203.61794938604697,456.67794771939236 L208.08343049911116,449.9642627824607 M212.57077073846494,444.20953713222866 L212.56929655581962,443.2601834228596 M208.0850300711021,450.9138022004744 L212.57077073846494,444.20953713222866 M208.08343049911116,449.9642627824607 L212.56929655581962,443.2601834228596 M217.07330112375854,437.51204823554895 L217.071952698875,436.56288019312376 M212.57077073846494,444.20953713222866 L217.07330112375854,437.51204823554895 M212.56929655581962,443.2601834228596 L217.071952698875,436.56288019312376 M221.5903910314932,430.8188201385231 L221.58916867058753,429.8698377907114 M217.07330112375854,437.51204823554895 L221.5903910314932,430.8188201385231 M217.071952698875,436.56288019312376 L221.58916867058753,429.8698377907114 M226.12225075263984,424.1280943723033 L226.1211547675013,423.1792977953398 M221.5903910314932,430.8188201385231 L226.12225075263984,424.1280943723033 M221.58916867058753,429.8698377907114 L226.1211547675013,423.1792977953398 M230.6696863235946,417.4379818856101 L230.66871704807613,416.48937120807835 M226.12225075263984,424.1280943723033 L230.6696863235946,417.4379818856101 M226.1211547675013,423.1792977953398 L230.66871704807613,416.48937120807835 M235.23506477988008,410.7473469593378 L235.23422261310157,409.79892234137685 M230.6696863235946,417.4379818856101 L235.23506477988008,410.7473469593378 M230.66871704807613,416.48937120807835 L235.23422261310157,409.79892234137685 M239.82555142523233,404.057526783457 L239.82483696448156,403.10928834801024 M235.23506477988008,410.7473469593378 L239.82555142523233,404.057526783457 M235.23422261310157,409.79892234137685 L239.82483696448156,403.10928834801024 M244.4641958693814,397.3750652148103 L244.4636103502449,396.4270129024343 M239.82555142523233,404.057526783457 L244.4641958693814,397.3750652148103 M239.82483696448156,403.10928834801024 L244.4636103502449,396.4270129024343 M249.15807001059375,390.7044498677828 L249.1576148632102,389.75658349341677 M244.4641958693814,397.3750652148103 L249.15807001059375,390.7044498677828 M244.4636103502449,396.4270129024343 L249.1576148632102,389.75658349341677 M253.93233608101013,384.0558409130997 L253.9320134311767,383.10816000737526 M249.15807001059375,390.7044498677828 L253.93233608101013,384.0558409130997 M249.1576148632102,389.75658349341677 L253.9320134311767,383.10816000737526 M258.8177555964664,377.44205171894475 L258.81756841997543,376.4945554532107 M253.93233608101013,384.0558409130997 L258.8177555964664,377.44205171894475 M253.9320134311767,383.10816000737526 L258.81756841997543,376.4945554532107 M263.8496932988019,370.87805121868564 L263.84964554803037,369.93073834366834 M258.8177555964664,377.44205171894475 L263.8496932988019,370.87805121868564 M258.81756841997543,376.4945554532107 L263.84964554803037,369.93073834366834 M269.0681851098591,364.3806632472749 L269.0682818421321,363.4335320399365 M263.8496932988019,370.87805121868564 L269.0681851098591,364.3806632472749 M263.84964554803037,369.93073834366834 L269.0682818421321,363.4335320399365 M274.5103978877021,357.96622136537945 L274.51064518487436,357.0192696412561 M269.0681851098591,364.3806632472749 L274.5103978877021,357.96622136537945 M269.0682818421321,363.4335320399365 L274.51064518487436,357.0192696412561 M280.21457710071377,351.65109601484124 L280.21498209819555,350.70432112570575 M274.5103978877021,357.96622136537945 L280.21457710071377,351.65109601484124 M274.51064518487436,357.0192696412561 L280.21498209819555,350.70432112570575 M286.21439330399704,345.4497127457199 L286.21496406344687,344.5031116328429 M280.21457710071377,351.65109601484124 L286.21439330399704,345.4497127457199 M280.21498209819555,350.70432112570575 L286.21496406344687,344.5031116328429 M292.5353595224805,339.37304695594406 L292.53610480566704,338.42661624582945 M286.21439330399704,345.4497127457199 L292.5353595224805,339.37304695594406 M286.21496406344687,344.5031116328429 L292.53610480566704,338.42661624582945 M299.19047828284886,333.4267917464003 L299.191407205473,332.4805278983427 M292.5353595224805,339.37304695594406 L299.19047828284886,333.4267917464003 M292.53610480566704,338.42661624582945 L299.191407205473,332.4805278983427 M306.1755235300459,327.6094718587274 L306.176645085512,326.6633713658935 M299.19047828284886,333.4267917464003 L306.1755235300459,327.6094718587274 M299.191407205473,332.4805278983427 L306.176645085512,326.6633713658935 M313.46761025619526,321.91238270546455 L313.46893280030736,320.96644229837676 M306.1755235300459,327.6094718587274 L313.46761025619526,321.91238270546455 M306.176645085512,326.6633713658935 L313.46893280030736,320.96644229837676 M321.02882082272146,316.32131877765283 L321.0303516590244,315.3755355797066 M313.46761025619526,321.91238270546455 L321.02882082272146,316.32131877765283 M313.46893280030736,320.96644229837676 L321.0303516590244,315.3755355797066 M328.8137354048588,310.81969778491043 L328.81548057834834,309.8740693804229 M321.02882082272146,316.32131877765283 L328.8137354048588,310.81969778491043 M321.0303516590244,315.3755355797066 L328.81548057834834,309.8740693804229 M336.7698255624339,305.3883846685683 L336.7717896641628,304.4429091759464 M328.8137354048588,310.81969778491043 L336.7698255624339,305.3883846685683 M328.81548057834834,309.8740693804229 L336.7717896641628,304.4429091759464 M344.8457540969881,300.0089979045162 L344.8479402980251,299.0636739564322 M336.7698255624339,305.3883846685683 L344.8457540969881,300.0089979045162 M336.7717896641628,304.4429091759464 L344.8479402980251,299.0636739564322 M352.99887923604837,294.6672284367078 L353.00128952869943,293.7220550665869 M344.8457540969881,300.0089979045162 L352.99887923604837,294.6672284367078 M344.8479402980251,299.0636739564322 L353.00128952869943,293.7220550665869 M361.18411911710245,289.34684068281075 L361.18675424812176,288.4018173801999 M352.99887923604837,294.6672284367078 L361.18411911710245,289.34684068281075 M353.00128952869943,293.7220550665869 L361.18675424812176,288.4018173801999 M369.3689522219822,284.0367065758995 L369.3718120402138,283.09183314340333 M361.18411911710245,289.34684068281075 L369.3689522219822,284.0367065758995 M361.18675424812176,288.4018173801999 L369.3718120402138,283.09183314340333 M377.53060187200555,278.7291881575725 L377.533685597963,277.7844646130312 M369.3689522219822,284.0367065758995 L377.53060187200555,278.7291881575725 M369.3718120402138,283.09183314340333 L377.533685597963,277.7844646130312 M385.65643361490424,273.420187079531 L385.65974012111167,272.4756135564958 M377.53060187200555,278.7291881575725 L385.65643361490424,273.420187079531 M377.533685597963,277.7844646130312 L385.65974012111167,272.4756135564958 M393.7435302309783,268.10893808144294 L393.74705831036863,267.1645147351861 M385.65643361490424,273.420187079531 L393.7435302309783,268.10893808144294 M385.65974012111167,272.4756135564958 L393.74705831036863,267.1645147351861 M401.79749400944195,262.797448065509 L401.80124261047183,261.8531749946219 M393.7435302309783,268.10893808144294 L401.79749400944195,262.797448065509 M393.74705831036863,267.1645147351861 L401.80124261047183,261.8531749946219 M409.8304596432107,257.489756233128 L409.8344280499515,256.54563342183053 M401.79749400944195,262.797448065509 L409.8304596432107,257.489756233128 M401.80124261047183,261.8531749946219 L409.8344280499515,256.54563342183053 M417.8572235258056,252.1906613803825 L417.86141143112195,251.24668867672096 M409.8304596432107,257.489756233128 L417.8572235258056,252.1906613803825 M409.8344280499515,256.54563342183053 L417.86141143112195,251.24668867672096 M425.89023636515265,246.90391871364497 L425.8946438056828,245.96009585874998 M417.8572235258056,252.1906613803825 L425.89023636515265,246.90391871364497 M417.86141143112195,251.24668867672096 L425.8946438056828,245.96009585874998 M433.9382919160413,241.63184989772225 L433.9429191710658,240.68817656622164 M425.89023636515265,246.90391871364497 L433.9382919160413,241.63184989772225 M425.8946438056828,245.96009585874998 L433.9429191710658,240.68817656622164 M442.0065834337297,236.37518115083594 L442.01143092561165,235.43165699598728 M433.9382919160413,241.63184989772225 L442.0065834337297,236.37518115083594 M433.9429191710658,240.68817656622164 L442.01143092561165,235.43165699598728 M450.09669492302623,231.1332109842337 L450.1017631175125,230.18983567842946 M442.0065834337297,236.37518115083594 L450.09669492302623,231.1332109842337 M442.01143092561165,235.43165699598728 L450.1017631175125,230.18983567842946 M458.2071134534805,225.90399143552494 L458.2124027741878,224.96076470576918 M450.09669492302623,231.1332109842337 L458.2071134534805,225.90399143552494 M450.1017631175125,230.18983567842946 L458.2124027741878,224.96076470576918 M466.3338864290498,220.68475951704264 L466.3393971901819,219.74168116826297 M458.2071134534805,225.90399143552494 L466.3338864290498,220.68475951704264 M458.2124027741878,224.96076470576918 L466.3393971901819,219.74168116826297 M474.4717139687283,215.47250126248022 L474.4774463380105,214.52957118485807 M466.3338864290498,220.68475951704264 L474.4717139687283,215.47250126248022 M466.3393971901819,219.74168116826297 L474.4774463380105,214.52957118485807 M482.61558267932764,210.2647642870427 L482.6215366860847,209.32198244022933 M474.4717139687283,215.47250126248022 L482.61558267932764,210.2647642870427 M474.4774463380105,214.52957118485807 L482.6215366860847,209.32198244022933 M490.7628653135174,205.06064724479145 L490.76904091472045,204.1180136138866 M482.61558267932764,210.2647642870427 L490.7628653135174,205.06064724479145 M482.6215366860847,209.32198244022933 L490.76904091472045,204.1180136138866 M498.91629161368473,199.8622227540269 L498.9226888419861,198.91973726486458 M490.7628653135174,205.06064724479145 L498.91629161368473,199.8622227540269 M490.76904091472045,204.1180136138866 L498.9226888419861,198.91973726486458 M497.64099934851095,203.16531480156328 L497.64736286078346,202.22273517258037 M498.91629161368473,199.8622227540269 L497.64099934851095,203.16531480156328 M498.9226888419861,198.91973726486458 L497.64736286078346,202.22273517258037 M493.9840617429227,209.60009757404333 L493.9903273691367,208.65733465236926 M497.64099934851095,203.16531480156328 L493.9840617429227,209.60009757404333 M497.64736286078346,202.22273517258037 L493.9903273691367,208.65733465236926 M489.3191088508157,215.82613781467097 L489.3252487765452,214.88319767448752 M493.9840617429227,209.60009757404333 L489.3191088508157,215.82613781467097 M493.9903273691367,208.65733465236926 L489.3252487765452,214.88319767448752 M484.0327593436159,221.89448169158808 L484.03875635991903,220.9513689429317 M489.3191088508157,215.82613781467097 L484.0327593436159,221.89448169158808 M489.3252487765452,214.88319767448752 L484.03875635991903,220.9513689429317 M478.3587281923351,227.85315463258698 L478.3645715106268,226.90987251151637 M484.0327593436159,221.89448169158808 L478.3587281923351,227.85315463258698 M484.03875635991903,220.9513689429317 L478.3645715106268,226.90987251151637 M472.43674282326003,233.73873980723567 L472.44242549743626,232.7952905046258 M478.3587281923351,227.85315463258698 L472.43674282326003,233.73873980723567 M478.3645715106268,226.90987251151637 L472.44242549743626,232.7952905046258 M466.35325953464815,239.5769246379628 L466.3587769978204,238.63330961156535 M472.43674282326003,233.73873980723567 L466.35325953464815,239.5769246379628 M472.44242549743626,232.7952905046258 L466.3587769978204,238.63330961156535 M460.16500433059764,245.3845445868432 L460.1703535773911,244.44076481429204 M466.35325953464815,239.5769246379628 L460.16500433059764,245.3845445868432 M466.3587769978204,238.63330961156535 L460.1703535773911,244.44076481429204 M453.909383402946,251.17390686108948 L453.9145624583457,250.22996296951231 M460.16500433059764,245.3845445868432 L453.909383402946,251.17390686108948 M460.1703535773911,244.44076481429204 L453.9145624583457,250.22996296951231 M447.61177673930456,256.9540271849306 L447.61678432778456,256.0099195450969 M453.909383402946,251.17390686108948 L447.61177673930456,256.9540271849306 M453.9145624583457,250.22996296951231 L447.61678432778456,256.0099195450969 M441.29015434962844,262.73110484016445 L441.294989691031,261.7868336468739 M447.61177673930456,256.9540271849306 L441.29015434962844,262.73110484016445 M447.61678432778456,256.0099195450969 L441.294989691031,261.7868336468739 M434.9571603714013,268.50958977750076 L434.96182303427076,267.56515509952555 M441.29015434962844,262.73110484016445 L434.9571603714013,268.50958977750076 M441.294989691031,261.7868336468739 L434.96182303427076,267.56515509952555 M428.62155034736156,274.29265848436984 L428.6260401418192,273.348060300782 M434.9571603714013,268.50958977750076 L428.62155034736156,274.29265848436984 M434.96182303427076,267.56515509952555 L428.6260401418192,273.348060300782 M422.28927698438747,280.082448057215 L422.2935938848577,279.1376862869833 M428.62155034736156,274.29265848436984 L422.28927698438747,280.082448057215 M428.6260401418192,273.348060300782 L422.2935938848577,279.1376862869833 M415.96351882734507,285.88009893866484 L415.96766289600475,284.93517346894754 M422.28927698438747,280.082448057215 L415.96351882734507,285.88009893866484 M422.2935938848577,279.1376862869833 L415.96766289600475,284.93517346894754 M409.6451954712743,291.68596176411125 L409.6491667956724,290.7408724726209 M415.96351882734507,285.88009893866484 L409.6451954712743,291.68596176411125 M415.96766289600475,284.93517346894754 L409.6491667956724,290.7408724726209 M403.33368860766984,297.49979435940713 L403.3374872582092,296.5545411311482 M409.6451954712743,291.68596176411125 L403.33368860766984,297.49979435940713 M409.6491667956724,290.7408724726209 L403.3374872582092,296.5545411311482 M397.02728742019815,303.3210005868731 L397.0309134199109,302.3755833240951 M403.33368860766984,297.49979435940713 L397.02728742019815,303.3210005868731 M403.3374872582092,296.5545411311482 L397.0309134199109,302.3755833240951 M390.7236864515478,309.1487576863512 L390.7271397596013,308.2031763148834 M397.02728742019815,303.3210005868731 L390.7236864515478,309.1487576863512 M397.0309134199109,302.3755833240951 L390.7271397596013,308.2031763148834 M384.42455929731204,314.9836753967544 L384.42783991906606,314.03792982564596 M390.7236864515478,309.1487576863512 L384.42455929731204,314.9836753967544 M390.7271397596013,308.2031763148834 L384.42783991906606,314.03792982564596 M378.1220434089586,320.8229357601948 L378.1251511320597,319.87702597812216 M384.42455929731204,314.9836753967544 L378.1220434089586,320.8229357601948 M384.42783991906606,314.03792982564596 L378.1251511320597,319.87702597812216 M371.8148887236481,326.6661159746728 L371.8178233009113,325.7200419824376 M378.1220434089586,320.8229357601948 L371.8148887236481,326.6661159746728 M378.1251511320597,319.87702597812216 L371.8178233009113,325.7200419824376 M365.4993602023763,332.5118843062782 L365.50212128294226,331.5656461422935 M371.8148887236481,326.6661159746728 L365.4993602023763,332.5118843062782 M371.8178233009113,325.7200419824376 L365.50212128294226,331.5656461422935 M359.17406639865777,338.3597348980747 L359.1766535928109,337.41333261509305 M365.4993602023763,332.5118843062782 L359.17406639865777,338.3597348980747 M365.50212128294226,331.5656461422935 L359.1766535928109,337.41333261509305 M352.8380804931428,344.20934158180967 L352.84049338515103,343.26277524184707 M359.17406639865777,338.3597348980747 L352.8380804931428,344.20934158180967 M359.1766535928109,337.41333261509305 L352.84049338515103,343.26277524184707 M346.49090317258805,350.0605297925136 L346.49314133252614,349.11379946257694 M352.8380804931428,344.20934158180967 L346.49090317258805,350.0605297925136 M352.84049338515103,343.26277524184707 L346.49314133252614,349.11379946257694 M340.13238170797626,355.91323041189236 L340.134444701316,354.9663361610142 M346.49090317258805,350.0605297925136 L340.13238170797626,355.91323041189236 M346.49314133252614,349.11379946257694 L340.134444701316,354.9663361610142 M333.7617566386035,361.76718368864147 L333.7636440093956,360.82012559320845 M340.13238170797626,355.91323041189236 L333.7617566386035,361.76718368864147 M340.134444701316,354.9663361610142 L333.7636440093956,360.82012559320845 M327.3782020349221,367.6220698268403 L327.37991330393197,366.6748479722521 M333.7617566386035,361.76718368864147 L327.3782020349221,367.6220698268403 M333.7636440093956,360.82012559320845 L327.37991330393197,366.6748479722521 M320.9810525465709,373.4776536085305 L320.98258721571517,372.53026808681227 M327.3782020349221,367.6220698268403 L320.9810525465709,373.4776536085305 M327.37991330393197,366.6748479722521 L320.98258721571517,372.53026808681227 M314.5697830636677,379.3337369776282 L314.57114061988744,378.3861878863753 M320.9810525465709,373.4776536085305 L314.5697830636677,379.3337369776282 M320.98258721571517,372.53026808681227 L314.57114061988744,378.3861878863753 M308.1439275519337,385.1901483597559 L308.14510746882183,384.2424358013794 M314.5697830636677,379.3337369776282 L308.1439275519337,385.1901483597559 M314.57114061988744,378.3861878863753 L308.14510746882183,384.2424358013794 M301.70319020096036,391.0467598813354 L301.7041919434733,390.09888396183106 M308.1439275519337,385.1901483597559 L301.70319020096036,391.0467598813354 M308.14510746882183,384.2424358013794 L301.7041919434733,390.09888396183106 M295.2473877571602,396.9034974432313 L295.2482107847364,395.95545827067076 M301.70319020096036,391.0467598813354 L295.2473877571602,396.9034974432313 M301.7041919434733,390.09888396183106 L295.2482107847364,395.95545827067076 M288.7786271618106,402.76109055497346 L288.7792709919401,401.81288821712195 M295.2473877571602,396.9034974432313 L288.7786271618106,402.76109055497346 M295.2482107847364,395.95545827067076 L288.7792709919401,401.81288821712195 M282.29557117677564,408.6190730031929 L282.296035289423,407.6707076008378 M288.7786271618106,402.76109055497346 L282.29557117677564,408.6190730031929 M288.7792709919401,401.81288821712195 L282.296035289423,407.6707076008378 M275.79815556490365,414.47743760088787 L275.79843943782873,413.5289092350386 M282.29557117677564,408.6190730031929 L275.79815556490365,414.47743760088787 M282.296035289423,407.6707076008378 L275.79843943782873,413.5289092350386 M269.2860254319234,420.33603067157895 L269.28612853260563,419.3873394475372 M275.79815556490365,414.47743760088787 L269.2860254319234,420.33603067157895 M275.79843943782873,413.5289092350386 L269.28612853260563,419.3873394475372 M262.76838454483016,426.1982437958504 L262.76830659602115,425.24938972474837 M269.2860254319234,420.33603067157895 L262.76838454483016,426.1982437958504 M269.28612853260563,419.3873394475372 L262.76830659602115,425.24938972474837 M256.23432895851846,432.0600467518811 L256.23406937970117,431.1110299568986 M262.76838454483016,426.1982437958504 L256.23432895851846,432.0600467518811 M262.76830659602115,425.24938972474837 L256.23406937970117,431.1110299568986 M249.67985817273097,437.919922833266 L249.67941627174554,436.9707434796198 M256.23432895851846,432.0600467518811 L249.67985817273097,437.919922833266 M256.23406937970117,431.1110299568986 L249.67941627174554,436.9707434796198 M243.0979321334807,443.7751732801763 L243.09730702194298,442.8258316077621 M249.67985817273097,437.919922833266 L243.0979321334807,443.7751732801763 M249.67941627174554,436.9707434796198 L243.09730702194298,442.8258316077621 M236.47746577733415,449.62099043406533 L236.476656258044,448.67148681565493 M243.0979321334807,443.7751732801763 L236.47746577733415,449.62099043406533 M243.09730702194298,442.8258316077621 L236.476656258044,448.67148681565493 M229.80055697457948,455.4509904688527 L229.79956135167185,454.5013254533478 M236.47746577733415,449.62099043406533 L229.80055697457948,455.4509904688527 M236.476656258044,448.67148681565493 L229.79956135167185,454.5013254533478 M223.04100399772938,461.2547646978641 L223.0398198454908,460.30493912112456 M229.80055697457948,455.4509904688527 L223.04100399772938,461.2547646978641 M229.79956135167185,454.5013254533478 L223.0398198454908,460.30493912112456 M216.1606880683933,467.01617640758224 L216.1593118993148,466.0661915499484 M223.04100399772938,461.2547646978641 L216.1606880683933,467.01617640758224 M223.0398198454908,460.30493912112456 L216.1593118993148,466.0661915499484 M209.10608645688694,472.71027665124467 L209.10451329266118,471.76013447972093 M216.1606880683933,467.01617640758224 L209.10608645688694,472.71027665124467 M216.1593118993148,466.0661915499484 L209.10451329266118,471.76013447972093 M201.8017823191139,478.30113592610894 L201.80000508087159,477.35083939561355 M209.10608645688694,472.71027665124467 L201.8017823191139,478.30113592610894 M209.10451329266118,471.76013447972093 L201.80000508087159,477.35083939561355 M194.14482000234688,483.73723904453163 L194.1428287439265,482.78679252525717 M201.8017823191139,478.30113592610894 L194.14482000234688,483.73723904453163 M201.80000508087159,477.35083939561355 L194.1428287439265,482.78679252525717 M186.01220536430924,488.93845652123946 L186.00998671653247,487.98786658396466 M194.14482000234688,483.73723904453163 L186.01220536430924,488.93845652123946 M194.1428287439265,482.78679252525717 L186.00998671653247,487.98786658396466 M186.01220536430924,488.93845652123946 L181.72194744713647,491.41833678870313 M186.00998671653247,487.98786658396466 L181.71960882353898,490.46767850237" stroke="black"  stroke-width="4"  fill="red"/></svg>