<svg viewBox="0 0 800 800" xmlns="http://www.w3.org/2000/svg"><path d="M737.498626351414,202.66848243601316 L725.0167236926452,230.40157915972736 M725.0167236926452,230.40157915972736 L675.2256619937388,248.2151619001553 M675.2256619937388,248.2151619001553 L626.4828413431113,266.985482180364 M626.4828413431113,266.985482180364 L579.6511310403979,286.2961799858672 M579.6511310403979,286.2961799858672 L534.260330284294,306.28474469722335 M534.260330284294,306.28474469722335 L485.3739623908729,329.33109528793284 M485.3739623908729,329.33109528793284 L437.96694725147,353.32436518023576 M437.96694725147,353.32436518023576 L391.88117258052796,378.3536432759629 M391.88117258052796,378.3536432759629 L346.966680787906,404.52259965498024 M346.966680787906,404.52259965498024 L303.08113544028964,431.9495235920864 M303.08113544028964,431.9495235920864 L260.09297654567126,460.76627771167034 M260.09297654567126,460.76627771167034 L217.8914567264771,491.1131884071996 M217.8914567264771,491.1131884071996 L176.4118596587327,523.1236592466387 M176.4118596587327,523.1236592466387 L135.6872312640582,556.8892982008183 M135.6872312640582,556.8892982008183 L112.36867505116885,577.3878491728588 M112.36867505116885,577.3878491728588 L89.78918013165855,598.1489713373791 M63.253241672682975,573.1561607574213 L89.78918013165855,598.1489713373791 M316.47143621580994,390.5748717157153 L294.0814728546857,404.20357782019914 M294.0814728546857,404.20357782019914 L272.15948994271946,417.9724702489433 M272.15948994271946,417.9724702489433 L229.69561327804772,445.8757040614802 M229.69561327804772,445.8757040614802 L186.72409036468835,475.8513634632227 M186.72409036468835,475.8513634632227 L144.29354292889246,507.3092208175109 M144.29354292889246,507.3092208175109 L102.74996973656107,540.0572295167879 M102.74996973656107,540.0572295167879 L63.253241672682975,573.1561607574213 M460.0375006009341,313.29336336739254 L412.5207661013178,337.12823823245117 M412.5207661013178,337.12823823245117 L366.6701677249038,361.7216431537179 M366.6701677249038,361.7216431537179 L341.2963204149854,376.04548053549934 M341.2963204149854,376.04548053549934 L316.47143621580994,390.5748717157153 M737.498626351414,202.66848243601316 L686.1658526822902,220.13899076792666 M686.1658526822902,220.13899076792666 L635.8728572662466,238.45412949118844 M635.8728572662466,238.45412949118844 L588.113433397265,257.03467648038065 M588.113433397265,257.03467648038065 L541.8537114445247,276.2149944016088 M541.8537114445247,276.2149944016088 L500.4049636283231,294.46087391887227 M500.4049636283231,294.46087391887227 L460.0375006009341,313.29336336739254 M741.4429267291217,199.85671359174012 L741.7843682847918,199.67327080313459 M741.2019012108135,200.5802912791405 L741.4429267291217,199.85671359174012 M741.2019012108135,200.5802912791405 L737.498626351414,202.66848243601316 M725.5473553575995,229.82219645029625 L725.0167236926452,230.40157915972736 M725.5473553575995,229.82219645029625 L728.7922095829997,228.5947143117483 M741.7843682847918,199.67327080313459 L728.7922095829997,228.5947143117483 M88.88817595852936,598.3409039675355 L89.78918013165855,598.1489713373791 M725.5473553575995,229.82219645029625 L675.3651871813316,247.40434752148337 M675.3651871813316,247.40434752148337 L626.443997323175,266.0921961319572 M626.443997323175,266.0921961319572 L575.4559696447734,287.09789401653245 M575.4559696447734,287.09789401653245 L525.7127431362431,309.149415841547 M525.7127431362431,309.149415841547 L477.34539965864224,332.1836130731871 M477.34539965864224,332.1836130731871 L430.32039522259777,356.22352214305033 M430.32039522259777,356.22352214305033 L384.5451133250184,381.3332944750308 M384.5451133250184,381.3332944750308 L339.9057623613631,407.6021954706381 M339.9057623613631,407.6021954706381 L296.2884682218313,435.13530992242306 M296.2884682218313,435.13530992242306 L253.59207936810515,464.0474486623033 M253.59207936810515,464.0474486623033 L211.75191608889952,494.4491131320707 M211.75191608889952,494.4491131320707 L170.79216603378464,526.4117900171541 M170.79216603378464,526.4117900171541 L130.93237298643498,559.8953709071743 M130.93237298643498,559.8953709071743 L109.56695388751132,578.9731301483394 M109.56695388751132,578.9731301483394 L88.88817595852936,598.3409039675355 M58.22744291714366,575.371578416521 L85.37647341394597,601.1698092162228 M88.88817595852936,598.3409039675355 L85.37647341394597,601.1698092162228 M59.46967717979487,575.2962104182683 L63.253241672682975,573.1561607574213 M59.46967717979487,575.2962104182683 L58.9490408699977,574.9773262137547 M58.9490408699977,574.9773262137547 L58.22744291714366,575.371578416521 M415.493600432082,335.55319190611385 L415.63056917481526,335.4259066916104 M415.63056917481526,335.4259066916104 L370.47492029803067,359.5179217636919 M370.47492029803067,359.5179217636919 L343.12838966889086,374.9227443308522 M343.12838966889086,374.9227443308522 L316.47143621580994,390.5748717157153 M415.493600432082,335.55319190611385 L370.7132298250172,359.4380868118973 M370.7132298250172,359.4380868118973 L327.40812819125017,384.0752112389338 M327.40812819125017,384.0752112389338 L286.8508956140091,408.53885391625977 M286.8508956140091,408.53885391625977 L243.41736449859158,436.3368311571387 M243.41736449859158,436.3368311571387 L200.7520858708447,465.3834702039436 M200.7520858708447,465.3834702039436 L158.29038811747517,496.10714541831726 M158.29038811747517,496.10714541831726 L116.00033517148819,528.6036118760891 M116.00033517148819,528.6036118760891 L87.23272940621928,551.8678510016153 M87.23272940621928,551.8678510016153 L59.46967717979487,575.2962104182683 M460.0375006009341,313.29336336739254 L415.630823097162,335.42577373797485 M415.630823097162,335.42577373797485 L415.32928355226176,335.2926838575089 M415.32928355226176,335.2926838575089 L415.63056917481526,335.4259066916104 M415.493600432082,335.55319190611385 L415.630823097162,335.42577373797485 M741.2019012108135,200.5802912791405 L689.9707611827745,217.97745619052012 M689.9707611827745,217.97745619052012 L639.9455883192754,236.1776248583978 M639.9455883192754,236.1776248583978 L592.5405287674965,254.63748724683535 M592.5405287674965,254.63748724683535 L546.9056534521685,273.6208293602565 M546.9056534521685,273.6208293602565 L498.07100975579664,295.3416934976717 M498.07100975579664,295.3416934976717 L456.2064254969309,315.1566428114247 M456.2064254969309,315.1566428114247 L415.493600432082,335.55319190611385 M741.7843682847918,199.67327080313459 L690.2995969054463,217.11966647902432 M690.2995969054463,217.11966647902432 L640.0137039755807,235.36834874475517 M640.0137039755807,235.36834874475517 L592.0716710173306,253.98120065813936 M592.0716710173306,253.98120065813936 L545.624133047836,273.24121595233794 M545.624133047836,273.24121595233794 L495.5879763613246,295.4522736455598 M495.5879763613246,295.4522736455598 L447.03812520198807,318.57086891684105 M447.03812520198807,318.57086891684105 L399.8015286804157,342.66256548248805 M399.8015286804157,342.66256548248805 L353.71403824506416,367.8007219998457 M353.71403824506416,367.8007219998457 L308.61799188155373,394.06810572072334 M308.61799188155373,394.06810572072334 L264.36311764401046,421.55689808133457 M264.36311764401046,421.55689808133457 L220.81416310527473,450.3645699410057 M220.81416310527473,450.3645699410057 L177.87098092638783,480.5811529531037 M177.87098092638783,480.5811529531037 L135.51114409412014,512.2591490201665 M135.51114409412014,512.2591490201665 L95.93523072421806,543.6614005678731 M95.93523072421806,543.6614005678731 L58.22744291714366,575.371578416521 M58.9490408699977,574.9773262137547 L95.85635257218462,544.0078003771519 M95.85635257218462,544.0078003771519 L134.5486894392418,513.3281388828636 M134.5486894392418,513.3281388828636 L173.99015405917586,483.76208247437205 M173.99015405917586,483.76208247437205 L213.90089511831522,455.49113690662637 M213.90089511831522,455.49113690662637 L253.91224370747318,428.7450509611035 M253.91224370747318,428.7450509611035 L294.16382203380067,403.38444098783134 M294.16382203380067,403.38444098783134 L334.7669725268062,379.2954944321406 M334.7669725268062,379.2954944321406 L374.46001165199306,357.06422727369636 M374.46001165199306,357.06422727369636 L415.32928355226176,335.2926838575089 M415.32928355226176,335.2926838575089 L461.1296458654915,312.220587275143 M461.1296458654915,312.220587275143 L508.47300027032713,289.91141804206575 M508.47300027032713,289.91141804206575 L557.7130180346851,268.31606247122596 M557.7130180346851,268.31606247122596 L608.7619679769464,247.50169500577647 M608.7619679769464,247.50169500577647 L661.7792146926936,227.41809668182862 M661.7792146926936,227.41809668182862 L701.3029150661524,213.37391016818782 M701.3029150661524,213.37391016818782 L741.4429267291217,199.85671359174012 M415.493600432082,335.55319190611385 L415.32928355226176,335.2926838575089 M728.7922095829997,228.5947143117483 L678.4214415482877,246.83089048376752 M678.4214415482877,246.83089048376752 L629.2325699281546,265.83720812095163 M629.2325699281546,265.83720812095163 L582.2763499578191,285.19154984057684 M582.2763499578191,285.19154984057684 L536.7813450073919,305.1789729856771 M536.7813450073919,305.1789729856771 L487.78464521206524,328.19690101511685 M487.78464521206524,328.19690101511685 L440.27107784017505,352.1430057977026 M440.27107784017505,352.1430057977026 L394.0849445745354,377.10916889054545 M394.0849445745354,377.10916889054545 L349.07898854261026,403.1984264138963 M349.07898854261026,403.1984264138963 L305.1126807517813,430.5264263153623 M305.1126807517813,430.5264263153623 L262.0543125322092,459.2209357211336 M262.0543125322092,459.2209357211336 L219.78945868896238,489.41683297326153 M219.78945868896238,489.41683297326153 L178.2415036001325,521.2413280826892 M178.2415036001325,521.2413280826892 L137.4137073815878,554.7787174337772 M137.4137073815878,554.7787174337772 L110.92987856402704,577.8446613671262 M110.92987856402704,577.8446613671262 L85.37647341394597,601.1698092162228" stroke="black"  stroke-width="4"  fill="red"/>
<path d="M88.88817595852936,598.3409039675355 L102.7760611458782,594.4664135626057 M102.7760611458782,594.4664135626057 L121.65298083580689,587.1672580505302 M121.65298083580689,587.1672580505302 L134.84478926908037,581.2945930561672 M134.84478926908037,581.2945930561672 L148.06182266082226,575.0214324445793 M148.06182266082226,575.0214324445793 L167.36364982870643,565.394909208741 M167.36364982870643,565.394909208741 L186.66576837113863,555.3981291106942 M186.66576837113863,555.3981291106942 L215.95958948781765,539.7725951862571 M215.95958948781765,539.7725951862571 L245.22165750842396,523.8051878667048 M245.22165750842396,523.8051878667048 L290.2143083607609,498.80230846060283 M290.2143083607609,498.80230846060283 L335.1166420438105,473.4693374716022 M335.1166420438105,473.4693374716022 L397.853387728874,437.5915658094933 M397.853387728874,437.5915658094933 L460.40965691710005,401.31388202779397 M460.40965691710005,401.31388202779397 L512.7113938837138,370.57442008023713 M512.7113938837138,370.57442008023713 L564.8835527898665,339.44955820314783 M564.8835527898665,339.44955820314783 L596.8263579228812,320.0757252733665 M596.8263579228812,320.0757252733665 L628.7127782447586,300.35960629273404 M628.7127782447586,300.35960629273404 L648.8833671095956,287.5788490781491 M648.8833671095956,287.5788490781491 L669.0141355659453,274.42065918773443 M669.0141355659453,274.42065918773443 L681.1787462574226,266.1548100376367 M681.1787462574226,266.1548100376367 L693.2992873219283,257.53427238679086 M693.2992873219283,257.53427238679086 L708.7808191794173,245.54897542550873 M708.7808191794173,245.54897542550873 L717.3135752247165,238.09567003287071 M717.3135752247165,238.09567003287071 L725.5473553575995,229.82219645029625 M725.5473553575995,229.82219645029625 L675.3651871813316,247.40434752148337 M675.3651871813316,247.40434752148337 L626.443997323175,266.0921961319572 M626.443997323175,266.0921961319572 L575.4559696447734,287.09789401653245 M575.4559696447734,287.09789401653245 L525.7127431362431,309.149415841547 M525.7127431362431,309.149415841547 L477.34539965864224,332.1836130731871 M477.34539965864224,332.1836130731871 L430.32039522259777,356.22352214305033 M430.32039522259777,356.22352214305033 L384.5451133250184,381.3332944750308 M384.5451133250184,381.3332944750308 L339.9057623613631,407.6021954706381 M339.9057623613631,407.6021954706381 L296.2884682218313,435.13530992242306 M296.2884682218313,435.13530992242306 L253.59207936810515,464.0474486623033 M253.59207936810515,464.0474486623033 L211.75191608889952,494.4491131320707 M211.75191608889952,494.4491131320707 L170.79216603378464,526.4117900171541 M170.79216603378464,526.4117900171541 L130.93237298643498,559.8953709071743 M130.93237298643498,559.8953709071743 L109.56695388751132,578.9731301483394 M109.56695388751132,578.9731301483394 L88.88817595852936,598.3409039675355 M725.5473553575995,229.82219645029625 L728.7922095829997,228.5947143117483 M728.7922095829997,228.5947143117483 L719.7066103053402,237.9496157019077 M719.7066103053402,237.9496157019077 L707.0156933948095,248.84281147485422 M707.0156933948095,248.84281147485422 L689.2631134923986,262.12216751414246 M689.2631134923986,262.12216751414246 L662.6919203278045,280.15505677131347 M662.6919203278045,280.15505677131347 L641.940348332736,293.5154666275988 M641.940348332736,293.5154666275988 L621.1536164110291,306.5545409484034 M621.1536164110291,306.5545409484034 L587.892415542914,326.97949281243814 M587.892415542914,326.97949281243814 L554.5724904074913,347.08829357308514 M554.5724904074913,347.08829357308514 L503.620656588261,377.3824466937921 M503.620656588261,377.3824466937921 L452.54576444073064,407.33578097240354 M452.54576444073064,407.33578097240354 L386.89103409401724,445.3336949891186 M386.89103409401724,445.3336949891186 L321.0376980592547,482.8908192112441 M321.0376980592547,482.8908192112441 L280.09004906140734,505.9202692049083 M280.09004906140734,505.9202692049083 L239.06778251335402,528.6565579742331 M239.06778251335402,528.6565579742331 L209.6821667196343,544.646985290081 M209.6821667196343,544.646985290081 L180.26555845319942,560.2686780337739 M180.26555845319942,560.2686780337739 L161.4926415790662,569.9270549037279 M161.4926415790662,569.9270549037279 L142.72214109600577,579.2035865875133 M142.72214109600577,579.2035865875133 L118.12187456955758,590.3838793102262 M118.12187456955758,590.3838793102262 L101.12745081947418,596.9093523580942 M101.12745081947418,596.9093523580942 L93.18450358969847,599.3582306125874 M93.18450358969847,599.3582306125874 L85.37647341394609,601.1698092162228 M88.88817595852936,598.3409039675355 L85.37647341394609,601.1698092162228 M728.7922095829997,228.5947143117483 L678.4214415482877,246.83089048376752 M678.4214415482877,246.83089048376752 L629.2325699281546,265.83720812095163 M629.2325699281546,265.83720812095163 L582.2763499578191,285.19154984057684 M582.2763499578191,285.19154984057684 L536.7813450073919,305.1789729856771 M536.7813450073919,305.1789729856771 L487.78464521206524,328.19690101511685 M487.78464521206524,328.19690101511685 L440.27107784017505,352.1430057977026 M440.27107784017505,352.1430057977026 L394.0849445745354,377.10916889054545 M394.0849445745354,377.10916889054545 L349.07898854261026,403.1984264138963 M349.07898854261026,403.1984264138963 L305.1126807517813,430.5264263153623 M305.1126807517813,430.5264263153623 L262.0543125322092,459.2209357211336 M262.0543125322092,459.2209357211336 L219.78945868896238,489.41683297326153 M219.78945868896238,489.41683297326153 L178.2415036001325,521.2413280826892 M178.2415036001325,521.2413280826892 L137.4137073815878,554.7787174337772 M137.4137073815878,554.7787174337772 L110.92987856402704,577.8446613671262 M110.92987856402704,577.8446613671262 L85.37647341394609,601.1698092162228" stroke="black"  stroke-width="4"  fill="red"/>
<path d="M415.493600432082,335.55319190611385 L422.3793197509357,329.0920439044605 M415.493600432082,335.55319190611385 L370.7132298250172,359.4380868118973 M370.7132298250172,359.4380868118973 L327.40812819125017,384.0752112389338 M327.40812819125017,384.0752112389338 L286.8508956140091,408.53885391625977 M286.8508956140091,408.53885391625977 L243.41736449859158,436.3368311571387 M243.41736449859158,436.3368311571387 L200.7520858708447,465.3834702039436 M200.7520858708447,465.3834702039436 L158.29038811747517,496.10714541831726 M158.29038811747517,496.10714541831726 L116.00033517148819,528.6036118760891 M116.00033517148819,528.6036118760891 L87.23272940621928,551.8678510016153 M87.23272940621928,551.8678510016153 L59.46967717979487,575.2962104182683 M353.3345553526645,409.1788226605495 L59.46967717979487,575.2962104182683 M422.3793197509357,329.0920439044605 L410.1030435889419,334.56725656033325 M410.1030435889419,334.56725656033325 L399.1318158753195,341.514655278267 M399.1318158753195,341.514655278267 L387.34438441557313,350.8674474861814 M387.34438441557313,350.8674474861814 L371.8987410165866,364.4358400679324 M371.8987410165866,364.4358400679324 L363.144930841667,371.52037580514593 M363.144930841667,371.52037580514593 L351.0984977874311,381.52858876668677 M351.0984977874311,381.52858876668677 L345.921730649002,387.8342391397068 M345.921730649002,387.8342391397068 L343.9768103523887,393.397815609453 M343.9768103523887,393.397815609453 L344.50501315946,398.16362655455816 M344.50501315946,398.16362655455816 L346.89970199824717,402.70521957032497 M346.89970199824717,402.70521957032497 L349.6217510633242,405.87311307948664 M349.6217510633242,405.87311307948664 L353.3345553526645,409.1788226605495 M415.493600432082,335.55319190611385 L414.5780342013119,334.1016111930203 M414.5780342013119,334.1016111930203 L421.62532894644033,327.57127889678145 M422.3793197509357,329.0920439044605 L421.62532894644033,327.57127889678145 M353.3345553526645,409.1788226605495 L353.33485351692093,407.7599962781586 M421.62532894644033,327.57127889678145 L410.811355043843,332.2544414016195 M410.811355043843,332.2544414016195 L401.30325915214144,337.92318666038614 M401.30325915214144,337.92318666038614 L389.7977475978776,346.7231836861158 M389.7977475978776,346.7231836861158 L368.21394769242414,365.52567740566326 M368.21394769242414,365.52567740566326 L357.906787014235,373.67323619691024 M357.906787014235,373.67323619691024 L348.6951973136502,382.1784867484157 M348.6951973136502,382.1784867484157 L344.91744290957723,387.92213320011854 M344.91744290957723,387.92213320011854 L343.8154221284757,393.39530040619104 M343.8154221284757,393.39530040619104 L344.96949496351874,398.0814995217863 M344.96949496351874,398.0814995217863 L347.8562345742097,402.5417293631475 M347.8562345742097,402.5417293631475 L350.27579603070365,405.1065238047081 M350.27579603070365,405.1065238047081 L353.33485351692093,407.7599962781586 M58.21563171520813,574.5213963167186 L59.46967717979487,575.2962104182683 M58.21563171520813,574.5213963167186 L353.33485351692093,407.7599962781586 M414.5780342013119,334.1016111930203 L368.1443045515218,358.90042214315463 M368.1443045515218,358.90042214315463 L323.4313133532155,384.400498471693 M323.4313133532155,384.400498471693 L278.91331434051597,411.47396358355616 M278.91331434051597,411.47396358355616 L235.14347370519778,439.8339359790058 M235.14347370519778,439.8339359790058 L192.00662718330614,469.57517861497195 M192.00662718330614,469.57517861497195 L149.44796770591768,500.7675429685014 M149.44796770591768,500.7675429685014 L107.53847464375372,533.406582765032 M107.53847464375372,533.406582765032 L82.48727653141611,553.899691457443 M82.48727653141611,553.899691457443 L58.21563171520813,574.5213963167186" stroke="black"  stroke-width="4"  fill="red"/>
<path d="M741.2019012108135,200.5802912791405 L505.846100542308,333.2997016499097 M505.846100542308,333.2997016499097 L497.1505904347666,329.22688935042174 M497.1505904347666,329.22688935042174 L487.1630610396878,326.23966457370113 M487.1630610396878,326.23966457370113 L474.84839926795973,324.1168424566547 M474.84839926795973,324.1168424566547 L461.1645440329355,323.25178150955 M461.1645440329355,323.25178150955 L447.09518285080776,323.81996785525814 M447.09518285080776,323.81996785525814 L435.5257683515106,325.5279772846334 M435.5257683515106,325.5279772846334 L428.63143744674653,327.2014176636434 M428.63143744674653,327.2014176636434 L422.3793197509357,329.0920439044605 M415.493600432082,335.55319190611385 L422.3793197509357,329.0920439044605 M741.2019012108135,200.5802912791405 L689.9707611827745,217.97745619052012 M689.9707611827745,217.97745619052012 L639.9455883192754,236.1776248583978 M639.9455883192754,236.1776248583978 L592.5405287674965,254.63748724683535 M592.5405287674965,254.63748724683535 L546.9056534521685,273.6208293602565 M546.9056534521685,273.6208293602565 L498.07100975579664,295.3416934976717 M498.07100975579664,295.3416934976717 L456.2064254969309,315.1566428114247 M456.2064254969309,315.1566428114247 L415.493600432082,335.55319190611385 M741.7841345617106,198.83019078377708 L505.85388636284256,331.8822195809338 M505.846100542308,333.2997016499097 L505.85388636284256,331.8822195809338 M741.2019012108135,200.5802912791405 L741.7841345617106,198.83019078377708 M422.3793197509357,329.0920439044605 L421.62532894644033,327.57127889678145 M505.85388636284256,331.8822195809338 L497.1760551327004,327.81012706102956 M497.1760551327004,327.81012706102956 L487.2013196755304,324.81987095323643 M487.2013196755304,324.81987095323643 L474.87368859908656,322.6840093649429 M474.87368859908656,322.6840093649429 L461.12528692377157,321.7938141905132 M461.12528692377157,321.7938141905132 L446.8418966962683,322.32210338334676 M446.8418966962683,322.32210338334676 L434.64463898562536,324.0345641394771 M434.64463898562536,324.0345641394771 L427.88040459257627,325.6162463418707 M427.88040459257627,325.6162463418707 L421.62532894644033,327.57127889678145 M414.5780342013119,334.1016111930203 L421.62532894644033,327.57127889678145 M415.493600432082,335.55319190611385 L414.5780342013119,334.1016111930203 M741.7841345617106,198.83019078377708 L690.2985045107284,216.27637437539516 M690.2985045107284,216.27637437539516 L640.0117717928631,234.5248162562391 M640.0117717928631,234.5248162562391 L592.0689370051789,253.13740547857327 M592.0689370051789,253.13740547857327 L545.6206209349699,272.39713207765317 M545.6206209349699,272.39713207765317 L495.583624432605,294.6078373990622 M495.583624432605,294.6078373990622 L454.50382932212756,314.06329380328964 M454.50382932212756,314.06329380328964 L414.5780342013119,334.1016111930203" stroke="black"  stroke-width="4"  fill="red"/>
<path d="M737.498626351414,202.66848243601316 L725.0167236926452,230.40157915972736 M725.0167236926452,230.40157915972736 L697.7633170129598,261.2910142070427 M697.7633170129598,261.2910142070427 L668.4867264463745,291.40043076516804 M668.4867264463745,291.40043076516804 L637.7386269985266,320.1217094470139 M637.7386269985266,320.1217094470139 L605.2754776772786,347.71389324609424 M605.2754776772786,347.71389324609424 L579.8785253742224,367.61666963974915 M579.8785253742224,367.61666963974915 L553.4800850940546,386.9335370928461 M556.7409904001122,364.07326947943113 L553.4800850940546,386.9335370928461 M737.498626351414,202.66848243601316 L709.8218691694552,233.84508554645532 M709.8218691694552,233.84508554645532 L680.0948026033981,264.1239526359511 M680.0948026033981,264.1239526359511 L649.2534907657235,292.5899055671347 M649.2534907657235,292.5899055671347 L616.7420613353834,319.84448196934306 M616.7420613353834,319.84448196934306 L587.4041044098035,342.3573513970126 M587.4041044098035,342.3573513970126 L556.7409904001122,364.07326947943113 M553.4800850940546,386.9335370928461 L551.2288705226374,388.5212773074094 M554.4903380603449,365.6016326071431 L551.2288705226374,388.5212773074094 M556.7409904001122,364.07326947943113 L554.4903380603449,365.6016326071431 M551.2288705226374,388.5212773074094 L509.820692315419,416.2146074977002 M509.820692315419,416.2146074977002 L466.36138924322523,442.5354359224434 M466.36138924322523,442.5354359224434 L419.818685663953,468.0877711723323 M419.818685663953,468.0877711723323 L370.41511515720424,492.68160989982175 M370.41511515720424,492.68160989982175 L317.9342386230778,516.3848585502335 M317.9342386230778,516.3848585502335 L262.15690290867053,539.2500523356241 M262.15690290867053,539.2500523356241 L202.90803610556517,561.3001846943004 M202.90803610556517,561.3001846943004 L146.93750583105745,580.3117215119099 M146.93750583105745,580.3117215119099 L89.78918013165855,598.1489713373791 M63.253241672682975,573.1561607574213 L89.78918013165855,598.1489713373791 M413.1425394925942,447.44211150018214 L388.05866494454403,459.54417780421795 M388.05866494454403,459.54417780421795 L362.5213739728692,471.23972152871227 M362.5213739728692,471.23972152871227 L310.17745214676415,493.4171560285738 M310.17745214676415,493.4171560285738 L253.1229084618442,515.158787021369 M253.1229084618442,515.158787021369 L192.46044793915473,535.8865836970998 M192.46044793915473,535.8865836970998 L128.56044816969296,555.4048590526903 M128.56044816969296,555.4048590526903 L63.253241672682975,573.1561607574213 M552.1858874131351,367.1577948966874 L510.0515407912983,394.25462689536675 M510.0515407912983,394.25462689536675 L465.8544042976435,419.9339628760629 M465.8544042976435,419.9339628760629 L439.7975815791277,433.92323143209444 M439.7975815791277,433.92323143209444 L413.1425394925942,447.44211150018214 M554.4903380603449,365.6016326071431 L552.1858874131351,367.1577948966874 M741.4429267291217,199.85671359174012 L741.7843682847919,199.67327080313459 M741.2019012108135,200.5802912791405 L741.4429267291217,199.85671359174012 M741.2019012108135,200.5802912791405 L737.498626351414,202.66848243601316 M725.5473553575995,229.82219645029613 L725.0167236926452,230.40157915972736 M725.5473553575995,229.82219645029613 L728.7922095829997,228.5947143117483 M741.7843682847919,199.67327080313459 L728.7922095829997,228.5947143117483 M88.88817595852936,598.3409039675355 L89.78918013165855,598.1489713373791 M725.5473553575995,229.82219645029613 L698.5768093850756,260.87074771120376 M698.5768093850756,260.87074771120376 L669.5066673592156,291.121710370153 M669.5066673592156,291.121710370153 L636.1119066226396,322.42358709187704 M636.1119066226396,322.42358709187704 L600.2662528663845,352.65621416820443 M600.2662528663845,352.65621416820443 L562.0526867877993,381.71548448606677 M562.0526867877993,381.71548448606677 L521.4373313914325,409.61130911345003 M521.4373313914325,409.61130911345003 L478.3246015624191,436.39318683467957 M478.3246015624191,436.39318683467957 L432.57756480240175,462.12374679710445 M432.57756480240175,462.12374679710445 L384.0319787295527,486.8650066535282 M384.0319787295527,486.8650066535282 L332.5073232156056,510.6708829997285 M332.5073232156056,510.6708829997285 L277.83434204221885,533.5750080935231 M277.83434204221885,533.5750080935231 L219.92634586616182,555.5668767096795 M219.92634586616182,555.5668767096795 L158.9419940270756,576.5526684562418 M158.9419940270756,576.5526684562418 L124.1414540681917,587.6512984945927 M124.1414540681917,587.6512984945927 L88.88817595852936,598.3409039675355 M58.22744291714366,575.371578416521 L85.3764734139462,601.1698092162229 M88.88817595852936,598.3409039675355 L85.3764734139462,601.1698092162229 M59.46967717979487,575.2962104182683 L63.253241672682975,573.1561607574213 M59.46967717979487,575.2962104182683 L58.9490408699977,574.9773262137547 M58.9490408699977,574.9773262137547 L58.22744291714366,575.371578416521 M513.2536485498822,392.80641840217754 L513.1118640926283,392.5154161726657 M513.1118640926283,392.5154161726657 L469.8705794939815,417.8441783014889 M469.8705794939815,417.8441783014889 L441.8665620898895,432.93469968471015 M441.8665620898895,432.93469968471015 L413.1425394925942,447.44211150018214 M513.2536485498822,392.80641840217754 L470.35384222072645,417.90758030173606 M470.35384222072645,417.90758030173606 L425.7248118362305,441.8811779792237 M425.7248118362305,441.8811779792237 L380.7726030421069,463.8653912397266 M380.7726030421069,463.8653912397266 L328.8820765383903,486.78691002804464 M328.8820765383903,486.78691002804464 L273.83483683503096,508.6160152635538 M273.83483683503096,508.6160152635538 L214.8137560020154,529.6168870745956 M214.8137560020154,529.6168870745956 L151.6002402270556,549.756374147865 M151.6002402270556,549.756374147865 L105.88243918724993,562.9665770131645 M105.88243918724993,562.9665770131645 L59.46967717979487,575.2962104182683 M552.1858874131351,367.1577948966874 L513.1120994468449,392.5152717134256 M513.1120994468449,392.5152717134256 L513.4351368384384,392.7480608084443 M513.4351368384384,392.7480608084443 L513.1118640926283,392.5154161726657 M513.2536485498822,392.80641840217754 L513.1120994468449,392.5152717134256 M741.2019012108135,200.5802912791405 L713.7308945052105,231.74150528547455 M713.7308945052105,231.74150528547455 L684.3054236057947,261.9227813725122 M684.3054236057947,261.9227813725122 L653.8083672407428,290.26005101411704 M653.8083672407428,290.26005101411704 L621.8033637233189,317.2462636976594 M621.8033637233189,317.2462636976594 L584.3970883731076,345.72314955064667 M584.3970883731076,345.72314955064667 L549.579453270056,369.74572533634887 M549.579453270056,369.74572533634887 L513.2536485498822,392.80641840217754 M741.7843682847919,199.67327080313459 L714.2548674080703,230.99618320914607 M714.2548674080703,230.99618320914607 L684.7770676338184,261.34683230444784 M684.7770676338184,261.34683230444784 L654.0687940623706,290.0272429659623 M654.0687940623706,290.0272429659623 L621.6766646502269,317.53993494537406 M621.6766646502269,317.53993494537406 L583.6153112856834,346.82976437964635 M583.6153112856834,346.82976437964635 L543.2666448328548,374.84876834484373 M543.2666448328548,374.84876834484373 L500.4928986067264,401.6702690008077 M500.4928986067264,401.6702690008077 L455.13420269203544,427.35728354783726 M455.13420269203544,427.35728354783726 L407.00584313490685,451.96362797268296 M407.00584313490685,451.96362797268296 L355.8982385924405,475.5330338481373 M355.8982385924405,475.5330338481373 L301.58472070166147,498.09473060992605 M301.58472070166147,498.09473060992605 L243.846580199257,519.6532424363671 M243.846580199257,519.6532424363671 L182.53394646926031,540.1687729932527 M182.53394646926031,540.1687729932527 L121.02389856772731,558.5842704254967 M121.02389856772731,558.5842704254967 L58.22744291714366,575.371578416521 M58.9490408699977,574.9773262137547 L120.26705839793266,558.5276372818219 M120.26705839793266,558.5276372818219 L180.3685355628681,540.5255067599086 M180.3685355628681,540.5255067599086 L237.6366019985863,521.4628637553595 M237.6366019985863,521.4628637553595 L291.7487823159645,501.51075311328725 M291.7487823159645,501.51075311328725 L342.30941878900467,480.89804742833996 M342.30941878900467,480.89804742833996 L389.63543538616955,459.6031550444171 M389.63543538616955,459.6031550444171 L433.9892900577221,437.6131224677973 M433.9892900577221,437.6131224677973 L474.37786415718074,415.6858924325277 M474.37786415718074,415.6858924325277 L513.4351368384384,392.7480608084443 M513.4351368384384,392.7480608084443 L554.2457376981677,366.6470217298454 M554.2457376981677,366.6470217298454 L593.0528503485268,339.2514266399377 M593.0528503485268,339.2514266399377 L629.9254922889876,310.35824031463335 M629.9254922889876,310.35824031463335 L664.7568060128427,280.03717812127337 M664.7568060128427,280.03717812127337 L697.638968575396,248.21248404154397 M697.638968575396,248.21248404154397 L720.1646330396779,224.29553622732016 M720.1646330396779,224.29553622732016 L741.4429267291217,199.85671359174012 M513.2536485498822,392.80641840217754 L513.4351368384384,392.7480608084443 M728.7922095829997,228.5947143117483 L701.3691923880931,260.14297309221996 M701.3691923880931,260.14297309221996 L672.0037538700768,290.69546499670207 M672.0037538700768,290.69546499670207 L641.3655181480746,319.59680960955654 M641.3655181480746,319.59680960955654 L609.0332437515677,347.32535529185986 M609.0332437515677,347.32535529185986 L571.0319250510413,376.8557640211259 M571.0319250510413,376.8557640211259 L530.7392446762456,405.1300594646543 M530.7392446762456,405.1300594646543 L488.02026901323904,432.2393263977759 M488.02026901323904,432.2393263977759 L442.71763530672916,458.2676691706396 M442.71763530672916,458.2676691706396 L394.64914639439763,483.29292199339943 M394.64914639439763,483.29292199339943 L343.60887080343554,507.3851980771053 M343.60887080343554,507.3851980771053 L289.3762064604611,530.6018215113698 M289.3762064604611,530.6018215113698 L231.74268316770608,552.9758297452005 M231.74268316770608,552.9758297452005 L170.57562526917263,574.4931976782049 M170.57562526917263,574.4931976782049 L128.29143962646071,588.181563636954 M128.29143962646071,588.181563636954 L85.3764734139462,601.1698092162229" stroke="black"  stroke-width="4"  fill="red"/>
<path d="M725.5473553575995,229.82219645029613 L715.8654715219299,239.42394677191697 M715.8654715219299,239.42394677191697 L702.4285383515019,250.64625268215303 M702.4285383515019,250.64625268215303 L683.3856454956789,264.61895954496333 M683.3856454956789,264.61895954496333 L669.0850269132795,274.373321179375 M669.0850269132795,274.373321179375 L654.7484926519079,283.79619458268485 M654.7484926519079,283.79619458268485 L632.2858454359819,298.1172191416457 M632.2858454359819,298.1172191416457 L609.7858032612781,312.1185097566689 M609.7858032612781,312.1185097566689 L560.5557946569327,342.0530562935297 M560.5557946569327,342.0530562935297 L511.2038406540045,371.4663051048524 M553.4800850940546,386.9335370928461 L511.2038406540045,371.4663051048524 M553.4800850940546,386.9335370928461 L551.2288705226374,388.5212773074094 M551.2288705226374,388.5212773074094 L508.7441568095294,372.9206731095709 M508.7441568095294,372.9206731095709 L454.5600015841508,404.7277439891759 M454.5600015841508,404.7277439891759 L400.2391381385947,436.21715901696405 M400.2391381385947,436.21715901696405 L332.1467735240667,475.1545246037506 M332.1467735240667,475.1545246037506 L263.8431214875931,513.5125361260558 M298.77557897989135,524.4902358966943 L263.8431214875931,513.5125361260558 M298.77557897989135,524.4902358966943 L295.94509815220846,525.66467558727 M295.94509815220846,525.66467558727 L261.3549645500636,514.8927678153643 M261.3549645500636,514.8927678153643 L226.79269105970167,533.8953871199986 M226.79269105970167,533.8953871199986 L192.1833664867826,552.4906943352279 M192.1833664867826,552.4906943352279 L169.09072555280213,564.5132661261565 M169.09072555280213,564.5132661261565 L145.99733291766768,576.0215276366743 M145.99733291766768,576.0215276366743 L120.97986757266153,587.4533517605842 M120.97986757266153,587.4533517605842 L104.78809150910092,593.7757700858559 M104.78809150910092,593.7757700858559 L88.88817595852936,598.3409039675355 M725.5473553575995,229.82219645029613 L698.5768093850756,260.87074771120376 M698.5768093850756,260.87074771120376 L669.5066673592156,291.121710370153 M669.5066673592156,291.121710370153 L636.1119066226396,322.42358709187704 M636.1119066226396,322.42358709187704 L600.2662528663845,352.65621416820443 M600.2662528663845,352.65621416820443 L562.0526867877993,381.71548448606677 M562.0526867877993,381.71548448606677 L521.4373313914325,409.61130911345003 M521.4373313914325,409.61130911345003 L478.3246015624191,436.39318683467957 M478.3246015624191,436.39318683467957 L432.57756480240175,462.12374679710445 M432.57756480240175,462.12374679710445 L384.0319787295527,486.8650066535282 M384.0319787295527,486.8650066535282 L332.5073232156056,510.6708829997285 M332.5073232156056,510.6708829997285 L277.83434204221885,533.5750080935231 M277.83434204221885,533.5750080935231 L219.92634586616182,555.5668767096795 M219.92634586616182,555.5668767096795 L158.9419940270756,576.5526684562418 M158.9419940270756,576.5526684562418 L124.1414540681917,587.6512984945927 M124.1414540681917,587.6512984945927 L88.88817595852936,598.3409039675355 M263.8431214875931,513.5125361260558 L261.3549645500636,514.8927678153643 M511.2038406540045,371.4663051048524 L508.7441568095294,372.9206731095709 M725.5473553575995,229.82219645029613 L728.7922095829997,228.5947143117483 M88.88817595852936,598.3409039675355 L85.3764734139462,601.1698092162229 M728.7922095829997,228.5947143117483 L719.7066103053402,237.9496157019077 M719.7066103053402,237.9496157019077 L707.0156933948095,248.84281147485422 M707.0156933948095,248.84281147485422 L689.2631134923986,262.12216751414246 M689.2631134923986,262.12216751414246 L662.6919203278045,280.15505677131347 M662.6919203278045,280.15505677131347 L641.940348332736,293.5154666275988 M641.940348332736,293.5154666275988 L621.1536164110291,306.5545409484034 M621.1536164110291,306.5545409484034 L587.892415542914,326.97949281243814 M587.892415542914,326.97949281243814 L554.5724904074913,347.08829357308514 M554.5724904074913,347.08829357308514 L503.620656588261,377.3824466937921 M503.620656588261,377.3824466937921 L452.54576444073064,407.33578097240354 M452.54576444073064,407.33578097240354 L386.89103409401724,445.3336949891186 M386.89103409401724,445.3336949891186 L321.0376980592547,482.8908192112441 M321.0376980592547,482.8908192112441 L280.09004906140734,505.9202692049083 M280.09004906140734,505.9202692049083 L239.06778251335402,528.6565579742331 M239.06778251335402,528.6565579742331 L209.6821667196343,544.646985290081 M209.6821667196343,544.646985290081 L180.26555845319942,560.2686780337739 M180.26555845319942,560.2686780337739 L161.4926415790662,569.9270549037279 M161.4926415790662,569.9270549037279 L142.72214109600577,579.2035865875133 M142.72214109600577,579.2035865875133 L118.12187456955758,590.3838793102262 M118.12187456955758,590.3838793102262 L101.12745081947418,596.9093523580942 M101.12745081947418,596.9093523580942 L93.18450358969847,599.3582306125874 M93.18450358969847,599.3582306125874 L85.3764734139462,601.1698092162229 M728.7922095829997,228.5947143117483 L701.3691923880931,260.14297309221996 M701.3691923880931,260.14297309221996 L672.0037538700768,290.69546499670207 M672.0037538700768,290.69546499670207 L641.3655181480746,319.59680960955654 M641.3655181480746,319.59680960955654 L609.0332437515677,347.32535529185986 M609.0332437515677,347.32535529185986 L571.0319250510413,376.8557640211259 M571.0319250510413,376.8557640211259 L530.7392446762456,405.1300594646543 M530.7392446762456,405.1300594646543 L488.02026901323904,432.2393263977759 M488.02026901323904,432.2393263977759 L442.71763530672916,458.2676691706396 M442.71763530672916,458.2676691706396 L394.64914639439763,483.29292199339943 M394.64914639439763,483.29292199339943 L343.60887080343554,507.3851980771053 M343.60887080343554,507.3851980771053 L289.3762064604611,530.6018215113698 M289.3762064604611,530.6018215113698 L231.74268316770608,552.9758297452005 M231.74268316770608,552.9758297452005 L170.57562526917263,574.4931976782049 M170.57562526917263,574.4931976782049 L128.29143962646071,588.181563636954 M128.29143962646071,588.181563636954 L85.3764734139462,601.1698092162229" stroke="black"  stroke-width="4"  fill="red"/>
<path d="M513.2536485498822,392.80641840217754 L505.91463164625463,377.99439498174354 M505.91463164625463,377.99439498174354 L494.768933588619,384.15610866523593 M494.768933588619,384.15610866523593 L481.5328661011378,389.8023345901279 M481.5328661011378,389.8023345901279 L463.52524134835386,395.5385414066368 M463.52524134835386,395.5385414066368 L437.23227158393263,402.78027495370964 M437.23227158393263,402.78027495370964 L423.39014792039643,406.8954143466119 M423.39014792039643,406.8954143466119 L404.04004686397553,412.6358512970378 M404.04004686397553,412.6358512970378 L392.04044435073916,414.942484263349 M392.04044435073916,414.942484263349 L381.63570204522927,415.5392551759851 M381.63570204522927,415.5392551759851 L372.89626191540464,414.85909438780163 M372.89626191540464,414.85909438780163 L364.72506018837737,413.1887038549503 M364.72506018837737,413.1887038549503 L359.11448821551784,411.4563426051926 M359.11448821551784,411.4563426051926 L353.3345553526645,409.1788226605495 M263.31995275470854,460.04940137510164 L353.3345553526645,409.1788226605495 M302.91807356867537,496.31664863629703 L301.39745053153996,494.485656292473 M301.39745053153996,494.485656292473 L299.86685620380644,492.666861144717 M299.86685620380644,492.666861144717 L298.32752688068035,490.8592874549496 M298.32752688068035,490.8592874549496 L296.7797984148962,489.0631824957177 M296.7797984148962,489.0631824957177 L295.22307407169785,487.2802390104308 M295.22307407169785,487.2802390104308 L293.6558599513402,485.5138656053872 M293.6558599513402,485.5138656053872 L292.0758559755209,483.76920834151645 M292.0758559755209,483.76920834151645 L290.48049673985486,482.0530699418571 M290.48049673985486,482.0530699418571 L288.3256951658683,479.8223829855433 M288.3256951658683,479.8223829855433 L286.1372071222836,477.6719425202132 M286.1372071222836,477.6719425202132 L283.9171884610593,475.6112192087777 M283.9171884610593,475.6112192087777 L281.6710816570721,473.64065253182275 M281.6710816570721,473.64065253182275 L279.405266404798,471.7534752018647 M279.405266404798,471.7534752018647 L277.1254957671079,469.93939344836235 M277.1254957671079,469.93939344836235 L272.5396195836399,466.4867367505972 M272.5396195836399,466.4867367505972 L267.9344411194342,463.2075907643725 M267.9344411194342,463.2075907643725 L263.31995275470854,460.04940137510164 M302.91807356867537,496.31664863629703 L300.10729414623836,497.42841730236614 M300.10729414623836,497.42841730236614 L298.59701278128927,495.61572621875973 M298.59701278128927,495.61572621875973 L297.0773110704487,493.81468657639357 M297.0773110704487,493.81468657639357 L295.54919849045746,492.02458821244215 M295.54919849045746,492.02458821244215 L294.0128393419981,490.2458961383137 M294.0128393419981,490.2458961383137 L292.4675252401709,488.48047572318615 M292.4675252401709,488.48047572318615 L290.9117239453555,486.7318146830137 M290.9117239453555,486.7318146830137 L289.34317436414096,485.0049840209937 M289.34317436414096,485.0049840209937 L287.75946915941495,483.30658193621605 M287.75946915941495,483.30658193621605 L285.62086558111395,481.09874427750503 M285.62086558111395,481.09874427750503 L283.44962973054487,478.969235924142 M283.44962973054487,478.969235924142 L281.247953815871,476.92676211463004 M281.247953815871,476.92676211463004 L279.0210074630769,474.9716164555647 M279.0210074630769,474.9716164555647 L276.7749098287453,473.0974851905785 M276.7749098287453,473.0974851905785 L274.51512105706354,471.2946383087178 M274.51512105706354,471.2946383087178 L269.9693449781546,467.86108002937556 M269.9693449781546,467.86108002937556 L265.4041425799919,464.5989008261773 M265.4041425799919,464.5989008261773 L260.8294045883288,461.4570013178693 M59.46967717979487,575.2962104182683 L260.8294045883288,461.4570013178693 M513.2536485498822,392.80641840217754 L470.35384222072645,417.90758030173606 M470.35384222072645,417.90758030173606 L425.7248118362305,441.8811779792237 M425.7248118362305,441.8811779792237 L380.7726030421069,463.8653912397266 M380.7726030421069,463.8653912397266 L328.8820765383903,486.78691002804464 M328.8820765383903,486.78691002804464 L273.83483683503096,508.6160152635538 M273.83483683503096,508.6160152635538 L214.8137560020154,529.6168870745956 M214.8137560020154,529.6168870745956 L151.6002402270556,549.756374147865 M151.6002402270556,549.756374147865 L105.88243918724993,562.9665770131645 M105.88243918724993,562.9665770131645 L59.46967717979487,575.2962104182683 M260.8294045883288,461.4570013178693 L263.31995275470854,460.04940137510164 M513.2536485498822,392.80641840217754 L514.2649571323617,392.4812149900189 M514.2649571323617,392.4812149900189 L507.06363882833773,377.58554282740033 M505.91463164625463,377.99439498174354 L507.06363882833773,377.58554282740033 M353.3345553526645,409.1788226605495 L353.33485351692093,407.7599962781586 M507.06363882833773,377.58554282740033 L497.518795637991,383.03359248167715 M497.518795637991,383.03359248167715 L486.25408328360356,387.6955511120275 M486.25408328360356,387.6955511120275 L469.0331635224534,393.175240101015 M469.0331635224534,393.175240101015 L432.4990377194822,403.25959184623025 M432.4990377194822,403.25959184623025 L416.5971965316685,408.14238092775565 M416.5971965316685,408.14238092775565 L400.129481135068,412.40255629048136 M400.129481135068,412.40255629048136 L389.2141932532363,413.9601333152059 M389.2141932532363,413.9601333152059 L379.0236620541971,414.09596104797856 M379.0236620541971,414.09596104797856 L370.47628016079534,413.0805504931501 M370.47628016079534,413.0805504931501 L362.4936434529672,411.15006598950424 M362.4936434529672,411.15006598950424 L357.9685086941729,409.63085056066745 M357.9685086941729,409.63085056066745 L353.33485351692093,407.7599962781586 M59.46967717979487,575.2962104182683 L58.21563171520813,574.5213963167186 M58.21563171520813,574.5213963167186 L353.33485351692093,407.7599962781586 M514.2649571323617,392.4812149900189 L469.74042883832544,418.5196852136461 M469.74042883832544,418.5196852136461 L423.2434506700774,443.09185250594476 M423.2434506700774,443.09185250594476 L373.1452554342051,466.9997913852311 M373.1452554342051,466.9997913852311 L319.9169858799669,489.8924007033504 M319.9169858799669,489.8924007033504 L263.3327687280555,511.7840275416903 M263.3327687280555,511.7840275416903 L203.20986780830728,532.6524704933798 M203.20986780830728,532.6524704933798 L139.50999494794485,552.4107080595724 M139.50999494794485,552.4107080595724 L99.13033935626072,563.8061037513897 M99.13033935626072,563.8061037513897 L58.21563171520813,574.5213963167186" stroke="black"  stroke-width="4"  fill="red"/>
<path d="M741.2019012108135,200.5802912791405 L511.0045536640348,330.39045726695883 M556.7409904001122,364.07326947943113 L555.1148006745689,361.61074157303176 M555.1148006745689,361.61074157303176 L554.2603552200168,360.406801636626 M554.2603552200168,360.406801636626 L553.3740887897802,359.22760474350775 M553.3740887897802,359.22760474350775 L552.4541139225623,358.0791692723669 M552.4541139225623,358.0791692723669 L551.5000706123474,356.9674215728123 M551.5000706123474,356.9674215728123 L550.5136243783775,355.8975037815046 M550.5136243783775,355.8975037815046 L549.4984064569987,354.87289519834144 M549.4984064569987,354.87289519834144 L547.7436406078712,353.2573444869645 M547.7436406078712,353.2573444869645 L545.9442214909321,351.7627595193811 M545.9442214909321,351.7627595193811 L544.118317799702,350.37052047245027 M544.118317799702,350.37052047245027 L542.2771930517824,349.0595488176068 M542.2771930517824,349.0595488176068 L539.3087303314664,347.0819204697141 M539.3087303314664,347.0819204697141 L536.3314617447066,345.2094716343511 M536.3314617447066,345.2094716343511 L533.3508519540092,343.4040629597199 M533.3508519540092,343.4040629597199 L530.3690131827858,341.6405107884791 M530.3690131827858,341.6405107884791 L525.5272581857528,338.8247916564276 M525.5272581857528,338.8247916564276 L520.6857779006654,336.0290415240596 M520.6857779006654,336.0290415240596 L515.8448319458727,333.2241318299335 M515.8448319458727,333.2241318299335 L511.0045536640348,330.39045726695883 M556.7409904001122,364.07326947943113 L554.4903380603449,365.6016326071431 M554.4903380603449,365.6016326071431 L552.8401365989168,363.05750779503296 M552.8401365989168,363.05750779503296 L551.9720826100012,361.81270024433843 M551.9720826100012,361.81270024433843 L551.0701412040434,360.5931642079406 M551.0701412040434,360.5931642079406 L550.131705246308,359.40581189213265 M550.131705246308,359.40581189213265 L549.1558491121083,358.2576354084699 M549.1558491121083,358.2576354084699 L548.144085859817,357.15484008889814 M548.144085859817,357.15484008889814 L547.1004803776582,356.10174500441155 M547.1004803776582,356.10174500441155 L545.3593036071934,354.5057418312408 M545.3593036071934,354.5057418312408 L543.5733565257779,353.03298714053983 M543.5733565257779,353.03298714053983 L541.7613441551586,351.66361563460646 M541.7613441551586,351.66361563460646 L539.9346915762654,350.3755949387645 M539.9346915762654,350.3755949387645 L536.9420667845827,348.40276616314725 M536.9420667845827,348.40276616314725 L533.9412948816044,346.5357345391601 M533.9412948816044,346.5357345391601 L530.9375859959673,344.734825521109 M530.9375859959673,344.734825521109 L527.932940843008,342.97436672105425 M527.932940843008,342.97436672105425 L523.0846456352891,340.1776737088376 M523.0846456352891,340.1776737088376 L518.2367281593623,337.39693604366494 M518.2367281593623,337.39693604366494 L513.3893289383764,334.60373543865444 M513.3893289383764,334.60373543865444 L508.5425373156048,331.7789726011563 M508.5425373156048,331.7789726011563 L505.846100542308,333.2997016499097 M505.846100542308,333.2997016499097 L512.6803129557716,338.30258270695515 M512.6803129557716,338.30258270695515 L517.407176832922,343.91654455553953 M517.407176832922,343.91654455553953 L520.3512405496647,350.71734276400446 M520.3512405496647,350.71734276400446 L520.8584082795966,358.157991277232 M520.8584082795966,358.157991277232 L518.6707781733854,365.68852718077756 M518.6707781733854,365.68852718077756 L514.4881326269943,371.73284966268966 M514.4881326269943,371.73284966268966 L510.5206427701562,375.1296754067339 M510.5206427701562,375.1296754067339 L505.91463164625463,377.99439498174354 M513.2536485498822,392.80641840217754 L505.91463164625463,377.99439498174354 M741.2019012108135,200.5802912791405 L713.7308945052105,231.74150528547455 M713.7308945052105,231.74150528547455 L684.3054236057947,261.9227813725122 M684.3054236057947,261.9227813725122 L653.8083672407428,290.26005101411704 M653.8083672407428,290.26005101411704 L621.8033637233189,317.2462636976594 M621.8033637233189,317.2462636976594 L584.3970883731076,345.72314955064667 M584.3970883731076,345.72314955064667 L549.579453270056,369.74572533634887 M549.579453270056,369.74572533634887 L513.2536485498822,392.80641840217754 M511.0045536640348,330.39045726695883 L508.5425373156048,331.7789726011563 M741.7841345617107,198.8301907837772 L505.85388636284256,331.8822195809338 M505.846100542308,333.2997016499097 L505.85388636284256,331.8822195809338 M741.2019012108135,200.5802912791405 L741.7841345617107,198.8301907837772 M505.91463164625463,377.99439498174354 L507.06363882833773,377.58554282740033 M505.85388636284256,331.8822195809338 L512.6876483313738,336.87471589114216 M512.6876483313738,336.87471589114216 L517.4204698145024,342.4811588601275 M517.4204698145024,342.4811588601275 L520.3864489293295,349.2887955488454 M520.3864489293295,349.2887955488454 L520.9338826786349,356.7651424761824 M520.9338826786349,356.7651424761824 L518.8112196999649,364.41874432299005 M518.8112196999649,364.41874432299005 L514.6609478122928,370.8543547108626 M514.6609478122928,370.8543547108626 L511.1878822205041,374.37239940706786 M511.1878822205041,374.37239940706786 L507.06363882833773,377.58554282740033 M514.2649571323617,392.4812149900189 L507.06363882833773,377.58554282740033 M513.2536485498822,392.80641840217754 L514.2649571323617,392.4812149900189 M741.7841345617107,198.8301907837772 L714.2541740992359,230.15266108959833 M714.2541740992359,230.15266108959833 L684.7758811694817,260.50287006083585 M684.7758811694817,260.50287006083585 L654.0670928403136,289.1828526394153 M654.0670928403136,289.1828526394153 L621.6744194419072,316.6951210539213 M621.6744194419072,316.6951210539213 L583.6124257075371,345.98448321630883 M583.6124257075371,345.98448321630883 L549.7029508717944,369.71975933798683 M549.7029508717944,369.71975933798683 L514.2649571323617,392.4812149900189" stroke="black"  stroke-width="4"  fill="red"/>
<path d="M511.0045536640348,330.39045726695883 L511.2038406540045,371.4663051048524 M511.2038406540045,371.4663051048524 L508.7441568095294,372.9206731095709 M508.5425373156048,331.7789726011563 L508.7441568095294,372.9206731095709 M511.0045536640348,330.39045726695883 L508.5425373156048,331.7789726011563 M556.7409904001122,364.07326947943113 L553.4800850940546,386.9335370928461 M553.4800850940546,386.9335370928461 L511.2038406540045,371.4663051048524 M556.7409904001122,364.07326947943113 L555.1148006745689,361.61074157303176 M555.1148006745689,361.61074157303176 L554.2603552200168,360.406801636626 M554.2603552200168,360.406801636626 L553.3740887897802,359.22760474350775 M553.3740887897802,359.22760474350775 L552.4541139225623,358.0791692723669 M552.4541139225623,358.0791692723669 L551.5000706123474,356.9674215728123 M551.5000706123474,356.9674215728123 L550.5136243783775,355.8975037815046 M550.5136243783775,355.8975037815046 L549.4984064569987,354.87289519834144 M549.4984064569987,354.87289519834144 L547.7436406078712,353.2573444869645 M547.7436406078712,353.2573444869645 L545.9442214909321,351.7627595193811 M545.9442214909321,351.7627595193811 L544.118317799702,350.37052047245027 M544.118317799702,350.37052047245027 L542.2771930517824,349.0595488176068 M542.2771930517824,349.0595488176068 L539.3087303314664,347.0819204697141 M539.3087303314664,347.0819204697141 L536.3314617447066,345.2094716343511 M536.3314617447066,345.2094716343511 L533.3508519540092,343.4040629597199 M533.3508519540092,343.4040629597199 L530.3690131827858,341.6405107884791 M530.3690131827858,341.6405107884791 L525.5272581857528,338.8247916564276 M525.5272581857528,338.8247916564276 L520.6857779006654,336.0290415240596 M520.6857779006654,336.0290415240596 L515.8448319458727,333.2241318299335 M515.8448319458727,333.2241318299335 L511.0045536640348,330.39045726695883 M551.2288705226374,388.5212773074094 L508.7441568095294,372.9206731095709 M553.4800850940546,386.9335370928461 L551.2288705226374,388.5212773074094 M554.4903380603449,365.6016326071431 L551.2288705226374,388.5212773074094 M554.4903380603449,365.6016326071431 L552.8401365989168,363.05750779503296 M552.8401365989168,363.05750779503296 L551.9720826100012,361.81270024433843 M551.9720826100012,361.81270024433843 L551.0701412040434,360.5931642079406 M551.0701412040434,360.5931642079406 L550.131705246308,359.40581189213265 M550.131705246308,359.40581189213265 L549.1558491121083,358.2576354084699 M549.1558491121083,358.2576354084699 L548.144085859817,357.15484008889814 M548.144085859817,357.15484008889814 L547.1004803776582,356.10174500441155 M547.1004803776582,356.10174500441155 L545.3593036071934,354.5057418312408 M545.3593036071934,354.5057418312408 L543.5733565257779,353.03298714053983 M543.5733565257779,353.03298714053983 L541.7613441551586,351.66361563460646 M541.7613441551586,351.66361563460646 L539.9346915762654,350.3755949387645 M539.9346915762654,350.3755949387645 L536.9420667845827,348.40276616314725 M536.9420667845827,348.40276616314725 L533.9412948816044,346.5357345391601 M533.9412948816044,346.5357345391601 L530.9375859959673,344.734825521109 M530.9375859959673,344.734825521109 L527.932940843008,342.97436672105425 M527.932940843008,342.97436672105425 L523.0846456352891,340.1776737088376 M523.0846456352891,340.1776737088376 L518.2367281593623,337.39693604366494 M518.2367281593623,337.39693604366494 L513.3893289383764,334.60373543865444 M513.3893289383764,334.60373543865444 L508.5425373156048,331.7789726011563 M556.7409904001122,364.07326947943113 L554.4903380603449,365.6016326071431" stroke="black"  stroke-width="4"  fill="red"/>
<path d="M263.31995275470854,460.04940137510164 L263.8431214875931,513.5125361260558 M263.8431214875931,513.5125361260558 L261.3549645500636,514.8927678153643 M260.8294045883288,461.4570013178693 L261.3549645500636,514.8927678153643 M260.8294045883288,461.4570013178693 L263.31995275470854,460.04940137510164 M302.91807356867537,496.31664863629703 L301.39745053153996,494.485656292473 M301.39745053153996,494.485656292473 L299.86685620380644,492.666861144717 M299.86685620380644,492.666861144717 L298.32752688068035,490.8592874549496 M298.32752688068035,490.8592874549496 L296.7797984148962,489.0631824957177 M296.7797984148962,489.0631824957177 L295.22307407169785,487.2802390104308 M295.22307407169785,487.2802390104308 L293.6558599513402,485.5138656053872 M293.6558599513402,485.5138656053872 L292.0758559755209,483.76920834151645 M292.0758559755209,483.76920834151645 L290.48049673985486,482.0530699418571 M290.48049673985486,482.0530699418571 L288.3256951658683,479.8223829855433 M288.3256951658683,479.8223829855433 L286.1372071222836,477.6719425202132 M286.1372071222836,477.6719425202132 L283.9171884610593,475.6112192087777 M283.9171884610593,475.6112192087777 L281.6710816570721,473.64065253182275 M281.6710816570721,473.64065253182275 L279.405266404798,471.7534752018647 M279.405266404798,471.7534752018647 L277.1254957671079,469.93939344836235 M277.1254957671079,469.93939344836235 L272.5396195836399,466.4867367505972 M272.5396195836399,466.4867367505972 L267.9344411194342,463.2075907643725 M267.9344411194342,463.2075907643725 L263.31995275470854,460.04940137510164 M302.91807356867537,496.31664863629703 L298.77557897989135,524.4902358966943 M298.77557897989135,524.4902358966943 L263.8431214875931,513.5125361260558 M295.94509815220846,525.66467558727 L261.3549645500636,514.8927678153643 M298.77557897989135,524.4902358966943 L295.94509815220846,525.66467558727 M300.10729414623836,497.42841730236614 L298.59701278128927,495.61572621875973 M298.59701278128927,495.61572621875973 L297.0773110704487,493.81468657639357 M297.0773110704487,493.81468657639357 L295.54919849045746,492.02458821244215 M295.54919849045746,492.02458821244215 L294.0128393419981,490.2458961383137 M294.0128393419981,490.2458961383137 L292.4675252401709,488.48047572318615 M292.4675252401709,488.48047572318615 L290.9117239453555,486.7318146830137 M290.9117239453555,486.7318146830137 L289.34317436414096,485.0049840209937 M289.34317436414096,485.0049840209937 L287.75946915941495,483.30658193621605 M287.75946915941495,483.30658193621605 L285.62086558111395,481.09874427750503 M285.62086558111395,481.09874427750503 L283.44962973054487,478.969235924142 M283.44962973054487,478.969235924142 L281.247953815871,476.92676211463004 M281.247953815871,476.92676211463004 L279.0210074630769,474.9716164555647 M279.0210074630769,474.9716164555647 L276.7749098287453,473.0974851905785 M276.7749098287453,473.0974851905785 L274.51512105706354,471.2946383087178 M274.51512105706354,471.2946383087178 L269.9693449781546,467.86108002937556 M269.9693449781546,467.86108002937556 L265.4041425799919,464.5989008261773 M265.4041425799919,464.5989008261773 L260.8294045883288,461.4570013178693 M300.10729414623836,497.42841730236614 L295.94509815220846,525.66467558727 M302.91807356867537,496.31664863629703 L300.10729414623836,497.42841730236614" stroke="black"  stroke-width="4"  fill="red"/></svg>