<svg viewBox="0 0 800 800" xmlns="http://www.w3.org/2000/svg"><path d="M737.9465113539737,201.311332457072 L725.0495869808087,229.9597583327792 M725.0495869808087,229.9597583327792 L675.2525859591374,247.7754659649827 M675.2525859591374,247.7754659649827 L626.5039510250936,266.54802526132687 M626.5039510250936,266.54802526132687 L579.666654405607,285.8610265418548 M579.666654405607,285.8610265418548 L534.2704392115087,305.85197558753487 M534.2704392115087,305.85197558753487 L485.37823991165004,328.9010752603092 M485.37823991165004,328.9010752603092 L437.96556983028313,352.8972071878693 M437.96556983028313,352.8972071878693 L391.87429782143954,377.9294708990084 M391.87429782143954,377.9294708990084 L346.95444840729914,404.10154883986934 M346.95444840729914,404.10154883986934 L303.0636681759579,431.5317443953776 M303.0636681759579,431.5317443953776 L260.0703814422851,460.35193591914447 M260.0703814422851,460.35193591914447 L217.86382761821477,490.7024665434599 M217.86382761821477,490.7024665434599 L176.37928266009126,522.7167557493223 M176.37928266009126,522.7167557493223 L135.64979643141487,556.4864224350117 M135.64979643141487,556.4864224350117 L112.32845866643481,576.9874185750458 M112.32845866643481,576.9874185750458 L89.74627035370065,597.751017228343 M62.852655993963026,572.4195001545919 L89.74627035370065,597.751017228343 M737.9465113539737,201.311332457072 L686.6482649335125,218.83220912408171 M686.6482649335125,218.83220912408171 L636.549398822488,237.14920474184441 M636.549398822488,237.14920474184441 L588.7684201340251,255.8313020772381 M588.7684201340251,255.8313020772381 L542.470112757925,275.15927867961057 M542.470112757925,275.15927867961057 L492.58724082026697,297.4448230675065 M492.58724082026697,297.4448230675065 L444.17677944987406,320.6381977799265 M444.17677944987406,320.6381977799265 L397.0656546422577,344.8061215475691 M397.0656546422577,344.8061215475691 L351.0896292406269,370.0231934205275 M351.0896292406269,370.0231934205275 L306.09082557236445,396.3735930987567 M306.09082557236445,396.3735930987567 L261.91934774945867,423.950690221521 M261.91934774945867,423.950690221521 L218.44140633727403,452.85266982807696 M218.44140633727403,452.85266982807696 L175.5611390086714,483.1685461522236 M175.5611390086714,483.1685461522236 L133.2658363854839,514.9459528164472 M133.2658363854839,514.9459528164472 L97.28393355233277,543.5551373000634 M97.28393355233277,543.5551373000634 L62.852655993963026,572.4195001545919 M737.9465113539737,201.311332457072 L741.8192317000833,199.22778455241115 M725.5802819421182,229.38030651172852 L725.0495869808087,229.9597583327792 M725.5802819421182,229.38030651172852 L728.8255232296921,228.152677953073 M741.8192317000833,199.22778455241115 L728.8255232296921,228.152677953073 M88.84515870436161,597.9429727531677 L89.74627035370065,597.751017228343 M725.5802819421182,229.38030651172852 L675.3921277899809,246.96455486838323 M675.3921277899809,246.96455486838323 L626.4651023716516,265.6546326573661 M626.4651023716516,265.6546326573661 L575.470992590495,286.6628362049132 M575.470992590495,286.6628362049132 L525.7218324652167,308.71698844392404 M525.7218324652167,308.71698844392404 L477.34871949296365,331.75393330791655 M477.34871949296365,331.75393330791655 L430.31810568307105,355.79670997638755 M430.31810568307105,355.79670997638755 L384.53736348469533,380.90947752552836 M384.53736348469533,380.90947752552836 L339.89268771967323,407.1815120048649 M339.89268771967323,407.1815120048649 L296.27019069474017,434.7179107419789 M296.27019069474017,434.7179107419789 L253.56870880572524,463.6334982639886 M253.56870880572524,463.6334982639886 L211.7235546260291,494.0387891938417 M211.7235546260291,494.0387891938417 L170.75891869044418,526.0052787442504 M170.75891869044418,526.0052787442504 L130.89437097090678,559.4928537205071 M130.89437097090678,559.4928537205071 L109.52640329969529,578.5728886506395 M109.52640329969529,578.5728886506395 L88.84515870436161,597.9429727531677 M58.18076829991662,574.970907308014 L85.3330372666245,600.7722154475889 M88.84515870436161,597.9429727531677 L85.3330372666245,600.7722154475889 M62.852655993963026,572.4195001545919 L58.18076829991662,574.970907308014 M741.8192317000833,199.22778455241115 L690.3283189639508,216.6762613201971 M690.3283189639508,216.6762613201971 L640.036427685417,234.92712037851504 M640.036427685417,234.92712037851504 L592.0886759656455,253.5421925244333 M592.0886759656455,253.5421925244333 L545.6355975053436,272.8045052479974 M545.6355975053436,272.8045052479974 L495.5934722599315,295.01821238543846 M495.5934722599315,295.01821238543846 L447.03782983552884,318.1395653564856 M447.03782983552884,318.1395653564856 L399.79559870036354,342.2341356982075 M399.79559870036354,342.2341356982075 L353.70261072244557,367.37529081853074 M353.70261072244557,367.37529081853074 L308.6011850806945,393.6458078421497 M308.6011850806945,393.6458078421497 L264.3410319040596,421.1378792011327 M264.3410319040596,421.1378792011327 L220.78688263180632,449.9489873816102 M220.78688263180632,449.9489873816102 L177.83857797890886,480.1691747763671 M177.83857797890886,480.1691747763671 L135.47368825693297,511.8509495506271 M135.47368825693297,511.8509495506271 L95.89305407740756,543.256946913368 M95.89305407740756,543.256946913368 L58.18076829991662,574.970907308014 M728.8255232296921,228.152677953073 L678.4487467219919,246.39102942589096 M678.4487467219919,246.39102942589096 L629.2540076112887,265.3996142301362 M629.2540076112887,265.3996142301362 L582.2921864720543,284.756264630847 M582.2921864720543,284.756264630847 L536.7917546536439,304.74607197409944 M536.7917546536439,304.74607197409944 L487.78921029094766,327.7667456952212 M487.78921029094766,327.7667456952212 L440.269975267019,351.7157068869777 M440.269975267019,351.7157068869777 L394.07833269221084,376.68484806656454 M394.07833269221084,376.68484806656454 L349.06700812846304,402.7772176448875 M349.06700812846304,402.7772176448875 L305.09545582016756,430.10847736461017 M305.09545582016756,430.10847736461017 L262.0319513866273,458.80640959261336 M262.0319513866273,458.80640959261336 L219.7620559837107,489.0059087599011 M219.7620559837107,489.0059087599011 L178.20914485042056,520.8342000516521 M178.20914485042056,520.8342000516521 L137.37647849150846,554.3755899075146 M137.37647849150846,554.3755899075146 L110.88949055257052,577.4442852601187 M110.88949055257052,577.4442852601187 L85.3330372666245,600.7722154475889" stroke="black"  stroke-width="4"  fill="red"/>
<path d="M88.84515870436161,597.9429727531677 L102.73470050697097,594.0680201799637 M102.73470050697097,594.0680201799637 L121.61387192873713,586.7679939887136 M121.61387192873713,586.7679939887136 L134.8072539458118,580.8946284739819 M134.8072539458118,580.8946284739819 L148.02586393031214,574.6207195689385 M148.02586393031214,574.6207195689385 L167.32999351508778,564.993048034055 M167.32999351508778,564.993048034055 L186.63441450916824,554.9950754709032 M186.63441450916824,554.9950754709032 L215.9317299369281,539.3676776559166 M215.9317299369281,539.3676776559166 L245.19728831691543,523.3983495171988 M245.19728831691543,523.3983495171988 L290.2182861602997,498.37962763492476 M290.2182861602997,498.37962763492476 L335.148820803274,473.03050028149937 M335.148820803274,473.03050028149937 L397.8986137294548,437.1448611462316 M397.8986137294548,437.1448611462316 L460.4678967094775,400.8591952493538 M460.4678967094775,400.8591952493538 L512.7720957657928,370.11786022985575 M512.7720957657928,370.11786022985575 L564.946719952726,338.99099997089445 M564.946719952726,338.99099997089445 L596.8938433647635,319.6140804487959 M596.8938433647635,319.6140804487959 L628.7845833324313,299.8945352154336 M628.7845833324313,299.8945352154336 L648.9474426380627,287.11798066012204 M648.9474426380627,287.11798066012204 L669.0704952938714,273.96394289664886 M669.0704952938714,273.96394289664886 L681.2307906704586,265.70033801776043 M681.2307906704586,265.70033801776043 L693.3470082100683,257.0820306851786 M693.3470082100683,257.0820306851786 L708.8240638267205,245.09876508471052 M708.8240638267205,245.09876508471052 L717.3515392481063,237.6491818506109 M717.3515392481063,237.6491818506109 L725.5802819421182,229.38030651172852 M725.5802819421182,229.38030651172852 L675.3921277899809,246.96455486838323 M675.3921277899809,246.96455486838323 L626.4651023716516,265.6546326573661 M626.4651023716516,265.6546326573661 L575.470992590495,286.6628362049132 M575.470992590495,286.6628362049132 L525.7218324652167,308.71698844392404 M525.7218324652167,308.71698844392404 L477.34871949296365,331.75393330791655 M477.34871949296365,331.75393330791655 L430.31810568307105,355.79670997638755 M430.31810568307105,355.79670997638755 L384.53736348469533,380.90947752552836 M384.53736348469533,380.90947752552836 L339.89268771967323,407.1815120048649 M339.89268771967323,407.1815120048649 L296.27019069474017,434.7179107419789 M296.27019069474017,434.7179107419789 L253.56870880572524,463.6334982639886 M253.56870880572524,463.6334982639886 L211.7235546260291,494.0387891938417 M211.7235546260291,494.0387891938417 L170.75891869044418,526.0052787442504 M170.75891869044418,526.0052787442504 L130.89437097090678,559.4928537205071 M130.89437097090678,559.4928537205071 L109.52640329969529,578.5728886506395 M109.52640329969529,578.5728886506395 L88.84515870436161,597.9429727531677 M725.5802819421182,229.38030651172852 L728.8255232296921,228.152677953073 M728.8255232296921,228.152677953073 L719.7388401770581,237.50869524188766 M719.7388401770581,237.50869524188766 L707.046409431531,248.4031904088102 M707.046409431531,248.4031904088102 L689.2917119140632,261.6841304750089 M689.2917119140632,261.6841304750089 L662.717349206843,279.7191707839155 M662.717349206843,279.7191707839155 L641.9633018621885,293.08117433560915 M641.9633018621885,293.08117433560915 L621.1740903968469,306.1218040213388 M621.1740903968469,306.1218040213388 L587.908921969078,326.5491922741036 M587.908921969078,326.5491922741036 L554.5850222690823,346.6603917114219 M554.5850222690823,346.6603917114219 L503.62711066447866,376.9581584677319 M503.62711066447866,376.9581584677319 L452.5461260525722,406.91506572739854 M452.5461260525722,406.91506572739854 L386.8835640866633,444.9175123222117 M386.8835640866633,444.9175123222117 L321.0223727420416,482.4791165428602 M321.0223727420416,482.4791165428602 L280.06983930719775,505.51131360260297 M280.06983930719775,505.51131360260297 L239.04267942139927,528.2503144682936 M239.04267942139927,528.2503144682936 L209.65355836687803,544.2426492009698 M209.65355836687803,544.2426492009698 L180.23344114270685,559.8662053770171 M180.23344114270685,559.8662053770171 L161.45828494270367,569.5257343456743 M161.45828494270367,569.5257343456743 L142.68554542201235,578.8033725797909 M142.68554542201235,578.8033725797909 L118.08234445476262,589.9849989428162 M118.08234445476262,589.9849989428162 L101.0858935262176,596.5112503812087 M101.0858935262176,596.5112503812087 L93.14199882262454,598.9604207499461 M93.14199882262454,598.9604207499461 L85.3330372666245,600.7722154475889 M88.84515870436161,597.9429727531677 L85.3330372666245,600.7722154475889 M728.8255232296921,228.152677953073 L678.4487467219919,246.39102942589096 M678.4487467219919,246.39102942589096 L629.2540076112887,265.3996142301362 M629.2540076112887,265.3996142301362 L582.2921864720543,284.756264630847 M582.2921864720543,284.756264630847 L536.7917546536439,304.74607197409944 M536.7917546536439,304.74607197409944 L487.78921029094766,327.7667456952212 M487.78921029094766,327.7667456952212 L440.269975267019,351.7157068869777 M440.269975267019,351.7157068869777 L394.07833269221084,376.68484806656454 M394.07833269221084,376.68484806656454 L349.06700812846304,402.7772176448875 M349.06700812846304,402.7772176448875 L305.09545582016756,430.10847736461017 M305.09545582016756,430.10847736461017 L262.0319513866273,458.80640959261336 M262.0319513866273,458.80640959261336 L219.7620559837107,489.0059087599011 M219.7620559837107,489.0059087599011 L178.20914485042056,520.8342000516521 M178.20914485042056,520.8342000516521 L137.37647849150846,554.3755899075146 M137.37647849150846,554.3755899075146 L110.88949055257052,577.4442852601187 M110.88949055257052,577.4442852601187 L85.3330372666245,600.7722154475889" stroke="black"  stroke-width="4"  fill="red"/>
<path d="M737.9465113539737,201.311332457072 L725.0495869808087,229.9597583327792 M725.0495869808087,229.9597583327792 L697.7929293807132,260.8528780238542 M697.7929293807132,260.8528780238542 L668.5128465583916,290.9658861812967 M668.5128465583916,290.9658861812967 L637.7610793259898,319.69059087854555 M637.7610793259898,319.69059087854555 L605.2940576406024,347.2860660090372 M605.2940576406024,347.2860660090372 L567.1339502528449,376.6928738268848 M567.1339502528449,376.6928738268848 L526.6762842487792,404.8600831182721 M526.6762842487792,404.8600831182721 L483.7844456836774,431.87642839392834 M483.7844456836774,431.87642839392834 L438.2974147542001,457.8260914294058 M438.2974147542001,457.8260914294058 L390.02866046963015,482.78804726795977 M390.02866046963015,482.78804726795977 L338.7684338646679,506.83412046648573 M338.7684338646679,506.83412046648573 L284.2949776515108,530.0241375226285 M284.2949776515108,530.0241375226285 L226.4077080614217,552.394807502885 M226.4077080614217,552.394807502885 L165.00507090154775,573.940016165172 M165.00507090154775,573.940016165172 L127.62561306486543,586.0947282913208 M127.62561306486543,586.0947282913208 L89.74627035370065,597.751017228343 M62.852655993963026,572.4195001545919 L89.74627035370065,597.751017228343 M737.9465113539737,201.311332457072 L710.281223213723,232.52433575027567 M710.281223213723,232.52433575027567 L680.6706360371678,262.7593138857088 M680.6706360371678,262.7593138857088 L649.8217770099067,291.3345235020239 M649.8217770099067,291.3345235020239 L617.2844761014493,318.74399521994974 M617.2844761014493,318.74399521994974 L579.0555077779636,347.9206543386166 M579.0555077779636,347.9206543386166 L538.5299748622135,375.8283830625344 M538.5299748622135,375.8283830625344 L495.56772096239973,402.5402880749574 M495.56772096239973,402.5402880749574 L450.0062521025831,428.11913451278974 M450.0062521025831,428.11913451278974 L401.6579012637439,452.6185144761587 M401.6579012637439,452.6185144761587 L350.310560202311,476.08158385133015 M350.310560202311,476.08158385133015 L295.7360842755313,498.53646800866056 M295.7360842755313,498.53646800866056 L237.7178769104029,519.9852757693075 M237.7178769104029,519.9852757693075 L176.11623483823928,540.3834818550129 M176.11623483823928,540.3834818550129 L120.01869809903349,557.0776146896025 M120.01869809903349,557.0776146896025 L62.852655993963026,572.4195001545919 M737.9465113539737,201.311332457072 L741.8192317000834,199.22778455241115 M725.5802819421182,229.38030651172852 L725.0495869808087,229.9597583327792 M725.5802819421182,229.38030651172852 L728.8255232296921,228.152677953073 M741.8192317000834,199.22778455241115 L728.8255232296921,228.152677953073 M88.84515870436161,597.9429727531677 L89.74627035370065,597.751017228343 M725.5802819421182,229.38030651172852 L698.6065187902009,260.4325613965603 M698.6065187902009,260.4325613965603 L669.5329091348021,290.6871325391419 M669.5329091348021,290.6871325391419 L636.1341649068945,321.9927431026973 M636.1341649068945,321.9927431026973 L600.2842353047322,352.2289764754987 M600.2842353047322,352.2289764754987 L562.0661109240102,381.2917131260689 M562.0661109240102,381.2917131260689 L521.445910728262,409.19086530463517 M521.445910728262,409.19086530463517 L478.3280382007604,435.97593769998093 M478.3280382007604,435.97593769998093 L432.5755445091657,461.70956693016853 M432.5755445091657,461.70956693016853 L384.0241676800109,486.45377804577186 M384.0241676800109,486.45377804577186 L332.49336605170106,510.2624940740053 M332.49336605170106,510.2624940740053 L277.81386321618004,533.1693512845079 M277.81386321618004,533.1693512845079 L219.89895948948586,555.1638431989323 M219.89895948948586,555.1638431989323 L158.90733313692627,576.1521382339648 M158.90733313692627,576.1521382339648 L124.10264199845005,587.2520921715011 M124.10264199845005,587.2520921715011 L88.84515870436161,597.9429727531677 M58.18076829991662,574.970907308014 L85.33303726662461,600.7722154475889 M88.84515870436161,597.9429727531677 L85.33303726662461,600.7722154475889 M62.852655993963026,572.4195001545919 L58.18076829991662,574.970907308014 M741.8192317000834,199.22778455241115 L714.2864469690778,230.5544333094939 M714.2864469690778,230.5544333094939 L684.8051309378658,260.9087027795165 M684.8051309378658,260.9087027795165 L654.0931943324904,289.59253458149544 M654.0931943324904,289.59253458149544 L621.6972010278114,317.10850841014326 M621.6972010278114,317.10850841014326 L583.6313075178123,346.40183167934913 M583.6313075178123,346.40183167934913 L543.2778280775715,374.4241778891668 M543.2778280775715,374.4241778891668 L500.4989795885864,401.2488779456655 M500.4989795885864,401.2488779456655 L455.1348730655244,426.93895656614643 M455.1348730655244,426.93895656614643 L407.0007725209214,451.54823615679527 M407.0007725209214,451.54823615679527 L355.8870716119835,475.1204535069219 M355.8870716119835,475.1204535069219 L301.56707493761877,497.6848415388828 M301.56707493761877,497.6848415388828 L243.8220471457975,519.2459249706624 M243.8220471457975,519.2459249706624 L182.5020997432486,539.76390272095 M182.5020997432486,539.76390272095 L120.98471462063014,558.1815968443146 M120.98471462063014,558.1815968443146 L58.18076829991662,574.970907308014 M728.8255232296921,228.152677953073 L701.3992348823989,259.70469996503994 M701.3992348823989,259.70469996503994 L672.0302935104256,290.2608363210461 M672.0302935104256,290.2608363210461 L641.3884031089549,319.1656284284536 M641.3884031089549,319.1656284284536 L609.0522719597136,346.89748170808434 M609.0522719597136,346.89748170808434 L571.0464202749616,376.4314129697656 M571.0464202749616,376.4314129697656 L530.7489335910484,404.7090811103377 M530.7489335910484,404.7090811103377 L488.02486219848754,431.8215817701713 M488.02486219848754,431.8215817701713 L442.71682457098245,457.85302933179594 M442.71682457098245,457.85302933179594 L394.64260181284146,482.8812672898134 M394.64260181284146,482.8812672898134 L343.5962378867364,506.97641721872196 M343.5962378867364,506.97641721872196 L289.3571044047852,530.1958100460339 M289.3571044047852,530.1958100460339 L231.71670630186875,552.5724871616259 M231.71670630186875,552.5724871616259 L170.54235209578445,574.0924217921225 M170.54235209578445,574.0924217921225 L128.25312258741042,587.7824205664973 M128.25312258741042,587.7824205664973 L85.33303726662461,600.7722154475889" stroke="black"  stroke-width="4"  fill="red"/>
<path d="M725.5802819421182,229.38030651172852 L715.8972432037187,238.98320217735926 M715.8972432037187,238.98320217735926 L702.4587072098052,250.20684673944743 M702.4587072098052,250.20684673944743 L683.413542824049,264.1812203354651 M683.413542824049,264.1812203354651 L669.1112183935196,273.93674551811483 M669.1112183935196,273.93674551811483 L654.7729739998189,283.360742928116 M654.7729739998189,283.360742928116 L632.3076473288377,297.6834757693323 M632.3076473288377,297.6834757693323 L609.8049212384243,311.6864365271733 M609.8049212384243,311.6864365271733 L573.855485278466,333.61686465934963 M573.855485278466,333.61686465934963 L537.8393977201058,355.22978946995147 M537.8393977201058,355.22978946995147 L483.86880101535155,387.1551932390937 M483.86880101535155,387.1551932390937 L429.761419407988,418.7294994751287 M429.761419407988,418.7294994751287 L369.83579453180585,453.25745939187925 M369.83579453180585,453.25745939187925 L309.7451871851902,487.40277704304447 M309.7451871851902,487.40277704304447 L270.2818278979564,509.51394261103735 M270.2818278979564,509.51394261103735 L230.74974883870203,531.3178537949617 M230.74974883870203,531.3178537949617 L203.21736168500885,546.2035149277882 M203.21736168500885,546.2035149277882 L175.6597787722949,560.7158621965057 M175.6597787722949,560.7158621965057 L158.07549486300124,569.6649971533453 M158.07549486300124,569.6649971533453 L140.49813189736562,578.2330939661117 M140.49813189736562,578.2330939661117 L117.24040618462243,588.5985346545826 M117.24040618462243,588.5985346545826 L102.91555089761732,594.0070273282566 M102.91555089761732,594.0070273282566 L88.84515870436161,597.9429727531677 M725.5802819421182,229.38030651172852 L698.6065187902009,260.4325613965603 M698.6065187902009,260.4325613965603 L669.5329091348021,290.6871325391419 M669.5329091348021,290.6871325391419 L636.1341649068945,321.9927431026973 M636.1341649068945,321.9927431026973 L600.2842353047322,352.2289764754987 M600.2842353047322,352.2289764754987 L562.0661109240102,381.2917131260689 M562.0661109240102,381.2917131260689 L521.445910728262,409.19086530463517 M521.445910728262,409.19086530463517 L478.3280382007604,435.97593769998093 M478.3280382007604,435.97593769998093 L432.5755445091657,461.70956693016853 M432.5755445091657,461.70956693016853 L384.0241676800109,486.45377804577186 M384.0241676800109,486.45377804577186 L332.49336605170106,510.2624940740053 M332.49336605170106,510.2624940740053 L277.81386321618004,533.1693512845079 M277.81386321618004,533.1693512845079 L219.89895948948586,555.1638431989323 M219.89895948948586,555.1638431989323 L158.90733313692627,576.1521382339648 M158.90733313692627,576.1521382339648 L124.10264199845005,587.2520921715011 M124.10264199845005,587.2520921715011 L88.84515870436161,597.9429727531677 M725.5802819421182,229.38030651172852 L728.8255232296921,228.152677953073 M88.84515870436161,597.9429727531677 L85.33303726662461,600.7722154475889 M728.8255232296921,228.152677953073 L719.7388401770581,237.50869524188766 M719.7388401770581,237.50869524188766 L707.046409431531,248.4031904088102 M707.046409431531,248.4031904088102 L689.2917119140632,261.6841304750089 M689.2917119140632,261.6841304750089 L662.717349206843,279.7191707839155 M662.717349206843,279.7191707839155 L641.9633018621885,293.08117433560915 M641.9633018621885,293.08117433560915 L621.1740903968469,306.1218040213388 M621.1740903968469,306.1218040213388 L587.908921969078,326.5491922741036 M587.908921969078,326.5491922741036 L554.5850222690823,346.6603917114219 M554.5850222690823,346.6603917114219 L503.62711066447866,376.9581584677319 M503.62711066447866,376.9581584677319 L452.5461260525722,406.91506572739854 M452.5461260525722,406.91506572739854 L386.8835640866633,444.9175123222117 M386.8835640866633,444.9175123222117 L321.0223727420416,482.4791165428602 M321.0223727420416,482.4791165428602 L280.06983930719775,505.51131360260297 M280.06983930719775,505.51131360260297 L239.04267942139927,528.2503144682936 M239.04267942139927,528.2503144682936 L209.65355836687803,544.2426492009698 M209.65355836687803,544.2426492009698 L180.23344114270685,559.8662053770171 M180.23344114270685,559.8662053770171 L161.45828494270367,569.5257343456743 M161.45828494270367,569.5257343456743 L142.68554542201235,578.8033725797909 M142.68554542201235,578.8033725797909 L118.08234445476262,589.9849989428162 M118.08234445476262,589.9849989428162 L101.0858935262176,596.5112503812087 M101.0858935262176,596.5112503812087 L93.14199882262454,598.9604207499461 M93.14199882262454,598.9604207499461 L85.33303726662461,600.7722154475889 M728.8255232296921,228.152677953073 L701.3992348823989,259.70469996503994 M701.3992348823989,259.70469996503994 L672.0302935104256,290.2608363210461 M672.0302935104256,290.2608363210461 L641.3884031089549,319.1656284284536 M641.3884031089549,319.1656284284536 L609.0522719597136,346.89748170808434 M609.0522719597136,346.89748170808434 L571.0464202749616,376.4314129697656 M571.0464202749616,376.4314129697656 L530.7489335910484,404.7090811103377 M530.7489335910484,404.7090811103377 L488.02486219848754,431.8215817701713 M488.02486219848754,431.8215817701713 L442.71682457098245,457.85302933179594 M442.71682457098245,457.85302933179594 L394.64260181284146,482.8812672898134 M394.64260181284146,482.8812672898134 L343.5962378867364,506.97641721872196 M343.5962378867364,506.97641721872196 L289.3571044047852,530.1958100460339 M289.3571044047852,530.1958100460339 L231.71670630186875,552.5724871616259 M231.71670630186875,552.5724871616259 L170.54235209578445,574.0924217921225 M170.54235209578445,574.0924217921225 L128.25312258741042,587.7824205664973 M128.25312258741042,587.7824205664973 L85.33303726662461,600.7722154475889" stroke="black"  stroke-width="4"  fill="red"/></svg>