<svg viewBox="0 0 800 800" xmlns="http://www.w3.org/2000/svg"><path d="M739.969671413875,186.90182340434433 L723.2628127149496,213.45554126468886 M723.2628127149496,213.45554126468886 L706.4026380959019,239.86746363507928 M706.4026380959019,239.86746363507928 L624.7357308299488,272.73392299745143 M624.7357308299488,272.73392299745143 L543.9589895810255,307.46629585248945 M543.9589895810255,307.46629585248945 L488.47727800862316,331.77295727933165 M488.47727800862316,331.77295727933165 L448.5162445401326,349.52343290387375 M448.5162445401326,349.52343290387375 L412.5369461676378,366.2315788641365 M412.5369461676378,366.2315788641365 L381.6911721303325,381.76147104100835 M381.6911721303325,381.76147104100835 L356.07281517146487,396.0650867356336 M356.07281517146487,396.0650867356336 L330.57231580873173,412.0364113806802 M330.57231580873173,412.0364113806802 L305.30487729702696,429.7322762124752 M305.30487729702696,429.7322762124752 L276.36543915632706,451.8310294438876 M276.36543915632706,451.8310294438876 L217.13244352366996,498.89165199857086 M217.13244352366996,498.89165199857086 L155.22287388438951,548.4629449023321 M155.22287388438951,548.4629449023321 L117.52574608555017,580.4382286065197 M117.52574608555017,580.4382286065197 L80.80850422167725,613.0981765956558 M60.03032858612505,602.5169020541905 L80.80850422167725,613.0981765956558 M739.969671413875,186.90182340434433 L643.9357062061833,231.63710766605658 M643.9357062061833,231.63710766605658 L583.0854694087781,260.70062139852126 M583.0854694087781,260.70062139852126 L522.5810926761817,289.52709807237784 M522.5810926761817,289.52709807237784 L461.3583783621467,318.0816925466521 M461.3583783621467,318.0816925466521 L419.1646950705086,338.0597463880488 M419.1646950705086,338.0597463880488 L384.87279007652177,355.4692701329104 M384.87279007652177,355.4692701329104 L357.52598866900263,370.85871201629516 M357.52598866900263,370.85871201629516 L330.8963623714659,387.7216174513128 M330.8963623714659,387.7216174513128 L304.9744334246416,406.11911341313805 M304.9744334246416,406.11911341313805 L275.8123019199137,428.6030212274982 M275.8123019199137,428.6030212274982 L220.8359176493585,471.87440495831595 M220.8359176493585,471.87440495831595 L156.2587478352094,521.3627019950244 M156.2587478352094,521.3627019950244 L110.46250263500843,558.629441440355 M110.46250263500843,558.629441440355 L85.10500900783643,580.4262588986594 M85.10500900783643,580.4262588986594 L60.03032858612505,602.5169020541905" stroke="black"  stroke-width="4"  fill="red"/>
<path d="M706.4026380959019,239.86746363507928 L692.1519254609188,254.68601122866937 M692.1519254609188,254.68601122866937 L677.4187640601363,268.24138134108176 M677.4187640601363,268.24138134108176 L656.7635403317968,285.31057362581913 M656.7635403317968,285.31057362581913 L630.4456496272696,305.0607693342005 M630.4456496272696,305.0607693342005 L612.9491826786387,317.428284928602 M612.9491826786387,317.428284928602 L595.4031792671877,329.43042854105204 M595.4031792671877,329.43042854105204 L571.006796105267,345.6511186385512 M571.006796105267,345.6511186385512 L546.5599523516983,361.51018529534986 M546.5599523516983,361.51018529534986 L480.7341082346225,402.7619043078586 M480.7341082346225,402.7619043078586 L407.08249268511895,446.8325769655453 M407.08249268511895,446.8325769655453 L317.48844472158385,498.3976042437173 M317.48844472158385,498.3976042437173 L238.14501021922575,543.5809604360682 M238.14501021922575,543.5809604360682 L210.1376657920308,559.4133116599343 M210.1376657920308,559.4133116599343 L182.09646583989976,574.853958491374 M182.09646583989976,574.853958491374 L151.75505714729232,590.5538358050617 M151.75505714729232,590.5538358050617 L130.51704870861454,600.3812902808235 M130.51704870861454,600.3812902808235 L110.83113341093969,607.9380868162806 M110.83113341093969,607.9380868162806 L97.74654271186705,611.5469603891643 M97.74654271186705,611.5469603891643 L89.09479459244437,612.9253570041633 M89.09479459244437,612.9253570041633 L80.80850422167725,613.0981765956558 M706.4026380959019,239.86746363507928 L624.7357308299488,272.73392299745143 M624.7357308299488,272.73392299745143 L543.9589895810255,307.46629585248945 M543.9589895810255,307.46629585248945 L488.47727800862316,331.77295727933165 M488.47727800862316,331.77295727933165 L448.5162445401326,349.52343290387375 M448.5162445401326,349.52343290387375 L412.5369461676378,366.2315788641365 M412.5369461676378,366.2315788641365 L381.6911721303325,381.76147104100835 M381.6911721303325,381.76147104100835 L356.07281517146487,396.0650867356336 M356.07281517146487,396.0650867356336 L330.57231580873173,412.0364113806802 M330.57231580873173,412.0364113806802 L305.30487729702696,429.7322762124752 M305.30487729702696,429.7322762124752 L276.36543915632706,451.8310294438876 M276.36543915632706,451.8310294438876 L217.13244352366996,498.89165199857086 M217.13244352366996,498.89165199857086 L155.22287388438951,548.4629449023321 M155.22287388438951,548.4629449023321 L117.52574608555017,580.4382286065197 M117.52574608555017,580.4382286065197 L80.80850422167725,613.0981765956558" stroke="black"  stroke-width="4"  fill="red"/>
<path d="M739.969671413875,186.90182340434433 L723.2628127149496,213.45554126468886 M723.2628127149496,213.45554126468886 L706.4026380959019,239.86746363507928 M706.4026380959019,239.86746363507928 L658.1020743093218,292.1211241876576 M658.1020743093218,292.1211241876576 L607.9978833755193,344.7974236539743 M607.9978833755193,344.7974236539743 L571.9983953952428,380.57159328753085 M571.9983953952428,380.57159328753085 L544.6499066249986,405.78348046453846 M544.6499066249986,405.78348046453846 L517.9244370543469,428.0002918456705 M517.9244370543469,428.0002918456705 L492.24610777291036,446.64583257220136 M492.24610777291036,446.64583257220136 L467.9754139475235,461.8172666316443 M467.9754139475235,461.8172666316443 L440.30794010109855,476.5949020194398 M440.30794010109855,476.5949020194398 L409.13611057964613,490.89642036641476 M409.13611057964613,490.89642036641476 L369.719698077182,506.9092089344863 M369.719698077182,506.9092089344863 L285.01923733778716,539.0750450885497 M285.01923733778716,539.0750450885497 L195.88919387677166,572.6165474030558 M195.88919387677166,572.6165474030558 L138.80435446892074,593.1038160864151 M138.80435446892074,593.1038160864151 L80.80850422167725,613.0981765956558 M60.03032858612505,602.5169020541905 L80.80850422167725,613.0981765956558 M739.969671413875,186.90182340434433 L681.4580843400857,253.39352968247692 M681.4580843400857,253.39352968247692 L642.432577986473,295.2005220456344 M642.432577986473,295.2005220456344 L602.1472407208526,335.8995899737956 M602.1472407208526,335.8995899737956 L559.8675087767785,375.64228571083413 M559.8675087767785,375.64228571083413 L528.6394575678529,402.1419961041735 M528.6394575678529,402.1419961041735 L500.45285987558646,423.2267060912958 M500.45285987558646,423.2267060912958 L474.976702837427,439.7992052191671 M474.976702837427,439.7992052191671 L446.6234869783834,455.73851647399044 M446.6234869783834,455.73851647399044 L415.2524932568882,471.02036031625084 M415.2524932568882,471.02036031625084 L376.26360829190116,487.81442418266477 M376.26360829190116,487.81442418266477 L298.8386144409636,517.9920578387347 M298.8386144409636,517.9920578387347 L207.49473782251988,551.7607103569583 M207.49473782251988,551.7607103569583 L139.21651358427312,575.7326631310302 M139.21651358427312,575.7326631310302 L99.77204231570454,589.1631289541157 M99.77204231570454,589.1631289541157 L60.03032858612505,602.5169020541905" stroke="black"  stroke-width="4"  fill="red"/>
<path d="M706.4026380959019,239.86746363507928 L692.1519254609188,254.68601122866937 M692.1519254609188,254.68601122866937 L677.4187640601363,268.24138134108176 M677.4187640601363,268.24138134108176 L656.7635403317968,285.31057362581913 M656.7635403317968,285.31057362581913 L630.4456496272696,305.0607693342005 M630.4456496272696,305.0607693342005 L612.9491826786387,317.428284928602 M612.9491826786387,317.428284928602 L595.4031792671877,329.43042854105204 M595.4031792671877,329.43042854105204 L571.006796105267,345.6511186385512 M571.006796105267,345.6511186385512 L546.5599523516983,361.51018529534986 M546.5599523516983,361.51018529534986 L480.7341082346225,402.7619043078586 M480.7341082346225,402.7619043078586 L407.08249268511895,446.8325769655453 M407.08249268511895,446.8325769655453 L317.48844472158385,498.3976042437173 M317.48844472158385,498.3976042437173 L238.14501021922575,543.5809604360682 M238.14501021922575,543.5809604360682 L210.1376657920308,559.4133116599343 M210.1376657920308,559.4133116599343 L182.09646583989976,574.853958491374 M182.09646583989976,574.853958491374 L151.75505714729232,590.5538358050617 M151.75505714729232,590.5538358050617 L130.51704870861454,600.3812902808235 M130.51704870861454,600.3812902808235 L110.83113341093969,607.9380868162806 M110.83113341093969,607.9380868162806 L97.74654271186705,611.5469603891643 M97.74654271186705,611.5469603891643 L89.09479459244437,612.9253570041633 M89.09479459244437,612.9253570041633 L80.80850422167725,613.0981765956558 M706.4026380959019,239.86746363507928 L658.1020743093218,292.1211241876576 M658.1020743093218,292.1211241876576 L607.9978833755193,344.7974236539743 M607.9978833755193,344.7974236539743 L571.9983953952428,380.57159328753085 M571.9983953952428,380.57159328753085 L544.6499066249986,405.78348046453846 M544.6499066249986,405.78348046453846 L517.9244370543469,428.0002918456705 M517.9244370543469,428.0002918456705 L492.24610777291036,446.64583257220136 M492.24610777291036,446.64583257220136 L467.9754139475235,461.8172666316443 M467.9754139475235,461.8172666316443 L440.30794010109855,476.5949020194398 M440.30794010109855,476.5949020194398 L409.13611057964613,490.89642036641476 M409.13611057964613,490.89642036641476 L369.719698077182,506.9092089344863 M369.719698077182,506.9092089344863 L285.01923733778716,539.0750450885497 M285.01923733778716,539.0750450885497 L195.88919387677166,572.6165474030558 M195.88919387677166,572.6165474030558 L138.80435446892074,593.1038160864151 M138.80435446892074,593.1038160864151 L80.80850422167725,613.0981765956558" stroke="black"  stroke-width="4"  fill="red"/></svg>