<svg viewBox="0 0 800 800" xmlns="http://www.w3.org/2000/svg"><path d="M737.7948403044768,202.18109724205794 L737.7522065177211,202.27509943174266 M737.7522065177211,202.27509943174266 L737.7530643052384,202.19488870550708 M737.7948403044768,202.18109724205794 L737.7530643052384,202.19488870550708 M737.7522065177211,202.27509943174266 L741.6653907597204,200.0987167523312 M737.7948403044768,202.18109724205794 L741.6653907597204,200.0987167523312 M741.6653907597204,200.0987167523312 L737.7530643052384,202.19488870550708" stroke="black"  stroke-width="4"  fill="red"/>
<path d="M737.7522065177211,202.27509943174266 L741.6653907597204,200.0987167523312 M737.7522065177211,202.27509943174266 L724.9051420968742,230.81347136290572 M725.4355397090218,230.23434420955658 L724.9051420968742,230.81347136290572 M725.4355397090218,230.23434420955658 L728.6789626831626,229.00740349297547 M741.6653907597204,200.0987167523312 L728.6789626831626,229.00740349297547 M683.4513245711858,220.78062389049205 L737.7522065177211,202.27509943174266 M683.4513245711858,220.78062389049205 L685.760871628042,219.09985824754796 M741.6653907597204,200.0987167523312 L685.760871628042,219.09985824754796 M724.9051420968742,230.81347136290572 L675.1360424076045,248.61919682810264 M675.1360424076045,248.61919682810264 L626.4147214049123,267.3812378320556 M626.4147214049123,267.3812378320556 L579.603667791128,286.6834180097592 M579.603667791128,286.6834180097592 L534.2328881627047,306.66316609749185 M534.2328881627047,306.66316609749185 L485.3680832335215,329.6993513260561 M485.3680832335215,329.6993513260561 L437.981978540448,353.6820381858505 M437.981978540448,353.6820381858505 L391.9165315386278,378.7002762830722 M391.9165315386278,378.7002762830722 L347.0218507817202,404.8576899704384 M347.0218507817202,404.8576899704384 L303.1556626186456,432.27251634731465 M303.1556626186456,432.27251634731465 L260.18646508632185,461.0765598756785 M260.18646508632185,461.0765598756785 L218.0035596560025,491.4100850533579 M218.0035596560025,491.4100850533579 L176.54225854900773,523.4064366062208 M176.54225854900773,523.4064366062208 L135.8355931109511,557.1571820983452 M135.8355931109511,557.1571820983452 L112.52732232558208,577.6466915003 M112.52732232558208,577.6466915003 L89.95778684594103,598.3986562789466 M63.079241017607615,573.0813324912086 L89.95778684594103,598.3986562789466 M683.4513245711858,220.78062389049205 L634.1311950213856,238.87909266399782 M634.1311950213856,238.87909266399782 L586.0081399607815,257.76046104845676 M586.0081399607815,257.76046104845676 L539.8161028270168,277.1159404758525 M539.8161028270168,277.1159404758525 L490.0415474057015,299.43429115704305 M490.0415474057015,299.43429115704305 L441.7293587779808,322.66325179419846 M441.7293587779808,322.66325179419846 L394.7071441630783,346.8698480018619 M394.7071441630783,346.8698480018619 L348.81110020904856,372.1290993391797 M348.81110020904856,372.1290993391797 L303.8837462054735,398.5256572873966 M303.8837462054735,398.5256572873966 L259.77586725523526,426.1532377604984 M259.77586725523526,426.1532377604984 L216.35497651752843,455.1099562530085 M216.35497651752843,455.1099562530085 L173.5282126306029,485.4836420399274 M173.5282126306029,485.4836420399274 L131.28903643407727,517.3183426751524 M131.28903643407727,517.3183426751524 L96.45490770120915,545.079885849928 M96.45490770120915,545.079885849928 L63.079241017607615,573.0813324912086 M89.05718009077526,598.5905042508102 L89.95778684594103,598.3986562789466 M725.4355397090218,230.23434420955658 L675.2755060529564,247.80874008617502 M675.2755060529564,247.80874008617502 L626.3758945184275,266.4883457972756 M626.3758945184275,266.4883457972756 L575.4103568114589,287.48477841769227 M575.4103568114589,287.48477841769227 L525.689071213258,309.5265736829932 M525.689071213258,309.5265736829932 L477.3430617668529,332.5506109131328 M477.3430617668529,332.5506109131328 L430.33879927856674,356.5799163787216 M430.33879927856674,356.5799163787216 L384.58370809690814,381.6786132075272 M384.58370809690814,381.6786132075272 L339.96404680892135,407.93592742757414 M339.96404680892135,407.93592742757414 L296.36599153278263,435.4568974802586 M296.36599153278263,435.4568974802586 L253.6884353464362,464.3562835563481 M253.6884353464362,464.3562835563481 L211.86672706774235,494.7445383572858 M211.86672706774235,494.7445383572858 L170.92504367750138,526.6931170369121 M170.92504367750138,526.6931170369121 L131.08283212227394,560.1619288760005 M131.08283212227394,560.1619288760005 L109.72683695455675,579.2312732346946 M109.72683695455675,579.2312732346946 L89.05718009077526,598.5905042508102 M728.6789626831626,229.00740349297547 L678.3304123569155,247.2355359908259 M678.3304123569155,247.2355359908259 L629.1632371303855,266.23347025724297 M629.1632371303855,266.23347025724297 L582.2277287681239,285.57927509846365 M582.2277287681239,285.57927509846365 L536.7527909081152,305.55788212346624 M536.7527909081152,305.55788212346624 L487.77770274259433,328.56565732748015 M487.77770274259433,328.56565732748015 L440.285092815452,352.50119988130314 M440.285092815452,352.50119988130314 L394.119331485442,377.4563508146192 M394.119331485442,377.4563508146192 L349.13322683258684,403.5341008001593 M349.13322683258684,403.5341008001593 L305.18631184927074,430.85004677514326 M305.18631184927074,430.85004677514326 L262.14693596015945,459.5318995098055 M262.14693596015945,459.5318995098055 L219.90072444137277,489.71447785360306 M219.90072444137277,489.71447785360306 L178.37109546487926,521.5249357072577 M178.37109546487926,521.5249357072577 L137.56130770856464,555.0475322733962 M137.56130770856464,555.0475322733962 L111.08916046765347,578.1033022023022 M111.08916046765347,578.1033022023022 L85.54702649980902,601.4181617164174 M89.05718009077526,598.5905042508102 L85.54702649980902,601.4181617164174 M58.40997098905956,575.6313100874764 L95.26202371214976,544.6209841386722 M95.26202371214976,544.6209841386722 L133.89983850237815,513.9048506021323 M133.89983850237815,513.9048506021323 L173.16288782147038,484.4042561533255 M173.16288782147038,484.4042561533255 L213.0010144588532,456.1167235196381 M213.0010144588532,456.1167235196381 L253.28145617467322,429.10525816403526 M253.28145617467322,429.10525816403526 L293.99852259658945,403.3403169136377 M293.99852259658945,403.3403169136377 L335.21399915499336,378.7520987719091 M335.21399915499336,378.7520987719091 L377.0219651134758,355.25879774653777 M377.0219651134758,355.25879774653777 L419.53046279987336,332.77989582134546 M419.53046279987336,332.77989582134546 L462.85381116680287,311.2410771864013 M462.85381116680287,311.2410771864013 L507.110242412821,290.57533426050577 M507.110242412821,290.57533426050577 L552.4226856140974,270.72216946210847 M552.4226856140974,270.72216946210847 L604.1616034456495,249.5506575409404 M604.1616034456495,249.5506575409404 L644.5498708207433,234.052323313837 M644.5498708207433,234.052323313837 L685.760871628042,219.09985824754796 M58.40997098905956,575.6313100874764 L85.54702649980902,601.4181617164174 M63.079241017607615,573.0813324912086 L58.40997098905956,575.6313100874764" stroke="black"  stroke-width="4"  fill="red"/>
<path d="M89.05718009077526,598.5905042508102 L102.93893956282676,594.7177228191922 M102.93893956282676,594.7177228191922 L121.80753295727186,587.421786843279 M121.80753295727186,587.421786843279 L134.9935227031334,581.5517121838235 M134.9935227031334,581.5517121838235 L148.20472628115346,575.2813185591025 M148.20472628115346,575.2813185591025 L167.49803973392878,565.6590414226414 M167.49803973392878,565.6590414226414 L186.79164443273186,555.666670738119 M186.79164443273186,555.666670738119 L216.0725445318685,540.048028976952 M216.0725445318685,540.048028976952 L245.32170537675273,524.0876484761137 M245.32170537675273,524.0876484761137 L290.3174778892917,499.0829446202506 M290.3174778892917,499.0829446202506 L335.2228378880839,473.7480204199039 M335.2228378880839,473.7480204199039 L397.9374720136412,437.8824880606552 M397.9374720136412,437.8824880606552 L460.471697333027,401.617153075375 M460.471697333027,401.617153075375 L512.74659027022,370.89304247078655 M512.74659027022,370.89304247078655 L564.8919809390195,339.7836226370895 M564.8919809390195,339.7836226370895 L596.8212043311502,320.41756003129933 M596.8212043311502,320.41756003129933 L628.6940758706372,300.70906368793214 M628.6940758706372,300.70906368793214 L648.8456378967517,287.93966785479813 M648.8456378967517,287.93966785479813 L668.9574155767673,274.79300031789546 M668.9574155767673,274.79300031789546 L681.1108975220948,266.53402554888976 M681.1108975220948,266.53402554888976 L693.2203263273211,257.9205470664936 M693.2203263273211,257.9205470664936 L708.6887101271068,245.94399570724318 M708.6887101271068,245.94399570724318 L717.2114075915595,238.4985864855098 M717.2114075915595,238.4985864855098 L725.4355397090217,230.23434420955658 M725.4355397090217,230.23434420955658 L675.2755060529564,247.80874008617502 M675.2755060529564,247.80874008617502 L626.3758945184275,266.4883457972756 M626.3758945184275,266.4883457972756 L575.4103568114589,287.48477841769227 M575.4103568114589,287.48477841769227 L525.689071213258,309.5265736829932 M525.689071213258,309.5265736829932 L477.3430617668529,332.5506109131328 M477.3430617668529,332.5506109131328 L430.33879927856674,356.5799163787216 M430.33879927856674,356.5799163787216 L384.58370809690814,381.6786132075272 M384.58370809690814,381.6786132075272 L339.96404680892135,407.93592742757414 M339.96404680892135,407.93592742757414 L296.36599153278263,435.4568974802586 M296.36599153278263,435.4568974802586 L253.6884353464362,464.3562835563481 M253.6884353464362,464.3562835563481 L211.86672706774235,494.7445383572858 M211.86672706774235,494.7445383572858 L170.92504367750138,526.6931170369121 M170.92504367750138,526.6931170369121 L131.08283212227394,560.1619288760005 M131.08283212227394,560.1619288760005 L109.72683695455675,579.2312732346946 M109.72683695455675,579.2312732346946 L89.05718009077526,598.5905042508102 M725.4355397090217,230.23434420955658 L728.6789626831626,229.00740349297547 M728.6789626831626,229.00740349297547 L719.5973709123141,238.35817859163865 M719.5973709123141,238.35817859163865 L706.912051754271,249.2465695570076 M706.912051754271,249.2465695570076 L689.1673022197533,262.5200682930902 M689.1673022197533,262.5200682930902 L662.6078291667702,280.54500354257124 M662.6078291667702,280.54500354257124 L641.8654103451545,293.89952034415955 M641.8654103451545,293.89952034415955 L621.0878471053597,306.93284334603027 M621.0878471053597,306.93284334603027 L587.8413172000453,327.3487861033226 M587.8413172000453,327.3487861033226 L554.5360889297215,347.4487172062235 M554.5360889297215,347.4487172062235 L503.6067291174146,377.72950807956954 M503.6067291174146,377.72950807956954 L452.5543652557907,407.6696304403463 M452.5543652557907,407.6696304403463 L386.92859411925224,445.65078420882924 M386.92859411925224,445.65078420882924 L321.1043048963321,483.1913426077738 M321.1043048963321,483.1913426077738 L280.1747172257834,506.21063469386513 M280.1747172257834,506.21063469386513 L239.1705449175897,528.93689486416 M239.1705449175897,528.93689486416 L209.79789063051845,544.9202690683285 M209.79789063051845,544.9202690683285 L180.3942575409964,560.5350713430321 M180.3942575409964,560.5350713430321 L161.62962108843354,570.1891880635002 M161.62962108843354,570.1891880635002 L142.8673999611134,579.4616280233641 M142.8673999611134,579.4616280233641 L118.27798420329896,590.6369893048075 M118.27798420329896,590.6369893048075 L101.29105641103274,597.1595840749872 M101.29105641103274,597.1595840749872 L93.35161268324418,599.6073821699899 M93.35161268324418,599.6073821699899 L85.54702649980919,601.4181617164174 M89.05718009077526,598.5905042508102 L85.54702649980919,601.4181617164174 M728.6789626831626,229.00740349297547 L678.3304123569155,247.2355359908259 M678.3304123569155,247.2355359908259 L629.1632371303855,266.23347025724297 M629.1632371303855,266.23347025724297 L582.2277287681239,285.57927509846365 M582.2277287681239,285.57927509846365 L536.7527909081152,305.55788212346624 M536.7527909081152,305.55788212346624 L487.77770274259433,328.56565732748015 M487.77770274259433,328.56565732748015 L440.285092815452,352.50119988130314 M440.285092815452,352.50119988130314 L394.119331485442,377.4563508146192 M394.119331485442,377.4563508146192 L349.13322683258684,403.5341008001593 M349.13322683258684,403.5341008001593 L305.18631184927074,430.85004677514326 M305.18631184927074,430.85004677514326 L262.14693596015945,459.5318995098055 M262.14693596015945,459.5318995098055 L219.90072444137277,489.71447785360306 M219.90072444137277,489.71447785360306 L178.37109546487926,521.5249357072577 M178.37109546487926,521.5249357072577 L137.56130770856464,555.0475322733962 M137.56130770856464,555.0475322733962 L111.08916046765347,578.1033022023022 M111.08916046765347,578.1033022023022 L85.54702649980919,601.4181617164174" stroke="black"  stroke-width="4"  fill="red"/>
<path d="M737.7948403044768,202.18109724205794 L737.7522065177211,202.27509943174266 M737.7522065177211,202.27509943174266 L737.7733380653015,202.20661279007874 M737.7948403044768,202.18109724205794 L737.7733380653015,202.20661279007874 M737.7522065177211,202.27509943174266 L741.6653907597204,200.0987167523312 M737.7948403044768,202.18109724205794 L741.6653907597204,200.0987167523312 M741.6653907597204,200.0987167523312 L737.7733380653015,202.20661279007874" stroke="black"  stroke-width="4"  fill="red"/>
<path d="M737.7522065177211,202.27509943174266 L741.6653907597204,200.0987167523312 M737.7522065177211,202.27509943174266 L724.9051420968742,230.81347136290572 M725.4355397090217,230.23434420955658 L724.9051420968742,230.81347136290572 M725.4355397090217,230.23434420955658 L728.6789626831626,229.00740349297547 M741.6653907597204,200.0987167523312 L728.6789626831626,229.00740349297547 M741.6653907597204,200.0987167523312 L711.6503307769126,234.0992357818045 M708.4043426630193,235.23918478631742 L711.6503307769126,234.0992357818045 M708.4043426630193,235.23918478631742 L737.7522065177211,202.27509943174266 M724.9051420968742,230.81347136290572 L697.6637564418407,261.6892815938978 M697.6637564418407,261.6892815938978 L668.4000792926886,291.7854173888893 M668.4000792926886,291.7854173888893 L637.6655423203803,320.49402759214354 M637.6655423203803,320.49402759214354 L605.2167119546617,348.074040937616 M605.2167119546617,348.074040937616 L567.0779857308069,377.46437207809436 M567.0779857308069,377.46437207809436 L526.6429882160922,405.61579924097714 M526.6429882160922,405.61579924097714 L483.7751820107825,432.6170072189177 M483.7751820107825,432.6170072189177 L438.31363753116943,458.55213062029645 M438.31363753116943,458.55213062029645 L390.0719283001222,483.5001002385368 M390.0719283001222,483.5001002385368 L338.840422874993,507.53270038713015 M338.840422874993,507.53270038713015 L284.39748821891123,530.709724042847 M284.39748821891123,530.709724042847 L226.54265295051857,553.0678597040408 M226.54265295051857,553.0678597040408 L165.17441977792475,574.6009965544473 M165.17441977792475,574.6009965544473 L127.81590570606147,586.7488983776399 M127.81590570606147,586.7488983776399 L89.95778684594103,598.3986562789466 M63.079241017607615,573.0813324912086 L89.95778684594103,598.3986562789466 M708.4043426630193,235.23918478631742 L679.1117653156462,264.9902948435299 M679.1117653156462,264.9902948435299 L647.9009060983465,293.75557409945134 M647.9009060983465,293.75557409945134 L615.2827352340441,321.08523697657233 M615.2827352340441,321.08523697657233 L576.9598413714901,350.1781171142113 M576.9598413714901,350.1781171142113 L536.3349264506305,378.0068452063489 M536.3349264506305,378.0068452063489 L493.2668570301906,404.64388035059994 M493.2668570301906,404.64388035059994 L447.5919874877851,430.151480141765 M447.5919874877851,430.151480141765 L399.1214143041278,454.582735285373 M399.1214143041278,454.582735285373 L347.6420288320026,477.9801277257219 M347.6420288320026,477.9801277257219 L292.92549573096136,500.37078380765934 M292.92549573096136,500.37078380765934 L234.7572724851873,521.7550016416803 M234.7572724851873,521.7550016416803 L173.00461616235734,542.085064404549 M173.00461616235734,542.085064404549 L118.54419384661276,558.2191861312765 M118.54419384661276,558.2191861312765 L63.079241017607615,573.0813324912086 M89.05718009077526,598.5905042508102 L89.95778684594103,598.3986562789466 M725.4355397090217,230.23434420955658 L698.476889995994,261.2692004706241 M698.476889995994,261.2692004706241 L669.4195703265475,291.5068199328074 M669.4195703265475,291.5068199328074 L636.0395394638101,322.7948899170418 M636.0395394638101,322.7948899170418 L600.2096966295633,353.0141818841239 M600.2096966295633,353.0141818841239 L562.0129859197498,382.0606346409023 M562.0129859197498,382.0606346409023 L521.4155452814975,409.9441548837559 M521.4155452814975,409.9441548837559 L478.32183176094736,436.71421956391873 M478.32183176094736,436.71421956391873 L432.5949732583901,462.4334302040643 M432.5949732583901,462.4334302040643 L384.0707998365827,487.1637771020403 M384.0707998365827,487.1637771020403 L332.5688709916866,510.95915307191024 M332.5688709916866,510.95915307191024 L277.9200051614643,533.8531755368621 M277.9200051614643,533.8531755368621 L220.0375512399137,555.8353439053435 M220.0375512399137,555.8353439053435 L159.08009858467858,576.8118791680139 M159.08009858467858,576.8118791680139 L124.29490856547989,587.9056137851478 M124.29490856547989,587.9056137851478 L89.05718009077526,598.5905042508102 M728.6789626831626,229.00740349297547 L701.2680413252867,260.54174686092693 M701.2680413252867,260.54174686092693 L671.915555414058,291.0807625691052 M671.915555414058,291.0807625691052 L641.2908337085321,319.96935927927916 M641.2908337085321,319.96935927927916 L608.972820540801,347.68567436101466 M608.972820540801,347.68567436101466 L570.9882635902561,377.20305771787514 M570.9882635902561,377.20305771787514 L530.7133556469868,405.46488183968825 M530.7133556469868,405.46488183968825 L488.0132226140262,432.56219132580395 M488.0132226140262,432.56219132580395 L442.7305711461769,458.57905342934055 M442.7305711461769,458.57905342934055 L394.68328444526014,483.59326802907617 M394.68328444526014,483.59326802907617 L343.6655218714169,507.67491741028823 M343.6655218714169,507.67491741028823 L289.45677865517257,530.8813003778868 M289.45677865517257,530.8813003778868 L231.8486765514977,553.2454398086094 M231.8486765514977,553.2454398086094 L170.70859842542094,574.7533167883025 M170.70859842542094,574.7533167883025 L128.44306363410448,588.4356450363695 M128.44306363410448,588.4356450363695 L85.54702649980919,601.4181617164177 M89.05718009077526,598.5905042508102 L85.54702649980919,601.4181617164177 M711.6503307769126,234.0992357818045 L682.4493732350472,263.9263563553717 M682.4493732350472,263.9263563553717 L651.3269096569641,292.7734188141146 M651.3269096569641,292.7734188141146 L618.8038007620542,320.17923254133564 M618.8038007620542,320.17923254133564 L580.5903122730742,349.3569964115851 M580.5903122730742,349.3569964115851 L540.0807564166953,377.2704754814491 M540.0807564166953,377.2704754814491 L497.135897715095,403.99209327375536 M497.135897715095,403.99209327375536 L451.59414631999744,429.5841036832628 M451.59414631999744,429.5841036832628 L403.2688768924796,454.09963519213943 M403.2688768924796,454.09963519213943 L351.9489006287329,477.5815035833368 M351.9489006287329,477.5815035833368 L297.40714207040526,500.0574712016013 M297.40714207040526,500.0574712016013 L239.42735673160453,521.5295770002194 M239.42735673160453,521.5295770002194 L177.86915047909235,541.9534869664578 M177.86915047909235,541.9534869664578 L118.73166509635473,559.5424778315254 M118.73166509635473,559.5424778315254 L58.40997098905956,575.6313100874764 M58.40997098905956,575.6313100874764 L85.54702649980919,601.4181617164177 M63.079241017607615,573.0813324912086 L58.40997098905956,575.6313100874764" stroke="black"  stroke-width="4"  fill="red"/>
<path d="M725.4355397090217,230.23434420955658 L715.7579263913697,239.83185935872075 M715.7579263913697,239.83185935872075 L702.3269200288006,251.04921529636852 M702.3269200288006,251.04921529636852 L683.2924266764655,265.01575903045057 M683.2924266764655,265.01575903045057 L668.9981158592032,274.7658181780924 M668.9981158592032,274.7658181780924 L654.6679052047775,284.18453530858073 M654.6679052047775,284.18453530858073 L632.215165889141,298.4992431016676 M632.215165889141,298.4992431016676 L609.7250481090216,312.4943579801446 M609.7250481090216,312.4943579801446 L573.7957546705361,334.41249846140875 M573.7957546705361,334.41249846140875 L537.799846978637,356.01331351867327 M537.799846978637,356.01331351867327 L483.8594900780411,387.9208294374562 M483.8594900780411,387.9208294374562 L429.78242491561673,419.47744454359247 M429.78242491561673,419.47744454359247 L369.89037645457483,453.98605839397305 M369.89037645457483,453.98605839397305 L309.8334379630186,488.1122443737887 M309.8334379630186,488.1122443737887 L270.3921900536302,510.21102102342024 M270.3921900536302,510.21102102342024 L230.8822608760099,532.0027154440633 M230.8822608760099,532.0027154440633 L203.36530015905026,546.8800361192166 M203.36530015905026,546.8800361192166 L175.82315780029057,561.3842520985638 M175.82315780029057,561.3842520985638 L158.24872639095332,570.3283728420167 M158.24872639095332,570.3283728420167 L140.68121204745933,578.8916689376252 M140.68121204745933,578.8916689376252 L117.43651767240118,589.2513018545395 M117.43651767240118,589.2513018545395 L103.11968862273494,594.6567641418692 M103.11968862273494,594.6567641418692 L89.05718009077526,598.5905042508102 M725.4355397090217,230.23434420955658 L698.476889995994,261.2692004706241 M698.476889995994,261.2692004706241 L669.4195703265475,291.5068199328074 M669.4195703265475,291.5068199328074 L636.0395394638101,322.7948899170418 M636.0395394638101,322.7948899170418 L600.2096966295633,353.0141818841239 M600.2096966295633,353.0141818841239 L562.0129859197498,382.0606346409023 M562.0129859197498,382.0606346409023 L521.4155452814975,409.9441548837559 M521.4155452814975,409.9441548837559 L478.32183176094736,436.71421956391873 M478.32183176094736,436.71421956391873 L432.5949732583901,462.4334302040643 M432.5949732583901,462.4334302040643 L384.0707998365827,487.1637771020403 M384.0707998365827,487.1637771020403 L332.5688709916866,510.95915307191024 M332.5688709916866,510.95915307191024 L277.9200051614643,533.8531755368621 M277.9200051614643,533.8531755368621 L220.0375512399137,555.8353439053435 M220.0375512399137,555.8353439053435 L159.08009858467858,576.8118791680139 M159.08009858467858,576.8118791680139 L124.29490856547989,587.9056137851478 M124.29490856547989,587.9056137851478 L89.05718009077526,598.5905042508102 M725.4355397090217,230.23434420955658 L728.6789626831626,229.00740349297547 M89.05718009077526,598.5905042508102 L85.54702649980919,601.4181617164177 M728.6789626831626,229.00740349297547 L719.5973709123141,238.35817859163865 M719.5973709123141,238.35817859163865 L706.912051754271,249.2465695570076 M706.912051754271,249.2465695570076 L689.1673022197533,262.5200682930902 M689.1673022197533,262.5200682930902 L662.6078291667702,280.54500354257124 M662.6078291667702,280.54500354257124 L641.8654103451545,293.89952034415955 M641.8654103451545,293.89952034415955 L621.0878471053597,306.93284334603027 M621.0878471053597,306.93284334603027 L587.8413172000453,327.3487861033226 M587.8413172000453,327.3487861033226 L554.5360889297215,347.4487172062235 M554.5360889297215,347.4487172062235 L503.6067291174146,377.72950807956954 M503.6067291174146,377.72950807956954 L452.5543652557907,407.6696304403463 M452.5543652557907,407.6696304403463 L386.92859411925224,445.65078420882924 M386.92859411925224,445.65078420882924 L321.1043048963321,483.1913426077738 M321.1043048963321,483.1913426077738 L280.1747172257834,506.21063469386513 M280.1747172257834,506.21063469386513 L239.1705449175897,528.93689486416 M239.1705449175897,528.93689486416 L209.79789063051845,544.9202690683285 M209.79789063051845,544.9202690683285 L180.3942575409964,560.5350713430321 M180.3942575409964,560.5350713430321 L161.62962108843354,570.1891880635002 M161.62962108843354,570.1891880635002 L142.8673999611134,579.4616280233641 M142.8673999611134,579.4616280233641 L118.27798420329896,590.6369893048075 M118.27798420329896,590.6369893048075 L101.29105641103274,597.1595840749872 M101.29105641103274,597.1595840749872 L93.35161268324418,599.6073821699899 M93.35161268324418,599.6073821699899 L85.54702649980919,601.4181617164177 M728.6789626831626,229.00740349297547 L701.2680413252867,260.54174686092693 M701.2680413252867,260.54174686092693 L671.915555414058,291.0807625691052 M671.915555414058,291.0807625691052 L641.2908337085321,319.96935927927916 M641.2908337085321,319.96935927927916 L608.972820540801,347.68567436101466 M608.972820540801,347.68567436101466 L570.9882635902561,377.20305771787514 M570.9882635902561,377.20305771787514 L530.7133556469868,405.46488183968825 M530.7133556469868,405.46488183968825 L488.0132226140262,432.56219132580395 M488.0132226140262,432.56219132580395 L442.7305711461769,458.57905342934055 M442.7305711461769,458.57905342934055 L394.68328444526014,483.59326802907617 M394.68328444526014,483.59326802907617 L343.6655218714169,507.67491741028823 M343.6655218714169,507.67491741028823 L289.45677865517257,530.8813003778868 M289.45677865517257,530.8813003778868 L231.8486765514977,553.2454398086094 M231.8486765514977,553.2454398086094 L170.70859842542094,574.7533167883025 M170.70859842542094,574.7533167883025 L128.44306363410448,588.4356450363695 M128.44306363410448,588.4356450363695 L85.54702649980919,601.4181617164177" stroke="black"  stroke-width="4"  fill="red"/>
<path d="M396.4899100222372,343.5918964265086 L396.40744658691244,343.6603104667731 M396.40744658691244,343.6603104667731 L393.89517816970704,344.9462459525545 M393.96592246339065,344.88645762437636 L393.89517816970704,344.9462459525545 M396.4899100222372,343.5918964265086 L393.96592246339065,344.88645762437636 M396.4899100222372,343.5918964265086 L397.313492242252,345.07174582806294 M397.313492242252,345.07174582806294 L397.2856806415636,345.0967591800786 M397.2856806415636,345.0967591800786 L397.25759035226986,345.1216504137333 M397.25759035226986,345.1216504137333 L397.22918367709485,345.14643856527414 M396.40744658691244,343.6603104667731 L397.22918367709485,345.14643856527414 M396.40744658691244,343.6603104667731 L347.7971618926262,386.0125118749463 M347.7971618926262,386.0125118749463 L347.33029590384575,386.20983845052376 M343.33680476173015,387.89292857022826 L347.33029590384575,386.20983845052376 M345.31883128884266,386.00892026777933 L343.33680476173015,387.89292857022826 M383.23636121602595,353.63104496242727 L345.31883128884266,386.00892026777933 M393.89517816970704,344.9462459525545 L383.23636121602595,353.63104496242727 M383.23636121602595,353.63104496242727 L345.30163328166685,386.4753255083807 M393.96592246339065,344.88645762437636 L397.313492242252,345.07174582806294 M345.30163328166685,386.4753255083807 L341.7232207337381,390.5743494728184 M341.7232207337381,390.5743494728184 L339.8965495261994,395.0514283046541 M339.8965495261994,395.0514283046541 L339.91173726466246,399.6884364258701 M339.91173726466246,399.6884364258701 L341.7690618004878,404.259258424957 M341.7690618004878,404.259258424957 L345.37889402429386,408.5407159749192 M345.37889402429386,408.5407159749192 L350.5658442673167,412.3235338129888 M350.5658442673167,412.3235338129888 L353.0429824393718,411.0418297966985 M397.22918367709485,345.14643856527414 L348.2535476708164,387.5569125849788 M348.2535476708164,387.5569125849788 L345.0037722503946,391.28173190409666 M345.0037722503946,391.28173190409666 L343.34562134916706,395.34977570884575 M343.34562134916706,395.34977570884575 L343.3608050871079,399.5628658901079 M343.3608050871079,399.5628658901079 L345.0494214415287,403.7156017210714 M345.0494214415287,403.7156017210714 L348.329964292972,407.605264159473 M348.329964292972,407.605264159473 L353.0429824393718,411.0418297966985 M347.7590173185305,387.6595437266342 L348.2535476708164,387.5569125849788 M347.7971618926262,386.0125118749463 L348.2535476708164,387.5569125849788 M347.7590173185305,387.6595437266342 L347.33029590384575,386.20983845052376 M347.7986051907037,386.0134905113197 L344.38012161603814,390.37744875105693 M344.38012161603814,390.37744875105693 L343.02022722019314,395.12844407862724 M343.02022722019314,395.12844407862724 L343.81902528392357,399.9722986744482 M343.81902528392357,399.9722986744482 L346.36622293584776,404.16330691523126 M346.36622293584776,404.16330691523126 L349.30591119415175,407.0369443102794 M349.30591119415175,407.0369443102794 L353.05216134456657,409.61875802869827 M353.05216134456657,409.61875802869827 L350.6107066062415,410.97653124735507 M343.33680476173015,387.89292857022826 L341.6295319998055,390.014199550783 M341.6295319998055,390.014199550783 L340.4530813330192,392.2829898533083 M340.4530813330192,392.2829898533083 L339.82338454133145,394.66860465431523 M339.82338454133145,394.66860465431523 L339.75018272127573,397.12663439429207 M339.75018272127573,397.12663439429207 L340.2356276501565,399.61036936200924 M340.2356276501565,399.61036936200924 L341.27359172273935,402.07488405392587 M341.27359172273935,402.07488405392587 L342.8495637878283,404.4779979999321 M342.8495637878283,404.4779979999321 L344.94079198181714,406.7798282288726 M344.94079198181714,406.7798282288726 L347.5476771810584,408.96646956312884 M347.5476771810584,408.96646956312884 L350.6107066062415,410.97653124735507 M347.7986051907037,386.0134905113197 L347.33029590384575,386.20983845052376 M350.6107066062415,410.97653124735507 L350.5658442673167,412.3235338129888 M345.31883128884266,386.00892026777933 L345.30163328166685,386.4753255083807 M353.05216134456657,409.61875802869827 L353.0429824393718,411.0418297966985 M347.7986051907037,386.0134905113197 L348.2535476708164,387.5569125849788" stroke="black"  stroke-width="4"  fill="red"/>
<path d="M383.23636121602595,353.63104496242727 L345.31883128884266,386.00892026777933 M345.31883128884266,386.00892026777933 L343.33680476173015,387.89292857022826 M258.5833357958127,423.75149058910006 L343.33680476173015,387.89292857022826 M367.9456594717739,358.26316391589523 L330.31084115780175,379.6394279397525 M330.31084115780175,379.6394279397525 L293.8527590223701,401.494576109965 M293.8527590223701,401.494576109965 L258.5833357958127,423.75149058910006 M393.2186481745441,345.2926641176965 L367.9456594717739,358.26316391589523 M393.2186481745441,345.2926641176965 L383.23636121602595,353.63104496242727 M345.31883128884266,386.00892026777933 L345.30163328166685,386.4753255083807 M383.23636121602595,353.63104496242727 L345.30163328166685,386.4753255083807 M343.33680476173015,387.89292857022826 L341.6295319998055,390.014199550783 M341.6295319998055,390.014199550783 L340.4530813330192,392.2829898533083 M340.4530813330192,392.2829898533083 L339.82338454133145,394.66860465431523 M339.82338454133145,394.66860465431523 L339.75018272127573,397.12663439429207 M339.75018272127573,397.12663439429207 L340.2356276501565,399.61036936200924 M340.2356276501565,399.61036936200924 L341.27359172273935,402.07488405392587 M341.27359172273935,402.07488405392587 L342.8495637878283,404.4779979999321 M342.8495637878283,404.4779979999321 L344.94079198181714,406.7798282288726 M344.94079198181714,406.7798282288726 L347.5476771810584,408.96646956312884 M347.5476771810584,408.96646956312884 L350.6107066062415,410.97653124735507 M350.6107066062415,410.97653124735507 L350.5658442673167,412.3235338129888 M345.30163328166685,386.4753255083807 L341.7232207337381,390.5743494728184 M341.7232207337381,390.5743494728184 L339.8965495261994,395.0514283046541 M339.8965495261994,395.0514283046541 L339.91173726466246,399.6884364258701 M339.91173726466246,399.6884364258701 L341.7690618004878,404.259258424957 M341.7690618004878,404.259258424957 L345.37889402429386,408.5407159749192 M345.37889402429386,408.5407159749192 L350.5658442673167,412.3235338129888 M350.6107066062415,410.97653124735507 L58.1044533937407,574.0665741272162 M258.5833357958127,423.75149058910006 L215.4758484218633,452.50579785374555 M215.4758484218633,452.50579785374555 L174.2660482012355,481.7123645282843 M174.2660482012355,481.7123645282843 L131.96619495725247,513.5387345202499 M131.96619495725247,513.5387345202499 L94.18212814451368,543.6619704480507 M94.18212814451368,543.6619704480507 L58.1044533937407,574.0665741272162 M258.5833357958127,423.75149058910006 L259.09945728790683,425.33091096710973 M368.7451504398442,359.79807994655755 L330.97590516924157,381.2136350415891 M330.97590516924157,381.2136350415891 L294.4296436506364,403.07549222558066 M294.4296436506364,403.07549222558066 L259.09945728790683,425.33091096710973 M367.9456594717739,358.26316391589523 L368.7451504398442,359.79807994655755 M393.286952986022,345.23476692610586 L393.2186481745441,345.2926641176965 M368.07955846919765,358.1892128501088 L367.9456594717739,358.26316391589523 M393.286952986022,345.23476692610586 L368.07955846919765,358.1892128501088 M345.30163328166685,386.4753255083807 L345.2617605366223,387.5560108298175 M373.8932107760205,363.1187788734045 L345.2617605366223,387.5560108298175 M392.95863414759066,346.6107157342286 L373.8932107760205,363.1187788734045 M393.286952986022,345.23476692610586 L392.95863414759066,346.6107157342286 M58.1044533937407,574.0665741272162 L58.40997098905956,575.6313100874764 M350.5623873600618,412.4275529428912 L58.40997098905956,575.6313100874764 M350.5658442673167,412.3235338129888 L350.5623873600618,412.4275529428912 M342.9328317417268,389.81125964900446 L341.3219668962687,391.9193505686201 M341.3219668962687,391.9193505686201 L340.24414548888814,394.1856152442465 M340.24414548888814,394.1856152442465 L339.71476517759265,396.57495596942726 M339.71476517759265,396.57495596942726 L339.74357465096506,399.0366556270217 M339.74357465096506,399.0366556270217 L340.332152476703,401.52017442210604 M340.332152476703,401.52017442210604 L341.4732154838528,403.9787069948561 M341.4732154838528,403.9787069948561 L345.135123521652,408.46244072317825 M345.135123521652,408.46244072317825 L350.5623873600618,412.4275529428912 M345.2617605366223,387.5560108298175 L342.9328317417268,389.81125964900446 M259.09945728790683,425.33091096710973 L215.64807526944327,454.29350867891696 M215.64807526944327,454.29350867891696 L174.10796994258865,483.71439773822794 M174.10796994258865,483.71439773822794 L131.82354187157796,515.5117451669888 M131.82354187157796,515.5117451669888 L94.27088323390802,545.4322428550911 M94.27088323390802,545.4322428550911 L58.40997098905956,575.6313100874764 M394.09945797240255,346.7563073735648 L373.8932107760205,363.1187788734045 M342.9328317417268,389.81125964900446 L259.09945728790683,425.33091096710973 M394.09945797240255,346.7563073735648 L368.7451504398442,359.79807994655755 M368.8799209825076,359.7237310410975 L368.7451504398442,359.79807994655755 M368.07955846919765,358.1892128501088 L368.8799209825076,359.7237310410975 M392.95863414759066,346.6107157342286 L394.18814127125484,346.68225557131836 M394.18814127125484,346.68225557131836 L368.8799209825076,359.7237310410975 M394.18814127125484,346.68225557131836 L394.09945797240255,346.7563073735648" stroke="black"  stroke-width="4"  fill="red"/>
<path d="M393.96592246339065,344.88645762437636 L393.89517816970704,344.9462459525545 M393.89517816970704,344.9462459525545 L393.2186481745441,345.2926641176965 M393.286952986022,345.23476692610586 L393.2186481745441,345.2926641176965 M393.96592246339065,344.88645762437636 L393.286952986022,345.23476692610586 M393.89517816970704,344.9462459525545 L383.23636121602595,353.63104496242727 M383.23636121602595,353.63104496242727 L345.30163328166685,386.4753255083807 M393.96592246339065,344.88645762437636 L397.313492242252,345.07174582806294 M345.30163328166685,386.4753255083807 L341.7232207337381,390.5743494728184 M341.7232207337381,390.5743494728184 L339.8965495261994,395.0514283046541 M339.8965495261994,395.0514283046541 L339.91173726466246,399.6884364258701 M339.91173726466246,399.6884364258701 L341.7690618004878,404.259258424957 M341.7690618004878,404.259258424957 L345.37889402429386,408.5407159749192 M345.37889402429386,408.5407159749192 L350.5658442673167,412.3235338129888 M397.313492242252,345.07174582806294 L397.2856806415636,345.0967591800786 M397.2856806415636,345.0967591800786 L397.25759035226986,345.1216504137333 M397.25759035226986,345.1216504137333 L397.22918367709485,345.14643856527414 M350.5658442673167,412.3235338129888 L353.0429824393718,411.0418297966985 M397.22918367709485,345.14643856527414 L348.2535476708164,387.5569125849788 M348.2535476708164,387.5569125849788 L345.0037722503946,391.28173190409666 M345.0037722503946,391.28173190409666 L343.34562134916706,395.34977570884575 M343.34562134916706,395.34977570884575 L343.3608050871079,399.5628658901079 M343.3608050871079,399.5628658901079 L345.0494214415287,403.7156017210714 M345.0494214415287,403.7156017210714 L348.329964292972,407.605264159473 M348.329964292972,407.605264159473 L353.0429824393718,411.0418297966985 M347.7590173185305,387.6595437266342 L348.2535476708164,387.5569125849788 M393.2186481745441,345.2926641176965 L383.23636121602595,353.63104496242727 M345.30163328166685,386.4753255083807 L345.2617605366223,387.5560108298175 M373.8932107760205,363.1187788734045 L345.2617605366223,387.5560108298175 M392.95863414759066,346.6107157342286 L373.8932107760205,363.1187788734045 M393.286952986022,345.23476692610586 L392.95863414759066,346.6107157342286 M397.313492242252,345.07174582806294 L394.18814127125484,346.68225557131836 M392.95863414759066,346.6107157342286 L394.18814127125484,346.68225557131836 M350.5658442673167,412.3235338129888 L350.5623873600618,412.4275529428912 M342.9328317417268,389.81125964900446 L341.3219668962687,391.9193505686201 M341.3219668962687,391.9193505686201 L340.24414548888814,394.1856152442465 M340.24414548888814,394.1856152442465 L339.71476517759265,396.57495596942726 M339.71476517759265,396.57495596942726 L339.74357465096506,399.0366556270217 M339.74357465096506,399.0366556270217 L340.332152476703,401.52017442210604 M340.332152476703,401.52017442210604 L341.4732154838528,403.9787069948561 M341.4732154838528,403.9787069948561 L345.135123521652,408.46244072317825 M345.135123521652,408.46244072317825 L350.5623873600618,412.4275529428912 M345.2617605366223,387.5560108298175 L342.9328317417268,389.81125964900446 M397.22918367709485,345.14643856527414 L394.09945797240255,346.7563073735648 M394.18814127125484,346.68225557131836 L394.09945797240255,346.7563073735648 M353.0429824393718,411.0418297966985 L350.5623873600618,412.4275529428912 M348.2535476708164,387.5569125849788 L347.7871253098526,387.7545276823017 M347.7871253098526,387.7545276823017 L342.9328317417268,389.81125964900446 M394.09945797240255,346.7563073735648 L373.8932107760205,363.1187788734045 M347.7871253098526,387.7545276823017 L347.7590173185305,387.6595437266342" stroke="black"  stroke-width="4"  fill="red"/>
<path d="M487.7252650116602,339.9185237791927 L478.70199286271935,335.56552915328575 M478.70199286271935,335.56552915328575 L468.35675118944346,332.2684994410464 M468.35675118944346,332.2684994410464 L457.11677372230673,330.1609378281463 M457.11677372230673,330.1609378281463 L444.5120533954205,329.31336008747905 M444.5120533954205,329.31336008747905 L431.9815342163043,329.9704534396552 M431.9815342163043,329.9704534396552 L419.7254130522332,332.15960281573723 M419.7254130522332,332.15960281573723 L412.0060772990355,334.5218964895455 M412.0060772990355,334.5218964895455 L404.0360884376899,338.20148334847215 M404.0360884376899,338.20148334847215 L399.906980090014,340.79946792177645 M399.906980090014,340.79946792177645 L396.4899100222372,343.5918964265086 M487.7252650116602,339.9185237791927 L487.70963365977514,341.34050199350145 M487.70963365977514,341.34050199350145 L478.71207773768936,337.00630890702564 M478.71207773768936,337.00630890702564 L468.40468109517064,333.72267143884835 M468.40468109517064,333.72267143884835 L457.21101130113993,331.6240349786584 M457.21101130113993,331.6240349786584 L445.59071111022774,330.79627966259716 M445.59071111022774,330.79627966259716 L434.0206960409311,331.27333605285503 M434.0206960409311,331.27333605285503 L422.9758911726694,333.03578150279395 M422.9758911726694,333.03578150279395 L412.90993473253025,336.01161586617104 M412.90993473253025,336.01161586617104 L404.2367305047263,340.07912162726905 M404.2367305047263,340.07912162726905 L397.313492242252,345.07174582806294 M396.4899100222372,343.5918964265086 L397.313492242252,345.07174582806294 M457.11677372230673,330.1609378281463 L468.36683328190446,332.2549831420771 M468.36683328190446,332.2549831420771 L478.72641404237135,335.54506251487226 M478.72641404237135,335.54506251487226 L487.76660844973253,339.8954777678923 M487.7252650116602,339.9185237791927 L487.76660844973253,339.8954777678923 M368.07955846919765,358.1892128501088 L396.4899100222372,343.5918964265086 M741.4794807992857,198.58183828358227 L689.7799341576166,216.07881868704658 M689.7799341576166,216.07881868704658 L639.2714317395955,234.37825461712367 M639.2714317395955,234.37825461712367 L590.8455091434046,253.14160352734302 M590.8455091434046,253.14160352734302 L543.7055552583535,272.65131650574835 M543.7055552583535,272.65131650574835 L497.8664774656067,292.91204269803086 M497.8664774656067,292.91204269803086 L453.90242198910994,313.6601174253551 M453.90242198910994,313.6601174253551 L410.23222250908555,335.6313561092627 M410.23222250908555,335.6313561092627 L368.07955846919765,358.1892128501088 M493.67437759576876,336.60243194386135 L741.4794807992857,198.58183828358227 M493.67437759576876,336.60243194386135 L484.7797866312947,332.27009076481556 M484.7797866312947,332.27009076481556 L479.8694419684475,330.43785508405927 M479.8694419684475,330.43785508405927 L474.7011566503562,328.85077358962997 M474.7011566503562,328.85077358962997 L469.3155825512716,327.5243534002294 M469.3155825512716,327.5243534002294 L463.75542816700784,326.4735993379418 M463.75542816700784,326.4735993379418 L457.11677372230673,330.1609378281463 M487.7112960743385,341.2985932408094 L487.70963365977514,341.34050199350145 M487.7112960743385,341.2985932408094 L487.76662181962394,339.8963209062455 M487.76660844973253,339.8954777678923 L487.76662181962394,339.8963209062455 M741.6653907597204,200.0987167523312 L487.70963365977514,341.34050199350145 M741.6653907597204,200.0987167523312 L690.2033284571969,217.5374171131004 M690.2033284571969,217.5374171131004 L639.9396157987985,235.77805018843242 M639.9396157987985,235.77805018843242 L592.018729274344,254.3826922822397 M592.018729274344,254.3826922822397 L545.5916785417487,273.634212303852 M545.5916785417487,273.634212303852 L495.5775919721988,295.8354730687405 M495.5775919721988,295.8354730687405 L447.0491553451626,318.94387111194897 M447.0491553451626,318.94387111194897 L407.37581139990414,339.06755015618705 M407.37581139990414,339.06755015618705 L368.8799209825076,359.7237310410975 M394.18814127125484,346.68225557131836 L368.8799209825076,359.7237310410975 M397.313492242252,345.07174582806294 L394.18814127125484,346.68225557131836 M368.07955846919765,358.1892128501088 L368.8799209825076,359.7237310410975 M487.76662181962394,339.8963209062455 L478.7263977411324,335.54552748210426 M478.7263977411324,335.54552748210426 L468.3666256579702,332.25510842776964 M468.3666256579702,332.25510842776964 L457.11677372230673,330.1609378281463 M741.4794807992857,198.58183828358227 L741.6653907597204,200.0987167523312 M493.67437759576876,336.60243194386135 L493.6662179529893,336.83682846995214 M493.6662179529893,336.83682846995214 L487.76662181962394,339.8963209062455 M493.6662179529893,336.83682846995214 L484.7756767539488,332.44842761822383 M484.7756767539488,332.44842761822383 L474.70031321358033,328.9577858368573 M474.70031321358033,328.9577858368573 L463.75542816700784,326.4735993379418" stroke="black"  stroke-width="4"  fill="red"/>
<path d="M353.05216134456657,409.61875802869827 L359.21725424090545,412.54403477735343 M359.21725424090545,412.54403477735343 L366.36218217042574,414.65304617479444 M366.36218217042574,414.65304617479444 L374.1174150241357,415.84065030195063 M374.1174150241357,415.84065030195063 L382.09001456724667,416.0565172270011 M382.09001456724667,416.0565172270011 L389.0427991537555,415.4422321489765 M389.0427991537555,415.4422321489765 L395.6120351756819,414.1143156928041 M353.05216134456657,409.61875802869827 L353.0429824393718,411.0418297966985 M353.0429824393718,411.0418297966985 L358.95884477561515,413.85726153570704 M358.95884477561515,413.85726153570704 L365.78889043070427,415.913796241005 M365.78889043070427,415.913796241005 L373.19955170376164,417.1107494785234 M373.19955170376164,417.1107494785234 L380.82864009816484,417.389552505206 M380.82864009816484,417.389552505206 L388.30332277309105,416.736561705776 M388.30332277309105,416.736561705776 L395.2582751938393,415.18383032411066 M395.6120351756819,414.1143156928041 L395.2582751938393,415.18383032411066 M395.6120351756819,414.1143156928041 L395.37709074792957,414.44833839641217 M395.37709074792957,414.44833839641217 L393.3516429307394,417.2927488944299 M350.6212026317533,410.9827055890621 L357.8393569379668,414.3856640372435 M357.8393569379668,414.3856640372435 L361.917236855601,415.7206980826413 M361.917236855601,415.7206980826413 L366.2279612309265,416.78716674068085 M366.2279612309265,416.78716674068085 L370.70719933344094,417.57325550146436 M370.70719933344094,417.57325550146436 L375.2881123160584,418.07320053686146 M375.2881123160584,418.07320053686146 L379.90239428958716,418.2881090647687 M379.90239428958716,418.2881090647687 L384.4818466669701,418.2257526759905 M384.4818466669701,418.2257526759905 L389.0008349778117,417.893021372618 M389.0008349778117,417.893021372618 L393.3516429307394,417.2927488944299 M353.05216134456657,409.61875802869827 L350.6212026317533,410.9827055890621 M350.5666093067051,412.3239838755994 L353.0429824393718,411.0418297966985 M350.6212026317533,410.9827055890621 L350.5666093067051,412.3239838755994 M395.2582751938393,415.18383032411066 L475.2652305271127,390.8840965592542 M350.5666093067051,412.3239838755994 L357.07807715559625,415.42299441284854 M357.07807715559625,415.42299441284854 L364.5960471944147,417.6865541531183 M364.5960471944147,417.6865541531183 L372.7531664653465,419.0037990308066 M372.7531664653465,419.0037990308066 L381.15063023030564,419.3102097065582 M381.15063023030564,419.3102097065582 L389.3778659155439,418.59078208875985 M389.3778659155439,418.59078208875985 L397.0325970851971,416.8808561869157 M475.2652305271127,390.8840965592542 L475.3120154463134,390.87000564279947 M475.3120154463134,390.87000564279947 L475.3589667108,390.8560946895698 M475.3589667108,390.8560946895698 L475.40612201465206,390.842344586261 M397.0325970851971,416.8808561869157 L458.9911780085177,398.06074863296806 M475.537420048426,392.6993787080969 L475.40612201465206,390.842344586261 M458.9911780085177,398.06074863296806 L475.4244341900393,392.7345972275431 M475.4244341900393,392.7345972275431 L475.537420048426,392.6993787080969 M395.04109347490964,415.4499008583588 L395.2582751938393,415.18383032411066 M395.04109347490964,415.4499008583588 L395.37709074792957,414.44833839641217 M395.61531188697967,414.1161109484302 L475.835279395164,390.21187128625 M475.835279395164,390.21187128625 L475.4244341900393,392.7345972275431 M397.0502582075721,416.4141552358518 L458.9911780085177,398.06074863296806 M397.0502582075721,416.4141552358518 L393.3516429307394,417.2927488944299 M395.61531188697967,414.1161109484302 L395.37709074792957,414.44833839641217 M397.0502582075721,416.4141552358518 L397.0325970851971,416.8808561869157 M395.61531188697967,414.1161109484302 L395.2582751938393,415.18383032411066 M475.835279395164,390.21187128625 L475.2652305271127,390.8840965592542 M475.835279395164,390.21187128625 L475.9543957615977,390.1647255484405 M475.9543957615977,390.1647255484405 L475.40612201465206,390.842344586261 M475.9543957615977,390.1647255484405 L475.537420048426,392.6993787080969" stroke="black"  stroke-width="4"  fill="red"/>
<path d="M350.6212026317533,410.9827055890621 L357.8393569379668,414.3856640372435 M357.8393569379668,414.3856640372435 L361.917236855601,415.7206980826413 M361.917236855601,415.7206980826413 L366.2279612309265,416.78716674068085 M366.2279612309265,416.78716674068085 L370.70719933344094,417.57325550146436 M370.70719933344094,417.57325550146436 L375.2881123160584,418.07320053686146 M375.2881123160584,418.07320053686146 L379.90239428958716,418.2881090647687 M379.90239428958716,418.2881090647687 L384.4818466669701,418.2257526759905 M384.4818466669701,418.2257526759905 L389.0008349778117,417.893021372618 M389.0008349778117,417.893021372618 L393.3516429307394,417.2927488944299 M393.3516429307394,417.2927488944299 L349.9823404913153,477.6586059124836 M349.9823404913153,477.6586059124836 L295.6437028154466,499.8891484353818 M295.6437028154466,499.8891484353818 L239.72506245854342,520.483126703147 M239.72506245854342,520.483126703147 L178.0296464563944,540.8823471072456 M178.0296464563944,540.8823471072456 L118.95934846413803,558.400088224331 M118.95934846413803,558.400088224331 L58.71743490027359,574.4319283563572 M350.6212026317533,410.9827055890621 L58.71743490027359,574.4319283563572 M350.6212026317533,410.9827055890621 L350.5666093067051,412.3239838755994 M397.0502582075721,416.4141552358518 L393.3516429307394,417.2927488944299 M397.0502582075721,416.4141552358518 L397.0325970851971,416.8808561869157 M350.5666093067051,412.3239838755994 L357.07807715559625,415.42299441284854 M357.07807715559625,415.42299441284854 L364.5960471944147,417.6865541531183 M364.5960471944147,417.6865541531183 L372.7531664653465,419.0037990308066 M372.7531664653465,419.0037990308066 L381.15063023030564,419.3102097065582 M381.15063023030564,419.3102097065582 L389.3778659155439,418.59078208875985 M389.3778659155439,418.59078208875985 L397.0325970851971,416.8808561869157 M397.0502582075721,416.4141552358518 L458.9911780085177,398.06074863296806 M458.9911780085177,398.06074863296806 L475.3135894841651,393.41399531834645 M475.3135894841651,393.41399531834645 L471.1230162132457,418.80831847746515 M471.1230162132457,418.80831847746515 L431.9633685874894,439.39161854622296 M431.9633685874894,439.39161854622296 L391.5585723104857,459.02440627031206 M391.5585723104857,459.02440627031206 L349.9823404913153,477.6586059124836 M349.9823404913153,477.6586059124836 L349.49111589930146,478.6465542303863 M349.49111589930146,478.6465542303863 L294.79436662818875,501.07614595281404 M294.79436662818875,501.07614595281404 L238.49816195290435,521.8552275965744 M238.49816195290435,521.8552275965744 L176.88405017747866,542.2621497909988 M176.88405017747866,542.2621497909988 L118.22896283850548,559.68406848632 M118.22896283850548,559.68406848632 L58.40997098905956,575.6313100874764 M58.71743490027359,574.4319283563572 L58.40997098905956,575.6313100874764 M350.5666093067051,412.3239838755994 L350.5623873600618,412.4275529428912 M350.5623873600618,412.4275529428912 L58.40997098905956,575.6313100874764 M397.0325970851971,416.8808561869157 L458.9911780085177,398.06074863296806 M397.0325970851971,416.8808561869157 L396.9916512929857,417.9622266732531 M396.9916512929857,417.9622266732531 L392.5294781859226,418.96772109452274 M350.5623873600618,412.4275529428912 L357.7789696724801,415.8322680515589 M357.7789696724801,415.8322680515589 L361.8558214133502,417.16861340542994 M361.8558214133502,417.16861340542994 L366.1652291219492,418.23693219406687 M366.1652291219492,418.23693219406687 L370.64256181531454,419.0259419890165 M370.64256181531454,419.0259419890165 L375.22051155394377,419.53093182148973 M375.22051155394377,419.53093182148973 L379.6545285466768,419.7515656509852 M379.6545285466768,419.7515656509852 L384.05628020775373,419.7227005454607 M384.05628020775373,419.7227005454607 L388.3659778092392,419.45939854733194 M388.3659778092392,419.45939854733194 L392.5294781859226,418.96772109452274 M475.3135894841651,393.41399531834645 L475.42526623250666,393.3813361960015 M475.42526623250666,393.3813361960015 L474.9138128794905,394.6528961047592 M443.75702763375807,404.117524626265 L474.9138128794905,394.6528961047592 M396.9916512929857,417.9622266732531 L443.75702763375807,404.117524626265 M475.42526623250666,393.3813361960015 L471.25864705471804,418.7350212982409 M471.25864705471804,418.7350212982409 L471.1230162132457,418.80831847746515 M471.1230162132457,418.80831847746515 L470.2940217998366,419.39012057114246 M470.2940217998366,419.39012057114246 L431.2994327533241,440.18736442188117 M431.2994327533241,440.18736442188117 L390.99856561661784,459.93867798846475 M390.99856561661784,459.93867798846475 L349.49111589930146,478.6465542303863 M392.5294781859226,418.96772109452274 L349.49111589930146,478.6465542303863 M474.71927891320325,394.0147295176989 L470.2940217998366,419.39012057114246 M443.75702763375807,404.117524626265 L474.71927891320325,394.0147295176989 M471.25864705471804,418.7350212982409 L470.4285308787445,419.3152594587244 M474.859270597906,393.9705201276487 L470.4285308787445,419.3152594587244 M474.9138128794905,394.6528961047592 L474.859270597906,393.9705201276487 M474.71927891320325,394.0147295176989 L474.859270597906,393.9705201276487 M470.4285308787445,419.3152594587244 L470.2940217998366,419.39012057114246" stroke="black"  stroke-width="4"  fill="red"/>
<path d="M353.0429824393718,411.0418297966985 L358.95884477561515,413.85726153570704 M358.95884477561515,413.85726153570704 L365.78889043070427,415.913796241005 M365.78889043070427,415.913796241005 L373.19955170376164,417.1107494785234 M373.19955170376164,417.1107494785234 L380.82864009816484,417.389552505206 M380.82864009816484,417.389552505206 L388.30332277309105,416.736561705776 M388.30332277309105,416.736561705776 L395.2582751938393,415.18383032411066 M395.2582751938393,415.18383032411066 L395.01909120826275,415.51551754882166 M395.01909120826275,415.51551754882166 L392.5294781859226,418.96772109452274 M350.5623873600618,412.4275529428912 L357.7789696724801,415.8322680515589 M357.7789696724801,415.8322680515589 L361.8558214133502,417.16861340542994 M361.8558214133502,417.16861340542994 L366.1652291219492,418.23693219406687 M366.1652291219492,418.23693219406687 L370.64256181531454,419.0259419890165 M370.64256181531454,419.0259419890165 L375.22051155394377,419.53093182148973 M375.22051155394377,419.53093182148973 L379.6545285466768,419.7515656509852 M379.6545285466768,419.7515656509852 L384.05628020775373,419.7227005454607 M384.05628020775373,419.7227005454607 L388.3659778092392,419.45939854733194 M388.3659778092392,419.45939854733194 L392.5294781859226,418.96772109452274 M353.0429824393718,411.0418297966985 L350.5623873600618,412.4275529428912 M350.5666093067051,412.3239838755994 L353.0429824393718,411.0418297966985 M395.2582751938393,415.18383032411066 L475.2652305271127,390.8840965592542 M350.5666093067051,412.3239838755994 L357.07807715559625,415.42299441284854 M357.07807715559625,415.42299441284854 L364.5960471944147,417.6865541531183 M364.5960471944147,417.6865541531183 L372.7531664653465,419.0037990308066 M372.7531664653465,419.0037990308066 L381.15063023030564,419.3102097065582 M381.15063023030564,419.3102097065582 L389.3778659155439,418.59078208875985 M389.3778659155439,418.59078208875985 L397.0325970851971,416.8808561869157 M475.2652305271127,390.8840965592542 L475.3120154463134,390.87000564279947 M475.3120154463134,390.87000564279947 L475.3589667108,390.8560946895698 M475.3589667108,390.8560946895698 L475.40612201465206,390.842344586261 M397.0325970851971,416.8808561869157 L458.9911780085177,398.06074863296806 M475.537420048426,392.6993787080969 L475.40612201465206,390.842344586261 M458.9911780085177,398.06074863296806 L475.4244341900393,392.7345972275431 M475.4244341900393,392.7345972275431 L475.537420048426,392.6993787080969 M395.04109347490964,415.4499008583588 L395.2582751938393,415.18383032411066 M475.2652305271127,390.8840965592542 L474.71927891320325,394.0147295176989 M443.75702763375807,404.117524626265 L474.71927891320325,394.0147295176989 M396.9916512929857,417.9622266732531 L443.75702763375807,404.117524626265 M396.9916512929857,417.9622266732531 L392.5294781859226,418.96772109452274 M350.5666093067051,412.3239838755994 L350.5623873600618,412.4275529428912 M397.0325970851971,416.8808561869157 L396.9916512929857,417.9622266732531 M475.40612201465206,390.842344586261 L474.859270597906,393.9705201276487 M474.71927891320325,394.0147295176989 L474.859270597906,393.9705201276487 M458.9911780085177,398.06074863296806 L475.3135894841651,393.41399531834645 M475.3135894841651,393.41399531834645 L475.42526623250666,393.3813361960015 M475.42526623250666,393.3813361960015 L474.9138128794905,394.6528961047592 M443.75702763375807,404.117524626265 L474.9138128794905,394.6528961047592 M475.537420048426,392.6993787080969 L475.42526623250666,393.3813361960015 M474.9138128794905,394.6528961047592 L474.859270597906,393.9705201276487 M475.4244341900393,392.7345972275431 L475.3135894841651,393.41399531834645 M395.01909120826275,415.51551754882166 L395.04109347490964,415.4499008583588" stroke="black"  stroke-width="4"  fill="red"/>
<path d="M475.9543957615977,390.1647255484405 L485.2623922943119,387.1424970197294 M485.2623922943119,387.1424970197294 L492.1376303696852,383.0397493357674 M492.1376303696852,383.0397493357674 L496.87499950809683,378.8185379362518 M496.87499950809683,378.8185379362518 L501.42425952058346,373.0091777720679 M501.42425952058346,373.0091777720679 L503.5480949942887,368.35125952323676 M503.5480949942887,368.35125952323676 L504.40346491423725,363.55469402500125 M504.40346491423725,363.55469402500125 L504.2624618868872,360.4420474047149 M504.2624618868872,360.4420474047149 L503.5778789619735,357.33875289936225 M503.5778789619735,357.33875289936225 L500.4321958478463,351.0280092243022 M500.4321958478463,351.0280092243022 L495.0750253838944,345.1403567158128 M495.0750253838944,345.1403567158128 L487.7252650116602,339.9185237791927 M475.9543957615977,390.1647255484405 L475.40612201465206,390.842344586261 M475.40612201465206,390.842344586261 L484.9029809308641,387.3413396188023 M484.9029809308641,387.3413396188023 L492.82587250906056,382.81740841077954 M492.82587250906056,382.81740841077954 L498.84856188671563,377.45800246559827 M498.84856188671563,377.45800246559827 L502.72381761211915,371.4849036500955 M502.72381761211915,371.4849036500955 L504.29348247190336,365.1449150981439 M504.29348247190336,365.1449150981439 L503.4947249266444,358.6995807917167 M503.4947249266444,358.6995807917167 L500.3623549481845,352.41434931352387 M500.3623549481845,352.41434931352387 L495.0270118977904,346.5476986561914 M495.0270118977904,346.5476986561914 L487.70963365977514,341.34050199350145 M487.7252650116602,339.9185237791927 L487.70963365977514,341.34050199350145 M510.68065803460775,353.9147457854631 L503.5778789619735,357.33875289936225 M510.68065803460775,353.9147457854631 L509.0024289098165,350.7305990185271 M509.0024289098165,350.7305990185271 L506.836009824366,347.63976715538104 M506.836009824366,347.63976715538104 L504.19869685361004,344.6621755764885 M504.19869685361004,344.6621755764885 L501.11135772747855,341.81810303609154 M501.11135772747855,341.81810303609154 L493.6877157391809,336.61022962702634 M493.6877157391809,336.61022962702634 L741.8955466062594,198.8223896127884 M741.8955466062594,198.8223896127884 L714.2978668485872,230.28058754008032 M714.2978668485872,230.28058754008032 L684.7582437484099,260.77553908741135 M684.7582437484099,260.77553908741135 L653.839556382261,289.7664656281597 M653.839556382261,289.7664656281597 L621.1032530135935,317.73376693000887 M621.1032530135935,317.73376693000887 L586.5592293521081,344.66923379259777 M586.5592293521081,344.66923379259777 L550.6320704751777,370.21044001919734 M550.6320704751777,370.21044001919734 L511.8740265802443,395.1645020788545 M511.8740265802443,395.1645020788545 L471.25864705471804,418.7350212982409 M475.9543957615977,390.1647255484405 L471.25864705471804,418.7350212982409 M487.7252650116602,339.9185237791927 L487.76670192927867,339.895532431951 M503.5778789619735,357.33875289936225 L500.4567568782858,351.0229467048115 M500.4567568782858,351.0229467048115 L495.1120040114647,345.12722050242076 M495.1120040114647,345.12722050242076 L487.76670192927867,339.895532431951 M471.25864705471804,418.7350212982409 L470.4285308787445,419.3152594587244 M474.859270597906,393.9705201276487 L470.4285308787445,419.3152594587244 M475.40612201465206,390.842344586261 L474.859270597906,393.9705201276487 M741.6653907597204,200.0987167523312 L714.1480326882115,231.4078131423624 M714.1480326882115,231.4078131423624 L684.6832350814298,261.74507507086804 M684.6832350814298,261.74507507086804 L653.9885064189893,290.4128352799953 M653.9885064189893,290.4128352799953 L621.6106646366738,317.91339186831954 M621.6106646366738,317.91339186831954 L583.5660995024041,347.19030204571425 M583.5660995024041,347.19030204571425 L543.2352301756305,375.19694729402363 M543.2352301756305,375.19694729402363 L507.55485247304944,397.75570874006723 M507.55485247304944,397.75570874006723 L470.4285308787445,419.3152594587244 M741.6653907597204,200.0987167523312 L487.70963365977514,341.34050199350145 M487.76670192927867,339.895532431951 L487.76662181962394,339.8963209062455 M487.7112960743385,341.2985932408094 L487.76662181962394,339.8963209062455 M487.7112960743385,341.2985932408094 L487.70963365977514,341.34050199350145 M493.67738565322736,336.84335734008073 L487.76662181962394,339.8963209062455 M503.5778789619735,357.33875289936225 L500.45681604007234,351.0232282034432 M500.45681604007234,351.0232282034432 L495.1119875634745,345.1276855624076 M495.1119875634745,345.1276855624076 L487.76662181962394,339.8963209062455 M510.68065803460775,353.9147457854631 L506.83026906208136,347.7439953165625 M506.83026906208136,347.7439953165625 L501.10234537690616,341.9936414964226 M501.10234537690616,341.9936414964226 L493.67738565322736,336.84335734008073 M493.6877157391809,336.61022962702634 L493.67738565322736,336.84335734008073 M741.8955466062594,198.8223896127884 L741.6653907597204,200.0987167523312" stroke="black"  stroke-width="4"  fill="red"/>
<path d="M394.3331832604398,344.0223290911572 L394.2786510325381,345.46678073352643 M394.2839931786301,344.0658995662387 L394.22946214565974,345.5103528624462 M394.3331832604398,344.0223290911572 L394.31694916478125,344.0369213258581 M394.31694916478125,344.0369213258581 L394.3005429998926,344.0514538688835 M394.3005429998926,344.0514538688835 L394.2839931786301,344.0658995662387 M394.2786510325381,345.46678073352643 L394.2624173307509,345.48137352135814 M394.2624173307509,345.48137352135814 L394.2460115644038,345.49590661593686 M394.2460115644038,345.49590661593686 L394.22946214565974,345.5103528624462 M345.30163328166685,386.4753255083807 L345.2482968536625,387.92138937086963 M394.2839931786301,344.0658995662387 L345.30163328166685,386.4753255083807 M394.22946214565974,345.5103528624462 L345.2482968536625,387.92138937086963 M350.5662267870076,412.3237588442921 L350.5126928095045,413.77070710482985 M345.30163328166685,386.4753255083807 L341.7231752416867,390.57440744374355 M341.7231752416867,390.57440744374355 L339.89651720017036,395.0515354193708 M339.89651720017036,395.0515354193708 L339.91173668445714,399.68860565422324 M339.91173668445714,399.68860565422324 L341.7691790873858,404.2594529610632 M341.7691790873858,404.2594529610632 L345.3791292608501,408.54093852334086 M345.3791292608501,408.54093852334086 L350.5662267870076,412.3237588442921 M345.2482968536625,387.92138937086963 L341.66992401501955,392.02062294441066 M341.66992401501955,392.02062294441066 L339.84330411031596,396.49791226357286 M339.84330411031596,396.49791226357286 L339.8585127323624,401.1351430194567 M339.8585127323624,401.1351430194567 L341.7158957686729,405.70614485103624 M341.7158957686729,405.70614485103624 L345.3257409023685,409.9877694161422 M345.3257409023685,409.9877694161422 L350.5126928095045,413.77070710482985 M397.0325970851971,416.8808561869157 L396.9778248046439,418.3278368384713 M350.5662267870076,412.3237588442921 L357.07769037786744,415.42285107161194 M357.07769037786744,415.42285107161194 L364.59570261462824,417.6864770759023 M364.59570261462824,417.6864770759023 L372.7528641648543,419.0037909336627 M372.7528641648543,419.0037909336627 L381.150435441745,419.3102214077496 M381.150435441745,419.3102214077496 L389.3777600810651,418.5908046770502 M389.3777600810651,418.5908046770502 L397.0325970851971,416.8808561869157 M350.5126928095045,413.77070710482985 L357.0239772943019,416.8698893354392 M357.0239772943019,416.8698893354392 L364.5417856876552,419.13357358454505 M364.5417856876552,419.13357358454505 L372.6987286320334,420.45091041381204 M372.6987286320334,420.45091041381204 L381.09607726765023,420.75732945116897 M381.09607726765023,420.75732945116897 L389.3231861261728,420.0378647768264 M389.3231861261728,420.0378647768264 L396.9778248046439,418.3278368384713 M477.04804084860496,392.57591285883086 L476.9912130314842,394.02183185908916 M397.0325970851971,416.8808561869157 L477.04804084860496,392.57591285883086 M396.9778248046439,418.3278368384713 L476.9912130314842,394.02183185908916 M477.1302374035777,392.5515503256679 L477.07340747600784,393.9974682555285 M477.04804084860496,392.57591285883086 L477.07531123351936,392.56770474924224 M477.07531123351936,392.56770474924224 L477.1027257452816,392.5595784534627 M477.1027257452816,392.5595784534627 L477.1302374035777,392.5515503256679 M476.9912130314842,394.02183185908916 L477.0184827165222,394.0136233898395 M477.0184827165222,394.0136233898395 L477.04589652439864,394.0054967370962 M477.04589652439864,394.0054967370962 L477.07340747600784,393.9974682555285 M490.17027529850293,340.066912846715 L490.1132284474588,341.51096644005474 M477.1302374035777,392.5515503256679 L487.1994759192918,388.83912961392025 M487.1994759192918,388.83912961392025 L495.5995308012378,384.0421222575651 M495.5995308012378,384.0421222575651 L501.9845376382284,378.35937058956995 M501.9845376382284,378.35937058956995 L506.09244489764967,372.0260919080572 M506.09244489764967,372.0260919080572 L507.75569482849585,365.3040199718437 M507.75569482849585,365.3040199718437 L506.9078438304275,358.47046959208126 M506.9078438304275,358.47046959208126 L503.58592500260465,351.8068936786823 M503.58592500260465,351.8068936786823 L497.92863665373113,345.58726214161516 M497.92863665373113,345.58726214161516 L490.17027529850293,340.066912846715 M477.07340747600784,393.9974682555285 L487.14238925803096,390.28489108433394 M487.14238925803096,390.28489108433394 L495.5422529911542,385.48768311187075 M495.5422529911542,385.48768311187075 L501.927105244573,379.8047162934158 M501.927105244573,379.8047162934158 L506.0349008191115,373.4712167832221 M506.0349008191115,373.4712167832221 L507.6981233235109,366.74890611510807 M507.6981233235109,366.74890611510807 L506.8503113599593,359.9151198246318 M506.8503113599593,359.9151198246318 L503.5284963083476,353.2513205359221 M503.5284963083476,353.2513205359221 L497.8713721073226,347.0314873531321 M497.8713721073226,347.0314873531321 L490.1132284474588,341.51096644005474 M490.17027529850293,340.066912846715 L480.6309136447532,335.4721676847237 M480.6309136447532,335.4721676847237 L469.7031582383816,331.991189865896 M469.7031582383816,331.991189865896 L457.8360434828184,329.7664257055683 M457.8360434828184,329.7664257055683 L445.5167012976741,328.8889086156123 M445.5167012976741,328.8889086156123 L433.2506569710472,329.3945768095915 M433.2506569710472,329.3945768095915 L421.5412749784459,331.26286802429024 M421.5412749784459,331.26286802429024 L410.86940302123725,334.41749489771337 M410.86940302123725,334.41749489771337 L401.6737926084682,338.72947915086445 M401.6737926084682,338.72947915086445 L394.3331832604398,344.0223290911572 M490.1132284474588,341.51096644005474 L480.57412904873905,336.91608674841075 M480.57412904873905,336.91608674841075 L469.6466696784108,333.43501702319315 M469.6466696784108,333.43501702319315 L457.7798726101623,331.2102073616926 M457.7798726101623,331.2102073616926 L445.460856772209,330.3326930504496 M445.460856772209,330.3326930504496 L433.1951341171486,330.83841219236433 M433.1951341171486,330.83841219236433 L421.4860747899022,332.7067895828212 M421.4860747899022,332.7067895828212 L410.8144764324504,335.8615555691165 M410.8144764324504,335.8615555691165 L401.61907930785753,340.17372615988427 M401.61907930785753,340.17372615988427 L394.2786510325381,345.46678073352643 M487.70963365977514,341.34050199350145 L487.6526673067626,342.7845958605369 M397.313492242252,345.07174582806294 L397.25887906995973,346.5162260017919 M487.70963365977514,341.34050199350145 L478.71207773768936,337.00630890702564 M478.71207773768936,337.00630890702564 L468.40468109517064,333.72267143884835 M468.40468109517064,333.72267143884835 L457.21101130113993,331.6240349786584 M457.21101130113993,331.6240349786584 L445.59071111022774,330.79627966259716 M445.59071111022774,330.79627966259716 L434.0206960409311,331.27333605285503 M434.0206960409311,331.27333605285503 L422.9758911726694,333.03578150279395 M422.9758911726694,333.03578150279395 L412.90993473253025,336.01161586617104 M412.90993473253025,336.01161586617104 L404.2367305047263,340.07912162726905 M404.2367305047263,340.07912162726905 L397.313492242252,345.07174582806294 M487.6526673067626,342.7845958605369 L478.65533995741305,338.4502867417499 M478.65533995741305,338.4502867417499 L468.348222560507,335.1665625866648 M468.348222560507,335.1665625866648 L457.15485244706724,333.0678832106123 M457.15485244706724,333.0678832106123 L445.5348601099802,332.2401305169965 M445.5348601099802,332.2401305169965 L433.96514848288626,332.7172349638788 M433.96514848288626,332.7172349638788 L422.92063023751354,334.47977193127144 M422.92063023751354,334.47977193127144 L412.85495069050523,337.45572665690395 M412.85495069050523,337.45572665690395 L404.18194656490175,341.52340879091946 M404.18194656490175,341.52340879091946 L397.25887906995973,346.5162260017919 M475.40612201465206,390.842344586261 L475.34934169957336,392.28820772527297 M475.40612201465206,390.842344586261 L484.9029809308641,387.3413396188023 M484.9029809308641,387.3413396188023 L492.82587250906056,382.81740841077954 M492.82587250906056,382.81740841077954 L498.84856188671563,377.45800246559827 M498.84856188671563,377.45800246559827 L502.72381761211915,371.4849036500955 M502.72381761211915,371.4849036500955 L504.29348247190336,365.1449150981439 M504.29348247190336,365.1449150981439 L503.4947249266444,358.6995807917167 M503.4947249266444,358.6995807917167 L500.3623549481845,352.41434931352387 M500.3623549481845,352.41434931352387 L495.0270118977904,346.5476986561914 M495.0270118977904,346.5476986561914 L487.70963365977514,341.34050199350145 M475.34934169957336,392.28820772527297 L484.8459584823313,388.7870551926152 M484.8459584823313,388.7870551926152 L492.7686708352878,384.26293415316934 M492.7686708352878,384.26293415316934 L498.7911955695181,378.90333617384556 M498.7911955695181,378.90333617384556 L502.6663636625493,372.93001880613247 M502.6663636625493,372.93001880613247 L504.2360026054198,366.589805085365 M504.2360026054198,366.589805085365 L503.43728182811697,360.14424826939137 M503.43728182811697,360.14424826939137 L500.3050096880598,353.858806103045 M500.3050096880598,353.858806103045 L494.9698214326766,347.9919652525051 M494.9698214326766,347.9919652525051 L487.6526673067626,342.7845958605369 M475.2652305271127,390.8840965592542 L475.2084538293669,392.3299615329663 M475.2652305271127,390.8840965592542 L475.3120154463134,390.87000564279947 M475.3120154463134,390.87000564279947 L475.3589667108,390.8560946895698 M475.3589667108,390.8560946895698 L475.40612201465206,390.842344586261 M475.2084538293669,392.3299615329663 L475.2552375479296,392.3158699993254 M475.2552375479296,392.3158699993254 L475.302225284482,392.3019366312775 M475.302225284482,392.3019366312775 L475.34934169957336,392.28820772527297 M395.2582751938393,415.18383032411066 L395.2035537264334,416.6307561689796 M395.2582751938393,415.18383032411066 L475.2652305271127,390.8840965592542 M395.2035537264334,416.6307561689796 L475.2084538293669,392.3299615329663 M353.0429824393718,411.0418297966985 L352.98938592468414,412.488726813002 M353.0429824393718,411.0418297966985 L358.95884477561515,413.85726153570704 M358.95884477561515,413.85726153570704 L365.78889043070427,415.913796241005 M365.78889043070427,415.913796241005 L373.19955170376164,417.1107494785234 M373.19955170376164,417.1107494785234 L380.82864009816484,417.389552505206 M380.82864009816484,417.389552505206 L388.30332277309105,416.736561705776 M388.30332277309105,416.736561705776 L395.2582751938393,415.18383032411066 M352.98938592468414,412.488726813002 L358.90508554191,415.30424032507176 M358.90508554191,415.30424032507176 L365.73498383632284,417.36080610167596 M365.73498383632284,417.36080610167596 L373.14540870911827,418.5578026837685 M373.14540870911827,418.5578026837685 L380.7742948474728,418.83659472370437 M380.7742948474728,418.83659472370437 L388.2487814992429,418.18356099589005 M388.2487814992429,418.18356099589005 L395.2035537264334,416.6307561689796 M348.2535476708164,387.5569125849788 L348.200130870854,389.0030054060927 M348.2535476708164,387.5569125849788 L345.0037722503946,391.28173190409666 M345.0037722503946,391.28173190409666 L343.34562134916706,395.34977570884575 M343.34562134916706,395.34977570884575 L343.3608050871079,399.5628658901079 M343.3608050871079,399.5628658901079 L345.0494214415287,403.7156017210714 M345.0494214415287,403.7156017210714 L348.329964292972,407.605264159473 M348.329964292972,407.605264159473 L353.0429824393718,411.0418297966985 M348.200130870854,389.0030054060927 L344.95043282061437,392.72796378998464 M344.95043282061437,392.72796378998464 L343.29231650925817,396.7961535764533 M343.29231650925817,396.7961535764533 L343.3074903310491,401.0093902094212 M343.3074903310491,401.0093902094212 L344.9960905199427,405.16224398783527 M344.9960905199427,405.16224398783527 L348.27650009048347,409.05205454425527 M348.27650009048347,409.05205454425527 L352.98938592468414,412.488726813002 M397.22918367709485,345.14643856527414 L397.1745725526255,346.59092157399346 M397.22918367709485,345.14643856527414 L348.2535476708164,387.5569125849788 M397.1745725526255,346.59092157399346 L348.200130870854,389.0030054060927 M397.313492242252,345.07174582806294 L397.2856806415636,345.0967591800786 M397.2856806415636,345.0967591800786 L397.25759035226986,345.1216504137333 M397.25759035226986,345.1216504137333 L397.22918367709485,345.14643856527414 M397.25887906995973,346.5162260017919 L397.2311058204869,346.5412185766114 M397.2311058204869,346.5412185766114 L397.20297853693603,346.56613248038605 M397.20297853693603,346.56613248038605 L397.1745725526255,346.59092157399346" stroke="black"  stroke-width="4"  fill="red"/>
<path d="M394.38771837278114,342.57780104563847 L394.3331832604398,344.0223290911572 M394.33852710079833,342.62137053862625 L394.2839931786301,344.0658995662387 M394.38771837278114,342.57780104563847 L394.3714838832325,342.59239272712955 M394.3714838832325,342.59239272712955 L394.35507731978305,342.6069247185228 M394.35507731978305,342.6069247185228 L394.33852710079833,342.62137053862625 M394.3331832604398,344.0223290911572 L394.31694916478125,344.0369213258581 M394.31694916478125,344.0369213258581 L394.3005429998926,344.0514538688835 M394.3005429998926,344.0514538688835 L394.2839931786301,344.0658995662387 M345.3549725362062,385.0291850125217 L345.30163328166685,386.4753255083807 M394.33852710079833,342.62137053862625 L345.3549725362062,385.0291850125217 M394.2839931786301,344.0658995662387 L345.30163328166685,386.4753255083807 M350.619763604595,410.8767338202588 L350.5662267870076,412.3237588442921 M345.3549725362062,385.0291850125217 L341.7764292853542,389.1281146151257 M341.7764292853542,389.1281146151257 L339.9497331110773,393.60508189657196 M339.9497331110773,393.60508189657196 L339.9649634531794,398.24199091396304 M339.9649634531794,398.24199091396304 L341.82246523196665,402.8126843461374 M341.82246523196665,402.8126843461374 L345.43252045400607,407.0940312213295 M345.43252045400607,407.0940312213295 L350.619763604595,410.8767338202588 M345.30163328166685,386.4753255083807 L341.7231752416867,390.57440744374355 M341.7231752416867,390.57440744374355 L339.89651720017036,395.0515354193708 M339.89651720017036,395.0515354193708 L339.91173668445714,399.68860565422324 M339.91173668445714,399.68860565422324 L341.7691790873858,404.2594529610632 M341.7691790873858,404.2594529610632 L345.3791292608501,408.54093852334086 M345.3791292608501,408.54093852334086 L350.5662267870076,412.3237588442921 M397.0873722718371,415.4337987620138 L397.0325970851971,416.8808561869157 M350.619763604595,410.8767338202588 L357.1314063140223,413.97573636693176 M357.1314063140223,413.97573636693176 L364.6496224025765,416.23930378048397 M364.6496224025765,416.23930378048397 L372.8070025652461,417.5565939893038 M372.8070025652461,417.5565939893038 L381.20479650033735,417.8630365740445 M381.20479650033735,417.8630365740445 L389.43233692687477,417.143667119975 M389.43233692687477,417.143667119975 L397.0873722718371,415.4337987620138 M350.5662267870076,412.3237588442921 L357.07769037786744,415.42285107161194 M357.07769037786744,415.42285107161194 L364.59570261462824,417.6864770759023 M364.59570261462824,417.6864770759023 L372.7528641648543,419.0037909336627 M372.7528641648543,419.0037909336627 L381.150435441745,419.3102214077496 M381.150435441745,419.3102214077496 L389.3777600810651,418.5908046770502 M389.3777600810651,418.5908046770502 L397.0325970851971,416.8808561869157 M477.1048716810396,391.1299179046032 L477.04804084860496,392.57591285883086 M397.0873722718371,415.4337987620138 L477.1048716810396,391.1299179046032 M397.0325970851971,416.8808561869157 L477.04804084860496,392.57591285883086 M477.1870703428501,391.1055557693728 L477.1302374035777,392.5515503256679 M477.1048716810396,391.1299179046032 L477.1321427621466,391.12170948211235 M477.1321427621466,391.12170948211235 L477.15955797783084,391.11358354334584 M477.15955797783084,391.11358354334584 L477.1870703428501,391.1055557693728 M477.04804084860496,392.57591285883086 L477.07531123351936,392.56770474924224 M477.07531123351936,392.56770474924224 L477.1027257452816,392.5595784534627 M477.1027257452816,392.5595784534627 L477.1302374035777,392.5515503256679 M490.2273251659461,338.6227828978598 L490.17027529850293,340.066912846715 M477.1870703428501,391.1055557693728 L487.2565656053275,387.3932915388664 M487.2565656053275,387.3932915388664 L495.6568304705206,382.5964739301671 M495.6568304705206,382.5964739301671 L502.0419918910143,376.91393744857885 M502.0419918910143,376.91393744857885 L506.1499920229181,370.580890519273 M506.1499920229181,370.580890519273 L507.81326938078445,363.8590573496559 M507.81326938078445,363.8590573496559 L506.96537934525486,357.0257429151484 M506.96537934525486,357.0257429151484 L503.6433567348888,350.36239041002386 M503.6433567348888,350.36239041002386 L497.9859042287155,344.1429605487125 M497.9859042287155,344.1429605487125 L490.2273251659461,338.6227828978598 M477.1302374035777,392.5515503256679 L487.1994759192918,388.83912961392025 M487.1994759192918,388.83912961392025 L495.5995308012378,384.0421222575651 M495.5995308012378,384.0421222575651 L501.9845376382284,378.35937058956995 M501.9845376382284,378.35937058956995 L506.09244489764967,372.0260919080572 M506.09244489764967,372.0260919080572 L507.75569482849585,365.3040199718437 M507.75569482849585,365.3040199718437 L506.9078438304275,358.47046959208126 M506.9078438304275,358.47046959208126 L503.58592500260465,351.8068936786823 M503.58592500260465,351.8068936786823 L497.92863665373113,345.58726214161516 M497.92863665373113,345.58726214161516 L490.17027529850293,340.066912846715 M490.2273251659461,338.6227828978598 L480.68770124276716,334.02817228616925 M480.68770124276716,334.02817228616925 L469.7596497843215,330.54728638831216 M469.7596497843215,330.54728638831216 L457.89221732443616,328.3225677370756 M457.89221732443616,328.3225677370756 L445.57254877480966,327.44504786933874 M445.57254877480966,327.44504786933874 L433.306182759745,327.95066510929007 M433.306182759745,327.95066510929007 L421.59649690203696,329.81885928543863 M421.59649690203696,329.81885928543863 L410.9243513385046,332.9733470238549 M410.9243513385046,332.9733470238549 L401.72850880240605,337.2851557677435 M401.72850880240605,337.2851557677435 L394.38771837278114,342.57780104563847 M490.17027529850293,340.066912846715 L480.6309136447532,335.4721676847237 M480.6309136447532,335.4721676847237 L469.7031582383816,331.991189865896 M469.7031582383816,331.991189865896 L457.8360434828184,329.7664257055683 M457.8360434828184,329.7664257055683 L445.5167012976741,328.8889086156123 M445.5167012976741,328.8889086156123 L433.2506569710472,329.3945768095915 M433.2506569710472,329.3945768095915 L421.5412749784459,331.26286802429024 M421.5412749784459,331.26286802429024 L410.86940302123725,334.41749489771337 M410.86940302123725,334.41749489771337 L401.6737926084682,338.72947915086445 M401.6737926084682,338.72947915086445 L394.3331832604398,344.0223290911572 M487.76662181962394,339.8963209062455 L487.70963365977514,341.34050199350145 M397.3681083081536,343.62718991868985 L397.313492242252,345.07174582806294 M487.76662181962394,339.8963209062455 L478.7688185176968,335.56225472907545 M478.7688185176968,335.56225472907545 L468.46112381714687,332.2787148120541 M468.46112381714687,332.2787148120541 L457.26717312377684,330.18011042470266 M457.26717312377684,330.18011042470266 L445.64656506272684,329.3523524870751 M445.64656506272684,329.3523524870751 L434.0762465353111,329.8293608149613 M434.0762465353111,329.8293608149613 L423.03115502928836,331.5917147353076 M423.03115502928836,331.5917147353076 L412.9649405065918,334.56741786408145 M412.9649405065918,334.56741786408145 L404.29151733708363,338.6347574114757 M404.29151733708363,338.6347574114757 L397.3681083081536,343.62718991868985 M487.70963365977514,341.34050199350145 L478.71207773768936,337.00630890702564 M478.71207773768936,337.00630890702564 L468.40468109517064,333.72267143884835 M468.40468109517064,333.72267143884835 L457.21101130113993,331.6240349786584 M457.21101130113993,331.6240349786584 L445.59071111022774,330.79627966259716 M445.59071111022774,330.79627966259716 L434.0206960409311,331.27333605285503 M434.0206960409311,331.27333605285503 L422.9758911726694,333.03578150279395 M422.9758911726694,333.03578150279395 L412.90993473253025,336.01161586617104 M412.90993473253025,336.01161586617104 L404.2367305047263,340.07912162726905 M404.2367305047263,340.07912162726905 L397.313492242252,345.07174582806294 M475.4629053423372,389.39640550161005 L475.40612201465206,390.842344586261 M475.4629053423372,389.39640550161005 L484.9600063969767,385.8955467747918 M484.9600063969767,385.8955467747918 L492.8830960381625,381.3717952017681 M492.8830960381625,381.3717952017681 L498.90593124197306,376.01259221399926 M498.90593124197306,376.01259221399926 L502.78127460359667,370.0397119822269 M502.78127460359667,370.0397119822269 L504.35096538083917,363.69994863181546 M504.35096538083917,363.69994863181546 L503.5521710648509,357.25483686751375 M503.5521710648509,357.25483686751375 L500.4196844445534,350.96982697499914 M500.4196844445534,350.96982697499914 L495.08420538770173,345.10335567277116 M495.08420538770173,345.10335567277116 L487.76662181962394,339.8963209062455 M475.40612201465206,390.842344586261 L484.9029809308641,387.3413396188023 M484.9029809308641,387.3413396188023 L492.82587250906056,382.81740841077954 M492.82587250906056,382.81740841077954 L498.84856188671563,377.45800246559827 M498.84856188671563,377.45800246559827 L502.72381761211915,371.4849036500955 M502.72381761211915,371.4849036500955 L504.29348247190336,365.1449150981439 M504.29348247190336,365.1449150981439 L503.4947249266444,358.6995807917167 M503.4947249266444,358.6995807917167 L500.3623549481845,352.41434931352387 M500.3623549481845,352.41434931352387 L495.0270118977904,346.5476986561914 M495.0270118977904,346.5476986561914 L487.70963365977514,341.34050199350145 M475.32201023728123,389.4381556396512 L475.2652305271127,390.8840965592542 M475.32201023728123,389.4381556396512 L475.36879635343826,389.42406466787827 M475.36879635343826,389.42406466787827 L475.41574882719055,389.41015499861965 M475.41574882719055,389.41015499861965 L475.4629053423372,389.39640550161005 M475.2652305271127,390.8840965592542 L475.3120154463134,390.87000564279947 M475.3120154463134,390.87000564279947 L475.3589667108,390.8560946895698 M475.3589667108,390.8560946895698 L475.40612201465206,390.842344586261 M395.31299955961856,413.7368270410442 L395.2582751938393,415.18383032411066 M395.31299955961856,413.7368270410442 L475.32201023728123,389.4381556396512 M395.2582751938393,415.18383032411066 L475.2652305271127,390.8840965592542 M353.09658179729405,409.59485602414054 L353.0429824393718,411.0418297966985 M353.09658179729405,409.59485602414054 L359.0126068614953,412.4102059774491 M359.0126068614953,412.4102059774491 L365.84283770632,414.4666877503347 M365.84283770632,414.4666877503347 L373.2536975712596,415.6636194919089 M373.2536975712596,415.6636194919089 L380.882988232436,415.9424335061118 M380.882988232436,415.9424335061118 L388.35786694079894,415.28948564054053 M388.35786694079894,415.28948564054053 L395.31299955961856,413.7368270410442 M353.0429824393718,411.0418297966985 L358.95884477561515,413.85726153570704 M358.95884477561515,413.85726153570704 L365.78889043070427,415.913796241005 M365.78889043070427,415.913796241005 L373.19955170376164,417.1107494785234 M373.19955170376164,417.1107494785234 L380.82864009816484,417.389552505206 M380.82864009816484,417.389552505206 L388.30332277309105,416.736561705776 M388.30332277309105,416.736561705776 L395.2582751938393,415.18383032411066 M348.30696729624617,386.1107424532107 L348.2535476708164,387.5569125849788 M348.30696729624617,386.1107424532107 L345.0571145074465,389.8354233602772 M345.0571145074465,389.8354233602772 L343.3989290150099,393.9033211621137 M343.3989290150099,393.9033211621137 L343.414122670131,398.11626487021886 M343.414122670131,398.11626487021886 L345.10279301212506,402.2688609013393 M345.10279301212506,402.2688609013393 L348.38343133128853,406.15839703458414 M348.38343133128853,406.15839703458414 L353.09658179729405,409.59485602414054 M348.2535476708164,387.5569125849788 L345.0037722503946,391.28173190409666 M345.0037722503946,391.28173190409666 L343.34562134916706,395.34977570884575 M343.34562134916706,395.34977570884575 L343.3608050871079,399.5628658901079 M343.3608050871079,399.5628658901079 L345.0494214415287,403.7156017210714 M345.0494214415287,403.7156017210714 L348.329964292972,407.605264159473 M348.329964292972,407.605264159473 L353.0429824393718,411.0418297966985 M397.2837976950759,343.70187982050766 L397.22918367709485,345.14643856527414 M397.2837976950759,343.70187982050766 L348.30696729624617,386.1107424532107 M397.22918367709485,345.14643856527414 L348.2535476708164,387.5569125849788 M397.3681083081536,343.62718991868985 L397.34029603276656,343.65220232237516 M397.34029603276656,343.65220232237516 L397.31220505637236,343.6770919391745 M397.31220505637236,343.6770919391745 L397.2837976950759,343.70187982050766 M397.313492242252,345.07174582806294 L397.2856806415636,345.0967591800786 M397.2856806415636,345.0967591800786 L397.25759035226986,345.1216504137333 M397.25759035226986,345.1216504137333 L397.22918367709485,345.14643856527414" stroke="black"  stroke-width="4"  fill="red"/>
<path d="M390.21550620836496,341.1088231875808 L390.2699308904097,339.66425868835915 M341.2227555630036,383.5149831296161 L341.27598514466206,382.06880749767345 M390.21550620836496,341.1088231875808 L341.2227555630036,383.5149831296161 M390.2699308904097,339.66425868835915 L341.27598514466206,382.06880749767345 M347.1517050542452,412.67162977525584 L347.2051571252965,411.2244562156102 M341.2227555630036,383.5149831296161 L337.1838862304818,388.13772553765375 M337.1838862304818,388.13772553765375 L335.1209823775034,393.1873817396978 M335.1209823775034,393.1873817396978 L335.13600325467553,398.41787642665804 M335.13600325467553,398.41787642665804 L337.22957564349383,403.5740463148302 M337.22957564349383,403.5740463148302 L341.3007625263877,408.404023220099 M341.3007625263877,408.404023220099 L347.1517050542452,412.67162977525584 M341.27598514466206,382.06880749767345 L337.23701961192546,386.69137839688915 M337.23701961192546,386.69137839688915 L335.17407265073376,391.7408529725799 M335.17407265073376,391.7408529725799 L335.1891056915506,396.9711657714457 M335.1891056915506,396.9711657714457 L337.28274499162035,402.1271620506004 M337.28274499162035,402.1271620506004 L341.35405033205154,406.95698210164096 M341.35405033205154,406.95698210164096 L347.2051571252965,411.2244562156102 M399.57222616148255,417.80986839105856 L399.62707543859,416.3626583787417 M347.1517050542452,412.67162977525584 L354.4973495428701,416.16786731929324 M354.4973495428701,416.16786731929324 L362.9788900453063,418.72149299716057 M362.9788900453063,418.72149299716057 L372.1817510413973,420.2072806879444 M372.1817510413973,420.2072806879444 L381.6557268243019,420.55238275912313 M381.6557268243019,420.55238275912313 L390.93726236566357,419.73992366911034 M390.93726236566357,419.73992366911034 L399.57222616148255,417.80986839105856 M347.2051571252965,411.2244562156102 L354.55100368925787,414.7205922016785 M354.55100368925787,414.7205922016785 L363.0327741968561,417.27415216266786 M363.0327741968561,417.27415216266786 L372.23588186172054,418.7599131875086 M372.23588186172054,418.7599131875086 L381.710108876973,419.1050289443499 M381.710108876973,419.1050289443499 L390.99188788794623,418.29262355710546 M390.99188788794623,418.29262355710546 L399.62707543859,416.3626583787417 M479.6012533618655,393.49879735445904 L479.6581587994559,392.05264943226825 M399.57222616148255,417.80986839105856 L479.6012533618655,393.49879735445904 M399.62707543859,416.3626583787417 L479.6581587994559,392.05264943226825 M493.67180180239245,336.840092904598 L493.7289410558498,335.3959581940944 M479.6012533618655,393.49879735445904 L490.47218931674007,389.49044043969866 M490.47218931674007,389.49044043969866 L499.54050735285625,384.3112153742769 M499.54050735285625,384.3112153742769 L506.4328242820254,378.1759141199717 M506.4328242820254,378.1759141199717 L510.86639604454456,371.3385641985244 M510.86639604454456,371.3385641985244 L512.6604969987964,364.08180833979725 M512.6604969987964,364.08180833979725 L511.74367510796094,356.7050319392001 M511.74367510796094,356.7050319392001 L508.15613820958805,349.5120549251641 M508.15613820958805,349.5120549251641 L502.0478249783514,342.79856133299074 M502.0478249783514,342.79856133299074 L493.67180180239245,336.840092904598 M479.6581587994559,392.05264943226825 L490.52937196011,388.0444614777423 M490.52937196011,388.0444614777423 L499.59791668355433,382.8654412892446 M499.59791668355433,382.8654412892446 L506.49040045577385,376.730371703399 M506.49040045577385,376.730371703399 L510.92407242115485,369.89327267871363 M510.92407242115485,369.89327267871363 L512.7182029062478,362.6367746146475 M512.7182029062478,362.6367746146475 L511.8013387911984,355.2602529602618 M511.8013387911984,355.2602529602618 L508.21368978225,348.0675171542781 M508.21368978225,348.0675171542781 L502.10519928294264,341.35424130474837 M502.10519928294264,341.35424130474837 L493.7289410558498,335.3959581940944 M493.67180180239245,336.840092904598 L483.37368539021054,331.8808153271333 M483.37368539021054,331.8808153271333 L471.57723926148503,328.12373919506445 M471.57723926148503,328.12373919506445 L458.7670992397816,325.72251551505485 M458.7670992397816,325.72251551505485 L445.46894701468483,324.77533963405256 M445.46894701468483,324.77533963405256 L432.22830755993294,325.3209793800771 M432.22830755993294,325.3209793800771 L419.5883340746643,327.3372907534524 M419.5883340746643,327.3372907534524 L408.06796648849127,330.7419824208024 M408.06796648849127,330.7419824208024 L398.1407349001631,335.3959609340118 M398.1407349001631,335.3959609340118 L390.21550620836496,341.1088231875808 M493.7289410558498,335.3959581940944 L483.43054151609766,330.4368258861799 M483.43054151609766,330.4368258861799 L471.63377581671216,326.6798489992316 M471.63377581671216,326.6798489992316 L458.8232928697474,324.2786744564521 M458.8232928697474,324.2786744564521 L445.52478837972103,323.33149558038133 M445.52478837972103,323.33149558038133 L432.2838017057074,323.87708031844033 M432.2838017057074,323.87708031844033 L419.6435002231079,325.8932862559458 M419.6435002231079,325.8932862559458 L408.1228372909313,329.2978283799515 M408.1228372909313,329.2978283799515 L398.1953551059374,333.9516174033797 M398.1953551059374,333.9516174033797 L390.2699308904097,339.66425868835915 M487.76662181962394,339.8963209062455 L487.8236129930249,338.45206345022893 M397.3681083081536,343.62718991868985 L397.4227272583423,342.18255692366324 M487.76662181962394,339.8963209062455 L478.7688185176968,335.56225472907545 M478.7688185176968,335.56225472907545 L468.46112381714687,332.2787148120541 M468.46112381714687,332.2787148120541 L457.26717312377684,330.18011042470266 M457.26717312377684,330.18011042470266 L445.64656506272684,329.3523524870751 M445.64656506272684,329.3523524870751 L434.0762465353111,329.8293608149613 M434.0762465353111,329.8293608149613 L423.03115502928836,331.5917147353076 M423.03115502928836,331.5917147353076 L412.9649405065918,334.56741786408145 M412.9649405065918,334.56741786408145 L404.29151733708363,338.6347574114757 M404.29151733708363,338.6347574114757 L397.3681083081536,343.62718991868985 M487.8236129930249,338.45206345022893 L478.8255622976731,334.1181242018447 M478.8255622976731,334.1181242018447 L468.5175883207918,330.8346709989137 M468.5175883207918,330.8346709989137 L457.32333791521336,328.7361095426934 M457.32333791521336,328.7361095426934 L445.702403161751,327.90835983241277 M445.702403161751,327.90835983241277 L434.1317999662591,328.38530924414545 M434.1317999662591,328.38530924414545 L423.08642180760245,330.14757162275885 M423.08642180760245,330.14757162275885 L413.0199491936918,333.1231441707638 M413.0199491936918,333.1231441707638 L404.3463070715683,337.1903174812579 M404.3463070715683,337.1903174812579 L397.4227272583423,342.18255692366324 M475.4629053423372,389.39640550161005 L475.5196916753846,387.95038912009 M475.4629053423372,389.39640550161005 L484.9600063969767,385.8955467747918 M484.9600063969767,385.8955467747918 L492.8830960381625,381.3717952017681 M492.8830960381625,381.3717952017681 L498.90593124197306,376.01259221399926 M498.90593124197306,376.01259221399926 L502.78127460359667,370.0397119822269 M502.78127460359667,370.0397119822269 L504.35096538083917,363.69994863181546 M504.35096538083917,363.69994863181546 L503.5521710648509,357.25483686751375 M503.5521710648509,357.25483686751375 L500.4196844445534,350.96982697499914 M500.4196844445534,350.96982697499914 L495.08420538770173,345.10335567277116 M495.08420538770173,345.10335567277116 L487.76662181962394,339.8963209062455 M475.5196916753846,387.95038912009 L485.01703488813774,384.44967799950575 M485.01703488813774,384.44967799950575 L492.9403226020724,379.9261060867881 M492.9403226020724,379.9261060867881 L498.9633036355316,374.56710541296763 M498.9633036355316,374.56710541296763 L502.83873463722347,368.59444379645015 M502.83873463722347,368.59444379645015 L504.4084325261855,362.25491655763676 M504.4084325261855,362.25491655763676 L503.60962024297766,355.81001649071436 M503.60962024297766,355.81001649071436 L500.47703577186616,349.52521734821426 M500.47703577186616,349.52521734821426 L495.1414019026506,343.65893629618415 M495.1414019026506,343.65893629618415 L487.8236129930249,338.45206345022893 M475.32201023728123,389.4381556396512 L475.3787929526245,387.9921374229251 M475.32201023728123,389.4381556396512 L475.36879635343826,389.42406466787827 M475.36879635343826,389.42406466787827 L475.41574882719055,389.41015499861965 M475.41574882719055,389.41015499861965 L475.4629053423372,389.39640550161005 M475.3787929526245,387.9921374229251 L475.4255802695434,387.9780470684715 M475.4255802695434,387.9780470684715 L475.47253394888054,387.9641380107164 M475.47253394888054,387.9641380107164 L475.5196916753846,387.95038912009 M395.31299955961856,413.7368270410442 L395.3677268264121,412.2897466501072 M395.31299955961856,413.7368270410442 L475.32201023728123,389.4381556396512 M395.3677268264121,412.2897466501072 L475.3787929526245,387.9921374229251 M353.09658179729405,409.59485602414054 L353.1501839986773,408.14780548922 M353.09658179729405,409.59485602414054 L359.0126068614953,412.4102059774491 M359.0126068614953,412.4102059774491 L365.84283770632,414.4666877503347 M365.84283770632,414.4666877503347 L373.2536975712596,415.6636194919089 M373.2536975712596,415.6636194919089 L380.882988232436,415.9424335061118 M380.882988232436,415.9424335061118 L388.35786694079894,415.28948564054053 M388.35786694079894,415.28948564054053 L395.31299955961856,413.7368270410442 M353.1501839986773,408.14780548922 L359.0663717997776,410.9630736441884 M359.0663717997776,410.9630736441884 L365.8967878443758,413.01950247615 M365.8967878443758,413.01950247615 L373.30784630928457,414.21641238123766 M373.30784630928457,414.21641238123766 L380.9373392530207,414.49523805688386 M380.9373392530207,414.49523805688386 L388.4124140025968,413.84233279407374 M388.4124140025968,413.84233279407374 L395.3677268264121,412.2897466501072 M348.30696729624617,386.1107424532107 L348.3603897500898,384.6644953409526 M348.30696729624617,386.1107424532107 L345.0571145074465,389.8354233602772 M345.0571145074465,389.8354233602772 L343.3989290150099,393.9033211621137 M343.3989290150099,393.9033211621137 L343.414122670131,398.11626487021886 M343.414122670131,398.11626487021886 L345.10279301212506,402.2688609013393 M345.10279301212506,402.2688609013393 L348.38343133128853,406.15839703458414 M348.38343133128853,406.15839703458414 L353.09658179729405,409.59485602414054 M348.3603897500898,384.6644953409526 L345.1104595919949,388.38903815243134 M345.1104595919949,388.38903815243134 L343.4522395097647,392.4567902665897 M343.4522395097647,392.4567902665897 L343.46744307758945,396.66958680719085 M343.46744307758945,396.66958680719085 L345.1561674132621,400.8220433542641 M345.1561674132621,400.8220433542641 L348.43690120565856,404.7114531634826 M348.43690120565856,404.7114531634826 L353.1501839986773,408.14780548922 M397.2837976950759,343.70187982050766 L397.3384145972446,342.2572439896817 M397.2837976950759,343.70187982050766 L348.30696729624617,386.1107424532107 M397.3384145972446,342.2572439896817 L348.3603897500898,384.6644953409526 M397.3681083081536,343.62718991868985 L397.34029603276656,343.65220232237516 M397.34029603276656,343.65220232237516 L397.31220505637236,343.6770919391745 M397.31220505637236,343.6770919391745 L397.2837976950759,343.70187982050766 M397.4227272583423,342.18255692366324 L397.39491430822375,342.20756837888234 M397.39491430822375,342.20756837888234 L397.3668226494726,342.23245705064676 M397.3668226494726,342.23245705064676 L397.3384145972446,342.2572439896817" stroke="black"  stroke-width="4"  fill="red"/></svg>