<svg viewBox="0 0 800 800" xmlns="http://www.w3.org/2000/svg"><path d="M122.86327737127391,638.5645824152105 L122.85835759095983,637.3371556113261 M134.90712312642233,631.191352325201 L134.90254229627465,629.9641269090421 M122.86327737127391,638.5645824152105 L134.90712312642233,631.191352325201 M122.85835759095983,637.3371556113261 L134.90254229627465,629.9641269090421 M146.94413197657562,623.8276387966548 L146.93988967908996,622.6006146453126 M134.90712312642233,631.191352325201 L146.94413197657562,623.8276387966548 M134.90254229627465,629.9641269090421 L146.93988967908996,622.6006146453126 M158.97467601832824,616.4747577649732 L158.9707718468078,615.2479347190049 M146.94413197657562,623.8276387966548 L158.97467601832824,616.4747577649732 M146.93988967908996,622.6006146453126 L158.9707718468078,615.2479347190049 M170.99858789743593,609.133477722512 L170.9950214410514,607.9068556008312 M158.97467601832824,616.4747577649732 L170.99858789743593,609.133477722512 M158.9707718468078,615.2479347190049 L170.9950214410514,607.9068556008312 M183.01461075868775,601.8033597724391 L183.0113815722321,600.5769384053383 M170.99858789743593,609.133477722512 L183.01461075868775,601.8033597724391 M170.9950214410514,607.9068556008312 L183.0113815722321,600.5769384053383 M195.0199851190672,594.4821428099547 L195.0170926811984,593.2559220890957 M183.01461075868775,601.8033597724391 L195.0199851190672,594.4821428099547 M183.0113815722321,600.5769384053383 L195.0170926811984,593.2559220890957 M207.01017048761128,587.1656645663086 L207.00761415125362,585.9396444970464 M195.0199851190672,594.4821428099547 L207.01017048761128,587.1656645663086 M195.0170926811984,593.2559220890957 L207.00761415125362,585.9396444970464 M218.978948404226,579.8479669557478 L218.97672734977903,578.6221477067386 M207.01017048761128,587.1656645663086 L218.978948404226,579.8479669557478 M207.00761415125362,585.9396444970464 L218.97672734977903,578.6221477067386 M230.91876019564683,572.5217074710697 L230.9168733935366,571.2960894127414 M218.978948404226,579.8479669557478 L230.91876019564683,572.5217074710697 M218.97672734977903,578.6221477067386 L230.9168733935366,571.2960894127414 M242.8212234412111,565.1788045683645 L242.81966962877806,563.9533882937772 M230.91876019564683,572.5217074710697 L242.8212234412111,565.1788045683645 M230.9168733935366,571.2960894127414 L242.81966962877806,563.9533882937772 M254.67779520691903,557.8112971342757 L254.67657288375955,556.5860834564087 M242.8212234412111,565.1788045683645 L254.67779520691903,557.8112971342757 M242.81966962877806,563.9533882937772 L254.67657288375955,556.5860834564087 M266.4803482567083,550.4117159798368 L266.47945569610334,549.1867059186454 M254.67779520691903,557.8112971342757 L266.4803482567083,550.4117159798368 M254.67657288375955,556.5860834564087 L266.47945569610334,549.1867059186454 M278.2203051318957,542.9720621556714 L278.21974036813504,541.747256953243 M266.4803482567083,550.4117159798368 L278.2203051318957,542.9720621556714 M266.47945569610334,549.1867059186454 L278.21974036813504,541.747256953243 M289.89064700822445,535.4870886680957 L289.8904078799066,534.2624897134062 M278.2203051318957,542.9720621556714 L289.89064700822445,535.4870886680957 M278.21974036813504,541.747256953243 L289.8904078799066,534.2624897134062 M301.4859471352443,527.9553080181179 L301.48603132965167,526.7309167437436 M289.89064700822445,535.4870886680957 L301.4859471352443,527.9553080181179 M289.8904078799066,534.2624897134062 L301.48603132965167,526.7309167437436 M313.00491884354585,520.3803614038377 L313.0053240122563,519.1561791445195 M301.4859471352443,527.9553080181179 L313.00491884354585,520.3803614038377 M301.48603132965167,526.7309167437436 L313.0053240122563,519.1561791445195 M324.44768654717257,512.7692216397575 L324.4484103457657,511.54524954011197 M313.00491884354585,520.3803614038377 L324.44768654717257,512.7692216397575 M313.0053240122563,519.1561791445195 L324.4484103457657,511.54524954011197 M335.8167446834397,505.13195771489063 L335.8177848380635,503.90819664330417 M324.44768654717257,512.7692216397575 L335.8167446834397,505.13195771489063 M324.4484103457657,511.54524954011197 L335.8177848380635,503.90819664330417 M347.11706810101487,497.48059766287685 L347.1184224780554,496.2570481565479 M335.8167446834397,505.13195771489063 L347.11706810101487,497.48059766287685 M335.8177848380635,503.90819664330417 L347.1184224780554,496.2570481565479 M358.3564089542482,489.8277077942013 L358.35807563816337,488.6043700433139 M347.11706810101487,497.48059766287685 L358.3564089542482,489.8277077942013 M347.1184224780554,496.2570481565479 L358.35807563816337,488.6043700433139 M369.54558699882045,482.1847868032245 L369.5475643777991,480.96166067954925 M358.3564089542482,489.8277077942013 L369.54558699882045,482.1847868032245 M358.35807563816337,488.6043700433139 L369.5475643777991,480.96166067954925 M380.6985733500817,474.56065675175404 L380.70086020363317,473.3377418819527 M369.54558699882045,482.1847868032245 L380.6985733500817,474.56065675175404 M369.5475643777991,480.96166067954925 L380.70086020363317,473.3377418819527 M391.8319205658442,466.9600446798334 L391.8345161360333,465.7373405583661 M380.6985733500817,474.56065675175404 L391.8319205658442,466.9600446798334 M380.70086020363317,473.3377418819527 L391.8345161360333,465.7373405583661 M402.9631531501095,459.3827002938619 L402.9660571675371,458.1602064207822 M391.8319205658442,466.9600446798334 L402.9631531501095,459.3827002938619 M391.8345161360333,465.7373405583661 L402.9660571675371,458.1602064207822 M414.1076027186381,451.823207939149 L414.1108153400804,450.60092396359767 M402.9631531501095,459.3827002938619 L414.1076027186381,451.823207939149 M402.9660571675371,458.1602064207822 L414.1108153400804,450.60092396359767 M425.2750467195092,444.2726416638812 L425.27856837222043,443.0505674820711 M414.1076027186381,451.823207939149 L425.2750467195092,444.2726416638812 M414.1108153400804,450.60092396359767 L425.27856837222043,443.0505674820711 M436.46618475790444,436.72123502397534 L436.47001588657895,435.49937080324975 M425.2750467195092,444.2726416638812 L436.46618475790444,436.72123502397534 M425.27856837222043,443.0505674820711 L436.47001588657895,435.49937080324975 M447.6716654361245,429.1601418495114 L447.6758062235551,427.93848800347604 M436.46618475790444,436.72123502397534 L447.6716654361245,429.1601418495114 M436.47001588657895,435.49937080324975 L447.6758062235551,427.93848800347604 M458.8744052947552,421.5826655114666 L458.87885544761684,420.3612226407967 M447.6716654361245,429.1601418495114 L458.8744052947552,421.5826655114666 M447.6758062235551,427.93848800347604 L458.87885544761684,420.3612226407967 M470.0529630572448,413.9844514846264 L470.05772168602095,412.7632203123031 M458.8744052947552,421.5826655114666 L470.0529630572448,413.9844514846264 M458.87885544761684,420.3612226407967 L470.05772168602095,412.7632203123031 M481.18517816389976,406.36325648225375 L481.19024376400876,405.14223779501833 M470.0529630572448,413.9844514846264 L481.18517816389976,406.36325648225375 M470.05772168602095,412.7632203123031 L481.19024376400876,405.14223779501833 M492.2515577982523,398.71853285349295 L492.2569283251287,397.4977274546983 M481.18517816389976,406.36325648225375 L492.2515577982523,398.71853285349295 M481.19024376400876,405.14223779501833 L492.2569283251287,397.4977274546983 M503.2377582851549,391.0510911543689 L503.2434312979856,389.8304998260924 M492.2515577982523,398.71853285349295 L503.2377582851549,391.0510911543689 M492.2569283251287,397.4977274546983 L503.2434312979856,389.8304998260924 M514.1373435850264,383.36334101202874 L514.1433164667958,382.142964470322 M503.2377582851549,391.0510911543689 L514.1373435850264,383.36334101202874 M503.2434312979856,389.8304998260924 L514.1433164667958,382.142964470322 M524.9519206729043,375.65892659458365 L524.9581908538112,374.43876545476115 M514.1373435850264,383.36334101202874 L524.9519206729043,375.65892659458365 M514.1433164667958,382.142964470322 L524.9581908538112,374.43876545476115 M535.691363555387,367.9428934275735 L535.6979287422023,366.72294816471066 M524.9519206729043,375.65892659458365 L535.691363555387,367.9428934275735 M524.9581908538112,374.43876545476115 L535.6979287422023,366.72294816471066 M546.3729768779453,360.22161632784605 L546.3798352598931,359.00188723915846 M535.691363555387,367.9428934275735 L546.3729768779453,360.22161632784605 M535.6979287422023,366.72294816471066 L546.3798352598931,359.00188723915846 M557.0197935163939,352.5024526815637 L557.026943923562,351.2829398583722 M546.3729768779453,360.22161632784605 L557.0197935163939,352.5024526815637 M546.3798352598931,359.00188723915846 L557.026943923562,351.2829398583722 M567.6556389181247,344.79298160443994 L567.6630808429496,343.57368492537836 M557.0197935163939,352.5024526815637 L567.6556389181247,344.79298160443994 M557.026943923562,351.2829398583722 L567.6630808429496,343.57368492537836 M578.3006637712512,337.0994641872023 L578.308397265975,335.8803833546185 M567.6556389181247,344.79298160443994 L578.3006637712512,337.0994641872023 M567.6630808429496,343.57368492537836 L578.308397265975,335.8803833546185 M588.9706145260823,329.4263939340955 L588.9786400799862,328.20752852320896 M578.3006637712512,337.0994641872023 L588.9706145260823,329.4263939340955 M578.308397265975,335.8803833546185 L588.9786400799862,328.20752852320896 M599.6765209177124,321.7765790361478 L599.684839325851,320.55792854206777 M588.9706145260823,329.4263939340955 L599.6765209177124,321.7765790361478 M588.9786400799862,328.20752852320896 L599.684839325851,320.55792854206777 M610.4247569030854,314.15118053818435 L610.4333691368374,312.9327444220199 M599.6765209177124,321.7765790361478 L610.4247569030854,314.15118053818435 M599.684839325851,320.55792854206777 L610.4333691368374,312.9327444220199 M621.2173005253898,306.5499182792392 L621.2262076103797,305.3316960085732 M610.4247569030854,314.15118053818435 L621.2173005253898,306.5499182792392 M610.4333691368374,312.9327444220199 L621.2262076103797,305.3316960085732 M632.0519876068876,298.9714001008417 L632.0611905081598,297.75339118107263 M621.2173005253898,306.5499182792392 L632.0519876068876,298.9714001008417 M621.2262076103797,305.3316960085732 L632.0611905081598,297.75339118107263 M642.9235726926789,291.413270441348 L642.933072229316,290.19547444295006 M632.0519876068876,298.9714001008417 L642.9235726926789,291.413270441348 M632.0611905081598,297.75339118107263 L642.933072229316,290.19547444295006 M653.8244134918812,283.8727279646478 L653.8342102708046,282.6551445359245 M642.9235726926789,291.413270441348 L653.8244134918812,283.8727279646478 M642.933072229316,290.19547444295006 L653.8342102708046,282.6551445359245 M664.7460345507849,276.34679438085743 L664.7561289438519,275.12942325315134 M653.8244134918812,283.8727279646478 L664.7460345507849,276.34679438085743 M653.8342102708046,282.6551445359245 L664.7561289438519,275.12942325315134 M675.680566814246,268.83284011175385 L675.6909589752833,267.615681089828 M664.7460345507849,276.34679438085743 L675.680566814246,268.83284011175385 M664.7561289438519,275.12942325315134 L675.6909589752833,267.615681089828 M673.4960611220957,291.6950457487425 L673.5064039271942,290.47724180981515 M675.680566814246,268.83284011175385 L673.4960611220957,291.6950457487425 M675.6909589752833,267.615681089828 L673.5064039271942,290.47724180981515 M663.5442420471829,298.4422028103031 L663.5543135055954,297.2242087939454 M673.4960611220957,291.6950457487425 L663.5442420471829,298.4422028103031 M673.5064039271942,290.47724180981515 L663.5543135055954,297.2242087939454 M653.6050785782415,305.1983448777992 L653.6148788736622,303.9801606460818 M663.5442420471829,298.4422028103031 L653.6050785782415,305.1983448777992 M663.5543135055954,297.2242087939454 L653.6148788736622,303.9801606460818 M643.6823688472291,311.964582805146 L643.6918982686668,310.74620818935244 M653.6050785782415,305.1983448777992 L643.6823688472291,311.964582805146 M653.6148788736622,303.9801606460818 L643.6918982686668,310.74620818935244 M633.7791679691974,318.742080872263 L633.7884268905559,317.5235156714644 M643.6823688472291,311.964582805146 L633.7791679691974,318.742080872263 M643.6918982686668,310.74620818935244 L633.7884268905559,317.5235156714644 M623.8975675932477,325.53189561601005 L623.9065564467178,324.31313960017286 M633.7791679691974,318.742080872263 L623.8975675932477,325.53189561601005 M633.7884268905559,317.5235156714644 L623.9065564467178,324.31313960017286 M614.0383172297102,332.3349801134163 L614.0470364686655,331.1160330263804 M623.8975675932477,325.53189561601005 L614.0383172297102,332.3349801134163 M623.9065564467178,324.31313960017286 L614.0470364686655,331.1160330263804 M604.200672324873,339.15207981813364 L604.2091223824773,337.9329413835056 M614.0383172297102,332.3349801134163 L604.200672324873,339.15207981813364 M614.0470364686655,331.1160330263804 L604.2091223824773,337.9329413835056 M594.3823633156509,345.98366033464896 L594.3905445625303,344.764330263702 M604.200672324873,339.15207981813364 L594.3823633156509,345.98366033464896 M604.2091223824773,337.9329413835056 L594.3905445625303,344.764330263702 M584.5795252703396,352.82988575291677 L584.5874379702539,351.610363753075 M594.3823633156509,345.98366033464896 L584.5795252703396,352.82988575291677 M594.3905445625303,344.764330263702 L584.5874379702539,351.610363753075 M574.7868035502391,359.6905321611199 L574.7944478185944,358.4708179468383 M584.5795252703396,352.82988575291677 L574.7868035502391,359.6905321611199 M584.5874379702539,351.610363753075 L574.7944478185944,358.4708179468383 M564.9975053413322,366.56500030999297 L565.0048811078492,365.3450936132497 M574.7868035502391,359.6905321611199 L564.9975053413322,366.56500030999297 M574.7944478185944,358.4708179468383 L565.0048811078492,365.3450936132497 M555.2036683105773,373.4524463837513 L555.2107752838685,372.2323469608487 M564.9975053413322,366.56500030999297 L555.2036683105773,373.4524463837513 M565.0048811078492,365.3450936132497 L555.2107752838685,372.2323469608487 M545.3972742962926,380.3521078406543 L545.4041119621053,379.1318154698898 M555.2036683105773,373.4524463837513 L545.3972742962926,380.3521078406543 M555.2107752838685,372.2323469608487 L545.4041119621053,379.1318154698898 M535.5719861068778,387.2630996914172 L535.5785537743769,386.0426141764521 M545.3972742962926,380.3521078406543 L535.5719861068778,387.2630996914172 M545.4041119621053,379.1318154698898 L535.5785537743769,386.0426141764521 M525.7239420259175,394.1842401586887 L525.7302388960122,392.9635613367741 M535.5719861068778,387.2630996914172 L525.7239420259175,394.1842401586887 M535.5785537743769,386.0426141764521 L525.7302388960122,392.9635613367741 M515.8521462114726,401.11395690386877 L515.8581714560634,399.89308465666204 M525.7239420259175,394.1842401586887 L515.8521462114726,401.11395690386877 M525.7302388960122,392.9635613367741 L515.8581714560634,399.89308465666204 M505.9585778733094,408.05017896492114 L505.9643307176847,406.8291132322809 M515.8521462114726,401.11395690386877 L505.9585778733094,408.05017896492114 M515.8581714560634,399.89308465666204 L505.9643307176847,406.8291132322809 M496.0476632266515,414.99013998414404 L496.05314301735166,413.7688807833657 M505.9585778733094,408.05017896492114 L496.0476632266515,414.99013998414404 M505.9643307176847,406.8291132322809 L496.05314301735166,413.7688807833657 M486.1265669106848,421.9308085005704 L486.13177319170404,420.7093559335753 M496.0476632266515,414.99013998414404 L486.1265669106848,421.9308085005704 M496.05314301735166,413.7688807833657 L486.13177319170404,420.7093559335753 M476.2032801198101,428.86879638295846 L476.2082126558581,427.64715064600904 M486.1265669106848,421.9308085005704 L476.2032801198101,428.86879638295846 M486.13177319170404,420.7093559335753 L476.2082126558581,427.64715064600904 M466.28563037707136,435.8009281200548 L466.2902891495245,434.57908949760287 M476.2032801198101,428.86879638295846 L466.28563037707136,435.8009281200548 M476.2082126558581,427.64715064600904 L466.2902891495245,434.57908949760287 M456.37976370746674,442.72489148502495 L456.3841488682789,441.50286032549167 M466.28563037707136,435.8009281200548 L456.37976370746674,442.72489148502495 M466.2902891495245,434.57908949760287 L456.3841488682789,441.50286032549167 M446.48866713780444,449.63997224723596 L446.4927789223856,448.41774891845597 M456.37976370746674,442.72489148502495 L446.48866713780444,449.63997224723596 M456.3841488682789,441.50286032549167 L446.4927789223856,448.41774891845597 M436.61106863906946,456.5475513868973 L436.6149072484444,455.3251362178988 M446.48866713780444,449.63997224723596 L436.61106863906946,456.5475513868973 M446.4927789223856,448.41774891845597 L436.6149072484444,455.3251362178988 M426.7409338344934,463.4512843912773 L426.7444993031846,462.2286776092699 M436.61106863906946,456.5475513868973 L426.7409338344934,463.4512843912773 M436.6149072484444,455.3251362178988 L426.7444993031846,462.2286776092699 M416.86820640426106,470.35658756050583 L416.87149848833246,469.1337892423102 M426.7409338344934,463.4512843912773 L416.86820640426106,470.35658756050583 M426.7444993031846,462.2286776092699 L416.87149848833246,469.1337892423102 M406.98113627181397,477.2693535184378 L406.9841544012064,476.04636357766395 M416.86820640426106,470.35658756050583 L406.98113627181397,477.2693535184378 M416.87149848833246,469.1337892423102 L406.9841544012064,476.04636357766395 M397.0677919118069,484.1935920810656 L397.07053518435066,482.9704103206669 M406.98113627181397,477.2693535184378 L397.0677919118069,484.1935920810656 M406.9841544012064,476.04636357766395 L397.07053518435066,482.9704103206669 M387.11782160805285,491.130593103697 L387.12028883251,489.9072192915303 M397.0677919118069,484.1935920810656 L387.11782160805285,491.130593103697 M397.07053518435066,482.9704103206669 L387.12028883251,489.9072192915303 M377.1236464734629,498.07886934034013 L377.12583624601433,496.85530328606853 M387.11782160805285,491.130593103697 L377.1236464734629,498.07886934034013 M387.12028883251,489.9072192915303 L377.12583624601433,496.85530328606853 M367.0808001571769,505.0345295635507 L367.0827109476971,503.8107711849889 M377.1236464734629,498.07886934034013 L367.0808001571769,505.0345295635507 M377.12583624601433,496.85530328606853 L367.0827109476971,503.8107711849889 M356.9877244413926,511.99194964662325 L356.9893546743701,510.7679990173345 M367.0808001571769,505.0345295635507 L356.9877244413926,511.99194964662325 M367.0827109476971,503.8107711849889 L356.9893546743701,510.7679990173345 M346.8453251829657,518.9446590883379 L346.84667330634494,517.7205164606036 M356.9877244413926,511.99194964662325 L346.8453251829657,518.9446590883379 M356.9893546743701,510.7679990173345 L346.84667330634494,517.7205164606036 M336.6564075040258,525.8862332822788 L336.6574720425141,524.6618990853779 M346.8453251829657,518.9446590883379 L336.6564075040258,525.8862332822788 M346.84667330634494,517.7205164606036 L336.6574720425141,524.6618990853779 M326.42513474190156,532.8111545569393 L326.4259143353045,531.5866293716934 M336.6564075040258,525.8862332822788 L326.42513474190156,532.8111545569393 M336.6574720425141,524.6618990853779 L326.4259143353045,531.5866293716934 M316.1566865292559,539.7155307690423 L316.1571799612956,538.4908152826426 M326.42513474190156,532.8111545569393 L316.1566865292559,539.7155307690423 M326.4259143353045,531.5866293716934 L316.1571799612956,538.4908152826426 M305.85616371993444,546.597235716033 L305.85636991645606,545.3723306731434 M316.1566865292559,539.7155307690423 L305.85616371993444,546.597235716033 M316.1571799612956,538.4908152826426 L305.85636991645606,545.3723306731434 M295.53118827570813,553.4575760254484 L295.53110637532274,552.232482133594 M305.85616371993444,546.597235716033 L295.53118827570813,553.4575760254484 M305.85636991645606,545.3723306731434 L295.53110637532274,552.232482133594 M285.1895136478598,560.3002563961752 L285.18914300577563,559.0749742598853 M295.53118827570813,553.4575760254484 L285.1895136478598,560.3002563961752 M295.53110637532274,552.232482133594 L285.18914300577563,559.0749742598853 M274.83989167355537,567.13169089999 L274.839231889455,565.9062209465908 M285.1895136478598,560.3002563961752 L274.83989167355537,567.13169089999 M285.18914300577563,559.0749742598853 L274.839231889455,565.9062209465908 M264.49131451282886,573.9596769248942 L264.4903654374917,572.7340193669577 M274.83989167355537,567.13169089999 L264.49131451282886,573.9596769248942 M274.839231889455,565.9062209465908 L264.4903654374917,572.7340193669577 M254.15179798188166,580.7910404112276 L254.15055968985826,579.5651952737755 M264.49131451282886,573.9596769248942 L254.15179798188166,580.7910404112276 M264.4903654374917,572.7340193669577 L254.15055968985826,579.5651952737755 M243.8304257948078,587.6333700681723 L243.82889861413776,586.4073371682225 M254.15179798188166,580.7910404112276 L243.8304257948078,587.6333700681723 M254.15055968985826,579.5651952737755 L243.82889861413776,586.4073371682225 M233.53624598128914,594.4943678634002 L233.53443049241343,593.2681468073868 M243.8304257948078,587.6333700681723 L233.53624598128914,594.4943678634002 M243.82889861413776,586.4073371682225 L233.53443049241343,593.2681468073868 M223.27690845872542,601.3807528415894 L223.27480545539095,600.1543430528291 M233.53624598128914,594.4943678634002 L223.27690845872542,601.3807528415894 M233.53443049241343,593.2681468073868 L223.27480545539095,600.1543430528291 M213.057667607548,608.2975629084767 L213.05527802988968,607.0709636736694 M223.27690845872542,601.3807528415894 L213.057667607548,608.2975629084767 M223.27480545539095,600.1543430528291 L213.05527802988968,607.0709636736694 M202.88086386575986,615.2476953585272 L202.87818871893785,614.0209058866894 M213.057667607548,608.2975629084767 L202.88086386575986,615.2476953585272 M213.05527802988968,607.0709636736694 L202.87818871893785,614.0209058866894 M192.74564827705865,622.2317392339341 L192.74268854221975,621.0047587197294 M202.88086386575986,615.2476953585272 L192.74564827705865,622.2317392339341 M202.87818871893785,614.0209058866894 L192.74268854221975,621.0047587197294 M182.64834873240875,629.248048642836 L182.64510528790203,628.0208763277001 M192.74564827705865,622.2317392339341 L182.64834873240875,629.248048642836 M192.74268854221975,621.0047587197294 L182.64510528790203,628.0208763277001 M182.64834873240875,629.248048642836 L122.86327737127391,638.5645824152105 M182.64510528790203,628.0208763277001 L122.85835759095983,637.3371556113261" stroke="black"  stroke-width="4"  fill="red"/>
<path d="M102.0225773944228,588.3664789038623 L102.01708618070722,587.1404258934572 M107.58682294210314,579.6377099117187 L107.58148937069313,578.4118964348118 M102.0225773944228,588.3664789038623 L107.58682294210314,579.6377099117187 M102.01708618070722,587.1404258934572 L107.58148937069313,578.4118964348118 M113.19777209545668,570.9319076255406 L113.19259734280683,569.70633324353 M107.58682294210314,579.6377099117187 L113.19777209545668,570.9319076255406 M107.58148937069313,578.4118964348118 L113.19259734280683,569.70633324353 M118.85140485898404,562.2482782522616 L118.84638998843775,561.0229425468583 M113.19777209545668,570.9319076255406 L118.85140485898404,562.2482782522616 M113.19259734280683,569.70633324353 L118.84638998843775,561.0229425468583 M124.54455299405299,553.5855212025856 L124.53969897988685,552.3604237898317 M118.85140485898404,562.2482782522616 L124.54455299405299,553.5855212025856 M118.84638998843775,561.0229425468583 L124.53969897988685,552.3604237898317 M130.27343848212297,544.9415102568538 L130.26874619281784,543.716650809979 M124.54455299405299,553.5855212025856 L130.27343848212297,544.9415102568538 M124.53969897988685,552.3604237898317 L130.26874619281784,543.716650809979 M136.03348154647404,536.3132982450247 L136.02895172263368,535.0886765172618 M130.27343848212297,544.9415102568538 L136.03348154647404,536.3132982450247 M130.26874619281784,543.716650809979 L136.02895172263368,535.0886765172618 M141.8196262643528,527.6974037122513 L141.815259505654,526.4730195518326 M136.03348154647404,536.3132982450247 L141.8196262643528,527.6974037122513 M136.02895172263368,535.0886765172618 L141.815259505654,526.4730195518326 M147.6272872391879,519.0901843622833 L147.62308401764386,517.8660377171857 M141.8196262643528,527.6974037122513 L147.6272872391879,519.0901843622833 M141.815259505654,526.4730195518326 L147.62308401764386,517.8660377171857 M153.45361215806827,510.4884121063454 L153.44957286632194,509.26450301316424 M147.6272872391879,519.0901843622833 L153.45361215806827,510.4884121063454 M147.62308401764386,517.8660377171857 L153.44957286632194,509.26450301316424 M159.29889097013927,501.8898189394368 L159.29501600881736,500.6661474971206 M153.45361215806827,510.4884121063454 L159.29889097013927,501.8898189394368 M153.44957286632194,509.26450301316424 L159.29501600881736,500.6661474971206 M165.16415712567846,493.29198535940463 L165.16044692403216,492.06855173364494 M159.29889097013927,501.8898189394368 L165.16415712567846,493.29198535940463 M159.29501600881736,500.6661474971206 L165.16044692403216,492.06855173364494 M171.0524523390244,484.69345118163994 L171.04890741053333,483.4702555785149 M165.16415712567846,493.29198535940463 L171.0524523390244,484.69345118163994 M165.16044692403216,492.06855173364494 L171.04890741053333,483.4702555785149 M176.97295925089344,476.09593166839903 L176.9695803633906,474.8729742464951 M171.0524523390244,484.69345118163994 L176.97295925089344,476.09593166839903 M171.04890741053333,483.4702555785149 L176.9695803633906,474.8729742464951 M182.95519510241093,467.507833128325 L182.951983842073,466.28511381300507 M176.97295925089344,476.09593166839903 L182.95519510241093,467.507833128325 M176.9695803633906,474.8729742464951 L182.951983842073,466.28511381300507 M189.00821624410753,458.9349331537473 L189.0051744461918,457.7124517093885 M182.95519510241093,467.507833128325 L189.00821624410753,458.9349331537473 M182.951983842073,466.28511381300507 L189.0051744461918,457.7124517093885 M195.16422399414932,450.3902799475036 L195.16135438477954,449.16803577502657 M189.00821624410753,458.9349331537473 L195.16422399414932,450.3902799475036 M189.0051744461918,457.7124517093885 L195.16135438477954,449.16803577502657 M201.46259829424042,441.8903497977306 L201.4599046883584,440.66834183817457 M195.16422399414932,450.3902799475036 L201.46259829424042,441.8903497977306 M195.16135438477954,449.16803577502657 L201.4599046883584,440.66834183817457 M207.9486139004075,433.45437083681344 L207.94610136395676,432.23259749337166 M201.46259829424042,441.8903497977306 L207.9486139004075,433.45437083681344 M201.4599046883584,440.66834183817457 L207.94610136395676,432.23259749337166 M214.67350937757465,425.10397830607195 L214.67118439150187,423.8824373754575 M207.9486139004075,433.45437083681344 L214.67350937757465,425.10397830607195 M207.94610136395676,432.23259749337166 L214.67118439150187,423.8824373754575 M221.68487533563564,416.86015680363886 L221.6827456934788,415.63884549243693 M214.67350937757465,425.10397830607195 L221.68487533563564,416.86015680363886 M214.67118439150187,423.8824373754575 L221.6827456934788,415.63884549243693 M229.03164732455264,408.7439391743221 L229.02972216869438,407.5228540959726 M221.68487533563564,416.86015680363886 L229.03164732455264,408.7439391743221 M221.6827456934788,415.63884549243693 L229.02972216869438,407.5228540959726 M236.7569431725908,400.7738891840051 L236.75523283227295,399.55302642608814 M229.03164732455264,408.7439391743221 L236.7569431725908,400.7738891840051 M229.02972216869438,407.5228540959726 L236.75523283227295,399.55302642608814 M244.89341038502874,392.9640988157496 L244.89192608593504,391.74345406351085 M236.7569431725908,400.7738891840051 L244.89341038502874,392.9640988157496 M236.75523283227295,399.55302642608814 L244.89192608593504,391.74345406351085 M253.4576904611398,385.32188003087225 L253.45644388223002,384.10144875575327 M244.89341038502874,392.9640988157496 L253.4576904611398,385.32188003087225 M244.89192608593504,391.74345406351085 L253.45644388223002,384.10144875575327 M262.4444016445305,377.8453554007247 L262.4434043088944,376.6251331169627 M253.4576904611398,385.32188003087225 L262.4444016445305,377.8453554007247 M253.45644388223002,384.10144875575327 L262.4434043088944,376.6251331169627 M271.824209307166,370.52331532012164 L271.8234719200192,369.30329784622364 M262.4444016445305,377.8453554007247 L271.824209307166,370.52331532012164 M262.4434043088944,376.6251331169627 L271.8234719200192,369.30329784622364 M281.54859158024266,363.33753104736826 L281.54812349922116,362.1177147036597 M271.824209307166,370.52331532012164 L281.54859158024266,363.33753104736826 M271.8234719200192,369.30329784622364 L281.54812349922116,362.1177147036597 M291.55936353957816,356.26668089122654 L291.55917250874,355.04706258798325 M281.54859158024266,363.33753104736826 L291.55936353957816,356.26668089122654 M281.54812349922116,362.1177147036597 L291.55917250874,355.04706258798325 M301.78931490866074,349.2861686751055 L301.7894068101944,348.0667460059889 M291.55936353957816,356.26668089122654 L301.78931490866074,349.2861686751055 M291.55917250874,355.04706258798325 L301.7894068101944,348.0667460059889 M312.1726846559738,342.37237502530286 L312.17306355155785,341.1531462417678 M301.78931490866074,349.2861686751055 L312.1726846559738,342.37237502530286 M301.7894068101944,348.0667460059889 L312.17306355155785,341.1531462417678 M322.6548655620379,335.50691595630843 L322.65553400238355,334.28787982234127 M312.1726846559738,342.37237502530286 L322.6548655620379,335.50691595630843 M312.17306355155785,341.1531462417678 L322.65553400238355,334.28787982234127 M333.1781655763772,328.6689089305658 L333.1791245168698,327.4500647941588 M322.6548655620379,335.50691595630843 L333.1781655763772,328.6689089305658 M322.65553400238355,334.28787982234127 L333.1791245168698,327.4500647941588 M343.70091517631283,321.84405814456284 L343.70216442077697,320.625405754053 M333.1781655763772,328.6689089305658 L343.70091517631283,321.84405814456284 M333.1791245168698,327.4500647941588 L343.70216442077697,320.625405754053 M354.19394491404853,315.0225475677094 L354.19548346084514,313.8040869467913 M343.70091517631283,321.84405814456284 L354.19394491404853,315.0225475677094 M343.70216442077697,320.625405754053 L354.19548346084514,313.8040869467913 M364.64109835996265,308.19911439633876 L364.64292476200524,306.9808457166204 M354.19394491404853,315.0225475677094 L364.64109835996265,308.19911439633876 M354.19548346084514,313.8040869467913 L364.64292476200524,306.9808457166204 M375.03861228960847,301.3727773157962 L375.04072499699515,300.1547007766147 M364.64109835996265,308.19911439633876 L375.03861228960847,301.3727773157962 M364.64292476200524,306.9808457166204 L375.04072499699515,300.1547007766147 M385.3936775097129,294.5461152802168 L385.3960751723323,293.3282310084027 M375.03861228960847,301.3727773157962 L385.3936775097129,294.5461152802168 M375.04072499699515,300.1547007766147 L385.3960751723323,293.3282310084027 M395.72182079733767,287.72430548304436 L395.7245024949277,286.5066134595004 M385.3936775097129,294.5461152802168 L395.72182079733767,287.72430548304436 M385.3960751723323,293.3282310084027 L395.7245024949277,286.5066134595004 M406.04203400503764,280.91350841904404 L406.04499934256836,279.696008450651 M395.72182079733767,287.72430548304436 L406.04203400503764,280.91350841904404 M395.7245024949277,286.5066134595004 L406.04499934256836,279.696008450651 M416.37017387401795,274.1185983312024 L416.3734228947744,272.90129008670044 M406.04203400503764,280.91350841904404 L416.37017387401795,274.1185983312024 M406.04499934256836,279.696008450651 L416.3734228947744,272.90129008670044 M426.7175747351656,267.3425207318711 L426.72110779556397,266.12540379599704 M416.37017387401795,274.1185983312024 L426.7175747351656,267.3425207318711 M416.3734228947744,272.90129008670044 L426.72110779556397,266.12540379599704 M437.0908663985672,260.58621136012334 L437.09468403801134,259.3692852902044 M426.7175747351656,267.3425207318711 L437.0908663985672,260.58621136012334 M426.72110779556397,266.12540379599704 L437.09468403801134,259.3692852902044 M447.492113970899,253.84877186656232 L447.49621678559174,252.63203624431543 M437.0908663985672,260.58621136012334 L447.492113970899,253.84877186656232 M437.09468403801134,259.3692852902044 L447.49621678559174,252.63203624431543 M457.9193502998338,247.12770431115393 L457.92373883136486,245.9111587880057 M447.492113970899,253.84877186656232 L457.9193502998338,247.12770431115393 M447.49621678559174,252.63203624431543 L457.92373883136486,245.9111587880057 M468.36752636151107,240.41945579326813 L468.3722010117747,239.20310012039246 M457.9193502998338,247.12770431115393 L468.36752636151107,240.41945579326813 M457.92373883136486,245.9111587880057 L468.3722010117747,239.20310012039246 M478.82987082453076,233.72015761797064 L478.83483180826727,232.50399165547626 M468.36752636151107,240.41945579326813 L478.82987082453076,233.72015761797064 M468.3722010117747,239.20310012039246 L478.83483180826727,232.50399165547626 M489.29998702628393,227.02663583894858 L489.3052343815756,225.8106595364498 M478.82987082453076,233.72015761797064 L489.29998702628393,227.02663583894858 M478.83483180826727,232.50399165547626 L489.3052343815756,225.8106595364498 M499.7745034790113,220.33775136835314 L499.7800371510057,219.12196470747614 M489.29998702628393,227.02663583894858 L499.7745034790113,220.33775136835314 M489.3052343815756,225.8106595364498 L499.7800371510057,219.12196470747614 M510.2568621204056,213.65618229735966 L510.2626821496232,212.4405851834996 M499.7745034790113,220.33775136835314 L510.2568621204056,213.65618229735966 M499.7800371510057,219.12196470747614 L510.2626821496232,212.4405851834996 M508.6042770315821,217.90161217743776 L508.61005277419906,216.68589461345385 M510.2568621204056,213.65618229735966 L508.6042770315821,217.90161217743776 M510.2626821496232,212.4405851834996 L508.61005277419906,216.68589461345385 M503.8813063279772,226.172214971344 L503.8869544030879,224.95626288688294 M508.6042770315821,217.90161217743776 L503.8813063279772,226.172214971344 M508.61005277419906,216.68589461345385 L503.8869544030879,224.95626288688294 M497.86686764911303,234.17452350194108 L497.8723523670245,232.95834466915414 M503.8813063279772,226.172214971344 L497.86686764911303,234.17452350194108 M503.8869544030879,224.95626288688294 L497.8723523670245,232.95834466915414 M491.05647008614415,241.97413723628264 L491.0617693743675,240.75773755422045 M497.86686764911303,234.17452350194108 L491.05647008614415,241.97413723628264 M497.8723523670245,232.95834466915414 L491.0617693743675,240.75773755422045 M483.74949749582015,249.6327755995718 L483.75459751867584,248.416159209494 M491.05647008614415,241.97413723628264 L483.74949749582015,249.6327755995718 M491.0617693743675,240.75773755422045 L483.75459751867584,248.416159209494 M476.1249974864812,257.19746096948757 L476.12988933840325,255.98063067528386 M483.74949749582015,249.6327755995718 L476.1249974864812,257.19746096948757 M483.75459751867584,248.416159209494 L476.12988933840325,255.98063067528386 M468.2936635228932,264.70119921095886 L468.2983413479992,263.48415687877844 M476.1249974864812,257.19746096948757 L468.2936635228932,264.70119921095886 M476.12988933840325,255.98063067528386 L468.2983413479992,263.48415687877844 M460.3281902467703,272.1656254400665 L460.3326501925493,270.9483723218479 M468.2936635228932,264.70119921095886 L460.3281902467703,272.1656254400665 M468.2983413479992,263.48415687877844 L460.3326501925493,270.9483723218479 M452.2764452822162,279.60656839654655 L452.28068481601395,278.3891052954684 M460.3281902467703,272.1656254400665 L452.2764452822162,279.60656839654655 M460.3326501925493,270.9483723218479 L452.28068481601395,278.3891052954684 M444.17092858058754,287.0356054980532 L444.17494606627565,285.81793288958204 M452.2764452822162,279.60656839654655 L444.17092858058754,287.0356054980532 M452.28068481601395,278.3891052954684 L444.17494606627565,285.81793288958204 M436.0346749325014,294.4607007475553 L436.038469369534,293.2428188821174 M444.17092858058754,287.0356054980532 L436.0346749325014,294.4607007475553 M444.17494606627565,285.81793288958204 L436.038469369534,293.2428188821174 M427.8838273367128,301.8875952095783 L427.8873981701481,300.669504175743 M436.0346749325014,294.4607007475553 L427.8838273367128,301.8875952095783 M436.038469369534,293.2428188821174 L427.8873981701481,300.669504175743 M419.7296543762742,309.3203517323611 L419.73300136234843,308.1020515044883 M427.8838273367128,301.8875952095783 L419.7296543762742,309.3203517323611 M427.8873981701481,300.669504175743 L419.73300136234843,308.1020515044883 M411.5797389007911,316.76171999912964 L411.582862005223,315.5432104745977 M419.7296543762742,309.3203517323611 L411.5797389007911,316.76171999912964 M419.73300136234843,308.1020515044883 L411.582862005223,315.5432104745977 M403.4381470649107,324.2131758388031 L403.4410463657743,322.9944568740079 M411.5797389007911,316.76171999912964 L403.4381470649107,324.2131758388031 M411.582862005223,315.5432104745977 L403.4410463657743,322.9944568740079 M395.3061165028368,331.6751474984943 L395.308792112377,330.4562189383766 M403.4381470649107,324.2131758388031 L395.3061165028368,331.6751474984943 M403.4410463657743,322.9944568740079 L395.308792112377,330.4562189383766 M387.18277394513586,339.14735130344485 L387.18522595137625,337.9282130014997 M395.3061165028368,331.6751474984943 L387.18277394513586,339.14735130344485 M395.308792112377,330.4562189383766 L387.18522595137625,337.9282130014997 M379.06596561838467,346.6290086070575 L379.06819404965347,345.4096604391935 M387.18277394513586,339.14735130344485 L379.06596561838467,346.6290086070575 M387.18522595137625,337.9282130014997 L379.06819404965347,345.4096604391935 M370.9527471366243,354.1190613189031 L370.9547519396129,352.899503191215 M379.06596561838467,346.6290086070575 L370.9527471366243,354.1190613189031 M379.06819404965347,345.4096604391935 L370.9547519396129,352.899503191215 M362.8452642144226,361.61828222128156 L362.84704539509465,360.3985140186997 M370.9527471366243,354.1190613189031 L362.8452642144226,361.61828222128156 M370.9547519396129,352.899503191215 L362.84704539509465,360.3985140186997 M354.73343176965795,369.12307266472493 L354.7349890544841,367.903094373407 M362.8452642144226,361.61828222128156 L354.73343176965795,369.12307266472493 M362.84704539509465,360.3985140186997 L354.7349890544841,367.903094373407 M346.61565805827695,376.63286917402667 L346.6169911293303,375.4126807962049 M354.73343176965795,369.12307266472493 L346.61565805827695,376.63286917402667 M354.7349890544841,367.903094373407 L346.6169911293303,375.4126807962049 M338.487159645166,384.1459666506199 L338.48826805163156,382.9255682364628 M346.61565805827695,376.63286917402667 L338.487159645166,384.1459666506199 M346.6169911293303,375.4126807962049 L338.48826805163156,382.9255682364628 M330.34615071955335,391.6617196440919 L330.3470339607078,390.44111126198175 M338.487159645166,384.1459666506199 L330.34615071955335,391.6617196440919 M338.48826805163156,382.9255682364628 L330.3470339607078,390.44111126198175 M322.1914505047064,399.1797094893191 L322.1921080466513,397.958891219474 M330.34615071955335,391.6617196440919 L322.1914505047064,399.1797094893191 M330.3470339607078,390.44111126198175 L322.1921080466513,397.958891219474 M314.0224213853632,406.6997044520255 L314.0228526760596,405.47867638125354 M322.1914505047064,399.1797094893191 L314.0224213853632,406.6997044520255 M322.1921080466513,397.958891219474 L314.0228526760596,405.47867638125354 M305.8388545921444,414.2216220324545 L305.83905907329216,413.00038424997757 M314.0224213853632,406.6997044520255 L305.8388545921444,414.2216220324545 M314.0228526760596,405.47867638125354 L305.83905907329216,413.00038424997757 M297.6398012499214,421.745120248471 L297.6397783364227,420.5236728531452 M305.8388545921444,414.2216220324545 L297.6398012499214,421.745120248471 M305.83905907329216,413.00038424997757 L297.6397783364227,420.5236728531452 M289.42417961970875,429.2697997569529 L289.42392869595903,428.04814285883924 M297.6398012499214,421.745120248471 L289.42417961970875,429.2697997569529 M297.6397783364227,420.5236728531452 L289.42392869595903,428.04814285883924 M281.1911531726966,436.79534859933835 L281.1906735993656,435.57348231724177 M289.42417961970875,429.2697997569529 L281.1911531726966,436.79534859933835 M289.42392869595903,428.04814285883924 L281.1906735993656,435.57348231724177 M272.940046111993,444.3215145438739 L272.9393372304674,443.0994390036597 M281.1911531726966,436.79534859933835 L272.940046111993,444.3215145438739 M281.1906735993656,435.57348231724177 L272.9393372304674,443.0994390036597 M264.67026484482733,451.84807381619845 L264.66932597947806,450.6257891499825 M272.940046111993,444.3215145438739 L264.67026484482733,451.84807381619845 M272.9393372304674,443.0994390036597 L264.66932597947806,450.6257891499825 M256.38142018452555,459.3748726115748 L256.38025064837154,458.1523789557646 M264.67026484482733,451.84807381619845 L256.38142018452555,459.3748726115748 M264.66932597947806,450.6257891499825 L256.38025064837154,458.1523789557646 M248.0732861986956,466.9018069067991 L248.0718852979303,465.6791044007011 M256.38142018452555,459.3748726115748 L248.0732861986956,466.9018069067991 M256.38025064837154,458.1523789557646 L248.0718852979303,465.6791044007011 M239.74856056590124,474.42981674045745 L239.7469276811147,473.2069054973291 M248.0732861986956,466.9018069067991 L239.74856056590124,474.42981674045745 M248.0718852979303,465.6791044007011 L239.7469276811147,473.2069054973291 M231.40552783376887,481.9583037414064 L231.4036622973731,480.7351838911415 M239.74856056590124,474.42981674045745 L231.40552783376887,481.9583037414064 M239.7469276811147,473.2069054973291 L231.4036622973731,480.7351838911415 M223.0441113592699,489.487255126594 L223.04201250100783,488.2639267994671 M231.40552783376887,481.9583037414064 L223.0441113592699,489.487255126594 M231.4036622973731,480.7351838911415 L223.04201250100783,488.2639267994671 M214.66384628270686,497.01647993824383 L214.66151341886194,495.7929432698383 M223.0441113592699,489.487255126594 L214.66384628270686,497.01647993824383 M223.04201250100783,488.2639267994671 L214.66151341886194,495.7929432698383 M206.27653166563107,504.55032836883214 L206.2739644400068,503.32658337449675 M214.66384628270686,497.01647993824383 L206.27653166563107,504.55032836883214 M214.66151341886194,495.7929432698383 L206.2739644400068,503.32658337449675 M197.8681919991065,512.0836290083572 L197.86538966650113,510.8596758465569 M206.27653166563107,504.55032836883214 L197.8681919991065,512.0836290083572 M206.2739644400068,503.32658337449675 L197.86538966650113,510.8596758465569 M189.43372045732872,519.6144248899116 L189.43068212991864,518.390263773101 M197.8681919991065,512.0836290083572 L189.43372045732872,519.6144248899116 M197.86538966650113,510.8596758465569 L189.43068212991864,518.390263773101 M180.96408610102435,527.1392572383415 L180.9608106390881,525.9148884742442 M189.43372045732872,519.6144248899116 L180.96408610102435,527.1392572383415 M189.43068212991864,518.390263773101 L180.9608106390881,525.9148884742442 M172.4451189859427,534.65193758223 L172.4416048547984,533.4273616488235 M180.96408610102435,527.1392572383415 L172.4451189859427,534.65193758223 M180.9608106390881,525.9148884742442 L172.4416048547984,533.4273616488235 M163.8538910320047,542.1442656408368 L163.85013605777743,540.9194832413051 M172.4451189859427,534.65193758223 L163.8538910320047,542.1442656408368 M172.4416048547984,533.4273616488235 L163.85013605777743,540.9194832413051 M155.15684617895982,549.6028718828574 L155.15284725244834,548.3778840872744 M163.8538910320047,542.1442656408368 L155.15684617895982,549.6028718828574 M163.85013605777743,540.9194832413051 L155.15284725244834,548.3778840872744 M146.30521515627007,557.0070062980622 L146.300967809054,555.7818147454293 M155.15684617895982,549.6028718828574 L146.30521515627007,557.0070062980622 M155.15284725244834,548.3778840872744 L146.300967809054,555.7818147454293 M137.23049555721923,564.3246079765447 L137.2259934121119,563.0992151842099 M146.30521515627007,557.0070062980622 L137.23049555721923,564.3246079765447 M146.300967809054,555.7818147454293 L137.2259934121119,563.0992151842099 M127.8361673591528,571.5095060240433 L127.831401349712,570.2839157730257 M137.23049555721923,564.3246079765447 L127.8361673591528,571.5095060240433 M137.2259934121119,563.0992151842099 L127.831401349712,570.2839157730257 M117.99049935980781,578.4954971232344 L117.98545675002487,577.269715004986 M127.8361673591528,571.5095060240433 L117.99049935980781,578.4954971232344 M127.831401349712,570.2839157730257 L117.98545675002487,577.269715004986 M107.53621334067611,585.1795962346205 L107.53087701902894,583.9536306558452 M117.99049935980781,578.4954971232344 L107.53621334067611,585.1795962346205 M117.98545675002487,577.269715004986 L107.53087701902894,583.9536306558452 M107.53621334067611,585.1795962346205 L102.0225773944228,588.3664789038623 M107.53087701902894,583.9536306558452 L102.01708618070722,587.1404258934572" stroke="black"  stroke-width="4"  fill="red"/>
<path d="M697.9719183679407,247.36439033035052 L697.9829138192928,246.14783811082205 M686.3204830882514,254.48460598489106 L686.3311613488783,253.26785238457828 M697.9719183679407,247.36439033035052 L686.3204830882514,254.48460598489106 M697.9829138192928,246.14783811082205 L686.3311613488783,253.26785238457828 M674.6601950449729,261.60499757077145 L674.6705556616358,260.3880427127291 M686.3204830882514,254.48460598489106 L674.6601950449729,261.60499757077145 M686.3311613488783,253.26785238457828 L674.6705556616358,260.3880427127291 M662.9906313114307,268.7243043689133 L663.0006738184131,267.507148411806 M674.6601950449729,261.60499757077145 L662.9906313114307,268.7243043689133 M674.6705556616358,260.3880427127291 L663.0006738184131,267.507148411806 M651.3119853774447,275.8417201047089 L651.3217093138002,274.624363229896 M662.9906313114307,268.7243043689133 L651.3119853774447,275.8417201047089 M663.0006738184131,267.507148411806 L651.3217093138002,274.624363229896 M639.6255217113803,282.95766241305995 L639.63492665104,281.74010479002044 M651.3119853774447,275.8417201047089 L639.6255217113803,282.95766241305995 M651.3217093138002,274.624363229896 L639.63492665104,281.74010479002044 M627.9340390055238,290.07429604197773 L627.9431246003517,288.8565377790999 M639.6255217113803,282.95766241305995 L627.9340390055238,290.07429604197773 M639.63492665104,281.74010479002044 L627.9431246003517,288.8565377790999 M616.2420625975427,297.1956856726856 L616.2508286257018,295.97772676390855 M627.9340390055238,290.07429604197773 L616.2420625975427,297.1956856726856 M627.9431246003517,288.8565377790999 L616.2508286257018,295.97772676390855 M604.5558937002261,304.32761232808775 L604.5643401157689,303.1094526048824 M616.2420625975427,297.1956856726856 L604.5558937002261,304.32761232808775 M616.2508286257018,295.97772676390855 L604.5643401157689,303.1094526048824 M592.8831142290799,311.4772797403661 L592.8912411977153,310.2589188321312 M604.5558937002261,304.32761232808775 L592.8831142290799,311.4772797403661 M604.5643401157689,303.1094526048824 L592.8912411977153,310.2589188321312 M581.2321630150166,318.6526395514964 L581.2399709378891,317.43407686505566 M592.8831142290799,311.4772797403661 L581.2321630150166,318.6526395514964 M592.8912411977153,310.2589188321312 L581.2399709378891,317.43407686505566 M569.6115443674845,325.86157677984767 L569.6190338828011,324.64281150190175 M581.2321630150166,318.6526395514964 L569.6115443674845,325.86157677984767 M581.2399709378891,317.43407686505566 L569.6190338828011,324.64281150190175 M558.0294144088732,333.11152689306704 L558.0365863819887,331.8925580033968 M569.6115443674845,325.86157677984767 L558.0294144088732,333.11152689306704 M569.6190338828011,324.64281150190175 L558.0365863819887,331.8925580033968 M546.4943387907088,340.41049350112763 L546.5011943254977,339.1913197572089 M558.0294144088732,333.11152689306704 L546.4943387907088,340.41049350112763 M558.0365863819887,331.8925580033968 L546.5011943254977,339.1913197572089 M535.0133100290836,347.763806776415 L535.0198504235108,346.54442678898465 M546.4943387907088,340.41049350112763 L535.0133100290836,347.763806776415 M546.5011943254977,339.1913197572089 L535.0198504235108,346.54442678898465 M523.5917037558027,355.1731128687753 L523.5979304561255,353.9535252054731 M535.0133100290836,347.763806776415 L523.5917037558027,355.1731128687753 M535.0198504235108,346.54442678898465 L523.5979304561255,353.9535252054731 M512.2307274955328,362.63506416726386 L512.2366419797606,361.4152674926085 M523.5917037558027,355.1731128687753 L512.2307274955328,362.63506416726386 M523.5979304561255,353.9535252054731 L512.2366419797606,361.4152674926085 M500.9301855424111,370.1429546182067 L500.9357892808698,368.92294778734095 M512.2307274955328,362.63506416726386 L500.9301855424111,370.1429546182067 M512.2366419797606,361.4152674926085 L500.9357892808698,368.92294778734095 M489.68756797914295,377.686994026453 L489.6928623700546,376.46677617089443 M500.9301855424111,370.1429546182067 L489.68756797914295,377.686994026453 M500.9357892808698,368.92294778734095 L489.6928623700546,376.46677617089443 M478.4978803160617,385.255415354919 L478.5028666167582,384.0349859370659 M489.68756797914295,377.686994026453 L478.4978803160617,385.255415354919 M489.6928623700546,376.46677617089443 L478.5028666167582,384.0349859370659 M467.3534027587832,392.83584403566084 L467.35808201055397,391.615202864864 M478.4978803160617,385.255415354919 L467.3534027587832,392.83584403566084 M478.5028666167582,384.0349859370659 L467.35808201055397,391.615202864864 M456.2434140735071,400.4168865644359 L456.24778701901494,399.1960337686764 M467.3534027587832,392.83584403566084 L456.2434140735071,400.4168865644359 M467.35808201055397,391.615202864864 L456.24778701901494,399.1960337686764 M445.154051415088,407.98976064788496 L445.1581184119799,406.768696600085 M456.2434140735071,400.4168865644359 L445.154051415088,407.98976064788496 M456.24778701901494,399.1960337686764 L445.1581184119799,406.768696600085 M434.0688873339002,415.5497079307976 L434.07264828432824,414.32843313601296 M445.154051415088,407.98976064788496 L434.0688873339002,415.5497079307976 M445.1581184119799,406.768696600085 L434.07264828432824,414.32843313601296 M422.9705212255583,423.09689396895936 L422.97397554959264,421.875408926895 M434.0688873339002,415.5497079307976 L422.9705212255583,423.09689396895936 M434.07264828432824,414.32843313601296 L422.97397554959264,421.875408926895 M411.84366473135697,430.6366579102414 L411.8468114256775,429.4149629712885 M422.9705212255583,423.09689396895936 L411.84366473135697,430.6366579102414 M422.97397554959264,421.875408926895 L411.8468114256775,429.4149629712885 M400.6785466881838,438.1778582555603 L400.6813844788312,436.95595352333055 M411.84366473135697,430.6366579102414 L400.6785466881838,438.1778582555603 M411.8468114256775,429.4149629712885 L400.6813844788312,436.95595352333055 M389.4743705044689,445.73026801412766 L389.4768980953288,444.5081533207128 M400.6785466881838,438.1778582555603 L389.4743705044689,445.73026801412766 M400.6813844788312,436.95595352333055 L389.4768980953288,444.5081533207128 M378.2404068843924,453.3027659884728 L378.24262323621673,452.08044092002467 M389.4743705044689,445.73026801412766 L378.2404068843924,453.3027659884728 M389.4768980953288,444.5081533207128 L378.24262323621673,452.08044092002467 M366.99364243924936,460.9021436921398 L366.9955469837641,459.6796076474795 M378.2404068843924,453.3027659884728 L366.99364243924936,460.9021436921398 M378.24262323621673,452.08044092002467 L366.9955469837641,459.6796076474795 M355.75546292014917,468.53285831275815 L355.7570556824528,467.3101105686413 M366.99364243924936,460.9021436921398 L355.75546292014917,468.53285831275815 M366.9955469837641,459.6796076474795 L355.7570556824528,467.3101105686413 M344.54805209962,476.19728730506677 L344.5493337208288,474.9743270741716 M355.75546292014917,468.53285831275815 L344.54805209962,476.19728730506677 M355.7570556824528,467.3101105686413 L344.5493337208288,474.9743270741716 M333.3909706259161,483.89608103140677 L333.3919422908392,482.6729075103576 M344.54805209962,476.19728730506677 L333.3909706259161,483.89608103140677 M344.5493337208288,474.9743270741716 L333.3919422908392,482.6729075103576 M322.2986575647903,491.62856332577223 L322.299320860086,490.4051757319106 M333.3909706259161,483.89608103140677 L322.2986575647903,491.62856332577223 M333.3919422908392,482.6729075103576 L322.299320860086,490.4051757319106 M311.27766693182895,499.3924165669078 L311.2780236270692,498.1688141836438 M322.2986575647903,491.62856332577223 L311.27766693182895,499.3924165669078 M322.299320860086,490.4051757319106 L311.2780236270692,498.1688141836438 M300.32652897755094,507.1840504906141 L300.3265808021536,505.96023270242296 M311.27766693182895,499.3924165669078 L300.32652897755094,507.1840504906141 M311.2780236270692,498.1688141836438 L300.3265808021536,505.96023270242296 M289.4354602300147,514.9984449165748 L289.43520864179123,513.7744112482094 M300.32652897755094,507.1840504906141 L289.4354602300147,514.9984449165748 M300.3265808021536,505.96023270242296 L289.43520864179123,513.7744112482094 M278.5871581801461,522.8292267436773 L278.58660415567823,521.6049768971118 M289.4354602300147,514.9984449165748 L278.5871581801461,522.8292267436773 M289.43520864179123,513.7744112482094 L278.58660415567823,521.6049768971118 M267.7586284428423,530.668933965331 L267.75777231850486,529.4444678492881 M278.5871581801461,522.8292267436773 L267.7586284428423,530.668933965331 M278.58660415567823,521.6049768971118 L267.75777231850486,529.4444678492881 M256.9259672229072,538.509881253189 L256.92480866901644,537.2851989887037 M267.7586284428423,530.668933965331 L256.9259672229072,538.509881253189 M267.75777231850486,529.4444678492881 L256.92480866901644,537.2851989887037 M246.06893102479415,546.3456783288609 L246.06746914711908,545.120780213011 M256.9259672229072,538.509881253189 L246.06893102479415,546.3456783288609 M256.92480866901644,537.2851989887037 L246.06746914711908,545.120780213011 M235.17171361496213,554.171674689452 L235.16994707797937,552.9465611469777 M246.06893102479415,546.3456783288609 L235.17171361496213,554.171674689452 M246.06746914711908,545.120780213011 L235.16994707797937,552.9465611469777 M224.22316078925945,561.9849564323652 L224.22108794550797,560.7596279675504 M235.17171361496213,554.171674689452 L224.22316078925945,561.9849564323652 M235.16994707797937,552.9465611469777 L224.22108794550797,560.7596279675504 M213.21681140505774,569.7842417044685 L213.21443042576448,568.5586988560676 M224.22316078925945,561.9849564323652 L213.21681140505774,569.7842417044685 M224.22108794550797,560.7596279675504 L213.21443042576448,568.5586988560676 M202.15064654195783,577.5697285003134 L202.14795554079387,576.3439718008169 M213.21681140505774,569.7842417044685 L202.15064654195783,577.5697285003134 M213.21443042576448,568.5586988560676 L202.14795554079387,576.3439718008169 M191.02671732529984,585.3427954559679 L191.02371447189137,584.1168253992246 M202.15064654195783,577.5697285003134 L191.02671732529984,585.3427954559679 M202.14795554079387,576.3439718008169 L191.02371447189137,584.1168253992246 M179.85030515557003,593.1057509344889 L179.8469887656832,591.8795679503235 M191.02671732529984,585.3427954559679 L179.85030515557003,593.1057509344889 M191.02371447189137,584.1168253992246 L179.8469887656832,591.8795679503235 M168.629004438697,600.8614415973091 L168.62537303892395,599.6350460369556 M179.85030515557003,593.1057509344889 L168.629004438697,600.8614415973091 M179.8469887656832,591.8795679503235 L168.62537303892395,599.6350460369556 M157.37132862592478,608.6128758702541 L157.36738097950735,607.3862680021496 M168.629004438697,600.8614415973091 L157.37132862592478,608.6128758702541 M168.62537303892395,599.6350460369556 L157.36738097950735,607.3862680021496 M146.08517291614345,616.3627251330395 L146.08090800589795,615.1359051522818 M157.37132862592478,608.6128758702541 L146.08517291614345,616.3627251330395 M157.36738097950735,607.3862680021496 L146.08090800589795,615.1359051522818 M148.86237640782485,592.8161449827383 L148.8581936755819,591.5899699393417 M146.08517291614345,616.3627251330395 L148.86237640782485,592.8161449827383 M146.08090800589795,615.1359051522818 L148.8581936755819,591.5899699393417 M159.1093115741071,585.8859826546761 L159.10541655350403,584.6599976940872 M148.86237640782485,592.8161449827383 L159.1093115741071,585.8859826546761 M148.8581936755819,591.5899699393417 L159.10541655350403,584.6599976940872 M169.33091719526044,578.95521109727 L169.3273089993171,577.7294163574975 M159.1093115741071,585.8859826546761 L169.33091719526044,578.95521109727 M159.10541655350403,584.6599976940872 L169.3273089993171,577.7294163574975 M179.52339571614175,572.0227111998097 L179.52007335261203,570.7971068496392 M169.33091719526044,578.95521109727 L179.52339571614175,572.0227111998097 M169.3273089993171,577.7294163574975 L179.52007335261203,570.7971068496392 M189.68367494032333,565.0873336861716 L189.68063733203002,563.8619199260722 M179.52339571614175,572.0227111998097 L189.68367494032333,565.0873336861716 M179.52007335261203,570.7971068496392 L189.68063733203002,563.8619199260722 M199.80970657578985,558.1480169247377 L199.8069525892447,556.9227939845323 M189.68367494032333,565.0873336861716 L199.80970657578985,558.1480169247377 M189.68063733203002,563.8619199260722 L199.8069525892447,556.9227939845323 M209.9007770201186,551.2038266585569 L209.89830550277327,549.9787947939903 M199.80970657578985,558.1480169247377 L209.9007770201186,551.2038266585569 M199.8069525892447,556.9227939845323 L209.89830550277327,549.9787947939903 M219.95768780252467,544.2540237993663 L219.9554976249981,543.0291832867963 M209.9007770201186,551.2038266585569 L219.95768780252467,544.2540237993663 M209.89830550277327,549.9787947939903 L219.9554976249981,543.0291832867963 M229.98276142627515,537.2981719089896 L229.9808515246811,536.0735230370974 M219.95768780252467,544.2540237993663 L229.98276142627515,537.2981719089896 M219.9554976249981,543.0291832867963 L229.9808515246811,536.0735230370974 M239.9799125408042,530.3361597359676 L239.97828196101386,529.111702796821 M229.98276142627515,537.2981719089896 L239.9799125408042,530.3361597359676 M229.9808515246811,536.0735230370974 L239.97828196101386,529.111702796821 M249.95452857451357,523.3682447823644 L249.9531765130393,522.1439800612505 M239.9799125408042,530.3361597359676 L249.95452857451357,523.3682447823644 M239.97828196101386,529.111702796821 L249.9531765130393,522.1439800612505 M259.9133831455879,516.3950685569721 L259.91230898801115,515.1709963217762 M249.95452857451357,523.3682447823644 L259.9133831455879,516.3950685569721 M249.9531765130393,522.1439800612505 L259.91230898801115,515.1709963217762 M269.86442434743964,509.4175287952632 L269.8636277009097,508.1936492893434 M259.9133831455879,516.3950685569721 L269.86442434743964,509.4175287952632 M259.91230898801115,515.1709963217762 L269.8636277009097,508.1936492893434 M279.8157133420487,502.4364273003972 L279.81519403819857,501.2127407451746 M269.86442434743964,509.4175287952632 L279.8157133420487,502.4364273003972 M269.8636277009097,508.1936492893434 L279.81519403819857,501.2127407451746 M289.773562679653,495.45269027310553 L289.7733207256798,494.2291968645655 M279.8157133420487,502.4364273003972 L289.773562679653,495.45269027310553 M279.81519403819857,501.2127407451746 L289.7733207256798,494.2291968645655 M299.7417991505418,488.4675340015606 L299.74183465986016,487.2442339021574 M289.773562679653,495.45269027310553 L299.7417991505418,488.4675340015606 M289.7733207256798,494.2291968645655 L299.74183465986016,487.2442339021574 M309.7213681184708,481.48255978559035 L309.7216812304879,480.25945311349636 M299.7417991505418,488.4675340015606 L309.7213681184708,481.48255978559035 M299.74183465986016,487.2442339021574 L309.7216812304879,480.25945311349636 M319.7102178125111,474.4998695255513 L319.71080860933904,473.27695634066794 M309.7213681184708,481.48255978559035 L319.7102178125111,474.4998695255513 M309.7216812304879,480.25945311349636 L319.71080860933904,473.27695634066794 M329.7038389080866,467.5222625917311 L329.70470734642697,466.29954287619546 M319.7102178125111,474.4998695255513 L329.7038389080866,467.5222625917311 M319.71080860933904,473.27695634066794 L329.70470734642697,466.29954287619546 M339.6950348444971,460.55276459923465 L339.6961806812699,459.3302382509436 M329.7038389080866,467.5222625917311 L339.6950348444971,460.55276459923465 M329.70470734642697,466.29954287619546 L339.6961806812699,459.3302382509436 M349.67577446012615,453.59476310937384 L349.6771972297114,452.3724299317194 M339.6950348444971,460.55276459923465 L349.67577446012615,453.59476310937384 M339.6961806812699,459.3302382509436 L349.6771972297114,452.3724299317194 M359.6382420991744,446.6514099028936 L359.639941119832,445.42926961107815 M349.67577446012615,453.59476310937384 L359.6382420991744,446.6514099028936 M349.6771972297114,452.3724299317194 L359.639941119832,445.42926961107815 M369.5763419626107,439.72496846531453 L369.5783163845844,438.50302071083075 M359.6382420991744,446.6514099028936 L369.5763419626107,439.72496846531453 M359.639941119832,445.42926961107815 L369.5783163845844,438.50302071083075 M379.48714321651863,432.8161208784981 L379.48939211004745,431.59436529297346 M369.5763419626107,439.72496846531453 L379.48714321651863,432.8161208784981 M369.5783163845844,438.50302071083075 L379.48939211004745,431.59436529297346 M389.3720065466519,425.92342617758374 L389.37452902094077,424.7018624318425 M379.48714321651863,432.8161208784981 L389.3720065466519,425.92342617758374 M379.48939211004745,431.59436529297346 L389.37452902094077,424.7018624318425 M399.23702371256087,419.0432107702985 L399.2398190466112,417.8218386366624 M389.3720065466519,425.92342617758374 L399.23702371256087,419.0432107702985 M389.37452902094077,424.7018624318425 L399.2398190466112,417.8218386366624 M409.092261864518,412.1700493261062 L409.0953296167263,410.94886872748117 M399.23702371256087,419.0432107702985 L409.092261864518,412.1700493261062 M399.2398190466112,417.8218386366624 L409.0953296167263,410.94886872748117 M418.94945976401345,405.29807735092396 L418.95279981782426,404.077088373428 M409.092261864518,412.1700493261062 L418.94945976401345,405.29807735092396 M409.0953296167263,410.94886872748117 L418.95279981782426,404.077088373428 M428.82047308245103,398.4233302078634 L428.82408564921,397.20253304820716 M418.94945976401345,405.29807735092396 L428.82047308245103,398.4233302078634 M418.95279981782426,404.077088373428 L428.82408564921,397.20253304820716 M438.7155319206985,391.5445557326451 L438.71941749448786,390.32395062265437 M428.82047308245103,398.4233302078634 L438.7155319206985,391.5445557326451 M428.82408564921,397.20253304820716 L438.71941749448786,390.32395062265437 M448.6421084316097,384.6632532668628 L448.64626771296673,383.4428403966736 M438.7155319206985,391.5445557326451 L448.6421084316097,384.6632532668628 M438.71941749448786,390.32395062265437 L448.64626771296673,383.4428403966736 M458.60459061646395,377.783296811585 L458.6090244272847,376.56307626313793 M448.6421084316097,384.6632532668628 L458.60459061646395,377.783296811585 M448.64626771296673,383.4428403966736 L458.6090244272847,376.56307626313793 M468.604427198473,370.91025812355815 L468.609136401064,369.69022982282615 M458.60459061646395,377.783296811585 L468.604427198473,370.91025812355815 M458.6090244272847,376.56307626313793 L468.609136401064,369.69022982282615 M478.64070191288545,364.0505004873838 L478.6456873449374,362.8306641818249 M468.604427198473,370.91025812355815 L478.64070191288545,364.0505004873838 M468.609136401064,369.69022982282615 L478.6456873449374,362.8306641818249 M488.71062923291095,357.21031579512277 L488.7158916561332,355.99067105524 M478.64070191288545,364.0505004873838 L488.71062923291095,357.21031579512277 M478.6456873449374,362.8306641818249 L488.7158916561332,355.99067105524 M498.8100820529328,350.39507586859185 L498.8156221161421,349.17562211329255 M488.71062923291095,357.21031579512277 L498.8100820529328,350.39507586859185 M488.7158916561332,355.99067105524 L498.8156221161421,349.17562211329255 M508.93394750965524,343.60852029613756 L508.93976572151416,342.38925683814944 M498.8100820529328,350.39507586859185 L508.93394750965524,343.60852029613756 M498.8156221161421,349.17562211329255 L508.93976572151416,342.38925683814944 M519.077218281512,336.8526519775155 L519.0833150133328,335.6335780718783 M508.93394750965524,343.60852029613756 L519.077218281512,336.8526519775155 M508.93976572151416,342.38925683814944 L519.0833150133328,335.6335780718783 M529.2323256822586,330.12609445815553 L529.2387010965341,328.90720939699327 M519.077218281512,336.8526519775155 L529.2323256822586,330.12609445815553 M519.0833150133328,335.6335780718783 L529.2387010965341,328.90720939699327 M539.391631888826,323.4251231668396 L539.3982859367956,322.20642634544254 M529.2323256822586,330.12609445815553 L539.391631888826,323.4251231668396 M529.2387010965341,328.90720939699327 L539.3982859367956,322.20642634544254 M549.5464399735066,316.7433858319318 L549.5533723651496,315.52487682289666 M539.391631888826,323.4251231668396 L549.5464399735066,316.7433858319318 M539.3982859367956,322.20642634544254 L549.5533723651496,315.52487682289666 M559.6877653831831,310.07323039439973 L559.6949755788188,308.8549089846291 M549.5464399735066,316.7433858319318 L559.6877653831831,310.07323039439973 M549.5533723651496,315.52487682289666 L559.6949755788188,308.8549089846291 M569.8076777323765,303.4079544710918 L569.8151649719874,302.1898206355781 M559.6877653831831,310.07323039439973 L569.8076777323765,303.4079544710918 M559.6949755788188,308.8549089846291 L569.8151649719874,302.1898206355781 M579.8971036523362,296.74016829743823 L579.9048669237177,295.5222222190769 M569.8076777323765,303.4079544710918 L579.8971036523362,296.74016829743823 M569.8151649719874,302.1898206355781 L579.9048669237177,295.5222222190769 M589.9470551474103,290.0624042256904 L589.9550931884255,288.8446462979727 M579.8971036523362,296.74016829743823 L589.9470551474103,290.0624042256904 M579.9048669237177,295.5222222190769 L589.9550931884255,288.8446462979727 M599.9498446074103,283.36820878118476 L599.958155942152,282.15063958010137 M589.9470551474103,290.0624042256904 L599.9498446074103,283.36820878118476 M589.9550931884255,288.8446462979727 L599.958155942152,282.15063958010137 M609.9002824456726,276.65272880599645 L609.9088654538751,275.4353490453176 M599.9498446074103,283.36820878118476 L609.9002824456726,276.65272880599645 M599.958155942152,282.15063958010137 L609.9088654538751,275.4353490453176 M619.7959785855526,269.9132962927175 L619.8048315805482,268.69610676262755 M609.9002824456726,276.65272880599645 L619.7959785855526,269.9132962927175 M609.9088654538751,275.4353490453176 L619.8048315805482,268.69610676262755 M629.6378228274639,263.1494031207941 L629.6469441473796,261.9324046270556 M619.7959785855526,269.9132962927175 L629.6378228274639,263.1494031207941 M619.8048315805482,268.69610676262755 L629.6469441473796,261.9324046270556 M639.4294266715311,256.3627774342971 L639.4388147551444,255.14597073507298 M629.6378228274639,263.1494031207941 L639.4294266715311,256.3627774342971 M629.6469441473796,261.9324046270556 L639.4388147551444,255.14597073507298 M639.4294266715311,256.3627774342971 L697.9719183679407,247.36439033035052 M639.4388147551444,255.14597073507298 L697.9829138192928,246.14783811082205" stroke="black"  stroke-width="4"  fill="red"/>
<path d="M599.0442258743433,162.64956399502648 L599.0524664246744,161.4354175847896 M593.7750491166169,171.05241825003444 L593.7831483424816,169.83803239818224 M599.0442258743433,162.64956399502648 L593.7750491166169,171.05241825003444 M599.0524664246744,161.4354175847896 L593.7831483424816,169.83803239818224 M588.4513038959057,179.44624189539547 L588.459260184994,178.23161703727624 M593.7750491166169,171.05241825003444 L588.4513038959057,179.44624189539547 M593.7831483424816,169.83803239818224 L588.459260184994,178.23161703727624 M583.0768100228577,187.83175294717236 L583.0846218664084,186.616889497138 M588.4513038959057,179.44624189539547 L583.0768100228577,187.83175294717236 M588.459260184994,178.23161703727624 L583.0846218664084,186.616889497138 M577.6546244345565,196.21014091949365 L577.6622904067225,194.99503925756056 M583.0768100228577,187.83175294717236 L577.6546244345565,196.21014091949365 M583.0846218664084,186.616889497138 L577.6622904067225,194.99503925756056 M572.1884803450782,204.58337863081488 L572.1959991218727,203.36803908051942 M577.6546244345565,196.21014091949365 L572.1884803450782,204.58337863081488 M577.6622904067225,194.99503925756056 L572.1959991218727,203.36803908051942 M566.6827964594191,212.95430276038252 L566.690166837951,211.73872556443263 M572.1884803450782,204.58337863081488 L566.6827964594191,212.95430276038252 M572.1959991218727,203.36803908051942 L566.690166837951,211.73872556443263 M561.1426365259653,221.32623132928455 L561.1498574424392,220.11041663615 M566.6827964594191,212.95430276038252 L561.1426365259653,221.32623132928455 M566.690166837951,211.73872556443263 L561.1498574424392,220.11041663615 M555.5724756267225,229.70270050003995 L555.5795461404429,228.48664835805164 M561.1426365259653,221.32623132928455 L555.5724756267225,229.70270050003995 M561.1498574424392,220.11041663615 L555.5795461404429,228.48664835805164 M549.9751280205106,238.08685719746444 L549.9820472681562,236.87056756613487 M555.5724756267225,229.70270050003995 L549.9751280205106,238.08685719746444 M555.5795461404429,228.48664835805164 L549.9820472681562,236.87056756613487 M544.3503260762996,246.48090613667412 L544.3570931868414,245.26437891362332 M549.9751280205106,238.08685719746444 L544.3503260762996,246.48090613667412 M549.9820472681562,236.87056756613487 L544.3570931868414,245.26437891362332 M538.6969892283427,254.88725346925574 L538.7036033006481,253.67048848470432 M544.3503260762996,246.48090613667412 L538.6969892283427,254.88725346925574 M544.3570931868414,245.26437891362332 L538.7036033006481,253.67048848470432 M533.0121084933762,263.3073273106022 L533.0185685426874,262.0903243552069 M538.6969892283427,254.88725346925574 L533.0121084933762,263.3073273106022 M538.7036033006481,253.67048848470432 L533.0185685426874,262.0903243552069 M527.2864569436446,271.7394983235188 L527.2927617291984,270.52225723480876 M533.0121084933762,263.3073273106022 L527.2864569436446,271.7394983235188 M533.0185685426874,262.0903243552069 L527.2927617291984,270.52225723480876 M521.4905387081557,280.1755239450143 L521.4966861722774,278.95804479380683 M527.2864569436446,271.7394983235188 L521.4905387081557,280.1755239450143 M527.2927617291984,270.52225723480876 L521.4966861722774,278.95804479380683 M515.6151634569327,288.6097019184887 L515.6211512846331,287.3919849365816 M521.4905387081557,280.1755239450143 L515.6151634569327,288.6097019184887 M521.4966861722774,278.95804479380683 L515.6211512846331,287.3919849365816 M509.6279941098313,297.0291181199723 L509.6338190881513,295.8111639027908 M515.6151634569327,288.6097019184887 L509.6279941098313,297.0291181199723 M515.6211512846331,287.3919849365816 L509.6338190881513,295.8111639027908 M503.4894424594796,305.41741606002233 L503.4951002755215,304.199225662409 M509.6279941098313,297.0291181199723 L503.4894424594796,305.41741606002233 M509.6338190881513,295.8111639027908 L503.4951002755215,304.199225662409 M497.1539631007797,313.75539883558685 L497.1594481753949,312.5369738503058 M503.4894424594796,305.41741606002233 L497.1539631007797,313.75539883558685 M503.4951002755215,304.199225662409 L497.1594481753949,312.5369738503058 M490.5699671433973,322.0213578169755 L490.57527246243376,320.80270044369877 M497.1539631007797,313.75539883558685 L490.5699671433973,322.0213578169755 M497.1594481753949,312.5369738503058 L490.57527246243376,320.80270044369877 M483.68935029804345,330.19414333294225 L483.69446750742895,328.97525636077245 M490.5699671433973,322.0213578169755 L483.68935029804345,330.19414333294225 M490.57527246243376,320.80270044369877 L483.69446750742895,328.97525636077245 M476.46265749803104,338.25238255011834 L476.46757686532555,337.03326936216223 M483.68935029804345,330.19414333294225 L476.46265749803104,338.25238255011834 M483.69446750742895,328.97525636077245 L476.46757686532555,337.03326936216223 M468.84615975105953,346.17709282772995 L468.8508703233176,344.9577573324204 M476.46265749803104,338.25238255011834 L468.84615975105953,346.17709282772995 M476.46757686532555,337.03326936216223 L468.8508703233176,344.9577573324204 M460.80659190436427,353.95360610358904 L460.81108179776254,352.73405261238184 M468.84615975105953,346.17709282772995 L460.80659190436427,353.95360610358904 M468.8508703233176,344.9577573324204 L460.81108179776254,352.73405261238184 M452.32669498893824,361.5739775413086 L452.3309518326596,360.35421057941204 M460.80659190436427,353.95360610358904 L452.32669498893824,361.5739775413086 M460.81108179776254,352.73405261238184 L452.3309518326596,360.35421057941204 M443.4113552410763,369.03941122769385 L443.4153667920607,367.81943527760615 M452.32669498893824,361.5739775413086 L443.4113552410763,369.03941122769385 M452.3309518326596,360.35421057941204 L443.4153667920607,367.81943527760615 M434.08949920952864,376.3604531719735 L434.0932540202863,375.14027241249806 M443.4113552410763,369.03941122769385 L434.08949920952864,376.3604531719735 M443.4153667920607,367.81943527760615 L434.0932540202863,375.14027241249806 M424.4093882545194,383.5547828994784 L424.41287621077356,382.3344010073017 M434.08949920952864,376.3604531719735 L424.4093882545194,383.5547828994784 M434.0932540202863,375.14027241249806 L424.41287621077356,382.3344010073017 M414.42907812125077,390.64325914535146 L414.4322907150089,389.42267920766614 M424.4093882545194,383.5547828994784 L414.42907812125077,390.64325914535146 M424.41287621077356,382.3344010073017 L414.4322907150089,389.42267920766614 M404.2157768919139,397.6501683245364 L404.2187074768616,396.4293927449569 M414.42907812125077,390.64325914535146 L404.2157768919139,397.6501683245364 M414.4322907150089,389.42267920766614 L404.2187074768616,396.4293927449569 M393.8353114339277,404.59892957522635 L393.83795518833637,403.3779600997621 M404.2157768919139,397.6501683245364 L393.8353114339277,404.59892957522635 M404.2187074768616,396.4293927449569 L393.83795518833637,403.3779600997621 M383.3424321957759,411.50781557325814 L383.34478581598313,410.28665343546186 M393.8353114339277,404.59892957522635 L383.3424321957759,411.50781557325814 M393.83795518833637,403.3779600997621 L383.34478581598313,410.28665343546186 M372.7950128009939,418.3977111328231 L372.79707458927055,417.17635698230794 M383.3424321957759,411.50781557325814 L372.7950128009939,418.3977111328231 M383.34478581598313,410.28665343546186 L372.79707458927055,417.17635698230794 M362.234912571726,425.2829618970361 L362.2366819923145,424.06141598300286 M372.7950128009939,418.3977111328231 L362.234912571726,425.2829618970361 M372.79707458927055,417.17635698230794 L362.2366819923145,424.06141598300286 M351.6914664775999,432.17345803912264 L351.69294380948264,430.95172033533333 M362.234912571726,425.2829618970361 L351.6914664775999,432.17345803912264 M362.2366819923145,424.06141598300286 L351.69294380948264,430.95172033533333 M341.18098817450425,439.07451802466807 L341.1821741501188,437.85258835726347 M351.6914664775999,432.17345803912264 L341.18098817450425,439.07451802466807 M351.69294380948264,430.95172033533333 L341.1821741501188,437.85258835726347 M330.7072778375247,445.98718418196245 L330.7081732953362,444.7650623486688 M341.18098817450425,439.07451802466807 L330.7072778375247,445.98718418196245 M341.1821741501188,437.85258835726347 L330.7081732953362,444.7650623486688 M320.26318882323716,452.90885020518596 L320.2637944035924,451.686536076722 M330.7072778375247,445.98718418196245 L320.26318882323716,452.90885020518596 M330.7081732953362,444.7650623486688 L320.2637944035924,451.686536076722 M309.8331475835902,459.8342627248797 L309.8334634943779,458.61175631824545 M320.26318882323716,452.90885020518596 L309.8331475835902,459.8342627248797 M320.2637944035924,451.686536076722 L309.8334634943779,458.61175631824545 M299.39806757441,466.7571768874522 L299.39809349313305,465.5344783930636 M309.8331475835902,459.8342627248797 L299.39806757441,466.7571768874522 M309.8334634943779,458.61175631824545 L299.39809349313305,465.5344783930636 M288.94198059365294,473.67259453002544 L288.94171575379124,472.44970427671853 M299.39806757441,466.7571768874522 L288.94198059365294,473.67259453002544 M299.39809349313305,465.5344783930636 L288.94171575379124,472.44970427671853 M278.4534927240212,480.57747003203696 L278.4529360419325,479.35438843262796 M288.94198059365294,473.67259453002544 L278.4534927240212,480.57747003203696 M288.94171575379124,472.44970427671853 L278.4529360419325,479.35438843262796 M267.9259034016792,487.47077892178993 L267.9250536068836,486.24750641690684 M278.4534927240212,480.57747003203696 L267.9259034016792,487.47077892178993 M278.4529360419325,479.35438843262796 L267.9250536068836,486.24750641690684 M257.3570962283876,494.35339594544763 L257.3559519908912,493.12993295091167 M267.9259034016792,487.47077892178993 L257.3570962283876,494.35339594544763 M267.9250536068836,486.24750641690684 L257.3559519908912,493.12993295091167 M246.7489979274735,501.22782113320415 L246.74755797011858,500.0041679951509 M257.3570962283876,494.35339594544763 L246.7489979274735,501.22782113320415 M257.3559519908912,493.12993295091167 L246.74755797011858,500.0041679951509 M236.10668655125056,508.097642918322 L236.10494973733597,506.8737998832995 M246.7489979274735,501.22782113320415 L236.10668655125056,508.097642918322 M246.74755797011858,500.0041679951509 L236.10494973733597,506.8737998832995 M225.4369210992743,514.9667999087008 L225.43488647933998,513.7427671142482 M236.10668655125056,508.097642918322 L225.4369210992743,514.9667999087008 M236.10494973733597,506.8737998832995 L225.43488647933998,513.7427671142482 M214.7461521980194,521.8385248940153 L214.74381900134972,520.6143023884158 M225.4369210992743,514.9667999087008 L214.7461521980194,521.8385248940153 M225.43488647933998,513.7427671142482 L214.74381900134972,520.6143023884158 M204.03774526496795,528.7139926063523 L204.03511281387728,527.4895804056223 M214.7461521980194,521.8385248940153 L204.03774526496795,528.7139926063523 M214.74381900134972,520.6143023884158 L204.03511281387728,527.4895804056223 M193.30820774673515,535.590450281833 L193.30527526589663,534.3658484780607 M204.03774526496795,528.7139926063523 L193.30820774673515,535.590450281833 M204.03511281387728,527.4895804056223 L193.30527526589663,534.3658484780607 M195.04730840102644,531.2202037611587 L195.04442498841547,529.9957224433947 M193.30820774673515,535.590450281833 L195.04730840102644,531.2202037611587 M193.30527526589663,534.3658484780607 L195.04442498841547,529.9957224433947 M199.95535516703154,522.7163031071591 L199.95260965365463,521.4920563768865 M195.04730840102644,531.2202037611587 L199.95535516703154,522.7163031071591 M195.04442498841547,529.9957224433947 L199.95260965365463,521.4920563768865 M206.1603164811371,514.5006368995389 L206.15774485946122,513.2766169790006 M199.95535516703154,522.7163031071591 L206.1603164811371,514.5006368995389 M199.95260965365463,521.4920563768865 L206.15774485946122,513.2766169790006 M213.15910979116893,506.5047507975879 L213.15673401664162,505.2809517829904 M206.1603164811371,514.5006368995389 L213.15910979116893,506.5047507975879 M206.15774485946122,513.2766169790006 L213.15673401664162,505.2809517829904 M220.64831729718952,498.66459551108693 L220.64615086618,497.4410132567516 M213.15910979116893,506.5047507975879 L220.64831729718952,498.66459551108693 M213.15673401664162,505.2809517829904 L220.64615086618,497.4410132567516 M228.44683016256738,490.931481246871 L228.44488152530334,489.70811294544785 M220.64831729718952,498.66459551108693 L228.44683016256738,490.931481246871 M220.64615086618,497.4410132567516 L228.44488152530334,489.70811294544785 M236.44269612894925,483.2713297400065 L236.4409706178571,482.04817352171176 M228.44683016256738,490.931481246871 L236.44269612894925,483.2713297400065 M228.44488152530334,489.70811294544785 L236.4409706178571,482.04817352171176 M244.56253931878257,475.66180081001704 L244.56104022364258,474.43885542 M236.44269612894925,483.2713297400065 L244.56253931878257,475.66180081001704 M236.4409706178571,482.04817352171176 L244.56104022364258,474.43885542 M252.75800625770063,468.0866308444854 L252.75673552292415,466.86389547604085 M244.56253931878257,475.66180081001704 L252.75800625770063,468.0866308444854 M244.56104022364258,474.43885542 L252.75673552292415,466.86389547604085 M260.99637012515893,460.5339120054916 L260.9953287850801,459.311386180428 M252.75800625770063,468.0866308444854 L260.99637012515893,460.5339120054916 M252.75673552292415,466.86389547604085 L260.9953287850801,459.311386180428 M269.25440917229184,452.9955004931235 L269.25359761586566,451.77318395813995 M260.99637012515893,460.5339120054916 L269.25440917229184,452.9955004931235 M260.9953287850801,459.311386180428 L269.25359761586566,451.77318395813995 M277.5158822814926,445.4655557853153 L277.51530044665367,444.2434484486116 M269.25440917229184,452.9955004931235 L277.5158822814926,445.4655557853153 M269.25359761586566,451.77318395813995 L277.51530044665367,444.2434484486116 M285.7694884298933,437.93993850744283 L285.76913594105633,436.7180403918546 M277.5158822814926,445.4655557853153 L285.7694884298933,437.93993850744283 M277.51530044665367,444.2434484486116 L285.76913594105633,436.7180403918546 M294.00760459098564,430.4158784046033 L294.0074808613732,429.19418960981466 M285.7694884298933,437.93993850744283 L294.00760459098564,430.4158784046033 M285.76913594105633,436.7180403918546 L294.0074808613732,429.19418960981466 M302.2261645490058,422.89190369118137 L302.2262688795091,421.6704243577751 M294.00760459098564,430.4158784046033 L302.2261645490058,422.89190369118137 M294.0074808613732,429.19418960981466 L302.2262688795091,421.6704243577751 M310.4239743306638,415.3675923314152 L310.42430598961346,414.14632261173045 M302.2261645490058,422.89190369118137 L310.4239743306638,415.3675923314152 M302.2262688795091,421.6704243577751 L310.42430598961346,414.14632261173045 M318.601886616925,407.84326671014884 L318.6024448968817,406.62220674755355 M310.4239743306638,415.3675923314152 L318.601886616925,407.84326671014884 M310.42430598961346,414.14632261173045 L318.6024448968817,406.62220674755355 M326.7620885046322,400.3197304490768 L326.76287275936863,399.0988803645142 M318.601886616925,407.84326671014884 L326.7620885046322,400.3197304490768 M318.6024448968817,406.62220674755355 L326.76287275936863,399.0988803645142 M334.9075611218239,392.7980551427725 L334.9085707882875,391.57741502721683 M326.7620885046322,400.3197304490768 L334.9075611218239,392.7980551427725 M326.76287275936863,399.0988803645142 L334.9085707882875,391.57741502721683 M343.03614850268275,385.2774775039504 L343.0373829585417,384.057047469599 M334.9075611218239,392.7980551427725 L343.03614850268275,385.2774775039504 M334.9085707882875,391.57741502721683 L343.0373829585417,384.057047469599 M351.15796948507756,377.76162490579026 L351.159428388919,376.5414049633468 M343.03614850268275,385.2774775039504 L351.15796948507756,377.76162490579026 M343.0373829585417,384.057047469599 L351.159428388919,376.5414049633468 M359.27460108776864,370.251052989297 L359.2762841422091,369.03104313364827 M351.15796948507756,377.76162490579026 L359.27460108776864,370.251052989297 M351.159428388919,376.5414049633468 L359.2762841422091,369.03104313364827 M367.39083594236644,362.7474699026881 L367.39274298308476,361.52767008059146 M359.27460108776864,370.251052989297 L367.39083594236644,362.7474699026881 M359.2762841422091,369.03104313364827 L367.39274298308476,361.52767008059146 M375.5084517070816,355.251506754646 L375.5105826192122,354.0319168947781 M367.39083594236644,362.7474699026881 L375.5084517070816,355.251506754646 M367.39274298308476,361.52767008059146 L375.5105826192122,354.0319168947781 M383.62860882773583,347.76357813245585 L383.63096352873856,346.54419815143626 M375.5084517070816,355.251506754646 L383.62860882773583,347.76357813245585 M375.5105826192122,354.0319168947781 L383.63096352873856,346.54419815143626 M391.7519476569065,340.2838920734252 L391.75452608213993,339.06472188158074 M383.62860882773583,347.76357813245585 L391.7519476569065,340.2838920734252 M383.63096352873856,346.54419815143626 L391.75452608213993,339.06472188158074 M399.8786415255213,332.81252688057344 L399.8814436153069,331.5935663855654 M391.7519476569065,340.2838920734252 L399.8786415255213,332.81252688057344 M391.75452608213993,339.06472188158074 L399.8814436153069,331.5935663855654 M408.00965977309903,325.34979572503323 L408.01268549473684,324.13104482525335 M399.8786415255213,332.81252688057344 L408.00965977309903,325.34979572503323 M399.8814436153069,331.5935663855654 L408.01268549473684,324.13104482525335 M416.14603556529255,317.8960938321708 L416.1492849148126,316.67755241441137 M408.00965977309903,325.34979572503323 L416.14603556529255,317.8960938321708 M408.01268549473684,324.13104482525335 L416.1492849148126,316.67755241441137 M424.2886120818638,310.4517071639694 L424.29208507874205,309.2333751064682 M416.14603556529255,317.8960938321708 L424.2886120818638,310.4517071639694 M416.1492849148126,316.67755241441137 L424.29208507874205,309.2333751064682 M432.4380389548477,303.0168656936278 L432.44173563663696,301.79874286762265 M424.2886120818638,310.4517071639694 L432.4380389548477,303.0168656936278 M424.29208507874205,309.2333751064682 L432.44173563663696,301.79874286762265 M440.5948889623471,295.5917734773521 L440.5988093825375,294.37385974779545 M432.4380389548477,303.0168656936278 L440.5948889623471,295.5917734773521 M432.44173563663696,301.79874286762265 L440.5988093825375,294.37385974779545 M448.75954557421494,288.17656280314964 L448.7636897969884,286.95885803071593 M440.5948889623471,295.5917734773521 L448.75954557421494,288.17656280314964 M440.5988093825375,294.37385974779545 L448.7636897969884,286.95885803071593 M456.9322072984355,280.77131509345617 L456.9365753935483,279.5538191359685 M448.75954557421494,288.17656280314964 L456.9322072984355,280.77131509345617 M448.7636897969884,286.95885803071593 L456.9365753935483,279.5538191359685 M465.1101808897531,273.3750838891443 L465.1147728526322,272.15779663058163 M456.9322072984355,280.77131509345617 L465.1101808897531,273.3750838891443 M456.9365753935483,279.5538191359685 L465.1147728526322,272.15779663058163 M473.2951518603884,265.98845196976123 L473.29996773314974,264.7713732771366 M465.1101808897531,273.3750838891443 L473.2951518603884,265.98845196976123 M465.1147728526322,272.15779663058163 L473.29996773314974,264.7713732771366 M481.4871742683986,258.611400349483 L481.4922140947441,257.3945300898091 M473.2951518603884,265.98845196976123 L481.4871742683986,258.611400349483 M473.29996773314974,264.7713732771366 L481.4922140947441,257.3945300898091 M489.6866960258883,251.2441161162153 L489.6919598619951,250.02745415067812 M481.4871742683986,258.611400349483 L489.6866960258883,251.2441161162153 M481.4922140947441,257.3945300898091 L489.6919598619951,250.02745415067812 M497.88200420840144,243.88230657899146 L497.887491787141,242.66585288971794 M489.6866960258883,251.2441161162153 L497.88200420840144,243.88230657899146 M489.6919598619951,250.02745415067812 L497.887491787141,242.66585288971794 M506.08696271074916,236.53102718086177 L506.0926741479866,235.31478160650698 M497.88200420840144,243.88230657899146 L506.08696271074916,236.53102718086177 M497.887491787141,242.66585288971794 L506.0926741479866,235.31478160650698 M514.3066391129938,229.19214414590726 L514.3125746645184,227.97610647165513 M506.08696271074916,236.53102718086177 L514.3066391129938,229.19214414590726 M506.0926741479866,235.31478160650698 L514.3125746645184,227.97610647165513 M522.5498846853872,221.86903461842795 L522.5560448512452,220.65320453300956 M514.3066391129938,229.19214414590726 L522.5498846853872,221.86903461842795 M514.3125746645184,227.97610647165513 L522.5560448512452,220.65320453300956 M530.8308437879305,214.56760372668236 L530.837229458444,213.35198075039705 M522.5498846853872,221.86903461842795 L530.8308437879305,214.56760372668236 M522.5560448512452,220.65320453300956 L530.837229458444,213.35198075039705 M539.1721151225656,207.2957882441247 L539.1787278109367,206.08037167072263 M530.8308437879305,214.56760372668236 L539.1721151225656,207.2957882441247 M530.837229458444,213.35198075039705 L539.1787278109367,206.08037167072263 M547.6068745128279,200.06642537456253 L547.6137166466752,198.8512141314396 M539.1721151225656,207.2957882441247 L547.6068745128279,200.06642537456253 M539.1787278109367,206.08037167072263 L547.6137166466752,198.8512141314396 M556.1834026872008,192.8994090142265 L556.1904780249029,191.68440146087912 M547.6068745128279,200.06642537456253 L556.1834026872008,192.8994090142265 M547.6137166466752,198.8512141314396 L556.1904780249029,191.68440146087912 M564.9694477305484,185.82551738047243 L564.9767618983544,184.61071099745214 M556.1834026872008,192.8994090142265 L564.9694477305484,185.82551738047243 M556.1904780249029,191.68440146087912 L564.9767618983544,184.61071099745214 M574.0605151910163,178.88894448529362 L574.0680764483385,177.6743354901819 M564.9694477305484,185.82551738047243 L574.0605151910163,178.88894448529362 M564.9767618983544,184.61071099745214 L574.0680764483385,177.6743354901819 M583.5870558963063,172.15295647349873 L583.5948760999953,170.93853927471667 M574.0605151910163,178.88894448529362 L583.5870558963063,172.15295647349873 M574.0680764483385,177.6743354901819 L583.5948760999953,170.93853927471667 M593.7052533404911,165.71593978818888 L593.7133486626587,164.50170598007907 M583.5870558963063,172.15295647349873 L593.7052533404911,165.71593978818888 M583.5948760999953,170.93853927471667 L593.7133486626587,164.50170598007907 M593.7052533404911,165.71593978818888 L599.0442258743433,162.64956399502648 M593.7133486626587,164.50170598007907 L599.0524664246744,161.4354175847896" stroke="black"  stroke-width="4"  fill="red"/></svg>