<svg viewBox="0 0 800 800" xmlns="http://www.w3.org/2000/svg"><path d="M21.027569774263156,509.4453796624679 L21.020257889203776,508.24076702665974 M34.1446796117591,502.34802725357105 L34.13773581868054,501.143610280139 M21.027569774263156,509.4453796624679 L34.1446796117591,502.34802725357105 M21.020257889203776,508.24076702665974 L34.13773581868054,501.143610280139 M47.25426942968545,495.3099979328365 L47.2476932620084,494.105775114045 M34.1446796117591,502.34802725357105 L47.25426942968545,495.3099979328365 M34.13773581868054,501.143610280139 L47.2476932620084,494.105775114045 M60.36081808908335,488.32782450357735 L60.354609209209,487.1237944242166 M47.25426942968545,495.3099979328365 L60.36081808908335,488.32782450357735 M47.2476932620084,494.105775114045 L60.354609209209,487.1237944242166 M73.46840986620293,481.39829142988526 L73.46256805405847,480.1944527605909 M60.36081808908335,488.32782450357735 L73.46840986620293,481.39829142988526 M60.354609209209,487.1237944242166 L73.46256805405847,480.1944527605909 M86.58074366604274,474.51845692963826 L86.57526880792017,473.3148084195736 M73.46840986620293,481.39829142988526 L86.58074366604274,474.51845692963826 M73.46256805405847,480.1944527605909 L86.57526880792017,473.3148084195736 M99.70123484499629,467.68555298062023 L99.69612692529142,466.4820934528963 M86.58074366604274,474.51845692963826 L99.70123484499629,467.68555298062023 M86.57526880792017,473.3148084195736 L99.69612692529142,466.4820934528963 M112.83300397973278,460.8970237827652 L112.82826307239236,459.69375212877804 M99.70123484499629,467.68555298062023 L112.83300397973278,460.8970237827652 M99.69612692529142,466.4820934528963 L112.82826307239236,459.69375212877804 M125.97888209349736,454.15050890378313 L125.97450835364737,452.94742407799544 M112.83300397973278,460.8970237827652 L125.97888209349736,454.15050890378313 M112.82826307239236,459.69375212877804 L125.97450835364737,452.94742407799544 M139.14144773139958,447.44380811866256 L139.13744138804105,446.2409091343405 M125.97888209349736,454.15050890378313 L139.14144773139958,447.44380811866256 M125.97450835364737,452.94742407799544 L139.13744138804105,446.2409091343405 M152.32305161435585,440.7748946234551 L152.3194129637696,439.5721805480228 M139.14144773139958,447.44380811866256 L152.32305161435585,440.7748946234551 M139.13744138804105,446.2409091343405 L152.3194129637696,439.5721805480228 M165.5258256941073,434.1418731248467 L165.52255509354165,432.93934307638693 M152.32305161435585,440.7748946234551 L165.5258256941073,434.1418731248467 M152.3194129637696,439.5721805480228 L165.52255509354165,432.93934307638693 M178.75166784482587,427.5430114980425 L178.74876570577572,426.3406646409043 M165.5258256941073,434.1418731248467 L178.75166784482587,427.5430114980425 M165.52255509354165,432.93934307638693 L178.74876570577572,426.3406646409043 M192.00227856096222,420.97671502526026 L191.99974534349496,419.7745505663682 M178.75166784482587,427.5430114980425 L192.00227856096222,420.97671502526026 M178.74876570577572,426.3406646409043 L191.99974534349496,419.7745505663682 M205.27915775810902,414.4415099006213 L205.27699396512298,413.23952708622943 M192.00227856096222,420.97671502526026 L205.27915775810902,414.4415099006213 M191.99974534349496,419.7745505663682 L205.27699396512298,413.23952708622943 M218.58360539646947,407.93605656805016 L218.58181156798798,406.7342546801138 M205.27915775810902,414.4415099006213 L218.58360539646947,407.93605656805016 M205.27699396512298,413.23952708622943 L218.58181156798798,406.7342546801138 M231.91673410221284,401.4591424218552 L231.9153108100487,400.2575207745935 M218.58360539646947,407.93605656805016 L231.91673410221284,401.4591424218552 M218.58181156798798,406.7342546801138 L231.9153108100487,400.2575207745935 M245.2794515120915,395.0096645336015 L245.27839935404074,393.80822247053027 M231.91673410221284,401.4591424218552 L245.2794515120915,395.0096645336015 M231.9153108100487,400.2575207745935 L245.27839935404074,393.80822247053027 M258.6724871554971,388.58664615877404 L258.67180675029624,387.3853830492672 M245.2794515120915,395.0096645336015 L258.6724871554971,388.58664615877404 M245.27839935404074,393.80822247053027 L258.67180675029624,387.3853830492672 M272.0963722955524,382.18921635492353 L272.09606427729483,380.98813159133334 M258.6724871554971,388.58664615877404 L272.0963722955524,382.18921635492353 M258.67180675029624,387.3853830492672 L272.09606427729483,380.98813159133334 M285.5514554000859,375.81662392027596 L285.5515204130842,374.61571691465423 M272.0963722955524,382.18921635492353 L285.5514554000859,375.81662392027596 M272.09606427729483,380.98813159133334 L285.5515204130842,374.61571691465423 M299.03788641554627,369.4682190591301 L299.03832510877595,368.26748924045063 M285.5514554000859,375.81662392027596 L299.03788641554627,369.4682190591301 M285.5515204130842,374.61571691465423 L299.03832510877595,368.26748924045063 M312.5556337055606,363.1434573477579 L312.55644672759024,361.94290415902054 M299.03788641554627,369.4682190591301 L312.5556337055606,363.1434573477579 M299.03832510877595,368.26748924045063 L312.55644672759024,361.94290415902054 M326.10449255301603,356.8418994163139 L326.105680547189,355.64152231164746 M312.5556337055606,363.1434573477579 L326.10449255301603,356.8418994163139 M312.55644672759024,361.94290415902054 L326.105680547189,355.64152231164746 M339.6840520646634,350.56320266308535 L339.68561566337803,349.3630011050742 M326.10449255301603,356.8418994163139 L339.6840520646634,350.56320266308535 M326.105680547189,355.64152231164746 L339.68561566337803,349.3630011050742 M353.2937471991395,344.30711869095154 L353.2956870195867,343.1070921480254 M339.6840520646634,350.56320266308535 L353.2937471991395,344.30711869095154 M339.68561566337803,349.3630011050742 L353.2956870195867,343.1070921480254 M366.9328354882721,338.0734793803247 L366.93515212754033,336.873627324531 M353.2937471991395,344.30711869095154 L366.9328354882721,338.0734793803247 M353.2956870195867,343.1070921480254 L366.93515212754033,336.873627324531 M380.60041542123906,331.86221598042476 L380.60310945194476,330.66253788465906 M366.9328354882721,338.0734793803247 L380.60041542123906,331.86221598042476 M366.93515212754033,336.873627324531 L380.60310945194476,330.66253788465906 M394.29544850737057,325.6733167833968 L394.29852047390733,324.47381211981286 M380.60041542123906,331.86221598042476 L394.29544850737057,325.6733167833968 M380.60310945194476,330.66253788465906 L394.29852047390733,324.47381211981286 M408.01672630486394,319.5068712457692 L408.0201767187576,318.3075394829455 M394.29544850737057,325.6733167833968 L408.01672630486394,319.5068712457692 M394.29852047390733,324.47381211981286 L408.0201767187576,318.3075394829455 M421.7629594528163,313.3630027426346 L421.76678879054305,312.1638433446211 M408.01672630486394,319.5068712457692 L421.7629594528163,313.3630027426346 M408.0201767187576,318.3075394829455 L421.76678879054305,312.1638433446211 M435.53276419640054,307.2418877550182 L435.5369728968441,306.0429001798413 M421.7629594528163,313.3630027426346 L435.53276419640054,307.2418877550182 M421.76678879054305,312.1638433446211 L435.5369728968441,306.0429001798413 M449.3246351950103,301.1437761264528 L449.3292236561781,299.9449598240468 M435.53276419640054,307.2418877550182 L449.3246351950103,301.1437761264528 M435.5369728968441,306.0429001798413 L449.3292236561781,299.9449598240468 M463.137040218632,295.0689364778774 L463.14200879698683,293.8702908895456 M449.3246351950103,301.1437761264528 L463.137040218632,295.0689364778774 M449.3292236561781,299.9449598240468 L463.14200879698683,293.8702908895456 M476.96843792648895,289.01764823333593 L476.9737869367701,287.81917279143397 M463.137040218632,295.0689364778774 L476.96843792648895,289.01764823333593 M463.14200879698683,293.8702908895456 L476.9737869367701,287.81917279143397 M490.81727609584414,282.9902185698861 L490.82300581084667,281.7919126970276 M476.96843792648895,289.01764823333593 L490.81727609584414,282.9902185698861 M476.9737869367701,287.81917279143397 L490.82300581084667,281.7919126970276 M504.68205445940055,276.9869461521373 L504.68816511147816,275.78880926141915 M490.81727609584414,282.9902185698861 L504.68205445940055,276.9869461521373 M490.82300581084667,281.7919126970276 L504.68816511147816,275.78880926141915 M518.5613208249656,271.008136987661 L518.5678126074305,269.81016848244246 M504.68205445940055,276.9869461521373 L518.5613208249656,271.008136987661 M504.68816511147816,275.78880926141915 L518.5678126074305,269.81016848244246 M532.4537719594405,265.0540541370761 L532.460645030726,263.8562534121753 M518.5613208249656,271.008136987661 L532.4537719594405,265.0540541370761 M518.5678126074305,269.81016848244246 L532.460645030726,263.8562534121753 M546.3582974439723,259.1249071116896 L546.3655519329915,257.92727355488194 M532.4537719594405,265.0540541370761 L546.3582974439723,259.1249071116896 M532.460645030726,263.8562534121753 L546.3655519329915,257.92727355488194 M560.2739255771245,253.220893217933 L560.2815615871398,252.023426210288 M546.3582974439723,259.1249071116896 L560.2739255771245,253.220893217933 M546.3655519329915,257.92727355488194 L560.2815615871398,252.023426210288 M574.2000623702173,247.34208282904325 L574.2080799892467,246.14478174850055 M560.2739255771245,253.220893217933 L574.2000623702173,247.34208282904325 M560.2815615871398,252.023426210288 L574.2080799892467,246.14478174850055 M588.1363291624901,241.48852485707096 L588.1447284692538,240.2913890790474 M574.2000623702173,247.34208282904325 L588.1363291624901,241.48852485707096 M574.2080799892467,246.14478174850055 L588.1447284692538,240.2913890790474 M602.0828007115596,235.66013189007222 L602.0915817879276,234.46316079131674 M588.1363291624901,241.48852485707096 L602.0828007115596,235.66013189007222 M588.1447284692538,240.2913890790474 L602.0915817879276,234.46316079131674 M616.039995137209,229.85671117787624 L616.0491580803557,228.65990413945843 M602.0828007115596,235.66013189007222 L616.039995137209,229.85671117787624 M602.0915817879276,234.46316079131674 L616.0491580803557,228.65990413945843 M630.0089556501225,224.07794040045567 L630.0185005868931,222.88129681144815 M616.039995137209,229.85671117787624 L630.0089556501225,224.07794040045567 M616.0491580803557,228.65990413945843 L630.0185005868931,222.88129681144815 M643.9912756790011,218.32338288205344 L644.0012027809464,217.1269021427923 M630.0089556501225,224.07794040045567 L643.9912756790011,218.32338288205344 M630.0185005868931,222.88129681144815 L644.0012027809464,217.1269021427923 M657.9893130867581,212.59239605231457 L657.9996225909878,211.39607758026136 M643.9912756790011,218.32338288205344 L657.9893130867581,212.59239605231457 M644.0012027809464,217.1269021427923 L657.9996225909878,211.39607758026136 M672.0060955070182,206.88422174090437 L672.0167877344485,205.68806497396358 M657.9893130867581,212.59239605231457 L672.0060955070182,206.88422174090437 M657.9996225909878,211.39607758026136 L672.0167877344485,205.68806497396358 M686.0455396984634,201.19789785564615 L686.0566150780169,200.00190225799557 M672.0060955070182,206.88422174090437 L686.0455396984634,201.19789785564615 M672.0167877344485,205.68806497396358 L686.0566150780169,200.00190225799557 M686.4546093271828,232.32313901068363 L686.4657120657238,231.12626223679146 M686.0455396984634,201.19789785564615 L686.4546093271828,232.32313901068363 M686.0566150780169,200.00190225799557 L686.4657120657238,231.12626223679146 M673.9035804153311,237.9093456344881 L673.9143403852981,236.71231097462666 M686.4546093271828,232.32313901068363 L673.9035804153311,237.9093456344881 M686.4657120657238,231.12626223679146 L673.9143403852981,236.71231097462666 M661.3564106706917,243.50789342629184 L661.3668278043755,242.31070061203644 M673.9035804153311,237.9093456344881 L661.3564106706917,243.50789342629184 M673.9143403852981,236.71231097462666 L661.3668278043755,242.31070061203644 M648.8109084079225,249.1191728376048 L648.8209825768923,247.92182159004142 M661.3564106706917,243.50789342629184 L648.8109084079225,249.1191728376048 M661.3668278043755,242.31070061203644 L648.8209825768923,247.92182159004142 M636.2652260638115,254.74348598565405 L636.2749570882722,253.5459760178952 M648.8109084079225,249.1191728376048 L636.2652260638115,254.74348598565405 M648.8209825768923,247.92182159004142 L636.2749570882722,253.5459760178952 M623.7181029209198,260.3808973574793 L623.7274905857136,259.18322838138357 M636.2652260638115,254.74348598565405 L623.7181029209198,260.3808973574793 M636.2749570882722,253.5459760178952 L623.7274905857136,259.18322838138357 M611.1685439657638,266.03140831974076 L611.1775880276302,264.83358004769707 M623.7181029209198,260.3808973574793 L611.1685439657638,266.03140831974076 M623.7274905857136,259.18322838138357 L611.1775880276302,264.83358004769707 M598.6159569563707,271.69485520903123 L598.6246571549608,270.49686735860894 M611.1685439657638,266.03140831974076 L598.6159569563707,271.69485520903123 M611.1775880276302,264.83358004769707 L598.6246571549608,270.49686735860894 M586.0600535565392,277.37095979443757 L586.0684096227487,276.17281209160365 M598.6159569563707,271.69485520903123 L586.0600535565392,277.37095979443757 M598.6246571549608,270.49686735860894 L586.0684096227487,276.17281209160365 M573.5007441731982,283.0593765034735 L573.5087558346371,281.8610686844731 M586.0600535565392,277.37095979443757 L573.5007441731982,283.0593765034735 M586.0684096227487,276.17281209160365 L573.5087558346371,281.8610686844731 M560.9381834379766,288.7596639342716 L560.9458504256961,287.561195748304 M573.5007441731982,283.0593765034735 L560.9381834379766,288.7596639342716 M573.5087558346371,281.8610686844731 L560.9458504256961,287.561195748304 M548.372711841867,294.47130499034324 L548.3800338954982,293.2726762016651 M560.9381834379766,288.7596639342716 L548.372711841867,294.47130499034324 M560.9458504256961,287.561195748304 L548.3800338954982,293.2726762016651 M535.804779742373,300.193753149058 L535.8117566131958,298.99496353778073 M548.372711841867,294.47130499034324 L535.804779742373,300.193753149058 M548.3800338954982,293.2726762016651 L535.8117566131958,298.99496353778073 M523.2349650789422,305.926406295928 L523.2415965334405,304.7274556595478 M535.804779742373,300.193753149058 L523.2349650789422,305.926406295928 M535.8117566131958,298.99496353778073 L523.2415965334405,304.7274556595478 M510.66393254145964,311.6686372099087 L510.67021836376773,310.4695253639766 M523.2349650789422,305.926406295928 L510.66393254145964,311.6686372099087 M523.2415965334405,304.7274556595478 L510.67021836376773,310.4695253639766 M498.0923776606742,317.4198156316406 L498.0983176534877,316.2205424098111 M510.66393254145964,311.6686372099087 L498.0923776606742,317.4198156316406 M510.67021836376773,310.4695253639766 L498.0983176534877,316.2205424098111 M485.5210445713815,323.17930030117896 L485.5266385573601,321.9798655554827 M498.0923776606742,317.4198156316406 L485.5210445713815,323.17930030117896 M498.0983176534877,316.2205424098111 L485.5266385573601,321.9798655554827 M472.9506621658503,328.946474726414 L472.9559099872655,327.7468783265254 M485.5210445713815,323.17930030117896 L472.9506621658503,328.946474726414 M485.5266385573601,321.9798655554827 L472.9559099872655,327.7468783265254 M460.3819862707513,334.7207171135685 L460.38688779029167,333.5209589469189 M472.9506621658503,328.946474726414 L460.3819862707513,334.7207171135685 M472.9559099872655,327.7468783265254 L460.38688779029167,333.5209589469189 M447.8156973509556,340.5014686155495 L447.8202524497174,339.30154858552834 M460.3819862707513,334.7207171135685 L447.8156973509556,340.5014686155495 M460.38688779029167,333.5209589469189 L447.8202524497174,339.30154858552834 M435.2524543437447,346.2881919500224 L435.2566629206963,345.0881099753407 M447.8156973509556,340.5014686155495 L435.2524543437447,346.2881919500224 M447.8202524497174,339.30154858552834 L435.2566629206963,345.0881099753407 M422.69283990638655,352.0804127437689 L422.69670187632266,350.8801687566693 M435.2524543437447,346.2881919500224 L422.69283990638655,352.0804127437689 M435.2566629206963,345.0881099753407 L422.69670187632266,350.8801687566693 M410.1373670261413,357.8777145731938 L410.14088231781045,356.6773085178026 M422.69283990638655,352.0804127437689 L410.1373670261413,357.8777145731938 M422.69670187632266,350.8801687566693 L410.14088231781045,356.6773085178026 M397.58647776151633,363.67973854982614 L397.5896463157069,362.47917038052117 M410.1373670261413,357.8777145731938 L397.58647776151633,363.67973854982614 M410.14088231781045,356.6773085178026 L397.5896463157069,362.47917038052117 M385.0405094257033,369.4862097134139 L385.04333119238885,368.2854793924607 M397.58647776151633,363.67973854982614 L385.0405094257033,369.4862097134139 M397.5896463157069,362.47917038052117 L385.04333119238885,368.2854793924607 M372.4996927093744,375.2969364018592 L372.5021676447956,374.0960438970703 M385.0405094257033,369.4862097134139 L372.4996927093744,375.2969364018592 M385.04333119238885,368.2854793924607 L372.5021676447956,374.0960438970703 M359.96417924764137,381.111799198149 L359.96630731214077,379.9107444808575 M372.4996927093744,375.2969364018592 L359.96417924764137,381.111799198149 M372.5021676447956,374.0960438970703 L359.96630731214077,379.9107444808575 M347.4339753795503,386.9307907605325 L347.4357565335648,385.7295738024617 M359.96417924764137,381.111799198149 L347.4339753795503,386.9307907605325 M359.96630731214077,379.9107444808575 L347.4357565335648,385.7295738024617 M334.9090066079275,392.7539804693401 L334.91044080975183,391.5526012404654 M347.4339753795503,386.9307907605325 L334.9090066079275,392.7539804693401 M347.4357565335648,385.7295738024617 L334.91044080975183,391.5526012404654 M322.38906426927747,398.58154809226784 L322.3901514713405,397.3800065577475 M334.9090066079275,392.7539804693401 L322.38906426927747,398.58154809226784 M334.91044080975183,391.5526012404654 L322.3901514713405,397.3800065577475 M309.87383576899214,404.4137697760664 L309.8745759149582,403.21206589357024 M322.38906426927747,398.58154809226784 L309.87383576899214,404.4137697760664 M322.3901514713405,397.3800065577475 L309.8745759149582,403.21206589357024 M297.36287924357225,410.25103598438034 L297.3632722647275,409.04916970092705 M309.87383576899214,404.4137697760664 L297.36287924357225,410.25103598438034 M309.8745759149582,403.21206589357024 L297.3632722647275,409.04916970092705 M284.85564600966296,416.0938404209508 L284.85569182191114,414.8918116700614 M297.36287924357225,410.25103598438034 L284.85564600966296,416.0938404209508 M297.3632722647275,409.04916970092705 L284.85569182191114,414.8918116700614 M272.3514674600154,421.94279076939745 L272.35116596049687,420.7405994679581 M284.85564600966296,416.0938404209508 L272.3514674600154,421.94279076939745 M284.85569182191114,414.8918116700614 L272.35116596049687,420.7405994679581 M259.84956053491635,427.79860785520236 L259.84891159876634,426.5962539003599 M272.3514674600154,421.94279076939745 L259.84956053491635,427.79860785520236 M272.35116596049687,420.7405994679581 L259.84891159876634,426.5962539003599 M247.34902475522404,433.66212910906603 L247.3480282322339,432.459612375035 M259.84956053491635,427.79860785520236 L247.34902475522404,433.66212910906603 M259.84891159876634,426.5962539003599 L247.3480282322339,432.459612375035 M234.8488452071822,439.53430917188587 L234.8475009185304,438.3316295067483 M247.34902475522404,433.66212910906603 L234.8488452071822,439.53430917188587 M247.3480282322339,432.459612375035 L234.8475009185304,438.3316295067483 M222.34788855490825,445.4162268215214 L222.34619628976537,444.2133840438432 M234.8488452071822,439.53430917188587 L222.34788855490825,445.4162268215214 M234.8475009185304,438.3316295067483 L222.34619628976537,444.2133840438432 M209.8449110087085,451.30907525652236 L209.84287052105157,450.1060691522488 M222.34788855490825,445.4162268215214 L209.8449110087085,451.30907525652236 M222.34619628976537,444.2133840438432 L209.84287052105157,450.1060691522488 M197.33853687885062,457.21418369004726 L197.3361478836635,456.01101400880935 M209.8449110087085,451.30907525652236 L197.33853687885062,457.21418369004726 M209.84287052105157,450.1060691522488 L197.3361478836635,456.01101400880935 M184.8272749744695,463.1330044953982 L184.8245371443856,461.9296709471857 M197.33853687885062,457.21418369004726 L184.8272749744695,463.1330044953982 M197.3361478836635,456.01101400880935 L184.8245371443856,461.9296709471857 M172.30951707399345,469.0671175827016 L172.30643003588102,467.86361983442424 M184.8272749744695,463.1330044953982 L172.30951707399345,469.0671175827016 M184.8245371443856,461.9296709471857 L172.30643003588102,467.86361983442424 M159.7834954679817,475.0182526492593 L159.78005879832773,473.81459032070376 M172.30951707399345,469.0671175827016 L159.7834954679817,475.0182526492593 M172.30643003588102,467.86361983442424 L159.78005879832773,473.81459032070376 M147.2473202554899,480.9882700135382 L147.24353347680784,479.7844426738665 M159.7834954679817,475.0182526492593 L147.2473202554899,480.9882700135382 M159.78005879832773,473.81459032070376 L147.24353347680784,479.7844426738665 M134.69894778890864,486.9791800249677 L134.69481036524724,485.77518718869044 M147.2473202554899,480.9882700135382 L134.69894778890864,486.9791800249677 M147.24353347680784,479.7844426738665 L134.69481036524724,485.77518718869044 M122.1361679760617,492.99315504381747 L122.13167930813893,491.7889961664487 M134.69894778890864,486.9791800249677 L122.1361679760617,492.99315504381747 M134.69481036524724,485.77518718869044 L122.13167930813893,491.7889961664487 M109.55660066123232,499.03251895486267 L109.5517600814502,497.8281934288784 M122.1361679760617,492.99315504381747 L109.55660066123232,499.03251895486267 M122.13167930813893,491.7889961664487 L109.5517600814502,497.8281934288784 M96.95767675808219,505.09977419769285 L96.95248352498925,503.8952813477566 M109.55660066123232,499.03251895486267 L96.95767675808219,505.09977419769285 M109.5517600814502,497.8281934288784 L96.95248352498925,503.8952813477566 M84.33661553579702,511.1975988459575 L84.33106882789434,509.99293792424254 M96.95767675808219,505.09977419769285 L84.33661553579702,511.1975988459575 M96.95248352498925,503.8952813477566 L84.33106882789434,509.99293792424254 M71.6903975405865,517.3288783826222 L71.68449644934611,516.1240485632741 M84.33661553579702,511.1975988459575 L71.6903975405865,517.3288783826222 M84.33106882789434,509.99293792424254 L71.68449644934611,516.1240485632741 M71.6903975405865,517.3288783826222 L21.027569774263156,509.4453796624679 M71.68449644934611,516.1240485632741 L21.020257889203776,508.24076702665974" stroke="black"  stroke-width="4"  fill="red"/>
<path d="M820.6276373881452,277.45084390262474 L820.6424654768686,276.2526939506573 M815.6965246487242,286.5146640431451 L815.7112228781106,285.31625900610953 M820.6276373881452,277.45084390262474 L815.6965246487242,286.5146640431451 M820.6424654768686,276.2526939506573 L815.7112228781106,285.31625900610953 M810.5345149955052,295.51197040410165 L810.5490768296904,294.31331236250566 M815.6965246487242,286.5146640431451 L810.5345149955052,295.51197040410165 M815.7112228781106,285.31625900610953 L810.5490768296904,294.31331236250566 M805.140415653544,304.44354793986673 L805.1548345175595,303.24463894756303 M810.5345149955052,295.51197040410165 L805.140415653544,304.44354793986673 M810.5490768296904,294.31331236250566 L805.1548345175595,303.24463894756303 M799.5126974246147,313.3099225709909 L799.5269666949611,312.1107646625517 M805.140415653544,304.44354793986673 L799.5126974246147,313.3099225709909 M805.1548345175595,303.24463894756303 L799.5269666949611,312.1107646625517 M793.6496164842623,322.11117833312863 L793.6637294827159,320.9117735363174 M799.5126974246147,313.3099225709909 L793.6496164842623,322.11117833312863 M799.5269666949611,312.1107646625517 L793.6637294827159,320.9117735363174 M787.5488222829172,330.8470919447714 L787.5627722595879,329.647442289193 M793.6496164842623,322.11117833312863 L787.5488222829172,330.8470919447714 M793.6637294827159,320.9117735363174 L787.5627722595879,329.647442289193 M781.2403925780899,339.5250676829648 L781.2541736136349,338.3251749865415 M787.5488222829172,330.8470919447714 L781.2403925780899,339.5250676829648 M787.5627722595879,329.647442289193 L781.2541736136349,338.3251749865415 M774.7263443743168,348.1461046006065 L774.7399506003279,346.94597064944116 M781.2403925780899,339.5250676829648 L774.7263443743168,348.1461046006065 M781.2541736136349,338.3251749865415 L774.7399506003279,346.94597064944116 M767.9664419365572,356.69975704274697 L767.9798663584819,355.4993839111325 M774.7263443743168,348.1461046006065 L767.9664419365572,356.69975704274697 M774.7399506003279,346.94597064944116 L767.9798663584819,355.4993839111325 M760.9518389922627,365.18279115494187 L760.9650743621457,363.98218100305206 M767.9664419365572,356.69975704274697 L760.9518389922627,365.18279115494187 M767.9798663584819,355.4993839111325 L760.9650743621457,363.98218100305206 M753.676210187592,373.59221115696215 L753.6892490739507,372.39136622396313 M760.9518389922627,365.18279115494187 L753.676210187592,373.59221115696215 M760.9650743621457,363.98218100305206 L753.6892490739507,372.39136622396313 M746.1351677791145,381.92517826700396 L746.1480026207372,380.72410086645806 M753.676210187592,373.59221115696215 L746.1351677791145,381.92517826700396 M753.6892490739507,372.39136622396313 L746.1480026207372,380.72410086645806 M738.3258998332273,390.17896580825476 L738.3385229830204,388.97765832479774 M746.1351677791145,381.92517826700396 L738.3258998332273,390.17896580825476 M746.1480026207372,380.72410086645806 L738.3385229830204,388.97765832479774 M730.2496674484881,398.3518566318698 L730.262071287219,397.15032149291704 M738.3258998332273,390.17896580825476 L730.2496674484881,398.3518566318698 M738.3385229830204,388.97765832479774 L730.262071287219,397.15032149291704 M721.902671467583,406.4402166608375 L721.914848262633,405.2384563898256 M730.2496674484881,398.3518566318698 L721.902671467583,406.4402166608375 M730.262071287219,397.15032149291704 L721.914848262633,405.2384563898256 M713.2856858510859,414.44166798716907 L713.2976278842976,413.23968516838187 M721.902671467583,406.4402166608375 L713.2856858510859,414.44166798716907 M721.914848262633,405.2384563898256 L713.2976278842976,413.23968516838187 M704.4003564247625,422.35395655372173 L704.4120560170402,421.1517538287115 M713.2856858510859,414.44166798716907 L704.4003564247625,422.35395655372173 M713.2976278842976,413.23968516838187 L704.4120560170402,421.1517538287115 M695.2490106766978,430.1748977358527 L695.2604602073388,428.9724778013893 M704.4003564247625,422.35395655372173 L695.2490106766978,430.1748977358527 M704.4120560170402,421.1517538287115 L695.2604602073388,428.9724778013893 M685.8347239497749,437.90245025704644 L685.8459158777146,436.6998158610282 M695.2490106766978,430.1748977358527 L685.8347239497749,437.90245025704644 M695.2604602073388,428.9724778013893 L685.8459158777146,436.6998158610282 M676.1610979306649,445.5347168844055 L676.1720248095938,444.33187082177017 M685.8347239497749,437.90245025704644 L676.1610979306649,445.5347168844055 M685.8459158777146,436.6998158610282 L676.1720248095938,444.33187082177017 M666.2324194147222,453.0698899262697 L666.2430739126132,451.8668350364343 M676.1610979306649,445.5347168844055 L666.2324194147222,453.0698899262697 M676.1720248095938,444.33187082177017 L666.2430739126132,451.8668350364343 M656.0532645635641,460.5063161325782 L656.063639471247,459.3030552950946 M666.2324194147222,453.0698899262697 L656.0532645635641,460.5063161325782 M666.2430739126132,451.8668350364343 L656.063639471247,459.3030552950946 M645.6288971314084,467.842506589417 L645.6389853822378,466.6390427193738 M656.0532645635641,460.5063161325782 L645.6288971314084,467.842506589417 M656.063639471247,459.3030552950946 L645.6389853822378,466.6390427193738 M634.9650067699774,475.077160455837 L634.9748014522436,473.87349649862426 M645.6288971314084,467.842506589417 L634.9650067699774,475.077160455837 M645.6389853822378,466.6390427193738 L634.9748014522436,473.87349649862426 M624.0677976942638,482.2092256588587 L624.0772920661054,481.00536458327684 M634.9650067699774,475.077160455837 L624.0677976942638,482.2092256588587 M634.9748014522436,473.87349649862426 L624.0772920661054,481.00536458327684 M612.94385193828,489.23781215015634 L612.9530394387517,488.0337569439454 M624.0677976942638,482.2092256588587 L612.94385193828,489.23781215015634 M624.0772920661054,481.00536458327684 L612.9530394387517,488.0337569439454 M601.6001388436803,496.16229870346416 L601.6090131041268,494.9580523659045 M612.94385193828,489.23781215015634 L601.6001388436803,496.16229870346416 M612.9530394387517,488.0337569439454 L601.6090131041268,494.9580523659045 M590.0438534200786,502.98220448000694 L590.0524082709446,501.77777001808647 M601.6001388436803,496.16229870346416 L590.0438534200786,502.98220448000694 M601.6090131041268,494.9580523659045 L590.0524082709446,501.77777001808647 M578.282449165537,509.69728196428684 L578.2906786441175,508.4926623863214 M590.0438534200786,502.98220448000694 L578.282449165537,509.69728196428684 M590.0524082709446,501.77777001808647 L578.2906786441175,508.4926623863214 M566.3235647885588,516.3074483260903 L566.331463144665,515.1026466372555 M578.282449165537,509.69728196428684 L566.3235647885588,516.3074483260903 M578.2906786441175,508.4926623863214 L566.331463144665,515.1026466372555 M554.1756321590798,522.8132695759673 L554.1831938778256,521.608288760518 M566.3235647885588,516.3074483260903 L554.1756321590798,522.8132695759673 M566.331463144665,515.1026466372555 L554.1831938778256,521.608288760518 M541.8462383155395,529.2149042921781 L541.8534580940241,528.0097473247786 M554.1756321590798,522.8132695759673 L541.8462383155395,529.2149042921781 M554.1831938778256,521.608288760518 L541.8534580940241,528.0097473247786 M529.3434363055248,535.5129781303367 L529.3503090663781,534.3076479633137 M541.8462383155395,529.2149042921781 L529.3434363055248,535.5129781303367 M541.8534580940241,528.0097473247786 L529.3503090663781,534.3076479633137 M516.6753865243946,541.7083834449315 L516.6819074192186,540.5028830010697 M529.3434363055248,535.5129781303367 L516.6753865243946,541.7083834449315 M529.3503090663781,534.3076479633137 L516.6819074192186,540.5028830010697 M503.85025641284847,547.8022445887095 L503.85642082281277,546.5965767550183 M516.6753865243946,541.7083834449315 L503.85025641284847,547.8022445887095 M516.6819074192186,540.5028830010697 L503.85642082281277,546.5965767550183 M490.8762478362323,553.7959764685254 L490.8820513734214,552.5901440884163 M503.85025641284847,547.8022445887095 L490.8762478362323,553.7959764685254 M503.85642082281277,546.5965767550183 L490.8820513734214,552.5901440884163 M477.7615227314459,559.6912718586318 L477.76696123808824,558.4852777244603 M490.8762478362323,553.7959764685254 L477.7615227314459,559.6912718586318 M490.8820513734214,552.5901440884163 L477.76696123808824,558.4852777244603 M464.5185353052244,565.4934729845479 L464.5236049747999,564.2873197377414 M477.7615227314459,559.6912718586318 L464.5185353052244,565.4934729845479 M477.76696123808824,558.4852777244603 L464.5236049747999,564.2873197377414 M451.1520006254426,571.2024824872237 L451.15669778516406,569.9961727677169 M464.5185353052244,565.4934729845479 L451.1520006254426,571.2024824872237 M464.5236049747999,564.2873197377414 L451.15669778516406,569.9961727677169 M437.6701967862175,576.8213235307537 L437.67451799756134,575.6148598915902 M451.1520006254426,571.2024824872237 L437.6701967862175,576.8213235307537 M451.15669778516406,569.9961727677169 L437.67451799756134,575.6148598915902 M424.0814432439058,582.3535853101573 L424.08538530398516,581.1469702022348 M437.6701967862175,576.8213235307537 L424.0814432439058,582.3535853101573 M437.67451799756134,575.6148598915902 L424.08538530398516,581.1469702022348 M410.3942036058787,587.8035871579391 L410.39776355165657,586.596822910298 M424.0814432439058,582.3535853101573 L410.3942036058787,587.8035871579391 M424.08538530398516,581.1469702022348 L410.39776355165657,586.596822910298 M396.6172138797058,593.1765279412919 L396.62038899574816,591.96961673736 M410.3942036058787,587.8035871579391 L396.6172138797058,593.1765279412919 M410.39776355165657,586.596822910298 L396.62038899574816,591.96961673736 M382.741748025006,598.4629287136058 L382.7445353525419,597.2558729926884 M396.6172138797058,593.1765279412919 L382.741748025006,598.4629287136058 M396.62038899574816,591.96961673736 L382.7445353525419,597.2558729926884 M368.77076814644465,603.6637201165997 L368.773164812393,602.4565222890558 M382.741748025006,598.4629287136058 L368.77076814644465,603.6637201165997 M382.7445353525419,597.2558729926884 L368.773164812393,602.4565222890558 M354.70641314760843,608.7796828385622 L354.70841634157773,607.5723452900054 M368.77076814644465,603.6637201165997 L354.70641314760843,608.7796828385622 M368.773164812393,602.4565222890558 L354.70841634157773,607.5723452900054 M340.5500463179325,613.8114938560223 L340.55165327053925,612.6040189502485 M354.70641314760843,608.7796828385622 L340.5500463179325,613.8114938560223 M354.70841634157773,607.5723452900054 L340.55165327053925,612.6040189502485 M326.3020301887133,618.7596887748555 L326.30323814357,617.5520788577883 M340.5500463179325,613.8114938560223 L326.3020301887133,618.7596887748555 M340.55165327053925,612.6040189502485 L326.30323814357,617.5520788577883 M311.9618540491469,623.6246427690062 L311.96266023840366,622.4169001731536 M326.3020301887133,618.7596887748555 L311.9618540491469,623.6246427690062 M326.30323814357,617.5520788577883 L311.96266023840366,622.4169001731536 M378.1210783761004,573.3795384141399 L378.12373325357333,572.1731690478582 M311.9618540491469,623.6246427690062 L378.1210783761004,573.3795384141399 M311.96266023840366,622.4169001731536 L378.12373325357333,572.1731690478582 M387.0489223538443,568.4539559854209 L387.05182629588154,567.247721587164 M378.1210783761004,573.3795384141399 L387.0489223538443,568.4539559854209 M378.12373325357333,572.1731690478582 L387.05182629588154,567.247721587164 M395.9290332144799,563.5045520737181 L395.9321847701891,562.2984533589679 M387.0489223538443,568.4539559854209 L395.9290332144799,563.5045520737181 M387.05182629588154,567.247721587164 L395.9321847701891,562.2984533589679 M404.7639709071087,558.5330741063647 L404.7673686975213,557.3271117435734 M395.9290332144799,563.5045520737181 L404.7639709071087,558.5330741063647 M395.9321847701891,562.2984533589679 L404.7673686975213,557.3271117435734 M413.5555940242964,553.5407814864559 L413.5592367227076,552.3349561103557 M404.7639709071087,558.5330741063647 L413.5555940242964,553.5407814864559 M404.7673686975213,557.3271117435734 L413.5592367227076,552.3349561103557 M422.30526045772933,548.5286276061763 L422.3091467756708,547.3229398261203 M413.5555940242964,553.5407814864559 L422.30526045772933,548.5286276061763 M413.5592367227076,552.3349561103557 L422.3091467756708,547.3229398261203 M431.0138933393424,543.4972779161694 L431.01802201439864,542.2917283239965 M422.30526045772933,548.5286276061763 L431.0138933393424,543.4972779161694 M422.3091467756708,547.3229398261203 L431.01802201439864,542.2917283239965 M439.68603076641625,538.4494975519431 L439.69040066361003,537.2440866642369 M431.0138933393424,543.4972779161694 L439.68603076641625,538.4494975519431 M431.01802201439864,542.2917283239965 L439.69040066361003,537.2440866642369 M448.31744945801074,533.3829535076677 L448.3220593241184,532.1776819058025 M439.68603076641625,538.4494975519431 L448.31744945801074,533.3829535076677 M439.69040066361003,537.2440866642369 L448.3220593241184,532.1776819058025 M456.9085217398516,528.297998211005 L456.9133703322916,527.0928664673925 M448.31744945801074,533.3829535076677 L456.9085217398516,528.297998211005 M448.3220593241184,532.1776819058025 L456.9133703322916,527.0928664673925 M465.45950559274957,523.194920211924 L465.4645916763883,521.9899288917543 M456.9085217398516,528.297998211005 L465.45950559274957,523.194920211924 M456.9133703322916,527.0928664673925 L465.4645916763883,521.9899288917543 M473.97050960294837,518.0739275563844 L473.9758319459237,516.8690772198313 M465.45950559274957,523.194920211924 L473.97050960294837,518.0739275563844 M465.4645916763883,521.9899288917543 L473.9758319459237,516.8690772198313 M482.4414895044821,512.9351499943216 L482.44704687393187,511.7304411986904 M473.97050960294837,518.0739275563844 L482.4414895044821,512.9351499943216 M473.9758319459237,516.8690772198313 L482.44704687393187,511.7304411986904 M490.8723777379196,507.77871238911274 L490.8781688993424,506.5741456889717 M482.4414895044821,512.9351499943216 L490.8723777379196,507.77871238911274 M482.44704687393187,511.7304411986904 L490.8781688993424,506.5741456889717 M499.2629574047038,502.60465951339137 L499.26898111778655,501.4002354627749 M490.8723777379196,507.77871238911274 L499.2629574047038,502.60465951339137 M490.8781688993424,506.5741456889717 L499.26898111778655,501.4002354627749 M507.6134420704134,497.41328725108406 L507.6196971011151,496.20900639656514 M499.2629574047038,502.60465951339137 L507.6134420704134,497.41328725108406 M499.26898111778655,501.4002354627749 L507.6196971011151,496.20900639656514 M515.9228897594928,492.20428298592276 L515.9293748476734,491.0001458833962 M507.6134420704134,497.41328725108406 L515.9228897594928,492.20428298592276 M507.6196971011151,496.20900639656514 L515.9293748476734,491.0001458833962 M524.1909603368648,486.977671573098 L524.1976742131751,485.77367877847945 M515.9228897594928,492.20428298592276 L524.1909603368648,486.977671573098 M515.9293748476734,491.0001458833962 L524.1976742131751,485.77367877847945 M532.4172623711778,481.7334710278164 L532.4242037556437,480.5296230972327 M524.1909603368648,486.977671573098 L532.4172623711778,481.7334710278164 M524.1976742131751,485.77367877847945 L532.4242037556437,480.5296230972327 M540.601360876443,476.47166949908 L540.6085284772603,475.26796698969605 M532.4172623711778,481.7334710278164 L540.601360876443,476.47166949908 M532.4242037556437,480.5296230972327 L540.6085284772603,475.26796698969605 M548.7427698594656,471.1922667990299 L548.7501623716,469.98871026872894 M540.601360876443,476.47166949908 L548.7427698594656,471.1922667990299 M540.6085284772603,475.26796698969605 L548.7501623716,469.98871026872894 M556.8409798285171,465.89523984473624 L556.8485959330619,464.6918298527559 M548.7427698594656,471.1922667990299 L556.8409798285171,465.89523984473624 M548.7501623716,469.98871026872894 L556.8485959330619,464.6918298527559 M564.8954340932478,460.5805565200539 L564.9032724561254,459.37729362724014 M556.8409798285171,465.89523984473624 L564.8954340932478,460.5805565200539 M556.8485959330619,464.6918298527559 L564.9032724561254,459.37729362724014 M572.9055848033047,455.2481986962972 L572.9136440755381,454.04508346472073 M564.8954340932478,460.5805565200539 L572.9055848033047,455.2481986962972 M564.9032724561254,459.37729362724014 L572.9136440755381,454.04508346472073 M580.870861157404,449.8981621987342 L580.8791399745035,448.69519519130733 M572.9055848033047,455.2481986962972 L580.870861157404,449.8981621987342 M572.9136440755381,454.04508346472073 L580.8791399745035,448.69519519130733 M588.7907328115488,444.53043839286295 L588.7992297946571,443.32762017346585 M580.870861157404,449.8981621987342 L588.7907328115488,444.53043839286295 M580.8791399745035,448.69519519130733 L588.7992297946571,443.32762017346585 M596.6646619994511,439.14500501058586 L596.6733757551519,437.9423361444476 M588.7907328115488,444.53043839286295 L596.6646619994511,439.14500501058586 M588.7992297946571,443.32762017346585 L596.6733757551519,437.9423361444476 M604.4920967337064,433.7419042215762 L604.5010258536761,432.53938527349004 M596.6646619994511,439.14500501058586 L604.4920967337064,433.7419042215762 M596.6733757551519,437.9423361444476 L604.5010258536761,432.53938527349004 M612.2725564571164,428.3211185940628 L612.2816995201064,427.11875013004146 M604.4920967337064,433.7419042215762 L612.2725564571164,428.3211185940628 M604.5010258536761,432.53938527349004 L612.2816995201064,427.11875013004146 M620.005561862926,422.8826675458259 L620.0149174348329,421.6804501320807 M612.2725564571164,428.3211185940628 L620.005561862926,422.8826675458259 M612.2816995201064,427.11875013004146 L620.0149174348329,421.6804501320807 M627.6906504080455,417.4265797511374 L627.700217042401,416.22451395382285 M620.005561862926,422.8826675458259 L627.6906504080455,417.4265797511374 M620.0149174348329,421.6804501320807 L627.700217042401,416.22451395382285 M635.3274398248792,411.9528931173498 L635.3372160651044,410.75097950230696 M627.6906504080455,417.4265797511374 L635.3274398248792,411.9528931173498 M627.700217042401,416.22451395382285 L635.3372160651044,410.75097950230696 M642.915484107376,406.4615906575372 L642.9254684850043,405.25982979182214 M635.3274398248792,411.9528931173498 L642.915484107376,406.4615906575372 M635.3372160651044,410.75097950230696 L642.9254684850043,405.25982979182214 M650.4545465546544,400.9527928432047 L650.4647375952239,399.75118529126473 M642.915484107376,406.4615906575372 L650.4545465546544,400.9527928432047 M642.9254684850043,405.25982979182214 L650.4647375952239,399.75118529126473 M657.9442299131853,395.426473655373 L657.9546261317323,394.2250199831224 M650.4545465546544,400.9527928432047 L657.9442299131853,395.426473655373 M650.4647375952239,399.75118529126473 L657.9546261317323,394.2250199831224 M665.3841699077113,389.8826438310678 L665.394769809719,388.6813446048672 M657.9442299131853,395.426473655373 L665.3841699077113,389.8826438310678 M657.9546261317323,394.2250199831224 L665.394769809719,388.6813446048672 M672.7740499703274,384.321286797117 L672.7848520530534,383.1201425845371 M665.3841699077113,389.8826438310678 L672.7740499703274,384.321286797117 M665.394769809719,388.6813446048672 L672.7848520530534,383.1201425845371 M680.1134749784505,378.7423952777123 L680.1244777287689,377.54140664727737 M672.7740499703274,384.321286797117 L680.1134749784505,378.7423952777123 M672.7848520530534,383.1201425845371 L680.1244777287689,377.54140664727737 M687.4020337487211,373.14591649418355 L687.4132356426713,371.9450840166442 M680.1134749784505,378.7423952777123 L687.4020337487211,373.14591649418355 M680.1244777287689,377.54140664727737 L687.4132356426713,371.9450840166442 M694.6392349085311,367.53171578493703 L694.65063440907,366.33104003556235 M687.4020337487211,373.14591649418355 L694.6392349085311,367.53171578493703 M687.4132356426713,371.9450840166442 L694.65063440907,366.33104003556235 M701.8244612921815,361.89967714024147 L701.8360568457243,360.69915869830777 M694.6392349085311,367.53171578493703 L701.8244612921815,361.89967714024147 M694.65063440907,366.33104003556235 L701.8360568457243,360.69915869830777 M708.9602250277827,356.2509245927086 L708.9720151515597,355.0505640068465 M701.8244612921815,361.89967714024147 L708.9602250277827,356.2509245927086 M701.8360568457243,360.69915869830777 L708.9720151515597,355.0505640068465 M716.0433536244557,350.5842294627193 L716.0553367478009,349.38402731664905 M708.9602250277827,356.2509245927086 L716.0433536244557,350.5842294627193 M708.9720151515597,355.0505640068465 L716.0553367478009,349.38402731664905 M723.0728467465137,344.8992217091381 L723.085021271524,343.69917859771755 M716.0433536244557,350.5842294627193 L723.0728467465137,344.8992217091381 M716.0553367478009,349.38402731664905 L723.085021271524,343.69917859771755 M730.0471962523083,339.19542300094815 L730.0595605397538,337.99553953322857 M723.0728467465137,344.8992217091381 L730.0471962523083,339.19542300094815 M723.085021271524,343.69917859771755 L730.0595605397538,337.99553953322857 M736.964399660647,333.4721105737275 L736.9769520161888,332.2723873798307 M730.0471962523083,339.19542300094815 L736.964399660647,333.4721105737275 M730.0595605397538,337.99553953322857 L736.9769520161888,332.2723873798307 M743.8215312718601,327.72821788975887 L743.8342699203561,326.52865563055764 M736.964399660647,333.4721105737275 L743.8215312718601,327.72821788975887 M736.9769520161888,332.2723873798307 L743.8342699203561,326.52865563055764 M750.6142810007588,321.9621811086367 L750.6272040477475,320.7627804897652 M743.8215312718601,327.72821788975887 L750.6142810007588,321.9621811086367 M743.8342699203561,326.52865563055764 L750.6272040477475,320.7627804897652 M757.3606653774926,316.18119435663186 L757.3737714317339,314.98195588287354 M750.6142810007588,321.9621811086367 L757.3606653774926,316.18119435663186 M750.6272040477475,320.7627804897652 L757.3737714317339,314.98195588287354 M764.036011717847,310.3757266655352 L764.0492987010709,309.17665110987593 M757.3606653774926,316.18119435663186 L764.036011717847,310.3757266655352 M757.3737714317339,314.98195588287354 L764.0492987010709,309.17665110987593 M764.036011717847,310.3757266655352 L820.6276373881452,277.45084390262474 M764.0492987010709,309.17665110987593 L820.6424654768686,276.2526939506573" stroke="black"  stroke-width="4"  fill="red"/>
<path d="M-20.63400117600804,485.13354994668896 L-20.64246547686855,483.9296080854183 M-7.517986336971433,478.0520797286238 L-7.526082612073537,476.84833353373637 M-20.63400117600804,485.13354994668896 L-7.517986336971433,478.0520797286238 M-20.64246547686855,483.9296080854183 L-7.526082612073537,476.84833353373637 M5.590444869686337,471.02977637512095 L5.58271614966452,469.82622433892595 M-7.517986336971433,478.0520797286238 L5.590444869686337,471.02977637512095 M-7.526082612073537,476.84833353373637 L5.58271614966452,469.82622433892595 M18.695720716488722,464.0632059198518 L18.688359208469024,462.8598466264963 M5.590444869686337,471.02977637512095 L18.695720716488722,464.0632059198518 M5.58271614966452,469.82622433892595 L18.688359208469024,462.8598466264963 M31.801942802855024,457.14916931780357 L31.794948281803386,455.94600143703656 M18.695720716488722,464.0632059198518 L31.801942802855024,457.14916931780357 M18.688359208469024,462.8598466264963 L31.794948281803386,455.94600143703656 M44.91283183669873,450.28468776294073 L44.9062041846031,449.0817100442601 M31.801942802855024,457.14916931780357 L44.91283183669873,450.28468776294073 M31.794948281803386,455.94600143703656 L44.9062041846031,449.0817100442601 M58.031784181726835,443.4670432184269 L58.02552337817269,442.2642544840779 M44.91283183669873,450.28468776294073 L58.031784181726835,443.4670432184269 M44.9062041846031,449.0817100442601 L58.02552337817269,442.2642544840779 M71.16191397137692,436.6936718819045 L71.15602008536189,435.4910710228083 M58.031784181726835,443.4670432184269 L71.16191397137692,436.6936718819045 M58.02552337817269,442.2642544840779 L71.15602008536189,435.4910710228083 M84.3060695156874,429.9622094985883 L84.3005426979056,428.7597954689962 M71.16191397137692,436.6936718819045 L84.3060695156874,429.9622094985883 M71.15602008536189,435.4910710228083 L84.3005426979056,428.7597954689962 M97.46683449650925,423.27047231609026 L97.46167497170364,422.0682441287459 M84.3060695156874,429.9622094985883 L97.46683449650925,423.27047231609026 M84.3005426979056,428.7597954689962 L97.46167497170364,422.0682441287459 M110.64655301477802,416.616424374196 L110.64176107482336,415.41438109639097 M97.46683449650925,423.27047231609026 L110.64655301477802,416.616424374196 M97.46167497170364,422.0682441287459 L110.64176107482336,415.41438109639097 M123.847346155693,409.99819531043096 L123.84292215315816,408.7963360595484 M110.64655301477802,416.616424374196 L123.847346155693,409.99819531043096 M110.64176107482336,415.41438109639097 L123.84292215315816,408.7963360595484 M137.0711408428632,403.41404546843876 L137.06708518540478,402.21236940845307 M123.847346155693,409.99819531043096 L137.0711408428632,403.41404546843876 M123.84292215315816,408.7963360595484 L137.06708518540478,402.21236940845307 M150.31961098658667,396.86237231566065 L150.31592412972878,395.660878653446 M137.0711408428632,403.41404546843876 L150.31961098658667,396.86237231566065 M137.06708518540478,402.21236940845307 L150.31592412972878,395.660878653446 M163.59427534115196,390.341727132218 L163.5909577837998,389.14041511337825 M150.31961098658667,396.86237231566065 L163.59427534115196,390.341727132218 M150.31592412972878,395.660878653446 L163.5909577837998,389.14041511337825 M176.8964310665687,383.85076196529803 L176.8934833447073,382.6496308714621 M163.59427534115196,390.341727132218 L176.8964310665687,383.85076196529803 M163.5909577837998,389.14041511337825 L176.8934833447073,382.6496308714621 M190.22717750549242,377.38826154714013 L190.22460018655823,376.1873106923569 M176.8964310665687,383.85076196529803 L190.22717750549242,377.38826154714013 M176.8934833447073,382.6496308714621 L190.22460018655823,376.1873106923569 M203.58744413889167,370.9531363112016 L203.5852378169393,369.75236503851823 M190.22717750549242,377.38826154714013 L203.58744413889167,370.9531363112016 M190.22460018655823,376.1873106923569 L203.5852378169393,369.75236503851823 M216.9779536328042,364.5444071714465 L216.97611892266855,363.3438148499004 M203.58744413889167,370.9531363112016 L216.9779536328042,364.5444071714465 M203.5852378169393,369.75236503851823 L216.97611892266855,363.3438148499004 M230.3992432473708,358.1612114428969 L230.3977807794393,356.9607974643328 M216.9779536328042,364.5444071714465 L230.3992432473708,358.1612114428969 M216.97611892266855,363.3438148499004 L230.3977807794393,356.9607974643328 M243.85164718215236,351.8027856817778 L243.85055759666687,350.6025494581337 M230.3992432473708,358.1612114428969 L243.85164718215236,351.8027856817778 M230.3977807794393,356.9607974643328 L243.85055759666687,350.6025494581337 M257.3353302819623,345.46849184375736 L257.33461422427007,344.2684328036112 M243.85164718215236,351.8027856817778 L257.3353302819623,345.46849184375736 M243.85055759666687,350.6025494581337 L257.33461422427007,344.2684328036112 M270.85026197767735,339.1577867580355 L270.84992009277823,337.9579043439945 M257.3353302819623,345.46849184375736 L270.85026197767735,339.1577867580355 M257.33461422427007,344.2684328036112 L270.84992009277823,337.9579043439945 M284.39622674480484,332.87022525121046 L284.3962596722047,331.670518917206 M270.85026197767735,339.1577867580355 L284.39622674480484,332.87022525121046 M270.84992009277823,337.9579043439945 L284.3962596722047,331.670518917206 M297.97282269920396,326.6054700804276 L297.9732310677441,325.40593928872255 M284.39622674480484,332.87022525121046 L297.97282269920396,326.6054700804276 M284.3962596722047,331.670518917206 L297.9732310677441,325.40593928872255 M311.5794898444991,320.3632757154375 L311.5802742679837,319.1639199340802 M297.97282269920396,326.6054700804276 L311.5794898444991,320.3632757154375 M297.9732310677441,325.40593928872255 L311.5802742679837,319.1639199340802 M325.2154868442387,314.1434744494151 L325.21664791643286,312.94429315007505 M311.5794898444991,320.3632757154375 L325.2154868442387,314.1434744494151 M311.5802742679837,319.1639199340802 L325.21664791643286,312.94429315007505 M338.87991525768757,307.9459897832114 L338.8814535480003,306.7469824386335 M325.2154868442387,314.1434744494151 L338.87991525768757,307.9459897832114 M325.21664791643286,312.94429315007505 L338.8814535480003,306.7469824386335 M352.57170421914657,301.77082709234503 L352.57362026790304,300.5719931740577 M338.87991525768757,307.9459897832114 L352.57170421914657,301.77082709234503 M338.8814535480003,306.7469824386335 L352.57362026790304,300.5719931740577 M366.2896898293854,295.61805526413656 L366.29198414530424,294.4193942406704 M352.57170421914657,301.77082709234503 L366.2896898293854,295.61805526413656 M352.57362026790304,300.5719931740577 L366.29198414530424,294.4193942406704 M380.0325838649443,289.487797458438 L380.03525692175805,288.2893087937987 M366.2896898293854,295.61805526413656 L380.0325838649443,289.487797458438 M366.29198414530424,294.4193942406704 L380.03525692175805,288.2893087937987 M393.7989624332402,283.3802603796792 L393.8020146660166,282.181943530993 M380.0325838649443,289.487797458438 L393.7989624332402,283.3802603796792 M380.03525692175805,288.2893087937987 L393.8020146660166,282.181943530993 M407.58736067955977,277.2956616541727 L407.59079248363673,276.09751607136945 M393.7989624332402,283.3802603796792 L407.58736067955977,277.2956616541727 M393.8020146660166,282.181943530993 L407.59079248363673,276.09751607136945 M421.39624551230577,271.23426823803493 L421.4000572414834,270.0362933624496 M407.58736067955977,277.2956616541727 L421.39624551230577,271.23426823803493 M407.59079248363673,276.09751607136945 L421.4000572414834,270.0362933624496 M435.22405121926295,265.19638046549574 L435.2282431849802,263.9985757289144 M421.39624551230577,271.23426823803493 L435.22405121926295,265.19638046549574 M421.4000572414834,270.0362933624496 L435.2282431849802,263.9985757289144 M449.06923843657773,259.1822935687671 L449.0738109087116,257.98465839355646 M435.22405121926295,265.19638046549574 L449.06923843657773,259.1822935687671 M435.2282431849802,263.9985757289144 L449.0738109087116,257.98465839355646 M462.9302981959463,253.19231801169133 L462.93525140372503,251.99485181035558 M449.06923843657773,259.1822935687671 L462.9302981959463,253.19231801169133 M449.0738109087116,257.98465839355646 L462.93525140372503,251.99485181035558 M476.80580670486484,247.2267388483373 L476.811140839279,246.02944102422038 M462.9302981959463,253.19231801169133 L476.80580670486484,247.2267388483373 M462.93525140372503,251.99485181035558 L476.811140839279,246.02944102422038 M490.6944566417262,241.28581579944893 L490.70017185879806,240.0886857474372 M476.80580670486484,247.2267388483373 L490.6944566417262,241.28581579944893 M476.811140839279,246.02944102422038 L490.70017185879806,240.0886857474372 M504.59508462543806,235.36979910137177 L504.60118105024276,234.1728362081512 M490.6944566417262,241.28581579944893 L504.59508462543806,235.36979910137177 M490.70017185879806,240.0886857474372 L504.60118105024276,234.1728362081512 M518.5068232711593,229.47881918485518 L518.5133010059927,228.28202283228842 M504.59508462543806,235.36979910137177 L518.5068232711593,229.47881918485518 M504.60118105024276,234.1728362081512 L518.5133010059927,228.28202283228842 M532.4289563387817,223.61301980888112 L532.4358154673632,222.4163893736275 M518.5068232711593,229.47881918485518 L532.4289563387817,223.61301980888112 M518.5133010059927,228.28202283228842 L532.4358154673632,222.4163893736275 M546.3611998129584,217.77239605359958 L546.3684404123061,216.57593091132037 M532.4289563387817,223.61301980888112 L546.3611998129584,217.77239605359958 M532.4358154673632,222.4163893736275 L546.3684404123061,216.57593091132037 M560.3036269474404,211.95685993106642 L560.3112490976795,210.760559458782 M546.3611998129584,217.77239605359958 L560.3036269474404,211.95685993106642 M546.3684404123061,216.57593091132037 L560.3112490976795,210.760559458782 M574.2566952447374,206.16625634060347 L574.2646990396355,204.97011991860595 M560.3036269474404,211.95685993106642 L574.2566952447374,206.16625634060347 M560.3112490976795,210.760559458782 L574.2646990396355,204.97011991860595 M588.2214447452111,200.4002621787296 L588.2298303081046,199.20428919536005 M574.2566952447374,206.16625634060347 L588.2214447452111,200.4002621787296 M574.2646990396355,204.97011991860595 L588.2298303081046,199.20428919536005 M602.1995595747875,194.6583867871695 L602.208327076164,193.4625766435948 M588.2214447452111,200.4002621787296 L602.1995595747875,194.6583867871695 M588.2298303081046,199.20428919536005 L602.208327076164,193.4625766435948 M616.1932776173252,188.94006438199239 L616.202427289925,187.7444164943707 M602.1995595747875,194.6583867871695 L616.1932776173252,188.94006438199239 M602.208327076164,193.4625766435948 L616.202427289925,187.7444164943707 M630.2057127271062,183.24448158082393 L630.215244889771,182.04899538737374 M616.1932776173252,188.94006438199239 L630.2057127271062,183.24448158082393 M616.202427289925,187.7444164943707 L630.215244889771,182.04899538737374 M644.2407858138231,177.57068226588703 L644.2507008934482,176.37535723099376 M630.2057127271062,183.24448158082393 L644.2407858138231,177.57068226588703 M630.215244889771,182.04899538737374 L644.2507008934482,176.37535723099376 M644.5886838184433,208.62725483383446 L644.5986228600308,207.43104868017406 M644.2407858138231,177.57068226588703 L644.5886838184433,208.62725483383446 M644.2507008934482,176.37535723099376 L644.5986228600308,207.43104868017406 M632.0406328252843,214.20112359745804 L632.0502292562581,213.00475956736733 M644.5886838184433,208.62725483383446 L632.0406328252843,214.20112359745804 M644.5986228600308,207.43104868017406 L632.0502292562581,213.00475956736733 M619.4964525882642,219.78728589705128 L619.5057063408728,218.59076372234838 M632.0406328252843,214.20112359745804 L619.4964525882642,219.78728589705128 M632.0502292562581,213.00475956736733 L619.5057063408728,218.59076372234838 M606.953886275234,225.38616476012575 L606.9627972192733,224.18948416119136 M619.4964525882642,219.78728589705128 L606.953886275234,225.38616476012575 M619.5057063408728,218.59076372234838 L606.9627972192733,224.18948416119136 M594.4111234398348,230.9980461542283 L594.4196913947914,229.8012068439057 M606.953886275234,225.38616476012575 L594.4111234398348,230.9980461542283 M606.9627972192733,224.18948416119136 L594.4196913947914,229.8012068439057 M581.8669041627722,236.6229941208271 L581.875128912828,235.42599581071187 M594.4111234398348,230.9980461542283 L581.8669041627722,236.6229941208271 M594.4196913947914,229.8012068439057 L581.875128912828,235.42599581071187 M569.320233563248,242.26100943798627 L569.3281148645175,241.06385184021812 M581.8669041627722,236.6229941208271 L569.320233563248,242.26100943798627 M581.875128912828,235.42599581071187 L569.3281148645175,241.06385184021812 M556.7705194086524,247.91192821757403 L556.7780570001902,246.71461104948662 M569.320233563248,242.26100943798627 L556.7705194086524,247.91192821757403 M569.3281148645175,241.06385184021812 L556.7780570001902,246.71461104948662 M544.2174742510027,253.57547282091542 L544.2246678631578,252.37799580823824 M556.7705194086524,247.91192821757403 L544.2174742510027,253.57547282091542 M556.7780570001902,246.71461104948662 L544.2246678631578,252.37799580823824 M531.6610112797003,259.25129954659803 L531.6678606396364,258.05366242530386 M544.2174742510027,253.57547282091542 L531.6610112797003,259.25129954659803 M544.2246678631578,252.37799580823824 L531.6678606396364,258.05366242530386 M519.1012848477242,264.93896738449604 L519.1077896860587,263.74116990352564 M531.6610112797003,259.25129954659803 L519.1012848477242,264.93896738449604 M531.6678606396364,258.05366242530386 L519.1077896860587,263.74116990352564 M506.53862041896286,270.63796940547746 L506.54478047450107,269.4400113285715 M519.1012848477242,264.93896738449604 L506.53862041896286,270.63796940547746 M519.1077896860587,263.74116990352564 L506.54478047450107,269.4400113285715 M493.9735002889132,276.3477421964685 L493.97931531300117,275.1496233037295 M506.53862041896286,270.63796940547746 L493.9735002889132,276.3477421964685 M506.54478047450107,269.4400113285715 L493.97931531300117,275.1496233037295 M481.4065029767951,282.0676849437251 L481.4119727360162,280.86940503263804 M493.9735002889132,276.3477421964685 L481.4065029767951,282.0676849437251 M493.97931531300117,275.1496233037295 L481.4119727360162,280.86940503263804 M468.83824657652224,287.79719895623833 L468.8433708538464,286.5987578415764 M481.4065029767951,282.0676849437251 L468.83824657652224,287.79719895623833 M481.4119727360162,280.86940503263804 L468.8433708538464,286.5987578415764 M456.26947319599105,293.53562763080424 L456.2742517942414,292.33702514622235 M468.83824657652224,287.79719895623833 L456.26947319599105,293.53562763080424 M468.8433708538464,286.5987578415764 L456.2742517942414,292.33702514622235 M443.7009156726464,299.2823424322074 L443.70534841431447,298.08357842941564 M456.26947319599105,293.53562763080424 L443.7009156726464,299.2823424322074 M456.2742517942414,292.33702514622235 L443.70534841431447,298.08357842941564 M431.1333130894251,305.03671574991046 L431.13739981690514,303.83779009861166 M443.7009156726464,299.2823424322074 L431.1333130894251,305.03671574991046 M443.70534841431447,298.08357842941564 L431.13739981690514,303.83779009861166 M418.5673951454404,310.7981481289963 L418.57113572083745,309.59906071605855 M431.1333130894251,305.03671574991046 L418.5673951454404,310.7981481289963 M431.13739981690514,303.83779009861166 L418.57113572083745,309.59906071605855 M406.00385440730975,316.5660706144151 L406.0072487114784,315.36682134298167 M418.5673951454404,310.7981481289963 L406.00385440730975,316.5660706144151 M418.57113572083745,309.59906071605855 L406.0072487114784,315.36682134298167 M393.44335211433844,322.3399482390248 L393.44640004607885,321.1405370275276 M406.00385440730975,316.5660706144151 L393.44335211433844,322.3399482390248 M406.0072487114784,315.36682134298167 L393.44640004607885,321.1405370275276 M380.8864648028636,328.1193130704128 L380.88916627664173,326.91973985066227 M393.44335211433844,322.3399482390248 L380.8864648028636,328.1193130704128 M393.44640004607885,321.1405370275276 L380.88916627664173,326.91973985066227 M368.33372147372893,333.9037405125244 L368.3360764184131,332.70400522846796 M380.8864648028636,328.1193130704128 L368.33372147372893,333.9037405125244 M380.88916627664173,326.91973985066227 L368.3360764184131,332.70400522846796 M355.78555205207584,339.6928744501439 L355.78756040824555,338.4929770559242 M368.33372147372893,333.9037405125244 L355.78555205207584,339.6928744501439 M368.3360764184131,332.70400522846796 L355.78756040824555,338.4929770559242 M343.24229698626897,345.48644223030084 L343.2439587037803,344.2863826878991 M355.78555205207584,339.6928744501439 L343.24229698626897,345.48644223030084 M355.78756040824555,338.4929770559242 L343.2439587037803,344.2863826878991 M330.7041949919427,351.28424805350977 L330.7055100271443,350.08402633058085 M343.24229698626897,345.48644223030084 L330.7041949919427,351.28424805350977 M343.2439587037803,344.2863826878991 L330.7055100271443,350.08402633058085 M318.1713747929142,357.086186854481 L318.1723431056254,355.88580292180535 M330.7041949919427,351.28424805350977 L318.1713747929142,357.086186854481 M330.7055100271443,350.08402633058085 L318.1723431056254,355.88580292180535 M305.64386658245627,362.89223770582754 L305.6444881332502,361.69169153495505 M318.1713747929142,357.086186854481 L305.64386658245627,362.89223770582754 M318.1723431056254,355.88580292180535 L305.6444881332502,361.69169153495505 M293.12158580349217,368.7024731704101 L293.12186055052086,367.5017647310486 M305.64386658245627,362.89223770582754 L293.12158580349217,368.7024731704101 M305.6444881332502,361.69169153495505 L293.12186055052086,367.5017647310486 M280.60433272105666,374.5170732491744 L280.60426061685064,373.31620250619596 M293.12158580349217,368.7024731704101 L280.60433272105666,374.5170732491744 M293.12186055052086,367.5017647310486 L280.60426061685064,373.31620250619596 M268.0917741283631,380.3363131093219 L268.09135511611225,379.13528002011924 M280.60433272105666,374.5170732491744 L268.0917741283631,380.3363131093219 M280.60426061685064,373.31620250619596 L268.09135511611225,379.13528002011924 M255.58348647879563,386.1605839070389 L255.58272048981223,384.95938841830906 M268.0917741283631,380.3363131093219 L255.58348647879563,386.1605839070389 M268.09135511611225,379.13528002011924 L255.58272048981223,384.95938841830906 M243.07891678979422,391.99037881083393 L243.07780373987998,390.7890208557596 M255.58348647879563,386.1605839070389 L243.07891678979422,391.99037881083393 M255.58272048981223,384.95938841830906 L243.07780373987998,390.7890208557596 M230.57738860865868,397.8262987102842 L230.57592839462342,396.62477820556387 M243.07891678979422,391.99037881083393 L230.57738860865868,397.8262987102842 M243.07780373987998,390.7890208557596 L230.57592839462342,396.62477820556387 M218.07812777437135,403.6690693878318 L218.0763202712523,402.46738623024 M230.57738860865868,397.8262987102842 L218.07812777437135,403.6690693878318 M230.57592839462342,396.62477820556387 L218.0763202712523,402.46738623024 M205.58022727452715,409.5195206745899 L205.57807233182075,408.3176747381272 M218.07812777437135,403.6690693878318 L205.58022727452715,409.5195206745899 M218.0763202712523,402.46738623024 L205.57807233182075,408.3176747381272 M193.0826744543063,415.37861193829457 L193.0801718929393,414.1766030706363 M205.58022727452715,409.5195206745899 L193.0826744543063,415.37861193829457 M205.57807233182075,408.3176747381272 L193.0801718929393,414.1766030706363 M180.58433918429625,421.2474115177816 L180.5814887932566,420.04523953730865 M193.0826744543063,415.37861193829457 L180.58433918429625,421.2474115177816 M193.0801718929393,414.1766030706363 L180.5814887932566,420.04523953730865 M168.08396186056154,427.1271173803999 L168.0807633931791,425.9247820726636 M180.58433918429625,421.2474115177816 L168.08396186056154,427.1271173803999 M180.5814887932566,420.04523953730865 L168.0807633931791,425.9247820726636 M155.58018071045768,433.01905059512274 L155.5766338814298,431.8165517095016 M168.08396186056154,427.1271173803999 L155.58018071045768,433.01905059512274 M168.0807633931791,425.9247820726636 L155.5766338814298,431.8165517095016 M143.07150545738693,438.9246568238767 L143.06760993905732,437.7219940702009 M155.58018071045768,433.01905059512274 L143.07150545738693,438.9246568238767 M155.5766338814298,431.8165517095016 L143.06760993905732,437.7219940702009 M130.55630471243808,444.84552734996294 L130.55206013070642,443.6427003945659 M143.07150545738693,438.9246568238767 L130.55630471243808,444.84552734996294 M143.06760993905732,437.7219940702009 L130.55206013070642,443.6427003945659 M118.03283338689164,450.7833742029383 L118.02823931787259,449.5803826654097 M130.55630471243808,444.84552734996294 L118.03283338689164,450.7833742029383 M130.55206013070642,443.6427003945659 L118.02823931787259,449.5803826654097 M105.49918821928213,456.74005580773223 L105.49424418470721,455.5368992569698 M118.03283338689164,450.7833742029383 L105.49918821928213,456.74005580773223 M118.02823931787259,449.5803826654097 L105.49424418470721,455.5368992569698 M92.95333095810736,462.71758201135975 L92.94803642135241,461.5142599614942 M105.49918821928213,456.74005580773223 L92.95333095810736,462.71758201135975 M105.49424418470721,455.5368992569698 L92.94803642135241,461.5142599614942 M80.39305192651614,468.7181122246137 L80.38740628759626,467.51462413099796 M92.95333095810736,462.71758201135975 L80.39305192651614,468.7181122246137 M92.94803642135241,461.5142599614942 L80.38740628759626,467.51462413099796 M67.81595718479099,474.7439766037736 L67.80995977497321,473.54032185839895 M80.39305192651614,468.7181122246137 L67.81595718479099,474.7439766037736 M80.38740628759626,467.51462413099796 L67.80995977497321,473.54032185839895 M55.219475864660296,480.7976627335993 L55.21312594126175,479.5938406608935 M67.81595718479099,474.7439766037736 L55.219475864660296,480.7976627335993 M67.80995977497321,473.54032185839895 L55.21312594126175,479.5938406608935 M42.60083517652356,486.8818484050825 L42.5941319169828,485.67785825681773 M55.219475864660296,480.7976627335993 L42.60083517652356,486.8818484050825 M55.21312594126175,479.5938406608935 L42.5941319169828,485.67785825681773 M29.95701161317095,492.9994114370325 L29.949954107730832,491.7952523869781 M42.60083517652356,486.8818484050825 L29.95701161317095,492.9994114370325 M42.5941319169828,485.67785825681773 L29.949954107730832,491.7952523869781 M29.95701161317095,492.9994114370325 L-20.63400117600804,485.13354994668896 M29.949954107730832,491.7952523869781 L-20.64246547686855,483.9296080854183" stroke="black"  stroke-width="4"  fill="red"/>
<path d="M192.14342031900986,585.1515426693898 L192.14087182987475,583.9448509856243 M197.40947023324725,575.83426093145 L197.40707014683943,574.6278243255053 M192.14342031900986,585.1515426693898 L197.40947023324725,575.83426093145 M192.14087182987475,583.9448509856243 L197.40707014683943,574.6278243255053 M202.89849166553375,566.6010000876165 L202.8962460820016,565.3948164791327 M197.40947023324725,575.83426093145 L202.89849166553375,566.6010000876165 M197.40707014683943,574.6278243255053 L202.8962460820016,565.3948164791327 M208.61129336144324,557.4505213118196 L208.60920839750634,556.2445886484497 M202.89849166553375,566.6010000876165 L208.61129336144324,557.4505213118196 M202.8962460820016,565.3948164791327 L208.60920839750634,556.2445886484497 M214.54887676727202,548.3819810122684 L214.54695856163875,547.1762972589961 M208.61129336144324,557.4505213118196 L214.54887676727202,548.3819810122684 M208.60920839750634,556.2445886484497 L214.54695856163875,547.1762972589961 M220.7126838642588,539.39485960005 L220.71093858997335,538.1894227304151 M214.54887676727202,548.3819810122684 L220.7126838642588,539.39485960005 M214.54695856163875,547.1762972589961 L220.71093858997335,538.1894227304151 M227.10452458614623,530.4890666436245 L227.10295846088837,529.2838746280188 M220.7126838642588,539.39485960005 L227.10452458614623,530.4890666436245 M220.71093858997335,538.1894227304151 L227.10295846088837,529.2838746280188 M233.6938804927525,521.6566646729743 L233.69249887728057,520.4517156947129 M227.10452458614623,530.4890666436245 L233.6938804927525,521.6566646729743 M227.10295846088837,529.2838746280188 L233.69249887728057,520.4517156947129 M240.47835195818897,512.8963716790274 L240.4771601415418,511.6916639517522 M233.6938804927525,521.6566646729743 L240.47835195818897,512.8963716790274 M233.69249887728057,520.4517156947129 L240.4771601415418,511.6916639517522 M247.49783849940525,504.2184385467456 L247.49684287794167,503.0139699965893 M240.47835195818897,512.8963716790274 L247.49783849940525,504.2184385467456 M240.4771601415418,511.6916639517522 L247.49684287794167,503.0139699965893 M254.7607348893386,495.6257695930837 L254.7599420876562,494.4215380605305 M247.49783849940525,504.2184385467456 L254.7607348893386,495.6257695930837 M247.49684287794167,503.0139699965893 L254.7599420876562,494.4215380605305 M262.27291467715673,487.1210261806812 L262.27233147775047,485.9170294270746 M254.7607348893386,495.6257695930837 L262.27291467715673,487.1210261806812 M254.7599420876562,494.4215380605305 L262.27233147775047,485.9170294270746 M270.03828475375286,478.706701626677 L270.03791804225955,477.5029373386903 M262.27291467715673,487.1210261806812 L270.03828475375286,478.706701626677 M262.27233147775047,485.9170294270746 L270.03791804225955,477.5029373386903 M278.0591515730311,470.3851565974058 L278.05900829378027,469.18162239055795 M270.03828475375286,478.706701626677 L278.0591515730311,470.3851565974058 M270.03791804225955,477.5029373386903 L278.05900829378027,469.18162239055795 M286.3338290920048,462.1577085249154 L286.33391613708943,460.95440197231113 M278.0591515730311,470.3851565974058 L286.3338290920048,462.1577085249154 M278.05900829378027,469.18162239055795 L286.33391613708943,460.95440197231113 M294.8656864645577,454.0276204696653 L294.8660108147988,452.82453904805527 M286.3338290920048,462.1577085249154 L294.8656864645577,454.0276204696653 M286.33391613708943,460.95440197231113 L294.8660108147988,452.82453904805527 M303.6534944872535,445.996858726072 L303.6540630844891,444.7939998516004 M294.8656864645577,454.0276204696653 L303.6534944872535,445.996858726072 M294.8660108147988,452.82453904805527 L303.6540630844891,444.7939998516004 M312.6952329277555,438.0672826480212 L312.6960526531825,436.86464367910537 M303.6534944872535,445.996858726072 L312.6952329277555,438.0672826480212 M303.6540630844891,444.7939998516004 L312.6960526531825,436.86464367910537 M321.98816640745457,430.24063431645516 L321.9892440621167,429.0382125569682 M312.6952329277555,438.0672826480212 L321.98816640745457,430.24063431645516 M312.6960526531825,436.86464367910537 L321.9892440621167,429.0382125569682 M331.5289299748862,422.51854085200034 L331.53027226257063,421.31633355440533 M321.98816640745457,430.24063431645516 L331.5289299748862,422.51854085200034 M321.9892440621167,429.0382125569682 L331.53027226257063,421.31633355440533 M341.31357764679797,414.9024943667527 L341.31519115830434,413.7004987358108 M331.5289299748862,422.51854085200034 L341.31357764679797,414.9024943667527 M331.53027226257063,421.31633355440533 L341.31519115830434,413.7004987358108 M351.33757713445914,407.3938285529132 L351.3394683317391,406.19204175006 M341.31357764679797,414.9024943667527 L351.33757713445914,407.3938285529132 M341.31519115830434,413.7004987358108 L351.3394683317391,406.19204175006 M361.59607360407284,399.9937988860992 L361.5982488117144,398.7922180316076 M351.33757713445914,407.3938285529132 L361.59607360407284,399.9937988860992 M351.3394683317391,406.19204175006 L361.5982488117144,398.7922180316076 M372.0836226860653,392.7034395499593 L372.08608807536143,391.502061729099 M361.59607360407284,399.9937988860992 L372.0836226860653,392.7034395499593 M361.5982488117144,398.7922180316076 L372.08608807536143,391.502061729099 M382.7943655087608,385.5236145748262 L382.79712708664744,384.3224368426224 M372.0836226860653,392.7034395499593 L382.7943655087608,385.5236145748262 M372.08608807536143,391.502061729099 L382.79712708664744,384.3224368426224 M393.72199781852777,378.4549642756915 L393.72506141566083,377.2539836631947 M382.7943655087608,385.5236145748262 L393.72199781852777,378.4549642756915 M382.79712708664744,384.3224368426224 L393.72506141566083,377.2539836631947 M404.85980467045374,371.49791691132395 L404.86317593024637,370.2971304315781 M393.72199781852777,378.4549642756915 L404.85980467045374,371.49791691132395 M393.72506141566083,377.2539836631947 L404.86317593024637,370.2971304315781 M416.20079407893684,364.65270710887313 L416.20447845029867,363.45211176238877 M404.85980467045374,371.49791691132395 L416.20079407893684,364.65270710887313 M404.86317593024637,370.2971304315781 L416.20447845029867,363.45211176238877 M427.73773826905654,357.9193822232624 L427.7417410002648,356.7189750033304 M416.20079407893684,364.65270710887313 L427.73773826905654,357.9193822232624 M416.20447845029867,363.45211176238877 L427.7417410002648,356.7189750033304 M439.4632107791425,351.29779725605636 L439.4675369127266,350.0975751542201 M427.73773826905654,357.9193822232624 L439.4632107791425,351.29779725605636 M427.7417410002648,356.7189750033304 L439.4675369127266,350.0975751542201 M451.3696145601824,344.78761374877473 L451.37426892856854,343.58757376034987 M439.4632107791425,351.29779725605636 L451.3696145601824,344.78761374877473 M439.4675369127266,350.0975751542201 L451.37426892856854,343.58757376034987 M463.44860126677725,338.38788687189395 L463.4535884717516,337.1880260130638 M451.3696145601824,344.78761374877473 L463.44860126677725,338.38788687189395 M451.37426892856854,343.58757376034987 L463.4535884717516,337.1880260130638 M475.6927108800579,332.0981051193322 L475.6980353178109,330.89842041516545 M463.44860126677725,338.38788687189395 L475.6927108800579,332.0981051193322 M463.4535884717516,337.1880260130638 L475.6980353178109,330.89842041516545 M488.09402100831846,325.91725446631773 L488.0996868568774,324.7177429649805 M475.6927108800579,332.0981051193322 L488.09402100831846,325.91725446631773 M475.6980353178109,330.89842041516545 L488.0996868568774,324.7177429649805 M500.6445183020097,319.8441229440128 L500.65052951899065,318.6447817224765 M488.09402100831846,325.91725446631773 L500.6445183020097,319.8441229440128 M488.0996868568774,324.7177429649805 L500.65052951899065,318.6447817224765 M513.3362468693551,313.8772239292943 L513.3426071937677,312.6780501012083 M500.6445183020097,319.8441229440128 L513.3362468693551,313.8772239292943 M500.65052951899065,318.6447817224765 L513.3426071937677,312.6780501012083 M526.1611930375341,308.01485804349414 L526.1679059883842,306.8158487653383 M513.3362468693551,313.8772239292943 L526.1611930375341,308.01485804349414 M513.3426071937677,312.6780501012083 L526.1679059883842,306.8158487653383 M539.1114372310848,302.25502063170086 L539.1185061101123,301.0561731115481 M526.1611930375341,308.01485804349414 L539.1114372310848,302.25502063170086 M526.1679059883842,306.8158487653383 L539.1185061101123,301.0561731115481 M552.1747948798517,296.5921991298341 L552.1822226527416,295.3935107261436 M539.1114372310848,302.25502063170086 L552.1747948798517,296.5921991298341 M539.1185061101123,301.0561731115481 L552.1822226527416,295.3935107261436 M565.3467562535524,291.02618164883063 L565.3545457638196,289.82764972178865 M552.1747948798517,296.5921991298341 L565.3467562535524,291.02618164883063 M552.1822226527416,295.3935107261436 L565.3545457638196,289.82764972178865 M578.6193243500885,285.5537277723924 L578.627478221872,284.35534976920104 M565.3467562535524,291.02618164883063 L578.6193243500885,285.5537277723924 M565.3545457638196,289.82764972178865 L578.627478221872,284.35534976920104 M591.9844010974591,280.17107986090514 L591.9929217326068,278.9728533305928 M578.6193243500885,285.5537277723924 L591.9844010974591,280.17107986090514 M578.627478221872,284.35534976920104 L591.9929217326068,278.9728533305928 M605.4338511842632,274.8737503451851 L605.4427407610357,273.6756729594333 M591.9844010974591,280.17107986090514 L605.4338511842632,274.8737503451851 M591.9929217326068,278.9728533305928 L605.4427407610357,273.6756729594333 M618.9591042627893,269.6564780018659 L618.9683647234976,268.45854757710964 M605.4338511842632,274.8737503451851 L618.9591042627893,269.6564780018659 M605.4427407610357,273.6756729594333 L618.9683647234976,268.45854757710964 M632.5690939241713,264.5282164812209 L632.5787274641285,263.3304305782925 M618.9591042627893,269.6564780018659 L632.5690939241713,264.5282164812209 M618.9683647234976,268.45854757710964 L632.5787274641285,263.3304305782925 M646.2610768013682,259.48783289264145 L646.2710855427222,258.29018910080583 M632.5690939241713,264.5282164812209 L646.2610768013682,259.48783289264145 M632.5787274641285,263.3304305782925 L646.2710855427222,258.29018910080583 M660.0331523372367,254.5342819906649 L660.0435383522888,253.3367779252659 M646.2610768013682,259.48783289264145 L660.0331523372367,254.5342819906649 M646.2710855427222,258.29018910080583 L660.0435383522888,253.3367779252659 M673.8841577561163,249.6667254810812 L673.8949230877844,248.4693587778115 M660.0331523372367,254.5342819906649 L673.8841577561163,249.6667254810812 M660.0435383522888,253.3367779252659 L673.8949230877844,248.4693587778115 M687.8139602718412,244.88437586838626 L687.8251069620839,243.6871441819526 M673.8841577561163,249.6667254810812 L687.8139602718412,244.88437586838626 M673.8949230877844,248.4693587778115 L687.8251069620839,243.6871441819526 M701.8232234590236,240.18668565202796 L701.8347535709015,238.98958664946556 M687.8139602718412,244.88437586838626 L701.8232234590236,240.18668565202796 M687.8251069620839,243.6871441819526 L701.8347535709015,238.98958664946556 M637.4129502095956,288.9051788999744 L637.4227284011334,287.7067066213063 M701.8232234590236,240.18668565202796 L637.4129502095956,288.9051788999744 M701.8347535709015,238.98958664946556 L637.4227284011334,287.7067066213063 M628.6555869177639,293.70513991912173 L628.6651254833353,292.50653266898314 M637.4129502095956,288.9051788999744 L628.6555869177639,293.70513991912173 M637.4227284011334,287.7067066213063 L628.6651254833353,292.50653266898314 M619.9377402211372,298.5326687914586 L619.9470401561126,297.3339258543217 M628.6555869177639,293.70513991912173 L619.9377402211372,298.5326687914586 M628.6651254833353,292.50653266898314 L619.9470401561126,297.3339258543217 M611.2568446742553,303.38612767978475 L611.2659069022559,302.1872483871505 M619.9377402211372,298.5326687914586 L611.2568446742553,303.38612767978475 M619.9470401561126,297.3339258543217 L611.2659069022559,302.1872483871505 M602.6110887463764,308.26432286667495 L602.6199141403034,307.0653065845284 M611.2568446742553,303.38612767978475 L602.6110887463764,308.26432286667495 M611.2659069022559,302.1872483871505 L602.6199141403034,307.0653065845284 M593.9991052777449,313.1664194832876 L594.0076946722191,311.9672656019721 M602.6110887463764,308.26432286667495 L593.9991052777449,313.1664194832876 M602.6199141403034,307.0653065845284 L594.0076946722191,311.9672656019721 M585.4199535093649,318.09180606205746 L585.4283077126087,316.89251398997067 M593.9991052777449,313.1664194832876 L585.4199535093649,318.09180606205746 M594.0076946722191,311.9672656019721 L585.4283077126087,316.89251398997067 M576.8691468883782,323.0378300617247 L576.8772665834157,321.83839928251945 M585.4199535093649,318.09180606205746 L576.8691468883782,323.0378300617247 M585.4283077126087,316.89251398997067 L576.8772665834157,321.83839928251945 M568.3509050827159,328.00683666474964 L568.3587910699896,326.8072665971409 M576.8691468883782,323.0378300617247 L568.3509050827159,328.00683666474964 M576.8772665834157,321.83839928251945 L568.3587910699896,326.8072665971409 M559.8647908510011,332.99853549566024 L559.872443918624,331.79882556737664 M568.3509050827159,328.00683666474964 L559.8647908510011,332.99853549566024 M568.3587910699896,326.8072665971409 L559.872443918624,331.79882556737664 M551.4106014006937,338.01269716639047 L551.4180223309648,336.81284681245575 M559.8647908510011,332.99853549566024 L551.4106014006937,338.01269716639047 M559.872443918624,331.79882556737664 L551.4180223309648,336.81284681245575 M542.9882303994262,343.04918300136205 L542.995419971541,341.8491916615485 M551.4106014006937,338.01269716639047 L542.9882303994262,343.04918300136205 M551.4180223309648,336.81284681245575 L542.995419971541,341.8491916615485 M534.5976951585111,348.10790653557723 L534.6046541520088,346.907773652942 M542.9882303994262,343.04918300136205 L534.5976951585111,348.10790653557723 M542.995419971541,341.8491916615485 L534.6046541520088,346.907773652942 M526.2390930506375,353.18882680036336 L526.245822247643,351.98855181997527 M534.5976951585111,348.10790653557723 L526.2390930506375,353.18882680036336 M534.6046541520088,346.907773652942 L526.245822247643,351.98855181997527 M517.9126250250632,358.29192563681033 L517.919125213171,357.09150800511435 M526.2390930506375,353.18882680036336 L517.9126250250632,358.29192563681033 M526.245822247643,351.98855181997527 L517.919125213171,357.09150800511435 M509.618102179626,363.4169797175283 L509.6243741410533,362.21641888807966 M517.9126250250632,358.29192563681033 L509.618102179626,363.4169797175283 M517.919125213171,357.09150800511435 L509.6243741410533,362.21641888807966 M501.3564788398444,368.56434713985055 L501.3625233832803,367.3636425570727 M509.618102179626,363.4169797175283 L501.3564788398444,368.56434713985055 M509.6243741410533,362.21641888807966 L501.3625233832803,367.3636425570727 M493.1280491700087,373.73408092409727 L493.1338671122521,372.5332320318185 M501.3564788398444,368.56434713985055 L493.1280491700087,373.73408092409727 M501.3625233832803,367.3636425570727 L493.1338671122521,372.5332320318185 M484.93326197640647,378.9261954658415 L484.93885414665294,377.7252017083793 M493.1280491700087,373.73408092409727 L484.93326197640647,378.9261954658415 M493.1338671122521,372.5332320318185 L484.93885414665294,377.7252017083793 M476.77251580416987,384.1407761084788 L476.7778830426538,382.939636928666 M484.93326197640647,378.9261954658415 L476.77251580416987,384.1407761084788 M484.93885414665294,377.7252017083793 L476.7778830426538,382.939636928666 M468.64634423631105,389.37787645394684 L468.6514873980558,388.17659129402495 M476.77251580416987,384.1407761084788 L468.64634423631105,389.37787645394684 M476.7778830426538,382.939636928666 L468.6514873980558,388.17659129402495 M460.55525400973715,394.63758003322266 L460.5601739638355,393.4361483340147 M468.64634423631105,389.37787645394684 L460.55525400973715,394.63758003322266 M468.6514873980558,388.17659129402495 L460.5601739638355,393.4361483340147 M452.49980804852953,399.91997521160397 L452.50450567972007,398.71839641238864 M460.55525400973715,394.63758003322266 L452.49980804852953,399.91997521160397 M460.5601739638355,393.4361483340147 L452.50450567972007,398.71839641238864 M444.4805698033862,405.22513231001216 L444.48504601208185,404.0234058490345 M452.49980804852953,399.91997521160397 L444.4805698033862,405.22513231001216 M452.50450567972007,398.71839641238864 L444.48504601208185,404.0234058490345 M436.49809950160727,410.5531287547598 L436.5023552038258,409.3512540690415 M444.4805698033862,405.22513231001216 L436.49809950160727,410.5531287547598 M444.48504601208185,404.0234058490345 L436.5023552038258,409.3512540690415 M428.5529698941741,415.9040307645569 L428.557006021903,414.70200729021593 M436.49809950160727,410.5531287547598 L428.5529698941741,415.9040307645569 M436.5023552038258,409.3512540690415 L428.557006021903,414.70200729021593 M420.64573851430384,421.27789561612366 L420.64955601509496,420.07572278863046 M428.5529698941741,415.9040307645569 L420.64573851430384,421.27789561612366 M428.557006021903,414.70200729021593 L420.64955601509496,420.07572278863046 M412.77695570793765,426.67478538479475 L412.78055554472826,425.4724626388464 M420.64573851430384,421.27789561612366 L412.77695570793765,426.67478538479475 M420.64955601509496,420.07572278863046 L412.78055554472826,425.4724626388464 M404.9471247868248,432.09474859827617 L404.9505079366485,430.89227536817975 M412.77695570793765,426.67478538479475 L404.9471247868248,432.09474859827617 M412.78055554472826,425.4724626388464 L404.9505079366485,430.89227536817975 M397.15674971451426,437.53782479521027 L397.15991716853557,436.3352005151391 M404.9471247868248,432.09474859827617 L397.15674971451426,437.53782479521027 M404.9505079366485,430.89227536817975 L397.15991716853557,436.3352005151391 M389.40630738103823,443.0040605830124 L389.40926014382154,441.80128468681625 M397.15674971451426,437.53782479521027 L389.40630738103823,443.0040605830124 M397.15991716853557,436.3352005151391 L389.40926014382154,441.80128468681625 M381.69623950429667,448.49348667272363 L381.6989785928438,447.29055859437636 M389.40630738103823,443.0040605830124 L381.69623950429667,448.49348667272363 M389.40926014382154,441.80128468681625 L381.6989785928438,447.29055859437636 M374.0269666593099,454.0061465826307 L374.0294931024922,452.80306575588065 M381.69623950429667,448.49348667272363 L374.0269666593099,454.0061465826307 M381.6989785928438,447.29055859437636 L374.0294931024922,452.80306575588065 M366.3987845338387,459.5420276508446 L366.40109936893367,458.33879351077763 M374.0269666593099,454.0061465826307 L366.3987845338387,459.5420276508446 M374.0294931024922,452.80306575588065 L366.40109936893367,458.33879351077763 M358.81211105098356,465.101194398994 L358.8142153271004,463.8978063799003 M366.3987845338387,459.5420276508446 L358.81211105098356,465.101194398994 M366.40109936893367,458.33879351077763 L358.8142153271004,463.8978063799003 M351.2673204373832,470.6837003511467 L351.2692152142622,469.48015788683307 M358.81211105098356,465.101194398994 L351.2673204373832,470.6837003511467 M358.8142153271004,463.8978063799003 L351.2692152142622,469.48015788683307 M343.76478356506976,476.2896107602964 L343.76646991300595,475.08591328376946 M351.2673204373832,470.6837003511467 L343.76478356506976,476.2896107602964 M351.2692152142622,469.48015788683307 L343.76646991300595,475.08591328376946 M336.30491278203124,481.91902281173293 L336.30639178304796,480.7151697543242 M343.76478356506976,476.2896107602964 L336.30491278203124,481.91902281173293 M343.76646991300595,475.08591328376946 L336.30639178304796,480.7151697543242 M328.88814894710566,487.5720547504194 L328.8894216957656,486.36804554121437 M336.30491278203124,481.91902281173293 L328.88814894710566,487.5720547504194 M336.30639178304796,480.7151697543242 L328.8894216957656,486.36804554121437 M321.51502473936733,493.24887391979144 L321.5160923453498,492.04470798428497 M328.88814894710566,487.5720547504194 L321.51502473936733,493.24887391979144 M328.8894216957656,486.36804554121437 L321.5160923453498,492.04470798428497 M314.1861811551117,498.94970583985065 L314.1870447462519,497.74538259835646 M321.51502473936733,493.24887391979144 L314.1861811551117,498.94970583985065 M321.5160923453498,492.04470798428497 L314.1870447462519,497.74538259835646 M306.89914692790876,504.6734470494558 L306.89980756339673,503.46896595376603 M314.1861811551117,498.94970583985065 L306.89914692790876,504.6734470494558 M314.1870447462519,497.74538259835646 L306.89980756339673,503.46896595376603 M299.6571141595482,510.4214235373724 L299.65757298790936,509.2167840037492 M306.89914692790876,504.6734470494558 L299.6571141595482,510.4214235373724 M306.89980756339673,503.46896595376603 L299.65757298790936,509.2167840037492 M292.4611664806794,516.1940506782037 L292.4614246809948,514.9892521125419 M299.6571141595482,510.4214235373724 L292.4611664806794,516.1940506782037 M299.65757298790936,509.2167840037492 L292.4614246809948,514.9892521125419 M285.31278343987793,521.991913754948 L285.3128422328585,520.7869555481273 M292.4611664806794,516.1940506782037 L285.31278343987793,521.991913754948 M292.4614246809948,514.9892521125419 L285.3128422328585,520.7869555481273 M278.2140482866796,527.8158147252068 L278.21390895154735,526.6106962471702 M285.31278343987793,521.991913754948 L278.2140482866796,527.8158147252068 M285.3128422328585,520.7869555481273 L278.21390895154735,526.6106962471702 M271.1679318051913,533.6669141174864 L271.16759570449665,532.4616347074339 M278.2140482866796,527.8158147252068 L271.1679318051913,533.6669141174864 M278.21390895154735,526.6106962471702 L271.16759570449665,532.4616347074339 M264.17876402811777,539.5468664419011 L264.1782326457456,538.341425394789 M271.1679318051913,533.6669141174864 L264.17876402811777,539.5468664419011 M271.16759570449665,532.4616347074339 L264.1782326457456,538.341425394789 M257.22857005369343,545.4484437350081 L257.22784437215023,544.2428405456285 M264.17876402811777,539.5468664419011 L257.22857005369343,545.4484437350081 M264.1782326457456,538.341425394789 L257.22784437215023,544.2428405456285 M250.3421427983438,551.3814188496708 L250.3412244928142,550.1756527455186 M257.22857005369343,545.4484437350081 L250.3421427983438,551.3814188496708 M257.22784437215023,544.2428405456285 L250.3412244928142,550.1756527455186 M250.3421427983438,551.3814188496708 L192.14342031900986,585.1515426693898 M250.3412244928142,550.1756527455186 L192.14087182987475,583.9448509856243" stroke="black"  stroke-width="4"  fill="red"/></svg>